<svg xmlns="http://www.w3.org/2000/svg" xmlns:xlink="http://www.w3.org/1999/xlink" width="1220" height="686" viewBox="0 0 1220 686">
  <defs>
    <clipPath id="clip-path">
      <rect id="Rectángulo_431" data-name="Rectángulo 431" width="1220" height="686" rx="37" transform="translate(350 197)" fill="#fff" stroke="#707070" stroke-width="1"/>
    </clipPath>
    <clipPath id="clip-path-2">
      <rect id="Rectángulo_405" data-name="Rectángulo 405" width="1393" height="784" transform="translate(1393.536 784.339) rotate(180)" fill="none"/>
    </clipPath>
    <clipPath id="clip-path-3">
      <rect id="Rectángulo_403" data-name="Rectángulo 403" width="1453.314" height="1012.591" transform="translate(1453.314 1012.591) rotate(180)" fill="none"/>
    </clipPath>
    <linearGradient id="linear-gradient" x1="-1.105" y1="0.409" x2="-1.101" y2="-0.176" gradientUnits="objectBoundingBox">
      <stop offset="0.07" stop-color="#b9e3ea"/>
      <stop offset="0.84" stop-color="#6ecbd8"/>
    </linearGradient>
    <linearGradient id="linear-gradient-2" x1="-0.797" y1="-0.556" x2="-0.795" y2="1.782" gradientUnits="objectBoundingBox">
      <stop offset="0.08" stop-color="#6ec7c7"/>
      <stop offset="0.44" stop-color="#71c7c3"/>
      <stop offset="0.77" stop-color="#7ac5b8"/>
      <stop offset="1" stop-color="#85c4ac"/>
    </linearGradient>
    <linearGradient id="linear-gradient-3" x1="-74.633" y1="0.5" x2="-73.633" y2="0.5" xlink:href="#linear-gradient-2"/>
    <linearGradient id="linear-gradient-4" x1="0.502" y1="0.187" x2="0.488" y2="1.104" gradientUnits="objectBoundingBox">
      <stop offset="0" stop-opacity="0.102"/>
      <stop offset="1" stop-opacity="0.2"/>
    </linearGradient>
  </defs>
  <g id="Grupo_552" data-name="Grupo 552" transform="translate(-350 -197)">
    <g id="Enmascarar_grupo_6" data-name="Enmascarar grupo 6" clip-path="url(#clip-path)">
      <g id="Fondos_Categorias-03" transform="translate(176.463 98.661)" clip-path="url(#clip-path-2)">
        <g id="Grupo_386" data-name="Grupo 386" transform="translate(-28.938 -22.07)" clip-path="url(#clip-path-3)">
          <rect id="Rectángulo_402" data-name="Rectángulo 402" width="1453.314" height="1012.591" transform="translate(1453.314 1012.591) rotate(180)" fill="url(#linear-gradient)"/>
          <path id="Trazado_24589" data-name="Trazado 24589" d="M1586.446,232.216s-59.93-36.21-122.124-38.17-184.354,78.293-252.173,46-64.451-84.193-33.924-122.334,87.1-5.872,87.1-5.872-4.522-34.251-58.79-40.122-122.124,0-166.209,110.584-128.961,45.972-157.231,9.791-96.118-77.313-166.209,4.892S634.314,323.225,598.133,299.738s-137.961-81.225-199.023,9.827l22.616,77.313S1689.358,502.353,1689.358,495.5,1586.446,232.216,1586.446,232.216Z" transform="translate(-80.504 2.77)" fill="#ceebf4" opacity="0.52"/>
          <path id="Trazado_24590" data-name="Trazado 24590" d="M745.3-21.748c13.362,19.2,7.548,51.068-11.831,65.257-28.633,20.968-49.558,4.761-49.558,4.761C702.626,52.088,727.956,27.3,702.626,11.1S603.51,7.291,581.482,79.727s-139.674,70-185.022,21.919C308.021,7.865,199.39,13.751,199.39,13.751c42.953,38.1,16.519,95.291-57.295,106.729C94.685,127.833,36.359,115.11-21.77,98.249-54.09,88.872-17.052-29.26-17.052-29.26Z" transform="translate(38.529 30.037)" fill="#ceebf4" opacity="0.74"/>
          <path id="Trazado_24591" data-name="Trazado 24591" d="M1456.766,411.425s-292.8,15.082-443.089-6.859S681.985,301.713,536.9,341.487,371.065,394.971,277.792,364.8s-147.694-30.172-235.8,1.372S-289.7,415.526-289.7,415.526V580.037H1464.54Z" transform="translate(108.365 -68.65)" fill="#649cb6"/>
          <path id="Trazado_24592" data-name="Trazado 24592" d="M1456.766,411.425s-292.8,15.082-443.089-6.859S681.985,301.713,536.9,341.487,371.065,394.971,277.792,364.8s-147.694-30.172-235.8,1.372S-289.7,415.526-289.7,415.526V580.037l1741.24,134.818Z" transform="translate(108.365 -68.65)" fill="url(#linear-gradient-2)"/>
          <path id="Trazado_24593" data-name="Trazado 24593" d="M761.51,384.3c222.5,27.987,289.052-11.018,305.506-25.49q15.2,3.39,30.4,7.055l3.15,1.452C915.78,460.56,761.51,384.3,761.51,384.3Z" transform="translate(-179.872 -76.37)" fill="#5eadab"/>
          <path id="Trazado_24594" data-name="Trazado 24594" d="M1061.641,346.854c-16.8,12.135-64.821,30.89-197.361,18.951,0,0,97.432-1.452,163.1-24.975C1038.756,342.594,1050.18,344.626,1061.641,346.854Z" transform="translate(-208.051 -71.44)" fill="#5eadab"/>
          <path id="Trazado_24595" data-name="Trazado 24595" d="M1171.958,383.42s-229.717,119.518-422.128,35.6c0,0,207.674,110.192,455.181-23.734Z" transform="translate(-176.67 -83.118)" fill="#5eadab"/>
          <path id="Trazado_24596" data-name="Trazado 24596" d="M438.257,385.363C279.538,437.621,205.6,388.056,205.6,388.056c91.451,17.9,177.22-.486,210.28-9.356C423.82,381.24,431.245,383.461,438.257,385.363Z" transform="translate(-27.444 -81.824)" fill="#5eadab"/>
          <path id="Trazado_24597" data-name="Trazado 24597" d="M405.986,362.921c-17.753,5.415-62.26,16.251-116.3,9.087,0,0,63.072-2.954,93.36-14.748C390.475,358.886,398.1,360.773,405.986,362.921Z" transform="translate(-50.501 -75.946)" fill="#5eadab"/>
          <path id="Trazado_24598" data-name="Trazado 24598" d="M758.25,715.229S340.034,508.615-94.65,394.62V856.3Z" transform="translate(54.883 -86.189)" fill="#9db386"/>
          <path id="Trazado_24599" data-name="Trazado 24599" d="M79.428,422.126,55.245,404.184l17.274-2.243-40.6-30.651H54.381L-8.677,318.22-23.36,389.233l14.683-8.971L-23.36,431.1l20.729-7.476-14.683,59.051H82.02Z" transform="translate(35.336 -65.241)" fill="#6f8655"/>
          <path id="Trazado_24600" data-name="Trazado 24600" d="M53.36,485.291c0,42.96,9.312,73.132,47.366,73.132s46.285-30.172,46.285-73.132-8.267-69.4-46.285-69.4S53.36,442.331,53.36,485.291Z" transform="translate(14.299 -92.022)" fill="#ae9665"/>
          <path id="Trazado_24601" data-name="Trazado 24601" d="M700.36,621.374l29.569-30.222-16.345.53,33.525-42.626-15.046,7.1s19.7-31.79,32.923-61.483l33.387,54.617-15.4-5.168,27.675,46.306-10.923-.588,14.756,51.445L690.25,645.3Z" transform="translate(-160.333 -113.623)" fill="#6f8655"/>
          <path id="Trazado_24602" data-name="Trazado 24602" d="M713.565,607.549l16.345-.53-29.569,30.222L690.18,661.193l120.868,14.465c.051-1.343,2.177-21.135,2.177-22.5l-11.4-40.043c-10.292-5.451-22.58-11.439-22.58-11.439l-18.791,19.64-3.876-15.242-29.874,17.8s19.5-24.786,21.114-27.036-26.8,8.187-26.8,8.187l38.9-52.49-27.835,19.488,15.046-7.1Z" transform="translate(-160.314 -129.49)" fill="#5b6e46"/>
          <path id="Trazado_24603" data-name="Trazado 24603" d="M90.009,487.673l-27.225,4.355,30.956-48.883L73.33,450.7l24.989-35.47-22.4,7.81,25.047-41.11L80.6,385.189l32.211-47.177-15.242,5.661L133.8,290c-.864,2.243,30.237,54.566,30.237,54.566L148.8,341.8l27.1,41.5-22.253-1.372,28.51,38.119-19.466-6.917c12.847,20.192,25.142,39.034,25.142,39.034l-20.323-3.709,22.732,41.051-29.758-1.836L198.6,538.646l-75.172,87.721-66.9-83.722Z" transform="translate(13.433 -57.503)" fill="#819a6d"/>
          <path id="Trazado_24604" data-name="Trazado 24604" d="M88.216,557.815l15.706-13.064L88.68,587.326l19.633-16.991-7.142,44.8s28.553-20.852,37.481-18.537,13.384,36.29,13.384,36.29-18.74,34.752-29.446,33.982c-3.477-.254-12.694-.726-23.727-1.379L56.52,612.5l33.489-54.972Z" transform="translate(13.433 -127.355)" fill="#677a57"/>
          <path id="Trazado_24605" data-name="Trazado 24605" d="M124.1,329.057,92.861,377.715,114.28,362.27,94.647,409.382l15.177-12.36L96.432,434.1l16.955-13.13L87.693,488.415,65.15,492.022l30.956-48.9-20.41,7.57,24.989-35.47-22.4,7.81,25.048-41.11-20.366,3.252L115.18,338,99.916,343.66l36.239-53.68L109.823,333.7Z" transform="translate(11.067 -57.498)" fill="#677a57"/>
          <path id="Trazado_24606" data-name="Trazado 24606" d="M-23.9,589.9c0,42.96,9.312,73.125,47.359,73.125S69.751,632.862,69.751,589.9s-8.245-69.4-46.292-69.4S-23.9,546.941-23.9,589.9Z" transform="translate(35.484 -120.705)" fill="#c8b68f"/>
          <path id="Trazado_24607" data-name="Trazado 24607" d="M285.5,541.937c0,55.814,9.319,95.015,47.366,95.015s46.285-39.193,46.285-95.015-8.238-90.167-46.285-90.167S285.5,486.13,285.5,541.937Z" transform="translate(-49.352 -101.86)" fill="#c8b68f"/>
          <path id="Trazado_24608" data-name="Trazado 24608" d="M-48.3,345.11,4.416,447.753l-24.9-16.468L5.882,506.05l-23.429-15.213,32.211,82.372L-8.765,556.733.025,585.881l-98.107,54.486L-117.12,345.11Z" transform="translate(61.044 -72.614)" fill="#819a6d"/>
          <path id="Trazado_24609" data-name="Trazado 24609" d="M35.561,529.735,12.132,514.522l32.211,82.372L20.914,580.418,29.7,609.566,10.521,620.221l-.058-.051L3.43,560.828l31.645,24.343L-.091,497.683,29.8,519.748-8.88,431.49l42.975,39.948L9.2,454.97Z" transform="translate(31.365 -96.299)" fill="#9ebd86"/>
          <path id="Trazado_24610" data-name="Trazado 24610" d="M418.09,639.861c0,42.96,9.312,73.125,47.359,73.125s46.292-30.164,46.292-73.125-8.238-69.4-46.292-69.4S418.09,596.9,418.09,639.861Z" transform="translate(-85.708 -134.404)" fill="#a6936d"/>
          <path id="Trazado_24611" data-name="Trazado 24611" d="M836.63,707.781c0,42.96,9.312,73.132,47.359,73.132s46.284-30.179,46.284-73.132-8.238-69.4-46.284-69.4S836.63,664.814,836.63,707.781Z" transform="translate(-200.47 -153.027)" fill="#8d7d57"/>
          <path id="Trazado_24612" data-name="Trazado 24612" d="M652.19,684.961c0,42.96,9.319,73.125,47.366,73.125s46.285-30.164,46.285-73.125-8.238-69.4-46.285-69.4S652.19,642.008,652.19,684.961Z" transform="translate(-149.897 -146.77)" fill="#ae9665"/>
          <path id="Trazado_24613" data-name="Trazado 24613" d="M746.1,667.369c5.952,41.226-6.888,66.861-39.992,68.32-35.085,1.546-45-28.219-46.894-71.129-.261-6-1.306-10.887,1.72-16.49,37.6,12.121,40.979,53.8,40.979,53.8C716.023,675.81,736.185,668.9,746.1,667.369Z" transform="translate(-151.717 -155.684)" fill="#968257"/>
          <path id="Trazado_24614" data-name="Trazado 24614" d="M637.729,752.881l-61.214,6.881L427,751.5l-100.778-6.757-31.21-17.332-13.522,30.97-51.692,11.7-39.76-11.01-83.468-4.13s-8.775-8.281-11.163-7.556-35.782-5.5-35.782-5.5S42.933,704.724,40.545,706.1s-19.089,11.7-19.089,11.7l-61.229-8.964L-138.4,719.85l-6.358,181.676,827.78-77.08Z" transform="translate(68.623 -171.585)" fill="#889c76"/>
          <path id="Trazado_24615" data-name="Trazado 24615" d="M558.92,721.887c0,43.251,20.322,94.355,49.739,94.355s56.816-51.111,56.816-94.355S647,645.322,612.194,643.573C582.814,642.071,558.92,678.637,558.92,721.887Z" transform="translate(-124.323 -154.439)" fill="#9db386"/>
          <ellipse id="Elipse_508" data-name="Elipse 508" cx="7.606" cy="6.583" rx="7.606" ry="6.583" transform="translate(501.088 531.18)" fill="#afc894"/>
          <ellipse id="Elipse_509" data-name="Elipse 509" cx="7.606" cy="6.583" rx="7.606" ry="6.583" transform="translate(512.919 549.47)" fill="#afc894"/>
          <ellipse id="Elipse_510" data-name="Elipse 510" cx="7.606" cy="6.583" rx="7.606" ry="6.583" transform="translate(493.474 562.636)" fill="#afc894"/>
          <ellipse id="Elipse_511" data-name="Elipse 511" cx="53.274" cy="78.314" rx="53.274" ry="78.314" transform="translate(122.392 442.82)" fill="#9db386"/>
          <ellipse id="Elipse_512" data-name="Elipse 512" cx="7.606" cy="6.583" rx="7.606" ry="6.583" transform="translate(172.132 448.184)" fill="#a6be8e"/>
          <ellipse id="Elipse_513" data-name="Elipse 513" cx="7.606" cy="6.583" rx="7.606" ry="6.583" transform="translate(190.727 460.617)" fill="#a6be8e"/>
          <ellipse id="Elipse_514" data-name="Elipse 514" cx="7.606" cy="6.583" rx="7.606" ry="6.583" transform="translate(171.29 465.008)" fill="#a6be8e"/>
          <ellipse id="Elipse_515" data-name="Elipse 515" cx="46.822" cy="70.541" rx="46.822" ry="70.541" transform="translate(542.263 598.755) rotate(-74.5)" fill="#889c76"/>
          <ellipse id="Elipse_516" data-name="Elipse 516" cx="7.606" cy="6.583" rx="7.606" ry="6.583" transform="translate(638.025 537.03)" fill="#9eb589"/>
          <ellipse id="Elipse_517" data-name="Elipse 517" cx="7.606" cy="6.583" rx="7.606" ry="6.583" transform="translate(656.621 549.47)" fill="#9eb589"/>
          <ellipse id="Elipse_518" data-name="Elipse 518" cx="7.606" cy="6.583" rx="7.606" ry="6.583" transform="translate(637.176 553.854)" fill="#9eb589"/>
          <ellipse id="Elipse_519" data-name="Elipse 519" cx="52.483" cy="52.875" rx="52.483" ry="52.875" transform="translate(-26.579 494.302)" fill="#889c76"/>
          <path id="Trazado_24616" data-name="Trazado 24616" d="M270.1,557.57l30.738,50.349-20.86-4.754L314,646.866l-29.635-7.6,30.738,46.546-28.539-4.747,35.122,47.5-6.91,78.808L206.76,813.6l7.36-85.043,32.93-44.651L224,692.461l26.347-55.1-20.86,6.648,29.642-44.644-20.86,4.747Z" transform="translate(-27.762 -130.87)" fill="#809c63"/>
          <path id="Trazado_24617" data-name="Trazado 24617" d="M94.852,619.63l36.9,40.326-19.43-1.241,38.555,33.946-27.769-2.511L159.275,727.1l-26.252-.145,40.253,37.169-62.4,46.684-33.14-31.326,20.736-44.354L79.632,746.014l12.89-52.693L75.27,702.2l17.8-43.882-17.615,7.193Z" transform="translate(8.292 -147.886)" fill="#6f8655"/>
          <path id="Trazado_24618" data-name="Trazado 24618" d="M116.156,823.48l-1.263,7.207-10.553,1.7Z" transform="translate(0.321 -203.781)" fill="#798868"/>
          <path id="Trazado_24619" data-name="Trazado 24619" d="M92.257,799.83l-7.1,28.016-6.489,1.045Z" transform="translate(7.36 -197.296)" fill="#798868"/>
          <path id="Trazado_24620" data-name="Trazado 24620" d="M75.459,665.515,94.852,619.63l1.023,1.118L86.2,654.193l12.687-8.782L85.359,694.424l11.831-5.117-16.9,54.13,15.22-9.508-.871,3.411-15,8.674,12.89-52.693L75.27,702.2l17.8-43.882Z" transform="translate(8.292 -147.886)" fill="#5b6e46"/>
          <path id="Trazado_24621" data-name="Trazado 24621" d="M1895.5,576.74l34.011,54.98-22.311-5.712,37.342,47.932-31.725-9.029,33.909,50.9-30.476-5.944,38.606,52.055-114.416-3.164,33.859-46.989-24.293,8.506,26.572-58.405-22.006,6.525,30.346-47.083L1862.86,625.8Z" transform="translate(-475.71 -136.126)" fill="#819a6d"/>
          <path id="Trazado_24622" data-name="Trazado 24622" d="M1889.769,763.02l-8.39,33.14-7.679,1.234Z" transform="translate(-484.83 -187.203)" fill="#798868"/>
          <path id="Trazado_24623" data-name="Trazado 24623" d="M1866.474,625.8l32.64-49.064.943,1.524-18.6,36.74,16.672-7.411-26.506,53.985,4.972.254-21.644,55.6,19.771-7.708-1.756,3.774-19.343,6.779,17.122-51.206-12.556-.675,30.346-47.083Z" transform="translate(-479.324 -136.126)" fill="#677a57"/>
          <path id="Trazado_24624" data-name="Trazado 24624" d="M431.826,598.65l26.506,46.038-18.711-4.682L469.271,680.1l-26.579-7.41,26.608,42.6-25.657-4.819,30.549,43.541-97.142-1.989,30.839-39.709-21.027,7.294,25.149-49.267-18.994,5.618L420.881,636.2l-18.951,3.9Z" transform="translate(-74.455 -142.134)" fill="#889c76"/>
          <path id="Trazado_24625" data-name="Trazado 24625" d="M302.052,840.809l30.375-38.86-30.4,8.107,29.6-37.016-26.906,5.015,35.289-34.389-30.643,6.663,23.4-31.659-18.631,2.845,33.343-39.8,37.43,30.3-20.678-.225,33.4,28.9-27.406-.334,29,24.423-23.059,1.372L419.1,799.191l-27.835-2.061,36.791,29.925Z" transform="translate(-53.885 -164.911)" fill="#7a8072"/>
          <path id="Trazado_24626" data-name="Trazado 24626" d="M345.331,708.524s-24.518,35.093-26.209,37.314,33.815-10.974,33.815-10.974l-36.348,40.231,32.966-8.775-37.2,38.039,38.889-13.166-16.911,26.332-2.62,20.047-29.671,3.237,30.375-38.86L302,810.057l29.6-37.016-26.906,5.015,35.289-34.389-30.643,6.67,23.4-31.674-18.631,2.852,33.343-39.8-23.277,35.564Z" transform="translate(-53.877 -164.911)" fill="#5d6953"/>
          <path id="Trazado_24627" data-name="Trazado 24627" d="M457.27,810.184l25.374-35.434-17.637-1.822,31.768-36.123-21.07-2.054,32.683-34.628L481.643,697.6l30.672-29.025-20.482-1.894,50.211-42.365,37.067,50.095-21.694-1.967,24.249,34.011-21.027-2.025,20.809,39.687-19.727-2.3,20.453,41.487-19.582-1.9,21.15,39.985Z" transform="translate(-96.451 -149.172)" fill="#9db386"/>
          <path id="Trazado_24628" data-name="Trazado 24628" d="M615.41,862.478,657.7,834.1l-35.768-1.851,37.618-33.67-28.161,2.642,35.027-32.995-30.3,2.889,32.581-27.3-23.4,2.148L692.345,699.6,732.8,750.486l-22.921-6.677L736.394,776.3l-25.752-5.436,26.753,35.84-32.886-1.7,34.882,33.322-31.035-1.611,33.837,32.32Z" transform="translate(-139.812 -169.814)" fill="#6c8051"/>
          <path id="Trazado_24629" data-name="Trazado 24629" d="M686.727,733.8l-28.56,30.339,26.753-5.988L653.55,794.886l20.323-6.394s-14.306,30.745-16.149,30.745c-.639,0-7.258.24-15.743.544l23.61-21.157-28.161,2.642,35.027-33-30.3,2.9,32.581-27.3-23.4,2.177,47.039-46.357-35.644,40.1Z" transform="translate(-145.85 -169.838)" fill="#505e3c"/>
          <path id="Trazado_24630" data-name="Trazado 24630" d="M857.17,826.5l31.979-21.455-27.051-1.4,32.973-22.122-25.817-1.336,31.754-21.3-28.183-1.459,26.818-17.993-19.872-1.031,36.755-24.656,29.4,28.081-18.74-.973,21.455,20.49-24.648-1.27,25.4,24.256-24.866-1.285,26.376,25.193-23.465-1.212,25.585,24.438Z" transform="translate(-206.102 -173.694)" fill="#6c8051"/>
          <path id="Trazado_24631" data-name="Trazado 24631" d="M111.48,823.443l37.5-29.243-29.337-.6,38.083-27.617-27.036,2.751,32.6-31.652-23.857,2.061,31.551-27.791-18.827-.421,41.6-32.356,28.372,45.428-18.239-8.927L222.129,748.1l-23.952-7.875,25.541,38.156-27.145-7.788L225.751,805.6l-25.889-6.583,26.151,37.372Z" transform="translate(-1.637 -164.05)" fill="#9db386"/>
          <path id="Trazado_24632" data-name="Trazado 24632" d="M181.54,704.73l-31.275,28.531,25.36-5.124-33.808,35.114,26.2-4.355s-38.039,29.257-35.506,29.257,28.742-2.9,28.742-2.9l-32.966,32.923,48.172,7.991s-.835,1.822-2.119,4.355l-62.84-7.105L149,794.171l-29.337-.6,38.083-27.581L130.7,768.746l32.6-31.652-23.864,2.025,31.551-27.791-18.827-.421,41.6-32.356-29.156,27.624Z" transform="translate(-1.642 -164.042)" fill="#8ea17a"/>
          <path id="Trazado_24633" data-name="Trazado 24633" d="M-32.88,833.6l38.5-30.542-31.413,5.589L8.4,769.422l-27.835,7.563,30.215-38.533-27.036,6.881L15.56,708.861l-27.835,10.321L32.261,671.01l33.394,47.482-20.678-5.5,27.036,33.031-26.238-6.881L73.6,775.613l-24.648-7.57,30.215,38.54-24.111-5.756L89.868,831.3Z" transform="translate(37.946 -161.974)" fill="#6c8051"/>
          <path id="Trazado_24634" data-name="Trazado 24634" d="M20.764,702.6-.052,738.638l17.485-5.081S-1.722,766.741-1.722,768.9s21.651-9.363,21.651-9.363l-30.81,41.784,29.976-8.644s-30.81,38.192-32.472,40.355l.189.319-20.831.392L3.9,803.662l-30.948,5.5L6.64,770.522l-27.414,7.461L8.984,740.017-17.653,746.8,13.68,710.868l-27.406,10.2L30.141,673.62,1.61,709.809Z" transform="translate(38.259 -162.69)" fill="#505e3c"/>
          <path id="Trazado_24635" data-name="Trazado 24635" d="M1776.52,810.157l38.5-30.542L1783.6,785.2l34.193-39.222-27.835,7.57,30.215-38.54-27.036,6.881,31.812-36.472-27.834,10.321,44.535-48.172,33.394,47.482-20.671-5.5,27.036,33.031-26.245-6.881L1883,752.173l-24.656-7.57,30.215,38.54-24.111-5.756,34.809,30.477Z" transform="translate(-458.184 -155.547)" fill="#6f8655"/>
          <path id="Trazado_24636" data-name="Trazado 24636" d="M1832.134,677.039l-21.15,36.573,17.753-5.081S1809.3,742.18,1809.3,744.379s22.006-9.552,22.006-9.552l-31.282,42.431,30.433-8.775s-31.275,38.765-32.966,40.964l.189.327-21.15.392L1815,779.624l-31.413,5.589,34.193-39.193-27.842,7.541,27.631-37.227-24.423,5.589,31.812-36.472-27.835,10.321,44.535-48.172-28.967,36.776Z" transform="translate(-458.187 -155.556)" fill="#5b6e46"/>
          <path id="Trazado_24637" data-name="Trazado 24637" d="M1325.066,849.531l95.763-1.321-7.766,365.4H-40.251L-41.26,870.521l722.219-45S1209.976,786.067,1325.066,849.531Z" transform="translate(40.244 -201.018)" fill="#cf9a65"/>
          <path id="Trazado_24638" data-name="Trazado 24638" d="M132.989,871.922s16.853-19.074,14.284-34.752-83.467-.486-83.467-.486,22.028-25.94-27.631-32.364S-79.65,821.435-79.65,821.435l3.977,158.037Z" transform="translate(50.77 -198.223)" fill="#cf9a65"/>
          <path id="Trazado_24639" data-name="Trazado 24639" d="M1028.8,931.718s33.213,34.65-73.546,54.2c-127.575,23.349-240.43,22.289-369.231,13.79-78.772-5.2-183.556-33.837-371.684,27.581-195.038,63.7-329.972,36.094-471.047,66.883l7.36-142.257s217.117,54.145,407.256-6.372c170.462-54.247,311.37-20.069,412.162-8.492C708.7,952.97,808.045,932.5,808.045,932.5Z" transform="translate(99.319 -229.082)" fill="#e9c091"/>
          <ellipse id="Elipse_520" data-name="Elipse 520" cx="59.305" cy="8.652" rx="59.305" ry="8.652" transform="translate(642.932 644.674)" fill="#e9c091"/>
          <path id="Trazado_24640" data-name="Trazado 24640" d="M1235.056,95.88l-1.168,58.442-101.576,8.158-13.471-55.952Z" transform="translate(-277.851 -4.276)" fill="#a19a91"/>
          <path id="Trazado_24641" data-name="Trazado 24641" d="M858.84,679.93l102.846,12.985-20.961,7.011.893,107.114-11.606-1.2L919.844,697.531Z" transform="translate(-206.56 -164.42)" fill="#e9cea9"/>
          <path id="Trazado_24642" data-name="Trazado 24642" d="M1572.568,646.014l-19.6-273.4,62.564-13.79L1607.065,69,1489.3,78.559l-3.68,67.943L1057.109,131.84l22.878,206.789-76.246,15.394L1013.9,250.632l-114.387-13.2L858.87,512.416l60.968,17.6L930,638.328s44.172-12.092,80.884,2.569c12.948,5.168,17.884,14.661,12.237,25.251,19.379,2.177,65.889,3.259,77.182,8.143,17.63,7.628,19.263,17.92,13.616,26.064l220.746-.813c-14.117-37.466,104.516-34.207,104.516-34.207s-13.2-17.68,39.52-18.007S1572.568,646.014,1572.568,646.014Z" transform="translate(-206.568 3.094)" fill="#a19a91"/>
          <path id="Trazado_24643" data-name="Trazado 24643" d="M1030.938,267.648l-19.1-4.587-5.828,17.9-11.141-1.829,3.709-17.906-34.476-4.13.53,14.226-27.581-1.372V256.63l-21.215,2.758,1.59,17.906L1025.1,296.571Z" transform="translate(-222.189 -48.353)" fill="#82796f"/>
          <path id="Trazado_24644" data-name="Trazado 24644" d="M1035.114,318.167,880.22,306.511l2.693-58.282L913.9,249.39,916.59,269.2l22.9,3.5,5.385-25.643,35.02,3.5L977.2,279.7l25.592,4.66,9.428-29.141,33.67,7Z" transform="translate(-212.422 -45.729)" fill="#a19a91"/>
          <path id="Trazado_24645" data-name="Trazado 24645" d="M1222.27,64.772c-1.756,0-19.64-2.032-19.64-2.032l-.588,15.714-24.873,2.032V62.74l-33.387,2.54.726,9.261-7.026.508-1.923-7.766-15.808,3.041,6.438,26.855,92.54-4.558Z" transform="translate(-278.1 4.811)" fill="#82796f"/>
          <path id="Trazado_24646" data-name="Trazado 24646" d="M1234.849,56.1l-1.35,36.537-145.466,10.488-14.814-44.7,41.756-4.66,4.043,30.3,20.2-1.161V47.939h45.8v30.3l13.464-1.161,5.393-30.31Z" transform="translate(-265.342 9.19)" fill="#a19a91"/>
          <path id="Trazado_24647" data-name="Trazado 24647" d="M1724.13,31.871l20.9-5.574,2.018,15.714,10.292-.508-.588-16.73,58.74-2.533,1.662,17.739,11.221-.508-.588,13.689-96.633,6.59Z" transform="translate(-443.819 15.916)" fill="#82796f"/>
          <path id="Trazado_24648" data-name="Trazado 24648" d="M1848.349,22.457l-1.343,36.537L1701.541,69.481l-14.821-44.7,41.756-4.66,4.043,30.3,20.206-1.169V14.291h45.791V44.6l13.471-1.169,5.385-30.3Z" transform="translate(-433.561 18.414)" fill="#a19a91"/>
          <path id="Trazado_24649" data-name="Trazado 24649" d="M978.9,430.42H948.237s-3.68-43.548,15.968-61.57C964.183,368.85,982.582,390.08,978.9,430.42Z" transform="translate(-230.997 -79.123)" fill="url(#linear-gradient-3)"/>
          <path id="Trazado_24650" data-name="Trazado 24650" d="M1211.938,182.856l-28.212,13.79s-19.6-43.548,3.68-64.756C1187.406,131.9,1208.258,141.449,1211.938,182.856Z" transform="translate(-293.527 -14.15)" fill="#b9e3ea"/>
          <path id="Trazado_24651" data-name="Trazado 24651" d="M1806.4,146.452l22.435,10.974s15.612-34.614-2.9-51.5C1825.91,105.93,1809.325,113.529,1806.4,146.452Z" transform="translate(-466.377 -7.032)" fill="#b9e3ea"/>
          <path id="Trazado_24652" data-name="Trazado 24652" d="M916.98,543.192l1.517-28.227-30.339-1.974L882.853,547.1s50.2,4.9,55.7,5.233c-5.393-.16-56.46-1.292-56.46-1.292l-5.306,29.547,44.746,9.842-55.161-5.647.762-5.175,5.081.98,11.373-73.524,9.864-38.729-6.83,40.7,35.651,1.967Z" transform="translate(-208.624 -106.403)" fill="#82796f"/>
          <path id="Trazado_24653" data-name="Trazado 24653" d="M966.248,584.129h-.428C966.234,584.122,966.408,584.129,966.248,584.129Z" transform="translate(-235.893 -138.151)" fill="#e9cea9"/>
          <path id="Trazado_24654" data-name="Trazado 24654" d="M1858.312,468.31l-114.162,12.1,18.922,10.582,49.543,226-10.851-234.914Z" transform="translate(-449.308 -106.395)" fill="#82796f"/>
          <path id="Trazado_24655" data-name="Trazado 24655" d="M880.22,306.952l154.894,11.656-148.253-19.5,1.546-19.735,28.6-.639-30.07-2.54-4.028-27.53Z" transform="translate(-212.422 -46.171)" fill="#82796f"/>
          <path id="Trazado_24656" data-name="Trazado 24656" d="M1191.607,193.056l-10.582,5.015s-20.323-45.37,5.683-66.172a26.212,26.212,0,0,1,6.641,5.081C1186.483,145.3,1179.355,163.581,1191.607,193.056Z" transform="translate(-292.829 -14.153)" fill="#82796f"/>
          <path id="Trazado_24657" data-name="Trazado 24657" d="M959.164,430.318l-10.887.1s-3.68-43.548,15.968-61.57a45.937,45.937,0,0,1,4.66,7.055C962.923,384.07,957.495,403.072,959.164,430.318Z" transform="translate(-231.008 -79.123)" fill="#82796f"/>
          <path id="Trazado_24658" data-name="Trazado 24658" d="M1712.617,135.586l3.6-62.782-14.676,1.081-14.821-44.7,19.415,37.176,140.276-2.5L1729.8,76.941l-2.519,22.217,19.974.508-19.974,2.032-1.756,21.281,24.663,2.032,3.513-14.7-1.176,30.411-2.925-13.181-24.685-2.388Z" transform="translate(-433.561 14.01)" fill="#82796f"/>
          <path id="Trazado_24659" data-name="Trazado 24659" d="M1806.4,146.452a90.81,90.81,0,0,1,1.452-9.965l13.79,9.566c5.473-13.841,3.687-30.571,2.25-38.881a13.6,13.6,0,0,1,2.01-1.241c18.537,16.882,2.9,51.5,2.9,51.5Z" transform="translate(-466.377 -7.032)" fill="#82796f"/>
          <path id="Trazado_24660" data-name="Trazado 24660" d="M1802.331,234.53l-.581,26.862-31.63-.5,32.211,3.542,1.756,22.3,2.344-23.313,22.841,1.517-.588,11.156,3.513-11.664,7.033,1.016-19.328-4.558,2.344-22.812-6.445,22.3h-7.026Z" transform="translate(-456.429 -42.293)" fill="#82796f"/>
          <path id="Trazado_24661" data-name="Trazado 24661" d="M1055.776,342.33l-5.8,30.985-23.342-5.509,21.07,9.871-5.567,47.874L1018.15,428.4l29.264.566Z" transform="translate(-250.242 -71.852)" fill="#82796f"/>
          <path id="Trazado_24662" data-name="Trazado 24662" d="M1151.769,352.588l-1.031-52.65,16.977-5.052-18.036,2.758L1130.626,119.91l-10.016,1.11Z" transform="translate(-278.336 -10.865)" fill="#82796f"/>
          <path id="Trazado_24663" data-name="Trazado 24663" d="M1887.042,76.32,1874.877,78.9l-.2,16.585L1832.73,79.013Z" transform="translate(-473.596 1.087)" fill="#82796f"/>
          <path id="Trazado_24664" data-name="Trazado 24664" d="M1864.833,895.223s-19.1-7.65-13.689-23.763,32-14.6,32-14.6-22.645-9.994-16.374-27.581,86.037-24.924,86.037-24.924l28.7,134.912Z" transform="translate(-478.38 -198.539)" fill="#cf9a65"/>
          <path id="Trazado_24665" data-name="Trazado 24665" d="M165.59,303.53l22.863,38.932-16.048-14.7Z" transform="translate(-16.474 -61.213)" fill="#9ebd86"/>
          <path id="Trazado_24666" data-name="Trazado 24666" d="M188.45,373.12l21.324,31.834-16.469-14.327Z" transform="translate(-22.742 -80.294)" fill="#9ebd86"/>
          <path id="Trazado_24667" data-name="Trazado 24667" d="M210.92,478.29l17.136,23.153-12.7-8.906Z" transform="translate(-28.903 -109.131)" fill="#a9b69f"/>
          <path id="Trazado_24668" data-name="Trazado 24668" d="M213.22,529.13l17.136,23.153-12.7-8.906Z" transform="translate(-29.533 -123.072)" fill="#a9b69f"/>
          <path id="Trazado_24669" data-name="Trazado 24669" d="M1385.394,1111.775c1.452-3.81,82.234-130.9,73.422-169.025,0,0-85.173,64.814-124.839,184.282,0,0-29.366-67.362-83.7-113.109,0,0,14.683,80.064,52.868,120.73,0,0-33.779-29.228-71.956-35.564,0,0,2.9,47.025,38.177,68.632a293.537,293.537,0,0,0,67.551,30.484Z" transform="translate(-308.657 -236.484)" fill="#69923e"/>
          <path id="Trazado_24670" data-name="Trazado 24670" d="M1452.086,968.07,1338.781,1189l-98.971-73.836,94.877,66.752,3.411-10.633-75.084-131.146,76.449,127.009Z" transform="translate(-311.02 -243.427)" fill="#5a7d38"/>
          <path id="Trazado_24671" data-name="Trazado 24671" d="M1333.76,1200.417s175.209-236.982,339.676-233.165,69.024,241.5,69.024,241.5S1485.018,1255.063,1333.76,1200.417Z" transform="translate(-336.781 -243.19)" fill="#bcb6ab"/>
          <path id="Trazado_24672" data-name="Trazado 24672" d="M1332.41,1234.64c42.1-37.343,191.453-179.571,258.386-176.37,132.169,6.351,148.318,141.067,151.258,175.376C1742.09,1233.7,1488.349,1275.336,1332.41,1234.64Z" transform="translate(-336.411 -268.145)" fill="#a69f95"/>
          <path id="Trazado_24673" data-name="Trazado 24673" d="M1794.3,979.466s38.184,11.431,38.184,33.039-58.739-7.628-85.173-16.548c0,0,27.9,31.768,4.406,33.039S1646,1009.964,1646,1009.964,1703.251,959.129,1794.3,979.466Z" transform="translate(-422.396 -245.235)" fill="#d1c8bd"/>
          <ellipse id="Elipse_521" data-name="Elipse 521" cx="14.683" cy="12.709" rx="14.683" ry="12.709" transform="translate(1386.591 797.768)" fill="#a69f95"/>
          <path id="Trazado_24674" data-name="Trazado 24674" d="M1456.926,1213.1s-33.779-137.25-124.838-230.022c0,0,27.9,151.229,71.956,214.773,0,0-44.056-33.039-110.134-40.645,0,0,22.028,92.772,88.105,122Z" transform="translate(-325.854 -247.543)" fill="#81b44f"/>
          <path id="Trazado_24675" data-name="Trazado 24675" d="M1439.339,1219.631l-89.579-203.341,88.113,218.591-14.69,27.958-113.073-90.232,114.546,101.671,29.366-34.309Z" transform="translate(-330.296 -256.649)" fill="#68913e"/>
          <ellipse id="Elipse_522" data-name="Elipse 522" cx="36.646" cy="6.917" rx="36.646" ry="6.917" transform="translate(1280.979 674.824)" fill="#e9c091"/>
          <ellipse id="Elipse_523" data-name="Elipse 523" cx="36.646" cy="6.917" rx="36.646" ry="6.917" transform="translate(1213.61 704.727)" fill="#e9c091"/>
          <ellipse id="Elipse_524" data-name="Elipse 524" cx="36.646" cy="6.917" rx="36.646" ry="6.917" transform="translate(1146.234 680.804)" fill="#e9c091"/>
          <path id="Trazado_24676" data-name="Trazado 24676" d="M958.37,826.7s17.325-39.193,15.968-62.281A150,150,0,0,0,949.6,817.6s-11.243-33.568-33.9-56.613c0,0,10.662,48.44,22.659,65.736Z" transform="translate(-222.151 -186.647)" fill="#81b44f"/>
          <path id="Trazado_24677" data-name="Trazado 24677" d="M976.356,846.213s4-9.225-30.651-17.3c-25.86-6.031-34.65,17.3-31.979,23.066s6.663,8.071,26.652,8.071S976.356,855.438,976.356,846.213Z" transform="translate(-221.484 -205.001)" fill="#99938a"/>
          <ellipse id="Elipse_525" data-name="Elipse 525" cx="41.48" cy="5.835" rx="41.48" ry="5.835" transform="translate(671.035 790.582)" fill="#e9c091"/>
          <ellipse id="Elipse_526" data-name="Elipse 526" cx="21.259" cy="3.593" rx="21.259" ry="3.593" transform="translate(614.001 778.019)" fill="#e9c091"/>
          <ellipse id="Elipse_527" data-name="Elipse 527" cx="44.078" cy="7.628" rx="44.078" ry="7.628" transform="translate(350.578 786.997)" fill="#e9c091"/>
          <path id="Trazado_24678" data-name="Trazado 24678" d="M1134.333,286.008l-26.027-179.39-20.272.907-14.814-44.7L1085.8,90.7l23.465-1.9-19.8,3.8,2.01,8.594L1233.5,97.037l-115.918,8.535Z" transform="translate(-265.342 4.786)" fill="#82796f"/>
        </g>
        <rect id="Rectángulo_404" data-name="Rectángulo 404" width="1405.672" height="994.787" transform="translate(1399.597 987.473) rotate(180)" fill="none"/>
      </g>
    </g>
    <g id="Persojanes-48" transform="translate(536.199 442.004)" style="isolation: isolate">
      <g id="Capa_1" data-name="Capa 1" transform="translate(0.004 -0.004)">
        <path id="Trazado_23337" data-name="Trazado 23337" d="M168.107,136.843c0,3.524-27.752,13.454-76.646,12.493-42.2-.815-76.3-7.775-76.151-15.492s34.479-13.337,76.675-12.522S168.253,129.1,168.107,136.843Z" transform="translate(29.262 231.838)" opacity="0.15" style="mix-blend-mode: multiply;isolation: isolate"/>
        <path id="Trazado_23338" data-name="Trazado 23338" d="M108.682,83.195c0,15.638-11.037,28.335-24.636,28.335S59.41,98.949,59.41,83.195,70.418,54.86,84.046,54.86,108.682,67.557,108.682,83.195Z" transform="translate(113.585 104.908)" fill="#88782e"/>
        <path id="Trazado_23339" data-name="Trazado 23339" d="M84.464,84.457a70.123,70.123,0,0,1-3.99,38.439c-3.582,9.173-10.4,14.153-12.638,19.045-2.912,6.377-3.931,11.648-.815,14.269,4.164,3.757,9.319,1.514,14.56-6.814a63.775,63.775,0,0,0,7.863-23.3c4.106-25.714,3.873-46.593-5.271-49.505C73.514,73.275,84.464,84.457,84.464,84.457Z" transform="translate(124.496 145.288)" fill="#9e8d33"/>
        <path id="Trazado_23340" data-name="Trazado 23340" d="M116.476,65.034s11.648-31.713-1.747-47.962S74.891-4.972,61.9,4.7s-8.241,28.247-8.241,28.247-17.3-8.911-22.51,4.63,6.931,29.412,6.931,29.412S17.7,59.268,5.176,76.275s.437,38.265,9.959,44.846-8.212,13.92-3.495,24.491,26.413,12.755,26.413,12.755-3.465-17.793,6.494-22.831S31.559,99.95,59.69,91.447,67.96,61.161,116.476,65.034Z" transform="translate(-0.004 0.004)" fill="#fae26f"/>
        <path id="Trazado_23341" data-name="Trazado 23341" d="M51.312,162.345c2.912-18.521,4.514-39.138,6.436-56.378.233-2.242,5.1-3.931,5.329-.757a338.963,338.963,0,0,1-2.009,53.874c0,.233.9.437,1.514.612a92.488,92.488,0,0,1,14.56,3.611c4.106,1.631,4.98,8.125-.349,9.2-6.028,1.223-13.425-1.543-19.773-4.222a35.418,35.418,0,0,1-3.465-1.485A4.164,4.164,0,0,1,51.312,162.345Z" transform="translate(97.979 197.833)" fill="#9e8d33"/>
        <path id="Trazado_23342" data-name="Trazado 23342" d="M23.524,162.868a69.626,69.626,0,0,1,10.8-2.1c7.047-1.107,7.863-1.951,7.921-1.98,1.514-8.037,2.708-16.715,3.815-24.345,1.543-10.513,3.058-18.754,4.455-28.276.262-2.038,4.921-2.563,5.475-.32,1.718,7.28,0,15.783-.757,23.3-1.019,11.357-2.679,23.3-3.815,34.159a5.3,5.3,0,0,1-3.815,4.222c-2.912,1.136-15,6.145-21.666,5.649C21.078,172.8,18.486,165.081,23.524,162.868Z" transform="translate(39.744 199.611)" fill="#9e8d33"/>
        <path id="Trazado_23343" data-name="Trazado 23343" d="M181.049,289.373s7.484-64.794,7.659-186.9c0,0-2.563-87.625-91.527-86.751C20.272,16.54,10.342,75.684,12.934,133.4s.553,149.739.553,149.739S82.009,307.428,181.049,289.373Z" transform="translate(24.038 30.065)" fill="#e8cc30"/>
        <path id="Trazado_23344" data-name="Trazado 23344" d="M158.243,46.36,28.51,71.957l2.475,72.8,125.744-11.008C157.544,109.552,158.069,79.179,158.243,46.36Z" transform="translate(54.502 88.655)" fill="#2e2f30"/>
        <path id="Trazado_23345" data-name="Trazado 23345" d="M50.16,88.748a5.038,5.038,0,0,0,4.98,5.1h0a5.009,5.009,0,0,0,4.951-5.1V68.975A5.038,5.038,0,0,0,55.14,63.85h0a5.067,5.067,0,0,0-4.98,5.125Z" transform="translate(95.898 122.098)" fill="#edd963"/>
        <path id="Trazado_23346" data-name="Trazado 23346" d="M57.2,91.729a5.533,5.533,0,0,0,4.747,6.086h0a5.5,5.5,0,0,0,4.718-6.086V68.257A5.5,5.5,0,0,0,61.949,62.2h0A5.533,5.533,0,0,0,57.2,68.257Z" transform="translate(109.299 118.943)" fill="#edd963"/>
        <path id="Trazado_23347" data-name="Trazado 23347" d="M202.537,96.268S98.372,113.741,21.551,131.592c0,0-.728-42.575,4.718-66.978,0,0,103.612-34.537,161.242-32.644C187.511,32.2,199.043,53.9,202.537,96.268Z" transform="translate(41.134 60.996)" fill="#9e8d33"/>
        <path id="Trazado_23348" data-name="Trazado 23348" d="M56.214,83.795c0,15.638-11.037,28.305-24.636,28.305S7,99.432,7,83.795,18.037,55.46,31.665,55.46,56.214,68.157,56.214,83.795Z" transform="translate(13.373 106.055)" fill="#88782e"/>
        <path id="Trazado_23349" data-name="Trazado 23349" d="M81.924,38.63,68.47,42.3l5.853,35.906,13.25-2.242Z" transform="translate(130.909 73.875)" fill="#85772e"/>
        <path id="Trazado_23350" data-name="Trazado 23350" d="M71.611,40.92l6.261,35.324L65.059,78.806,58.07,43.686Z" transform="translate(111.023 78.254)" fill="#85772e"/>
        <path id="Trazado_23351" data-name="Trazado 23351" d="M62.208,42.91l4.98,34.45L54.753,80.068,47.56,46.434Z" transform="translate(90.927 82.059)" fill="#85772e"/>
        <path id="Trazado_23352" data-name="Trazado 23352" d="M49.508,45.66l6.2,32.3L43.393,81.187,36.87,47.961Z" transform="translate(70.487 87.317)" fill="#85772e"/>
        <path id="Trazado_23353" data-name="Trazado 23353" d="M144.167,140.575c-23.937,2.65-65.26,5.475-85.965-3.96-28.946-13.192-31.334-39.633-32.382-46.1a6.261,6.261,0,0,1,2.1-4.6c3.465-2.417,4.921.932,4.921.932.786,2.912,4.164,34.945,32.208,45.72,17.007,6.552,56.9,4.426,74.782,2.213Z" transform="translate(49.358 162.613)" fill="#9e8d33"/>
        <path id="Trazado_23354" data-name="Trazado 23354" d="M94.176,76.364a47.146,47.146,0,0,0-20.093,2.155,23.559,23.559,0,0,0-10.454,6.61,13.541,13.541,0,0,0-3.174,9.959c.5,2.912,4.164,4.106,5.3,2.242,2.3-3.786,3.407-7.251,7.63-9.319-4.223,5.824-8.008,14.386-5.154,20.734,1.718,3.786,5.824,3.378,6.727,0,1.747-6.7,2.446-12.522,6.61-17.065a7.506,7.506,0,0,0,0,1.136,13.425,13.425,0,0,0,8.212,12.609,4.747,4.747,0,0,0,5.184-1.019,4.485,4.485,0,0,0,0-5.067c-.786-.757-3.407-3.116-3.96-3.727a7.863,7.863,0,0,1-1.835-7.338,14.56,14.56,0,0,0,5.824-2.912C98.195,82.567,97.583,76.714,94.176,76.364Z" transform="translate(115.482 145.489)" fill="#9e8d33"/>
        <path id="Trazado_23355" data-name="Trazado 23355" d="M86.049,94.94s-.32,1.543-7.193,8.066a37.479,37.479,0,0,1-10.4,7.834s9.755,17.647,13.658,7.775C84.418,112.791,86.049,94.94,86.049,94.94Z" transform="translate(130.89 181.544)" fill="url(#linear-gradient-4)"/>
        <path id="Trazado_23356" data-name="Trazado 23356" d="M98.92,101.929a27.225,27.225,0,0,0,.437-4.543,3.436,3.436,0,0,0-4.4-3.145,4.4,4.4,0,0,0-2.388,3.407c-.961,3.96-1.922,7.309-5.1,9.26a32.617,32.617,0,0,1-4.193,1.893,29.7,29.7,0,0,1-5.475,1.66,9.2,9.2,0,0,1-5.475-.175,2.912,2.912,0,0,1-.99-2.5,19.249,19.249,0,0,1,2.1-6.523,2.621,2.621,0,0,0-1.194-3.32,3.524,3.524,0,0,0-3.873.553A13.629,13.629,0,0,0,63.3,110.81a7.14,7.14,0,0,0,0,.786,14.56,14.56,0,0,0,10.949,14.764c6.9,1.893,14.852.2,18.754-4.892a4.251,4.251,0,0,0,.67-2.912,8.328,8.328,0,0,0,2.446-2.592,8.183,8.183,0,0,0,.466-7.164A15.667,15.667,0,0,0,98.92,101.929Z" transform="translate(120.844 179.943)" fill="#9e8d33"/>
      </g>
    </g>
  </g>
</svg>
