<svg xmlns="http://www.w3.org/2000/svg" xmlns:xlink="http://www.w3.org/1999/xlink" width="1220" height="686" viewBox="0 0 1220 686">
  <defs>
    <clipPath id="clip-path">
      <rect id="Rectángulo_431" data-name="Rectángulo 431" width="1220" height="686" rx="37" transform="translate(350 197)" fill="#fff" stroke="#707070" stroke-width="1"/>
    </clipPath>
    <clipPath id="clip-path-2">
      <rect id="Rectángulo_418" data-name="Rectángulo 418" width="1341" height="756" transform="translate(1341.438 756) rotate(180)" fill="none"/>
    </clipPath>
    <clipPath id="clip-path-3">
      <rect id="Rectángulo_416" data-name="Rectángulo 416" width="1360.096" height="960.849" transform="translate(1360.096 960.849) rotate(180)" fill="none"/>
    </clipPath>
    <radialGradient id="radial-gradient" cx="0.294" cy="0.578" r="0.966" gradientTransform="matrix(0.805, 0, 0, -1, 0.38, 0.843)" gradientUnits="objectBoundingBox">
      <stop offset="0.04" stop-color="#68276e"/>
      <stop offset="1"/>
    </radialGradient>
    <radialGradient id="radial-gradient-2" cx="0.501" cy="0.475" r="4.921" gradientTransform="matrix(0.086, 0, 0, -1, 1.969, 1.05)" xlink:href="#radial-gradient"/>
    <clipPath id="clip-path-4">
      <rect id="Rectángulo_409" data-name="Rectángulo 409" width="1358.159" height="979.496" fill="none"/>
    </clipPath>
    <linearGradient id="linear-gradient" x1="2.644" y1="0.5" x2="3.644" y2="0.5" gradientUnits="objectBoundingBox">
      <stop offset="0.04" stop-color="#68276e" stop-opacity="0"/>
      <stop offset="1"/>
    </linearGradient>
    <linearGradient id="linear-gradient-2" x1="1.901" x2="2.901" xlink:href="#linear-gradient"/>
    <linearGradient id="linear-gradient-3" x1="-0.552" y1="-0.447" x2="-0.732" y2="0.929" gradientUnits="objectBoundingBox">
      <stop offset="0" stop-color="#ff8"/>
      <stop offset="0.99" stop-opacity="0"/>
    </linearGradient>
    <radialGradient id="radial-gradient-3" cx="0.5" cy="0.548" r="1.053" gradientTransform="matrix(-0.967, 0, 0, 1, 5.403, 0)" gradientUnits="objectBoundingBox">
      <stop offset="0.04" stop-color="#c711cc"/>
      <stop offset="1" stop-opacity="0"/>
    </radialGradient>
    <radialGradient id="radial-gradient-4" cx="0.229" cy="0.36" r="4.478" gradientTransform="matrix(-0.183, 0, 0, 0.23, 2.869, 0.28)" gradientUnits="objectBoundingBox">
      <stop offset="0.06" stop-color="#75000e"/>
      <stop offset="0.77" stop-color="#4b000e"/>
    </radialGradient>
    <radialGradient id="radial-gradient-5" cx="0.494" cy="0.623" r="0.276" gradientTransform="matrix(-1.14, 0.022, 0.028, 1.112, 73.563, -0.887)" gradientUnits="objectBoundingBox">
      <stop offset="0" stop-color="#fff"/>
      <stop offset="1" stop-color="#73c6ff" stop-opacity="0"/>
    </radialGradient>
    <radialGradient id="radial-gradient-6" cx="34.927" cy="1.096" r="0.311" gradientTransform="translate(-0.07) scale(1.14 1)" xlink:href="#radial-gradient-5"/>
    <radialGradient id="radial-gradient-7" cx="75.154" cy="1.66" r="0.311" gradientTransform="translate(-0.07) scale(1.14 1)" xlink:href="#radial-gradient-5"/>
    <radialGradient id="radial-gradient-8" cx="58.433" cy="1.392" r="0.311" gradientTransform="translate(-0.07) scale(1.14 1)" xlink:href="#radial-gradient-5"/>
    <radialGradient id="radial-gradient-9" cx="14.279" cy="0.736" r="0.311" gradientTransform="translate(-0.07) scale(1.14 1)" xlink:href="#radial-gradient-5"/>
    <radialGradient id="radial-gradient-10" cx="0.483" cy="0.48" r="0.288" gradientTransform="matrix(-0.627, -0.793, -0.916, 0.683, 10.312, 4.505)" xlink:href="#radial-gradient-5"/>
    <linearGradient id="linear-gradient-4" x1="2.277" y1="-0.447" x2="2.097" y2="0.929" xlink:href="#linear-gradient-3"/>
  </defs>
  <g id="Grupo_548" data-name="Grupo 548" transform="translate(-350 -197)">
    <g id="Enmascarar_grupo_4" data-name="Enmascarar grupo 4" clip-path="url(#clip-path)">
      <g id="Fondos_Categorias-04" transform="translate(350.444 197)" style="isolation: isolate">
        <g id="Capa_1" data-name="Capa 1" transform="translate(-60.93)">
          <g id="Grupo_390" data-name="Grupo 390" transform="translate(0.048)" clip-path="url(#clip-path-2)">
            <g id="Grupo_389" data-name="Grupo 389" transform="translate(-16.045 -162.42)" clip-path="url(#clip-path-3)">
              <rect id="Rectángulo_406" data-name="Rectángulo 406" width="1358.313" height="1093.573" transform="translate(1358.306 977.001) rotate(180)" fill="url(#radial-gradient)"/>
              <rect id="Rectángulo_407" data-name="Rectángulo 407" width="1358.313" height="117.256" transform="translate(1358.306 977.001) rotate(180)" fill="url(#radial-gradient-2)"/>
              <g id="Grupo_388" data-name="Grupo 388" transform="translate(3.809 -118.144)" opacity="0.27">
                <g id="Grupo_387" data-name="Grupo 387" clip-path="url(#clip-path-4)">
                  <rect id="Rectángulo_408" data-name="Rectángulo 408" width="1358.159" height="979.503" fill="#ad0984"/>
                  <path id="Trazado_24679" data-name="Trazado 24679" d="M953.53,924.039l42.655-175.608,197.107-.811Z" transform="translate(-274.88 55.464)" fill="#590662"/>
                  <path id="Trazado_24680" data-name="Trazado 24680" d="M69.444,654.505-17.48,876.137V595.72Z" transform="translate(17.48 101.2)" fill="#d71fb1"/>
                  <path id="Trazado_24681" data-name="Trazado 24681" d="M1884.511-86.351,1794.24-9.575l34.785-102.915Z" transform="translate(-528.008 314.433)" fill="#390023"/>
                  <path id="Trazado_24682" data-name="Trazado 24682" d="M1917.207,788.923,1897.33,579.012l19.877-280.152Z" transform="translate(-559.048 190.581)" fill="#660437"/>
                  <path id="Trazado_24683" data-name="Trazado 24683" d="M274,794.517-17.48,924.011V923.6l188.8-174.819Z" transform="translate(17.48 55.115)" fill="#b21cb9"/>
                  <path id="Trazado_24684" data-name="Trazado 24684" d="M171.317,728.02-17.48,902.839v-1.377L69.444,679.83Z" transform="translate(17.48 75.875)" fill="#c91fbe"/>
                  <path id="Trazado_24685" data-name="Trazado 24685" d="M396.573,866.5-17.49,943.931v-.217L274,814.22Z" transform="translate(17.483 35.412)" fill="#a4128e"/>
                  <path id="Trazado_24686" data-name="Trazado 24686" d="M1854.951,488.19l14.908,147.827-63.769-16.334Z" transform="translate(-531.576 133.576)" fill="#68043a"/>
                  <path id="Trazado_24687" data-name="Trazado 24687" d="M1890.908,579.015,1876,431.188l34.785-132.318Z" transform="translate(-552.625 190.578)" fill="#6b0544"/>
                  <path id="Trazado_24688" data-name="Trazado 24688" d="M1698.271,16.111,1502,63.483,1475.5-27.18Z" transform="translate(-432.039 288.748)" fill="#58002d"/>
                  <path id="Trazado_24689" data-name="Trazado 24689" d="M1886.168,186.265,1794.24,1.682,1884.511-75.1Z" transform="translate(-528.008 303.176)" fill="#3f0126"/>
                  <path id="Trazado_24690" data-name="Trazado 24690" d="M1616.282-191.96,1698.271-33.5,1475.5-76.793Z" transform="translate(-432.039 338.361)" fill="#5b0335"/>
                  <path id="Trazado_24691" data-name="Trazado 24691" d="M1793.7-136.418,1758.919-33.5,1676.93-191.96Z" transform="translate(-492.688 338.361)" fill="#44062f"/>
                  <path id="Trazado_24692" data-name="Trazado 24692" d="M1872.61,909.611l-123.4-138.035L1852.733,699.7Z" transform="translate(-514.45 69.892)" fill="#81073a"/>
                  <path id="Trazado_24693" data-name="Trazado 24693" d="M1788.964,676.33l63.769,16.334L1749.21,764.54Z" transform="translate(-514.45 76.929)" fill="#790536"/>
                  <path id="Trazado_24694" data-name="Trazado 24694" d="M1831.047,476.222l-48.861,131.493L1726.7,448.44Z" transform="translate(-507.673 145.544)" fill="#8c0f53"/>
                  <path id="Trazado_24695" data-name="Trazado 24695" d="M1870.827,219.342,1743.29,203.009,1778.9,34.76Z" transform="translate(-512.668 270.098)" fill="#450024"/>
                  <path id="Trazado_24696" data-name="Trazado 24696" d="M1831.047,431.185,1726.7,403.4,1865.832,298.86Z" transform="translate(-507.673 190.581)" fill="#710632"/>
                  <path id="Trazado_24697" data-name="Trazado 24697" d="M1865.832,291.824,1726.7,396.367l11.6-120.877Z" transform="translate(-507.673 197.617)" fill="#660331"/>
                  <path id="Trazado_24698" data-name="Trazado 24698" d="M1554.047,259.13l118.423,132.311-125.881,87.4Z" transform="translate(-453.443 202.543)" fill="#5d0432"/>
                  <path id="Trazado_24699" data-name="Trazado 24699" d="M1763.633,676.33l-39.754,88.21-58.8-62.895Z" transform="translate(-489.12 76.929)" fill="#8b0542"/>
                  <path id="Trazado_24700" data-name="Trazado 24700" d="M1708.147,448.44l55.487,159.275-98.553,25.315Z" transform="translate(-489.12 145.544)" fill="#96094e"/>
                  <path id="Trazado_24701" data-name="Trazado 24701" d="M1401.291,388.85,1497.356,517.9l-114.286-8.17Z" transform="translate(-404.21 163.486)" fill="#45002f"/>
                  <path id="Trazado_24702" data-name="Trazado 24702" d="M1672.471,448.44,1629.4,633.029l-82.814-97.191Z" transform="translate(-453.443 145.544)" fill="#a01058"/>
                  <path id="Trazado_24703" data-name="Trazado 24703" d="M1687.279,270.564l-11.6,120.877L1557.26,259.13Z" transform="translate(-456.656 202.543)" fill="#53032a"/>
                  <path id="Trazado_24704" data-name="Trazado 24704" d="M1519.118,573.49l82.814,97.191L1455.35,738.475Z" transform="translate(-425.972 107.893)" fill="#a91466"/>
                  <path id="Trazado_24705" data-name="Trazado 24705" d="M1674.076,223.417l-130.018-11.434L1513.41,102.54Z" transform="translate(-443.454 249.69)" fill="#470025"/>
                  <path id="Trazado_24706" data-name="Trazado 24706" d="M1709.685,34.76l-35.609,168.249L1513.41,82.132Z" transform="translate(-443.454 270.098)" fill="#490131"/>
                  <path id="Trazado_24707" data-name="Trazado 24707" d="M1601.933,712.55l58.8,62.9-205.382,4.9Z" transform="translate(-425.972 66.023)" fill="#bf0e5f"/>
                  <path id="Trazado_24708" data-name="Trazado 24708" d="M930.76,480l-90.271,89.838L838,497.151Z" transform="translate(-240.095 136.041)" fill="#b20dcb"/>
                  <path id="Trazado_24709" data-name="Trazado 24709" d="M1784.132,940.575,1455.35,807.439l205.382-4.9Z" transform="translate(-425.972 38.928)" fill="#89063c"/>
                  <path id="Trazado_24710" data-name="Trazado 24710" d="M1357.029,561.8l50.517,173.155L1296.58,691.672Z" transform="translate(-378.169 111.412)" fill="#520a56"/>
                  <path id="Trazado_24711" data-name="Trazado 24711" d="M1512.663,259.13l-7.457,219.71L1409.14,349.793Z" transform="translate(-412.059 202.543)" fill="#450024"/>
                  <path id="Trazado_24712" data-name="Trazado 24712" d="M1497.356,569.97l-63.769,164.985L1383.07,561.8Z" transform="translate(-404.21 111.412)" fill="#4f0844"/>
                  <path id="Trazado_24713" data-name="Trazado 24713" d="M1146.3,399.37l36.434,109.449L1056.03,530.045Z" transform="translate(-305.742 160.318)" fill="#700062"/>
                  <path id="Trazado_24714" data-name="Trazado 24714" d="M1304.257,790.9,953.53,924.039,1193.291,747.62Z" transform="translate(-274.88 55.464)" fill="#600b82"/>
                  <path id="Trazado_24715" data-name="Trazado 24715" d="M1449.191,102.54l30.647,109.443L1300.12,195.649Z" transform="translate(-379.234 249.69)" fill="#6e0941"/>
                  <path id="Trazado_24716" data-name="Trazado 24716" d="M1479.841,252.094l-103.523,90.663-76.188-107Z" transform="translate(-379.237 209.579)" fill="#5f063c"/>
                  <path id="Trazado_24717" data-name="Trazado 24717" d="M1339.189,560.045,1278.74,689.916,1237.33,555.97Z" transform="translate(-360.329 113.168)" fill="#500445"/>
                  <path id="Trazado_24718" data-name="Trazado 24718" d="M1256.96,235.408l-80.333,114.349L1156.75,234.59Z" transform="translate(-336.067 209.932)" fill="#b30f94"/>
                  <path id="Trazado_24719" data-name="Trazado 24719" d="M1357.41,388.85l-18.221,120.877-101.859-4.075Z" transform="translate(-360.329 163.486)" fill="#580742"/>
                  <path id="Trazado_24720" data-name="Trazado 24720" d="M1426,80.019l-149.071,93.109L1223.11,27.74Z" transform="translate(-356.048 272.212)" fill="#a00b71"/>
                  <path id="Trazado_24721" data-name="Trazado 24721" d="M1258.72-210.65,1399.508-82.421l-176.4,38.384Z" transform="translate(-356.048 343.988)" fill="#ac1b9c"/>
                  <path id="Trazado_24722" data-name="Trazado 24722" d="M1399.508-27.18,1426,63.483,1223.11,11.2Z" transform="translate(-356.048 288.748)" fill="#8f0e6b"/>
                  <path id="Trazado_24723" data-name="Trazado 24723" d="M1203.13,27.74l53.83,145.388-100.21-.818Z" transform="translate(-336.067 272.212)" fill="#c81aaf"/>
                  <path id="Trazado_24724" data-name="Trazado 24724" d="M1265.523,235.76l76.188,107-156.521,7.353Z" transform="translate(-344.63 209.579)" fill="#760253"/>
                  <path id="Trazado_24725" data-name="Trazado 24725" d="M1341.711,388.85l-120.08,116.8L1185.19,396.2Z" transform="translate(-344.63 163.486)" fill="#710656"/>
                  <path id="Trazado_24726" data-name="Trazado 24726" d="M1238.739-210.65,1203.13-44.037,1156.75-162.46Z" transform="translate(-336.067 343.988)" fill="#ab24a5"/>
                  <path id="Trazado_24727" data-name="Trazado 24727" d="M1182.743,555.97l41.41,133.946L1056.03,577.2Z" transform="translate(-305.742 113.168)" fill="#56034b"/>
                  <path id="Trazado_24728" data-name="Trazado 24728" d="M963.584,480l59.624,74.322L947.02,605.783Z" transform="translate(-272.92 136.041)" fill="#9807a0"/>
                  <path id="Trazado_24729" data-name="Trazado 24729" d="M1043.544,586.34,1211.66,699.06l-197.1.811Z" transform="translate(-293.255 104.024)" fill="#660962"/>
                  <path id="Trazado_24730" data-name="Trazado 24730" d="M984.8,233.42,1120.609,349.4,970.72,405.758Z" transform="translate(-280.056 210.284)" fill="#bc0ebb"/>
                  <path id="Trazado_24731" data-name="Trazado 24731" d="M795.088-119.271l-71.219,83.3-17.389-88.2Z" transform="translate(-200.496 317.95)" fill="#c41388"/>
                  <path id="Trazado_24732" data-name="Trazado 24732" d="M1120.616,399.37l-90.271,130.675L970.72,455.723Z" transform="translate(-280.056 160.318)" fill="#a614a5"/>
                  <path id="Trazado_24733" data-name="Trazado 24733" d="M1153.9,25.28l-46.38,144.57L993.23,19.57Z" transform="translate(-286.833 274.672)" fill="#db30d7"/>
                  <path id="Trazado_24734" data-name="Trazado 24734" d="M1107.516-141.7,1153.9-23.276,993.23-28.994Z" transform="translate(-286.833 323.228)" fill="#d230c4"/>
                  <path id="Trazado_24735" data-name="Trazado 24735" d="M1028.839-177.93l78.677,25.322L993.23-39.9Z" transform="translate(-286.833 334.137)" fill="#c829a9"/>
                  <path id="Trazado_24736" data-name="Trazado 24736" d="M1106.8,234.238,1126.679,349.4,990.86,233.42Z" transform="translate(-286.12 210.284)" fill="#c418c2"/>
                  <path id="Trazado_24737" data-name="Trazado 24737" d="M992.516,19.56,1106.8,169.847l-115.943-.818Z" transform="translate(-286.12 274.675)" fill="#d228e1"/>
                  <path id="Trazado_24738" data-name="Trazado 24738" d="M1023.208,586.34,994.225,699.871l-47.2-62.07Z" transform="translate(-272.92 104.024)" fill="#890d8f"/>
                  <path id="Trazado_24739" data-name="Trazado 24739" d="M661.17,966.613H-17.48v-.161L396.576,889.02Z" transform="translate(17.48 12.89)" fill="#ad0984"/>
                  <path id="Trazado_24740" data-name="Trazado 24740" d="M1633.04,942.686H953.53L1304.257,809.55Z" transform="translate(-274.88 36.818)" fill="#6e0a62"/>
                  <path id="Trazado_24741" data-name="Trazado 24741" d="M89.328-223.65,42.116-89.7l-59.6-307.626V-400.3Z" transform="translate(17.48 401.09)" fill="#500b5c"/>
                  <path id="Trazado_24742" data-name="Trazado 24742" d="M888.517,407.55l42.242,50.636L838,475.337Z" transform="translate(-240.095 157.855)" fill="#b309cc"/>
                  <path id="Trazado_24743" data-name="Trazado 24743" d="M966.6,233.42,952.522,405.758,910.28,355.121Z" transform="translate(-261.858 210.284)" fill="#aa0fcb"/>
                  <path id="Trazado_24744" data-name="Trazado 24744" d="M915.267,644.485,841.56,709.826V608.54Z" transform="translate(-241.167 97.34)" fill="#ac07c3"/>
                  <path id="Trazado_24745" data-name="Trazado 24745" d="M919.817,924.388,841.56,752.051l120.912-3.271Z" transform="translate(-241.167 55.115)" fill="#7e009d"/>
                  <path id="Trazado_24746" data-name="Trazado 24746" d="M915.267,659.97l47.2,62.07L841.56,725.311Z" transform="translate(-241.167 81.855)" fill="#9004a5"/>
                  <path id="Trazado_24747" data-name="Trazado 24747" d="M931.831,480,915.267,605.783,841.56,569.838Z" transform="translate(-241.167 136.041)" fill="#b008c0"/>
                  <path id="Trazado_24748" data-name="Trazado 24748" d="M980.674-177.93,945.065-39.9l-111.8-95.555Z" transform="translate(-238.668 334.137)" fill="#db22a2"/>
                  <path id="Trazado_24749" data-name="Trazado 24749" d="M750.941,567.65l46.38,28.578L694.63,637.891Z" transform="translate(-196.928 109.651)" fill="#b90cca"/>
                  <path id="Trazado_24750" data-name="Trazado 24750" d="M819.092,504.54l2.488,72.687L775.2,548.648Z" transform="translate(-221.187 128.653)" fill="#be12d6"/>
                  <path id="Trazado_24751" data-name="Trazado 24751" d="M914.384,14.285l-158.185,156L731.36,2.04Z" transform="translate(-207.987 279.95)" fill="#cb16c5"/>
                  <path id="Trazado_24752" data-name="Trazado 24752" d="M325.082-177.93l101.859,72.694L270.42,5.842Z" transform="translate(-69.203 334.137)" fill="#900e70"/>
                  <path id="Trazado_24753" data-name="Trazado 24753" d="M925.085,19.56l-1.656,149.469L766.9,175.564Z" transform="translate(-218.688 274.675)" fill="#cc16e5"/>
                  <path id="Trazado_24754" data-name="Trazado 24754" d="M923.428,233.42l-56.318,121.7L766.9,239.955Z" transform="translate(-218.688 210.284)" fill="#b516ee"/>
                  <path id="Trazado_24755" data-name="Trazado 24755" d="M802.579-117.16,914.384-21.6,731.36-33.857Z" transform="translate(-207.987 315.84)" fill="#dd1aa6"/>
                  <path id="Trazado_24756" data-name="Trazado 24756" d="M607.18,376l95.241,133.946L533.48,449.5Z" transform="translate(-148.408 167.355)" fill="#cd2bee"/>
                  <path id="Trazado_24757" data-name="Trazado 24757" d="M702.421,541.612l-56.311,70.241L533.48,481.17Z" transform="translate(-148.408 135.689)" fill="#c521d8"/>
                  <path id="Trazado_24758" data-name="Trazado 24758" d="M797.321,608.54V709.826L694.63,650.2Z" transform="translate(-196.928 97.34)" fill="#af09c3"/>
                  <path id="Trazado_24759" data-name="Trazado 24759" d="M680.436-124.17l17.389,88.2L619.98-62.917Z" transform="translate(-174.452 317.95)" fill="#b40d7f"/>
                  <path id="Trazado_24760" data-name="Trazado 24760" d="M578.119,102.54l126.706,98.008L560.73,230.769Z" transform="translate(-156.612 249.69)" fill="#cd22d3"/>
                  <path id="Trazado_24761" data-name="Trazado 24761" d="M778.062,465.838l-43.892,44.108L638.93,376Z" transform="translate(-180.158 167.355)" fill="#c017e6"/>
                  <path id="Trazado_24762" data-name="Trazado 24762" d="M828.58,398.051l-50.517,67.787L638.93,376Z" transform="translate(-180.158 167.355)" fill="#b814e5"/>
                  <path id="Trazado_24763" data-name="Trazado 24763" d="M728.37,242.77,828.58,357.937,638.93,335.886Z" transform="translate(-180.158 207.469)" fill="#c418f8"/>
                  <path id="Trazado_24764" data-name="Trazado 24764" d="M603.109,757.542l158.178-4.082L574.95,848.2Z" transform="translate(-160.894 53.706)" fill="#c10dac"/>
                  <path id="Trazado_24765" data-name="Trazado 24765" d="M670.727,668.15l102.691,59.624L615.24,731.856Z" transform="translate(-173.025 79.392)" fill="#bc14bf"/>
                  <path id="Trazado_24766" data-name="Trazado 24766" d="M609.631-36.53,687.476-9.58,585.61,60.668Z" transform="translate(-164.104 291.563)" fill="#c31392"/>
                  <path id="Trazado_24767" data-name="Trazado 24767" d="M687.476,2.03l24.839,168.256L585.61,72.278Z" transform="translate(-164.104 279.953)" fill="#c418ba"/>
                  <path id="Trazado_24768" data-name="Trazado 24768" d="M488.664-73.92l87.79,26.132L475.42,33.894Z" transform="translate(-130.927 302.82)" fill="#8e0867"/>
                  <path id="Trazado_24769" data-name="Trazado 24769" d="M581.133,376l-73.7,73.5L446.97,384.163Z" transform="translate(-122.361 167.355)" fill="#d83eee"/>
                  <path id="Trazado_24770" data-name="Trazado 24770" d="M95.129,141.3-17.48,221.557v-1.894L42.116,44.11Z" transform="translate(17.48 267.283)" fill="#911695"/>
                  <path id="Trazado_24771" data-name="Trazado 24771" d="M839.544,925.8,574.95,848.2,761.287,753.46Z" transform="translate(-160.894 53.706)" fill="#9f06ac"/>
                  <path id="Trazado_24772" data-name="Trazado 24772" d="M704.825,242.77l-89.44,93.116-54.655-62.9Z" transform="translate(-156.612 207.469)" fill="#cb29ee"/>
                  <path id="Trazado_24773" data-name="Trazado 24773" d="M526.478,286.01l54.655,62.9L446.97,357.068Z" transform="translate(-122.361 194.45)" fill="#db3dea"/>
                  <path id="Trazado_24774" data-name="Trazado 24774" d="M457.74,186.68,526.478,256.1,446.97,327.161Z" transform="translate(-122.361 224.357)" fill="#db2fd1"/>
                  <path id="Trazado_24775" data-name="Trazado 24775" d="M42.116-88.414-17.48,87.138V-396.04Z" transform="translate(17.48 399.807)" fill="#4e0a6f"/>
                  <path id="Trazado_24776" data-name="Trazado 24776" d="M471.494,80.33l77.013,15.523L462.38,154.659Z" transform="translate(-127 256.378)" fill="#b6148e"/>
                  <path id="Trazado_24777" data-name="Trazado 24777" d="M576.455-36.53l-24.022,97.2L475.42,45.145Z" transform="translate(-130.927 291.563)" fill="#ab0c82"/>
                  <path id="Trazado_24778" data-name="Trazado 24778" d="M548.507,102.54,531.118,230.769,462.38,161.346Z" transform="translate(-127 249.69)" fill="#d022b9"/>
                  <path id="Trazado_24779" data-name="Trazado 24779" d="M405.371,603.87,550.3,712.5,399.57,750.886Z" transform="translate(-108.089 98.745)" fill="#cd23c1"/>
                  <path id="Trazado_24780" data-name="Trazado 24780" d="M69.444,611.57-17.48,552.785v-.028l150.7-99.637Z" transform="translate(17.48 144.135)" fill="#b6169c"/>
                  <path id="Trazado_24781" data-name="Trazado 24781" d="M495.66,481.17,608.29,611.852,407.87,566.927Z" transform="translate(-110.588 135.689)" fill="#dd3de5"/>
                  <path id="Trazado_24782" data-name="Trazado 24782" d="M608.29,648.8,552.8,712.5,407.87,603.87Z" transform="translate(-110.588 98.745)" fill="#d229ca"/>
                  <path id="Trazado_24783" data-name="Trazado 24783" d="M550.3,759.3l-28.159,90.663L399.57,797.684Z" transform="translate(-108.089 51.947)" fill="#ba12a7"/>
                  <path id="Trazado_24784" data-name="Trazado 24784" d="M426.941-73.92,413.7,33.894,270.42,37.158Z" transform="translate(-69.203 302.82)" fill="#8c0967"/>
                  <path id="Trazado_24785" data-name="Trazado 24785" d="M488.883,474.134l-87.79,85.756L385.36,457.8Z" transform="translate(-103.811 142.726)" fill="#ca35e9"/>
                  <path id="Trazado_24786" data-name="Trazado 24786" d="M428.417,387.68l60.463,65.341L385.35,436.688Z" transform="translate(-103.808 163.838)" fill="#d63ce8"/>
                  <path id="Trazado_24787" data-name="Trazado 24787" d="M133.219,371.841-17.48,264.635v-1.209L95.129,183.17Z" transform="translate(17.48 225.414)" fill="#a81182"/>
                  <path id="Trazado_24788" data-name="Trazado 24788" d="M429.914,186.68l-10.77,140.481-64.593-73.5Z" transform="translate(-94.534 224.357)" fill="#cd1fb4"/>
                  <path id="Trazado_24789" data-name="Trazado 24789" d="M419.143,356.014l-43.067,49.008L354.55,282.51Z" transform="translate(-94.534 195.503)" fill="#cd2bcc"/>
                  <path id="Trazado_24790" data-name="Trazado 24790" d="M413.7,80.33l-9.114,74.329L270.42,83.6Z" transform="translate(-69.203 256.378)" fill="#8e0b6b"/>
                  <path id="Trazado_24791" data-name="Trazado 24791" d="M404.583,156.068l-75.364,66.977L270.42,85.01Z" transform="translate(-69.203 254.968)" fill="#8e0b73"/>
                  <path id="Trazado_24792" data-name="Trazado 24792" d="M284.411-177.93,229.749,5.842,135.34-156.7Z" transform="translate(-28.532 334.137)" fill="#7f0e7a"/>
                  <path id="Trazado_24793" data-name="Trazado 24793" d="M361.135,603.87l-5.8,147.016L252.65,705.149Z" transform="translate(-63.853 98.745)" fill="#aa1dc1"/>
                  <path id="Trazado_24794" data-name="Trazado 24794" d="M209.41,72.7,120.8,141.3,67.79,44.11Z" transform="translate(-8.194 267.283)" fill="#901186"/>
                  <path id="Trazado_24795" data-name="Trazado 24795" d="M328.983,456.391l15.739,102.09L198.14,453.12Z" transform="translate(-47.441 144.135)" fill="#bf26d6"/>
                  <path id="Trazado_24796" data-name="Trazado 24796" d="M344.723,558.481,236.238,659.76l-38.1-206.64Z" transform="translate(-47.441 144.135)" fill="#b526d0"/>
                  <path id="Trazado_24797" data-name="Trazado 24797" d="M307.457,282.51l21.526,122.512L198.14,401.751Z" transform="translate(-47.441 195.503)" fill="#b919ad"/>
                  <path id="Trazado_24798" data-name="Trazado 24798" d="M291.047,252.6,181.731,371.841,143.64,183.17Z" transform="translate(-31.031 225.414)" fill="#8d0c73"/>
                  <path id="Trazado_24799" data-name="Trazado 24799" d="M232.248,85.01l58.8,138.035L143.64,153.615Z" transform="translate(-31.031 254.968)" fill="#940d73"/>
                  <path id="Trazado_24800" data-name="Trazado 24800" d="M133.219,406.936l-150.7,99.637V299.73Z" transform="translate(17.48 190.319)" fill="#b20f82"/>
                  <path id="Trazado_24801" data-name="Trazado 24801" d="M170.669,453.12l38.1,206.64L106.9,611.57Z" transform="translate(-19.969 144.135)" fill="#bd1ec0"/>
                  <path id="Trazado_24802" data-name="Trazado 24802" d="M115-147.55,209.41,14.989,67.79-13.6Z" transform="translate(-8.194 324.99)" fill="#750f7d"/>
                </g>
              </g>
              <path id="Trazado_24803" data-name="Trazado 24803" d="M178-229.96V42.93h116.25V-89.486h101.72v74.273h106.57V94.579h56.507V-45.9l75.888-75.881V80.049s7.954.657,17.969,1.251v97.219H-19V-259Zm434,147.925L603.653-73.7v45.045h8.338Zm8.771,151.049H629.1V52.344h-8.338Zm0-46.506H629.1V5.838h-8.338Zm0-23.246H629.1V-17.414h-8.338Zm0-27.915H629.1V-99.145l-8.338,8.331ZM603.653,92.259h8.338V75.6h-8.338Zm0-46.506h8.338V29.091h-8.338Zm0-23.253h8.338V5.838h-8.338ZM586.544,69.006h8.338V52.344h-8.338Zm0-69.751h8.338V-17.414h-8.338Zm0-27.915h8.338V-64.926l-8.338,8.338ZM479.387,75.855H490.9V52.791H479.387Zm0-64.258H490.9V-11.432H479.387Zm-27.348,0h11.511V-11.432H452.066ZM371.51,6.188h8.338V-10.481H371.51Zm0-23.253h8.338V-33.734H371.51Zm0-23.253h8.338v-16.7H371.51Zm0-23.253h8.338V-80.239H371.51ZM354.4,29.441h8.338V12.772H354.4Zm0-46.506h8.338V-33.734H354.4Zm0-23.253h8.338v-16.7H354.4ZM337.291,6.188h8.331V-10.481h-8.331Zm0-23.253h8.331V-33.734h-8.331Zm0-46.506h8.331V-80.239h-8.331ZM162.319,80.985h13.8V53.413h-13.8Zm0-77h13.8V-23.621h-13.8Zm0-38.5h13.8v-27.6h-13.8Zm0-38.5h13.8V-100.62h-13.8Zm0-77.006h13.8v-27.6h-13.8Zm-28.327,192.5h13.8v-27.6h-13.8Zm0-38.5h13.8V-23.621h-13.8Zm0-77h13.8V-100.62h-13.8Zm0-38.5h13.8v-27.6h-13.8Zm-28.334,192.5h13.8V53.413h-13.8Zm0-38.5h13.8v-27.6h-13.8Zm0-77h13.8v-27.6h-13.8Zm0-77h13.8v-27.6h-13.8Zm0-38.5h13.8v-27.6h-13.8Zm-28.327,231h13.8V53.413h-13.8Zm0-77h13.8V-23.621h-13.8Zm0-77h13.8V-100.62h-13.8Zm0-77.006h13.8v-27.6h-13.8Z" transform="translate(21.747 240.402)" fill="#b51596" opacity="0.68"/>
              <path id="Trazado_24804" data-name="Trazado 24804" d="M966.463-399.18C570.886-353.45-.768-142.12-22.93,694.393V-399.18Z" transform="translate(22.93 282.609)" fill="url(#linear-gradient)"/>
              <path id="Trazado_24805" data-name="Trazado 24805" d="M510.69-399.18h985.36V612.886C1440.011-155.994,893.085-354.974,510.69-399.18Z" transform="translate(-137.737 282.609)" fill="url(#linear-gradient-2)"/>
              <path id="Trazado_24806" data-name="Trazado 24806" d="M1335.383,456.012H-22.93V29.907A44.43,44.43,0,0,1,16.635,63.385a44.227,44.227,0,0,1,6.989,12.042,44.4,44.4,0,0,1,59.617,22.98,44.388,44.388,0,0,1,70.786,1.041,44.269,44.269,0,0,1,20.387-1.957,44.395,44.395,0,0,1,66.837-32.779,44.213,44.213,0,0,1,28.76-10.6,44.934,44.934,0,0,1,7.5.643,44.388,44.388,0,0,1,85.568,15.474,44.172,44.172,0,0,1,20.436,8.142,44.388,44.388,0,0,1,76.517,23.763,44.4,44.4,0,0,1,42.725,4.11,44.381,44.381,0,0,1,73.2-25.161,44.395,44.395,0,0,1,75.65,45.129h547.3a54.466,54.466,0,0,1,61.868-44.248,54.438,54.438,0,0,1,74.616-24.315Z" transform="translate(22.93 154.319)" fill="#990d7b" opacity="0.68"/>
              <path id="Trazado_24807" data-name="Trazado 24807" d="M1336.533,681.236H-21.78v-426.1a44.409,44.409,0,0,1,39.565,33.471,44.431,44.431,0,0,1,6.989,12.042,44.395,44.395,0,0,1,59.61,22.987,44.381,44.381,0,0,1,70.786,1.034,44.423,44.423,0,0,1,14.335-2.376,45.636,45.636,0,0,1,6.06.419,44.388,44.388,0,0,1,66.858-32.793,44.22,44.22,0,0,1,28.767-10.589,44.858,44.858,0,0,1,7.492.636,44.388,44.388,0,0,1,85.568,15.495,44.156,44.156,0,0,1,20.443,8.135,44.388,44.388,0,0,1,76.51,23.763,44.4,44.4,0,0,1,42.724,4.11,44.388,44.388,0,0,1,73.2-25.161,44.395,44.395,0,0,1,75.622,45.108h547.3a54.459,54.459,0,0,1,61.861-44.248,54.438,54.438,0,0,1,74.616-24.294Z" transform="translate(22.584 86.511)" fill="#630656" opacity="0.68"/>
              <path id="Trazado_24808" data-name="Trazado 24808" d="M-22.19,460.312v2.4L1162.954,491.7l174.1-892.873v-.007H1167.28Z" transform="translate(22.707 283.211)" fill-rule="evenodd" opacity="0.22" fill="url(#linear-gradient-3)" style="mix-blend-mode: screen;isolation: isolate"/>
              <ellipse id="Elipse_528" data-name="Elipse 528" cx="364.482" cy="352.37" rx="364.482" ry="352.37" transform="translate(618.942 -71.03)" fill="url(#radial-gradient-3)"/>
              <rect id="Rectángulo_410" data-name="Rectángulo 410" width="1358.313" height="248.889" transform="translate(0 610.856)" fill="url(#radial-gradient-4)"/>
              <rect id="Rectángulo_411" data-name="Rectángulo 411" width="1358.313" height="11.19" transform="translate(0 821.2)" fill="#991e21"/>
              <rect id="Rectángulo_412" data-name="Rectángulo 412" width="1358.313" height="11.19" transform="translate(0 627.448)" fill="#991e21"/>
              <path id="Trazado_24809" data-name="Trazado 24809" d="M-20.3,385.571c29.99,29.885,78.047,66.194,134.575,66.194,84.023,0,159.534-80.207,177.153-100.322a8.688,8.688,0,0,1-1.293-4.536,9.016,9.016,0,0,1,9.177-8.883,9.156,9.156,0,0,1,8.387,5.312h3.935l.084-4.934a26.132,26.132,0,0,1-17.1-24.308c0-14.4,12.021-26.083,26.859-26.083s26.866,11.679,26.866,26.083a26.125,26.125,0,0,1-17.1,24.308l.084,4.816v.119h5.347a9.17,9.17,0,0,1,8.387-5.312,9.016,9.016,0,0,1,9.142,8.883,8.708,8.708,0,0,1-1.006,4C367.386,369.992,431.078,451.8,534.754,451.8c44.479,0,90.285-22.477,126.223-46.617.168.37.322.741.51,1.111a64.866,64.866,0,0,0,7.073,10.169c.587.748,1.2,1.489,1.8,2.237-3.138,2.376-6.367,4.732-9.708,7.031-1.2.825-2.411,1.649-3.641,2.467-4.892,3.257-10.022,6.409-15.327,9.4q-3.984,2.243-8.107,4.354c-28.516,14.579-66.725,21.464-98.819,21.464q-4.892,0-9.638-.308c-14.307-.909-44.625-3.8-57.416-8.1q-4.267-1.436-8.387-3.068a191.079,191.079,0,0,1-22.065-10.393q-1.607-.881-3.18-1.782-8.02-4.581-15.376-9.687c-.657-.454-1.307-.9-1.95-1.356q-2.53-1.775-4.976-3.585c-5.249-3.886-10.225-7.9-14.915-11.951q-2.048-1.761-4.019-3.537-2.264-2.034-4.431-4.075c-5.081-4.767-9.785-9.519-13.978-14.111-2.537-2.74-4.892-5.424-7.15-8.017q-1.09-1.279-2.139-2.523c-2.663-3.187-5.081-6.213-7.241-9.03l-.79-1.041c-2.677-3.543-4.892-6.724-6.731-9.421-.454-.7-.888-1.335-1.279-1.95q-1.4-2.2-2.327-3.809a9.235,9.235,0,0,1-1.656.154,9.086,9.086,0,0,1-9.086-7.688h-4.592l2.8,160.2c19.458,1.5,33.722,6.36,33.722,12.133V529.2c0,6.989-20.716,12.58-46.275,12.58-2.88,0-5.689-.077-8.387-.21h-.119l-1.922-.112h-.182l-1.866-.133h-.182l-1.838-.154h-.14l-1.866-.182c-3.844-.4-7.443-.937-10.714-1.587h-.07l-1.4-.286-.294-.063-1.23-.287-.391-.091-1.118-.28-.433-.112-1.034-.279-.461-.133-.951-.28-.468-.147-.888-.286-.454-.161-.839-.294-.412-.161-.8-.315c-.119-.042-.224-.091-.335-.14a15.5,15.5,0,0,1-1.5-.7l-.321-.154c-.175-.084-.342-.175-.51-.266l-.475-.252-.454-.266-.447-.273c-.14-.084-.266-.175-.4-.266l-.412-.286c-.126-.084-.238-.175-.349-.259l-.37-.3-.3-.266-.328-.315-.245-.259c-.1-.112-.2-.217-.28-.328l-.2-.259c-.084-.112-.154-.231-.224-.342s-.1-.168-.154-.259a3.435,3.435,0,0,1-.168-.364c-.035-.077-.077-.161-.1-.238s-.077-.273-.112-.412-.042-.133-.056-.2a3.807,3.807,0,0,1-.056-.622v-8.75c0-5.738,14.076-10.575,33.331-12.1l2.8-160.239h-3.173a9.086,9.086,0,0,1-9.086,7.688,8.638,8.638,0,0,1-1.209-.091,311.715,311.715,0,0,1-57.8,59.827c-1.1.867-2.2,1.726-3.327,2.579q-5.053,3.858-10.484,7.59c-1.2.825-2.411,1.649-3.641,2.467q-3.676,2.439-7.513,4.8c-1.279.783-2.565,1.559-3.872,2.327q-6.856,4.033-14.181,7.688c-1.4.7-2.8,1.4-4.193,2.041a199.889,199.889,0,0,1-31.612,11.819q-2.1.587-4.291,1.132a174.486,174.486,0,0,1-42.892,5.41,160.988,160.988,0,0,1-62.839-13.147q-8.167-3.48-15.823-7.576-3.83-2.048-7.52-4.194-1.845-1.09-3.662-2.2A253.911,253.911,0,0,1-20.3,400.849Zm365.321-33.5h0a4.428,4.428,0,0,1,.1-.944,2.356,2.356,0,0,1,.056-.238,5.786,5.786,0,0,1,.217-.643,1.116,1.116,0,0,1,.07-.161c1.279-2.691,4.892-3.18,4.892-3.18a5.242,5.242,0,0,0-5.312-5.165,5.389,5.389,0,0,0-3.837,1.594h2.956v4.774h-4.319A5.277,5.277,0,0,0,345.021,352.072Zm-50.846-3.816c.734-.874,1.118-1.349,1.118-1.349a5.113,5.113,0,0,1,3.83.881h0l.273.252.091.1a3.7,3.7,0,0,1,.643.93v.035a5.1,5.1,0,0,1,.419,1.4h0a7.065,7.065,0,0,1,.077.867v.049a4.513,4.513,0,0,1,0,.475,5.235,5.235,0,0,0,3.816-3.76h-4.131v-4.788h2.8a5.361,5.361,0,0,0-3.83-1.594,5.249,5.249,0,0,0-5.319,5.165A4.815,4.815,0,0,0,294.175,348.256Z" transform="translate(22.138 75.703)" fill="#e1b3ff" opacity="0.51"/>
              <ellipse id="Elipse_529" data-name="Elipse 529" cx="85.197" cy="30.668" rx="85.197" ry="30.668" transform="translate(565.482 902.274)" fill="#303030" opacity="0.45"/>
              <ellipse id="Elipse_530" data-name="Elipse 530" cx="85.197" cy="30.668" rx="85.197" ry="30.668" transform="translate(1.496 902.274)" fill="#303030" opacity="0.45"/>
              <ellipse id="Elipse_531" data-name="Elipse 531" cx="85.197" cy="30.668" rx="85.197" ry="30.668" transform="translate(1122.661 902.274)" fill="#303030" opacity="0.45"/>
              <path id="Trazado_24810" data-name="Trazado 24810" d="M1618.24,1072.131c0,9.911,28.655,17.941,63.964,17.941s63.964-8.031,63.964-17.941v-12.42c-7.241-2.488-35.2-5.521-63.964-5.521-21.96,0-52.418.79-63.964,5.521Z" transform="translate(-471.208 -154.984)" fill="#b68636"/>
              <path id="Trazado_24811" data-name="Trazado 24811" d="M1673.58,1054.26v16.907c-.1,6.29,0,12.5-.217,18.752-31.136-1.209-55.123-8.7-55.123-17.766v-12.42C1628.311,1055.6,1652.878,1054.477,1673.58,1054.26Z" transform="translate(-471.208 -155.006)" fill="#936e2b"/>
              <ellipse id="Elipse_532" data-name="Elipse 532" cx="63.964" cy="17.941" rx="63.964" ry="17.941" transform="translate(1147.032 886.786)" fill="#cb953d"/>
              <path id="Trazado_24812" data-name="Trazado 24812" d="M1716.668,1039.306s38.44,3.04,38.44,15.208c0,10.791-52.1,16.131-77.376,12.58-17.172-2.391-8.044-5.647-1.524-3.914s56.731,1.524,65.425-7.821-22.17-13.692-25.217-13.908S1712.537,1038.866,1716.668,1039.306Z" transform="translate(-486.15 -150.487)" fill="#ecb02a"/>
              <path id="Trazado_24813" data-name="Trazado 24813" d="M1683.76,940.061s9.827,3.292,19.283,3.292a43,43,0,0,0,16.522-3.292l-4.794-281.151h-26.216Z" transform="translate(-490.935 -35.97)" fill="#cb953d"/>
              <path id="Trazado_24814" data-name="Trazado 24814" d="M1688.555,658.91h26.216l.5,29.515a59.71,59.71,0,0,1-20.464,1.971l-1.649,251.978a75.325,75.325,0,0,1-9.4-2.313Z" transform="translate(-490.935 -35.97)" fill="#936e2b"/>
              <circle id="Elipse_533" data-name="Elipse 533" cx="37.133" cy="37.133" r="37.133" transform="translate(1173.598 573.869)" fill="#cb953d"/>
              <ellipse id="Elipse_534" data-name="Elipse 534" cx="14.908" cy="26.838" rx="14.908" ry="26.838" transform="translate(1179.941 629.989) rotate(-83.99)" fill="#b68636"/>
              <ellipse id="Elipse_535" data-name="Elipse 535" cx="13.978" cy="24.029" rx="13.978" ry="24.029" transform="matrix(0.392, -0.92, 0.92, 0.392, 1191.124, 595.278)" fill="#ecb02a"/>
              <ellipse id="Elipse_536" data-name="Elipse 536" cx="7.793" cy="16.41" rx="7.793" ry="16.41" transform="matrix(0.392, -0.92, 0.92, 0.392, 1180.739, 636.755)" fill="#ecb02a"/>
              <ellipse id="Elipse_537" data-name="Elipse 537" cx="4.92" cy="12.238" rx="4.92" ry="12.238" transform="matrix(0.392, -0.92, 0.92, 0.392, 1206.928, 584.387)" fill="#ffc64a"/>
              <path id="Trazado_24815" data-name="Trazado 24815" d="M1709.231,721.011s-.112,211.337-.112,221.967,12.909,12.147,12.147-.762-5.2-216.663-5.2-221.967S1707.714,715.692,1709.231,721.011Z" transform="translate(-498.548 -53.348)" fill="#ecb02a"/>
              <path id="Trazado_24816" data-name="Trazado 24816" d="M1719.575,1060.481a94.334,94.334,0,0,1-19.234,2.23c-2.8,0-10.064-1.062-12.434-2.642s-3.257-1.782-4.138.412C1683.763,1060.481,1699.258,1068.6,1719.575,1060.481Z" transform="translate(-490.938 -156.39)" fill="#936e2b"/>
              <rect id="Rectángulo_413" data-name="Rectángulo 413" width="60.589" height="6.807" transform="translate(1242.112 659.437) rotate(180)" fill="#cb953d"/>
              <path id="Trazado_24817" data-name="Trazado 24817" d="M818.72,1072.131c0,9.911,28.655,17.941,63.964,17.941s63.964-8.031,63.964-17.941v-12.42c-7.248-2.488-35.2-5.521-63.964-5.521-21.967,0-52.418.79-63.964,5.521Z" transform="translate(-230.481 -154.984)" fill="#b68636"/>
              <path id="Trazado_24818" data-name="Trazado 24818" d="M874.053,1054.26v16.907c-.091,6.29,0,12.5-.21,18.752-31.143-1.209-55.123-8.7-55.123-17.766v-12.42C828.791,1055.6,853.358,1054.477,874.053,1054.26Z" transform="translate(-230.481 -155.006)" fill="#936e2b"/>
              <ellipse id="Elipse_538" data-name="Elipse 538" cx="63.964" cy="17.941" rx="63.964" ry="17.941" transform="translate(588.239 886.786)" fill="#cb953d"/>
              <path id="Trazado_24819" data-name="Trazado 24819" d="M917.153,1039.306s38.475,3.04,38.475,15.208c0,10.791-52.111,16.131-77.376,12.58-17.172-2.391-8.045-5.647-1.524-3.914s56.724,1.524,65.418-7.821-22.169-13.692-25.21-13.908S913.022,1038.866,917.153,1039.306Z" transform="translate(-245.436 -150.487)" fill="#ecb02a"/>
              <path id="Trazado_24820" data-name="Trazado 24820" d="M884.24,940.061s9.827,3.292,19.276,3.292a43.014,43.014,0,0,0,16.529-3.292L915.251,658.91H889.035Z" transform="translate(-250.209 -35.97)" fill="#cb953d"/>
              <path id="Trazado_24821" data-name="Trazado 24821" d="M889.035,658.91h26.216l.5,29.515a59.75,59.75,0,0,1-20.464,2L893.64,942.4a75.36,75.36,0,0,1-9.4-2.313Z" transform="translate(-250.209 -35.97)" fill="#936e2b"/>
              <circle id="Elipse_539" data-name="Elipse 539" cx="37.133" cy="37.133" r="37.133" transform="translate(614.797 573.869)" fill="#cb953d"/>
              <ellipse id="Elipse_540" data-name="Elipse 540" cx="14.908" cy="26.838" rx="14.908" ry="26.838" transform="translate(621.147 629.984) rotate(-83.99)" fill="#b68636"/>
              <ellipse id="Elipse_541" data-name="Elipse 541" cx="13.978" cy="24.029" rx="13.978" ry="24.029" transform="matrix(0.392, -0.92, 0.92, 0.392, 632.333, 595.272)" fill="#ecb02a"/>
              <ellipse id="Elipse_542" data-name="Elipse 542" cx="7.793" cy="16.41" rx="7.793" ry="16.41" transform="matrix(0.392, -0.92, 0.92, 0.392, 621.948, 636.756)" fill="#ecb02a"/>
              <ellipse id="Elipse_543" data-name="Elipse 543" cx="4.92" cy="12.238" rx="4.92" ry="12.238" transform="matrix(0.392, -0.92, 0.92, 0.392, 648.135, 584.394)" fill="#ffc64a"/>
              <path id="Trazado_24822" data-name="Trazado 24822" d="M909.7,721.011s-.1,211.337-.1,221.967,12.9,12.147,12.147-.762-5.207-216.663-5.207-221.967S908.184,715.692,909.7,721.011Z" transform="translate(-257.819 -53.348)" fill="#ecb02a"/>
              <path id="Trazado_24823" data-name="Trazado 24823" d="M920.045,1060.481a94.335,94.335,0,0,1-19.234,2.23c-2.831,0-10.071-1.062-12.441-2.642s-3.257-1.782-4.131.412C884.24,1060.481,899.735,1068.6,920.045,1060.481Z" transform="translate(-250.209 -156.39)" fill="#936e2b"/>
              <rect id="Rectángulo_414" data-name="Rectángulo 414" width="60.589" height="6.807" transform="translate(683.312 659.437) rotate(180)" fill="#cb953d"/>
              <path id="Trazado_24824" data-name="Trazado 24824" d="M19.19,1072.131c0,9.911,28.655,17.941,63.964,17.941s63.971-8.031,63.971-17.941v-12.42c-7.248-2.488-35.2-5.521-63.971-5.521-21.96,0-52.418.79-63.964,5.521Z" transform="translate(10.248 -154.984)" fill="#b68636"/>
              <path id="Trazado_24825" data-name="Trazado 24825" d="M74.53,1054.26v16.907c-.1,6.29,0,12.5-.21,18.752-31.144-1.209-55.13-8.7-55.13-17.766v-12.42C29.261,1055.6,53.835,1054.477,74.53,1054.26Z" transform="translate(10.248 -155.006)" fill="#936e2b"/>
              <ellipse id="Elipse_544" data-name="Elipse 544" cx="63.964" cy="17.941" rx="63.964" ry="17.941" transform="translate(29.438 886.786)" fill="#cb953d"/>
              <path id="Trazado_24826" data-name="Trazado 24826" d="M117.619,1039.306s38.44,3.04,38.44,15.208c0,10.791-52.1,16.131-77.376,12.58-17.172-2.391-8.037-5.647-1.524-3.914s56.731,1.524,65.425-7.821-22.169-13.692-25.21-13.908S113.488,1038.866,117.619,1039.306Z" transform="translate(-4.696 -150.487)" fill="#ecb02a"/>
              <path id="Trazado_24827" data-name="Trazado 24827" d="M84.71,940.061s9.827,3.292,19.283,3.292a43.068,43.068,0,0,0,16.529-3.292l-4.8-281.151H89.512Z" transform="translate(-9.479 -35.97)" fill="#cb953d"/>
              <path id="Trazado_24828" data-name="Trazado 24828" d="M89.512,658.91h26.209l.51,29.515a59.769,59.769,0,0,1-20.471,2L94.11,942.4a75.758,75.758,0,0,1-9.4-2.313Z" transform="translate(-9.479 -35.97)" fill="#936e2b"/>
              <circle id="Elipse_545" data-name="Elipse 545" cx="37.133" cy="37.133" r="37.133" transform="translate(56.004 573.869)" fill="#cb953d"/>
              <ellipse id="Elipse_546" data-name="Elipse 546" cx="14.908" cy="26.838" rx="14.908" ry="26.838" transform="translate(62.347 629.979) rotate(-83.99)" fill="#b68636"/>
              <ellipse id="Elipse_547" data-name="Elipse 547" cx="13.978" cy="24.029" rx="13.978" ry="24.029" transform="matrix(0.392, -0.92, 0.92, 0.392, 73.54, 595.278)" fill="#ecb02a"/>
              <ellipse id="Elipse_548" data-name="Elipse 548" cx="7.793" cy="16.41" rx="7.793" ry="16.41" transform="matrix(0.392, -0.92, 0.92, 0.392, 63.155, 636.763)" fill="#ecb02a"/>
              <ellipse id="Elipse_549" data-name="Elipse 549" cx="4.92" cy="12.238" rx="4.92" ry="12.238" transform="matrix(0.392, -0.92, 0.92, 0.392, 89.344, 584.395)" fill="#ffc64a"/>
              <path id="Trazado_24829" data-name="Trazado 24829" d="M110.18,721.01s-.112,211.337-.112,221.967,12.909,12.147,12.147-.762-5.228-216.655-5.228-221.967S108.664,715.691,110.18,721.01Z" transform="translate(-17.092 -53.347)" fill="#ecb02a"/>
              <path id="Trazado_24830" data-name="Trazado 24830" d="M120.572,1060.481a94.438,94.438,0,0,1-19.241,2.23c-2.8,0-10.064-1.062-12.434-2.642s-3.257-1.782-4.138.412C84.725,1060.481,100.227,1068.6,120.572,1060.481Z" transform="translate(-9.494 -156.39)" fill="#936e2b"/>
              <rect id="Rectángulo_415" data-name="Rectángulo 415" width="60.589" height="6.807" transform="translate(124.511 659.437) rotate(180)" fill="#cb953d"/>
              <path id="Trazado_24831" data-name="Trazado 24831" d="M1660.344,690.56A12.643,12.643,0,1,1,1647.7,703.2,12.643,12.643,0,0,1,1660.344,690.56Zm0,20A7.353,7.353,0,1,0,1653,703.2,7.352,7.352,0,0,0,1660.344,710.556Z" transform="translate(-480.078 -45.5)" fill="#cb953d"/>
              <path id="Trazado_24832" data-name="Trazado 24832" d="M1750.793,690.56A12.643,12.643,0,1,1,1738.15,703.2,12.643,12.643,0,0,1,1750.793,690.56Zm0,20a7.353,7.353,0,1,0-7.352-7.353A7.353,7.353,0,0,0,1750.793,710.556Z" transform="translate(-507.311 -45.5)" fill="#cb953d"/>
              <path id="Trazado_24833" data-name="Trazado 24833" d="M862.2,690.56A12.643,12.643,0,1,1,849.56,703.2,12.643,12.643,0,0,1,862.2,690.56Zm0,20a7.353,7.353,0,1,0-7.346-7.353,7.352,7.352,0,0,0,7.346,7.353Z" transform="translate(-239.767 -45.5)" fill="#cb953d"/>
              <path id="Trazado_24834" data-name="Trazado 24834" d="M952.65,690.56A12.643,12.643,0,1,1,940,703.206a12.643,12.643,0,0,1,12.65-12.646Zm0,20A7.353,7.353,0,1,0,945.3,703.2,7.353,7.353,0,0,0,952.65,710.556Z" transform="translate(-266.997 -45.5)" fill="#cb953d"/>
              <path id="Trazado_24835" data-name="Trazado 24835" d="M61.063,690.56A12.643,12.643,0,1,1,48.42,703.2,12.643,12.643,0,0,1,61.063,690.56Zm0,20a7.353,7.353,0,1,0-7.346-7.353A7.353,7.353,0,0,0,61.063,710.556Z" transform="translate(1.447 -45.5)" fill="#cb953d"/>
              <path id="Trazado_24836" data-name="Trazado 24836" d="M151.553,690.56A12.643,12.643,0,1,1,138.91,703.2,12.643,12.643,0,0,1,151.553,690.56Zm0,20a7.345,7.345,0,1,0-5.2-2.151A7.353,7.353,0,0,0,151.553,710.556Z" transform="translate(-25.798 -45.5)" fill="#cb953d"/>
              <path id="Trazado_24837" data-name="Trazado 24837" d="M653.669,715.98s1.055-8.135-7.346-7.353c0,0-117.417,149.246-250.21,149.246S164.306,708.627,164.306,708.627s-7.262,1-7.346,7.353S252.466,874.4,396.106,874.4C552.146,874.4,653.669,715.98,653.669,715.98Z" transform="translate(-31.233 -50.923)" fill="#e62e30"/>
              <path id="Trazado_24838" data-name="Trazado 24838" d="M-22.93,767.65c35.288-31.451,57-59.023,57-59.023,8.387-.783,7.353,7.353,7.353,7.353S18.257,752.106-22.93,789.855Z" transform="translate(22.93 -50.923)" fill="#e62e30"/>
              <path id="Trazado_24839" data-name="Trazado 24839" d="M1452.189,715.98s1.048-8.135-7.353-7.353c0,0-117.417,149.246-250.21,149.246S962.832,708.627,962.832,708.627s-7.269,1-7.353,7.353S1050.986,874.4,1194.627,874.4C1350.666,874.4,1452.189,715.98,1452.189,715.98Z" transform="translate(-271.658 -50.923)" fill="#e62e30"/>
              <path id="Trazado_24840" data-name="Trazado 24840" d="M1762.9,708.65s42,63.286,107.961,107.437v19.961C1798.768,790.542,1755.491,720.273,1755.54,716,1755.631,709.649,1762.9,708.65,1762.9,708.65Z" transform="translate(-512.547 -50.946)" fill="#e62e30"/>
              <path id="Trazado_24841" data-name="Trazado 24841" d="M158.9,711.827C173.1,737.959,264.4,865.8,396.106,865.8c143.179,0,240.426-133.366,255.508-155.354,2.558,2.1,2.055,6.095,2.055,6.095S552.145,874.967,396.106,874.967c-143.64,0-239.23-152.076-239.146-158.422A6.563,6.563,0,0,1,158.9,711.827Z" transform="translate(-31.233 -51.488)" fill="#c7272b"/>
              <path id="Trazado_24842" data-name="Trazado 24842" d="M-22.93,781.264c34.065-31.227,55.8-61.343,62.287-70.814,2.565,2.1,2.1,6.094,2.1,6.094s-23.2,36.127-64.384,73.875Z" transform="translate(22.93 -51.488)" fill="#c7272b"/>
              <path id="Trazado_24843" data-name="Trazado 24843" d="M957.42,711.827c14.195,26.132,105.487,153.977,237.2,153.977,143.186,0,240.425-133.366,255.515-155.354,2.558,2.1,2.055,6.095,2.055,6.095s-101.524,158.422-257.57,158.422c-143.64,0-239.223-152.076-239.146-158.422a6.541,6.541,0,0,1,1.95-4.718Z" transform="translate(-271.655 -51.488)" fill="#c7272b"/>
              <path id="Trazado_24844" data-name="Trazado 24844" d="M1870.86,828.02v9.163c-72.093-45.506-115.369-115.775-115.32-120.045a6.563,6.563,0,0,1,1.943-4.718C1766.625,729.236,1807.672,788.14,1870.86,828.02Z" transform="translate(-512.547 -52.082)" fill="#c7272b"/>
              <path id="Trazado_24845" data-name="Trazado 24845" d="M1853.594-15.24c12.364,0,23.644,5.34,32.206,14.111V82.076c-8.562,8.771-19.842,14.111-32.206,14.111-26.754,0-48.434-24.937-48.434-55.7S1826.84-15.24,1853.594-15.24Z" transform="translate(-527.487 167.009)" fill="#e543a0" opacity="0.31"/>
              <ellipse id="Elipse_550" data-name="Elipse 550" cx="32.695" cy="35.113" rx="32.695" ry="35.113" transform="translate(598.359 281.34)" fill="#e543a0" opacity="0.31"/>
              <path id="Trazado_24846" data-name="Trazado 24846" d="M105.385,22.1,91.658,74.414,57.146,32.772,85.794,79.516,36.5,82.06l49.455,5.976L59,132.842,92.015,93.55l15.677,53.341L99.409,91.914l46.513,21.7L102.575,84.352,144.894,58.08,99.129,76.566Z" transform="translate(5.036 155.766)" opacity="0.7" fill="url(#radial-gradient-5)"/>
              <path id="Trazado_24847" data-name="Trazado 24847" d="M826.6,300.54l-9.638,36.749-24.245-29.256,20.122,32.842-34.624,1.782,34.736,4.2-18.933,31.472,23.19-27.6L828.217,388.2,822.4,349.583l32.667,15.243-30.445-20.555,29.725-18.458L822.2,338.8Z" transform="translate(-218.284 71.931)" opacity="0.7" fill="url(#radial-gradient-6)"/>
              <path id="Trazado_24848" data-name="Trazado 24848" d="M159.278,135.32l-6.108,23.288L137.8,140.073l12.755,20.807-21.946,1.132,22.016,2.663-12,19.954,14.7-17.5,6.982,23.749-3.69-24.476,20.709,9.666-19.3-13.028,18.843-11.7-20.38,8.226Z" transform="translate(-22.697 121.677)" opacity="0.7" fill="url(#radial-gradient-7)"/>
              <path id="Trazado_24849" data-name="Trazado 24849" d="M53.162,173.24l-8.219,31.3L24.3,179.628l17.144,27.963-29.5,1.524,29.592,3.578L25.4,239.5l19.758-23.511L54.539,247.9l-4.955-32.891L77.414,228,51.477,210.492,76.8,194.766,49.416,205.83Z" transform="translate(12.431 110.259)" opacity="0.7" fill="url(#radial-gradient-8)"/>
              <path id="Trazado_24850" data-name="Trazado 24850" d="M769.229,308.62l-24.748,94.311-62.217-75.077,51.65,84.275-88.874,4.578,89.16,10.777-48.6,80.787,59.526-70.835,28.264,96.156L758.459,434.48,842.308,473.6l-78.138-52.747,76.286-47.379-82.506,33.338Z" transform="translate(-178.188 69.498)" opacity="0.7" fill="url(#radial-gradient-9)"/>
              <path id="Trazado_24851" data-name="Trazado 24851" d="M141.49,282.017l-75.5,31.514L84.382,233.82l-29.9,77.342-48.3-56.933,38.2,64.943-78.614,8.715,77.544,3.634-49.735,67.8,58.492-60.414,16.6,75.832-4.606-78.963,70.429,26.761-64.23-38.056Z" transform="translate(26.332 92.019)" opacity="0.7" fill="url(#radial-gradient-10)"/>
              <path id="Trazado_24852" data-name="Trazado 24852" d="M1334.673,460.312v2.4L149.529,491.7-24.57-401.173v-.007H145.2Z" transform="translate(23.424 283.211)" fill-rule="evenodd" opacity="0.49" fill="url(#linear-gradient-4)" style="mix-blend-mode: screen;isolation: isolate"/>
            </g>
            <rect id="Rectángulo_417" data-name="Rectángulo 417" width="1341.91" height="949.003" transform="translate(1341.891 789.903) rotate(180)" fill="none"/>
          </g>
        </g>
      </g>
    </g>
    <g id="Persojanes-19" transform="translate(441.613 323.072)" style="isolation: isolate">
      <g id="Capa_1-2" data-name="Capa 1" transform="translate(0 -0.014)">
        <path id="Trazado_22474" data-name="Trazado 22474" d="M66.082,87.016c-25.306,42.8-46.13,39.767-51.986,37.6-13.087-4.555-9.472-30.367-3.941-51.046v-.4l8.279,1.771v.8c-6.58,24.619-5.676,39.442-1.555,40.851,8.423,2.964,24.511-4.266,41.972-33.946Z" transform="translate(13.451 191.403)" fill="#e04899"/>
        <path id="Trazado_22475" data-name="Trazado 22475" d="M7.58,53.027,42.539,44.17s3.326,46.274,2.278,45.66S7.58,53.027,7.58,53.027Z" transform="translate(19.823 115.563)" fill="#919191" fill-rule="evenodd"/>
        <path id="Trazado_22476" data-name="Trazado 22476" d="M22.49,142.11c0,12.364,52.673,22.306,117.638,22.27s117.6-10.123,117.566-22.45-52.6-22.161-117.674-22.089S22.49,129.927,22.49,142.11Z" transform="translate(58.815 313.453)" opacity="0.15" style="mix-blend-mode: multiply;isolation: isolate"/>
        <path id="Trazado_22477" data-name="Trazado 22477" d="M110.716,20.589s-6.037-3.868-9.869.4a8.568,8.568,0,0,0,3.615,13.955s-1.952,13.087,10.846,14.172c11.785.976,14.461-14.461,8.5-17.751,0,0,4.085-7.483-.8-11.822a8.713,8.713,0,0,0-12.545,1.048" transform="translate(257.779 45.439)" fill="#f5accc"/>
        <path id="Trazado_22478" data-name="Trazado 22478" d="M124.972,38.088s1.41-4.772-2.061-6.471A5.82,5.82,0,0,0,114.6,36.75a8.315,8.315,0,0,0-7.23,10.086c1.518,7.953,11.93,6.8,12.942,2.133,0,0,5.567,1.265,7.483-2.82a6,6,0,0,0-2.964-8.062" transform="translate(280.253 81.264)" fill="#f5accc"/>
        <path id="Trazado_22479" data-name="Trazado 22479" d="M42.116,144.427s-15.184,5.965-21.221.8a14.461,14.461,0,0,1-2.856-18.076s-8.315-.578-8.713-11.424,12.328-15.4,18.871-14.063c0,0-8.749-15.871-1.591-29.428S47.214,59.326,56,66.122c0,0,7.628-20.932,20.643-6.4,0,0-6.29-23.137,10.846-28.054a19.16,19.16,0,0,1,17.461-20.353c18.763-2.241,26.21,25.306,26.21,25.306s0-14.75,7.556-18.076,17.172,11.062,17.172,11.062-3.434-17.859,12.725-16.3c0,0,6.9-16.3,22.342-12.834s14.1,25.848,13.665,33.223c0,0,7.23-11.677,14.858-12.8,8.5-1.229,13.2,7.23,12.436,16.847,0,0,15.473-20.317,30.3.9,0,0,11.822-10.448,21.366-2.024s9.978,21.474.217,34.091a18.4,18.4,0,0,1,13.918-.615c7.447,2.784,7.23,15.69,4.194,23.5,0,0,18.076-14.461,25.125,5.314,0,0,13.593-1.3,14.967,16.485a26.788,26.788,0,0,1-10.846,25.125s11.713-2.35,13.81,8.243c2.314,11.641-10.845,17.534-10.845,17.534s-4.194,19.486-22.269,8.821-105.6,35.537-269.728-30.693" transform="translate(24.367 0.014)" fill="#f5accc"/>
        <path id="Trazado_22480" data-name="Trazado 22480" d="M25,26.137a14.173,14.173,0,0,1,1.844-.8,17.785,17.785,0,0,1,1.988-.506,12.4,12.4,0,0,1,2.061-.217,10.339,10.339,0,0,1,2.1,0,8.387,8.387,0,0,1,2.061.434l1.048.325.976.47.94.506a7.953,7.953,0,0,1,.9.615,10.339,10.339,0,0,1,1.627,1.446,20.46,20.46,0,0,1,1.446,1.591l1.193,1.808a11.567,11.567,0,0,1,.976,1.88c.289.615.615,1.265.868,1.916l.615,1.988a14.172,14.172,0,0,1,.578,2.025l.759,4.049-3.217-.578a22.164,22.164,0,0,1,1.229-2.061,18.073,18.073,0,0,1,1.374-1.88,31.7,31.7,0,0,1,3.109-3.615,14.46,14.46,0,0,1,1.735-1.555,18.509,18.509,0,0,1,1.88-1.446,15.546,15.546,0,0,1,1.988-1.265,14.172,14.172,0,0,1,2.1-1.048l2.169-.47,2.314-.578a8.375,8.375,0,0,0,2.314-.217h2.35a6.368,6.368,0,0,1,2.314.289l2.205.578a13.739,13.739,0,0,1,2.133.831L75,31.632,72.793,31.2a8.785,8.785,0,0,0-2.169-.362l-2.241-.362a14.459,14.459,0,0,0-2.133,0H65.2a1.837,1.837,0,0,0-1.048.217,18.329,18.329,0,0,0-2.025.47l-1.988.687c-.651.289-1.229.651-1.88.94a17.873,17.873,0,0,0-1.771,1.085,11.279,11.279,0,0,0-1.7,1.229A18.332,18.332,0,0,0,53.2,36.44c-.506.506-1.048.976-1.518,1.482a39.039,39.039,0,0,0-2.748,3.217c-.434.578-.8,1.157-1.193,1.735a19.161,19.161,0,0,0-1.085,1.735l-2.386,4.338-.759-4.736L42.859,40.6a8.124,8.124,0,0,0-.47-1.844l-.47-1.844c-.181-.578-.434-1.157-.651-1.735a10.158,10.158,0,0,0-.759-1.7l-.868-1.591c-.325-.542-.723-.976-1.085-1.482a8.351,8.351,0,0,0-1.229-1.3l-.687-.615-.723-.506-.759-.506-.831-.4a7.628,7.628,0,0,0-1.735-.94,10.52,10.52,0,0,0-1.844-.434H28.832A18.076,18.076,0,0,0,25,26.137" transform="translate(65.379 64.293)" fill="#f6c1d2"/>
        <path id="Trazado_22481" data-name="Trazado 22481" d="M76.025,24.972a10.412,10.412,0,0,1,2.133-.181h2.133a7.051,7.051,0,0,1,2.1.47,20.216,20.216,0,0,1,2.061.8l1.012.506.9.615a8.967,8.967,0,0,1,.94.687l.8.759.832.8.651.9a10.846,10.846,0,0,1,1.229,1.916c.289.687.687,1.338.94,2.024s.47,1.41.687,2.133a15.369,15.369,0,0,1,.434,2.169c0,.723.253,1.482.325,2.205v4.374l-.362,4.3-2.964-1.41a19.485,19.485,0,0,1,1.808-1.7c.615-.506,1.265-1.012,1.916-1.446a29.612,29.612,0,0,1,4.085-2.531,16.848,16.848,0,0,1,2.169-1.012,17.173,17.173,0,0,1,2.278-.831l1.157-.362,1.193-.253a13.521,13.521,0,0,1,2.422-.362h2.422l2.422.181a11.038,11.038,0,0,1,2.35.542,10.846,10.846,0,0,1,2.278.8,11.533,11.533,0,0,1,2.133,1.012l1.988,1.265a17.068,17.068,0,0,1,1.808,1.482l1.663,1.555-1.988-1.121a11.64,11.64,0,0,0-1.988-1.048l-2.061-.868a15.758,15.758,0,0,0-2.133-.615,10.628,10.628,0,0,0-2.133-.434c-.723,0-1.41-.181-2.133-.217h-2.133a13.774,13.774,0,0,0-2.133.289,13.558,13.558,0,0,0-2.1.47l-1.012.289-1.012.362a15.8,15.8,0,0,0-1.988.868l-1.916.976a32.535,32.535,0,0,0-3.615,2.35l-1.7,1.338c-.542.47-1.121.976-1.555,1.41l-3.615,3.615.506-4.88.4-4.013a12.26,12.26,0,0,0,0-1.988V41.1a7.151,7.151,0,0,0-.181-1.952,11.531,11.531,0,0,0-.253-1.952,17.61,17.61,0,0,1-.434-1.88c0-.651-.47-1.193-.687-1.808a7.52,7.52,0,0,0-.868-1.7l-.47-.832-.615-.759-.578-.759-.723-.651-.723-.651-.8-.542a9.147,9.147,0,0,0-1.7-1.012c-.615-.325-1.265-.506-1.88-.8a18.727,18.727,0,0,0-4.049-.831" transform="translate(197.969 64.88)" fill="#f6c1d2"/>
        <path id="Trazado_22482" data-name="Trazado 22482" d="M66.157,54.628a19.269,19.269,0,0,1-2.386-5.6,18.077,18.077,0,0,1-.542-3.109,22.844,22.844,0,0,1,0-3.145,15.834,15.834,0,0,1,.542-3.181,11.063,11.063,0,0,1,.47-1.555c.217-.506.361-1.048.615-1.518l.8-1.446a15.08,15.08,0,0,1,.94-1.338l.47-.651h0V32.9h0l.253-.289,1.048-1.085A13.449,13.449,0,0,1,71.327,29.5a8.6,8.6,0,0,1,1.7-.615,7.556,7.556,0,0,1,1.808-.289,6.327,6.327,0,0,1,1.844,0,6.037,6.037,0,0,1,1.771.434,6.687,6.687,0,0,1,1.627.759A8.28,8.28,0,0,1,81.558,30.8,7.88,7.88,0,0,1,82.823,32a9.723,9.723,0,0,1,1.085,1.338,12.22,12.22,0,0,1,.868,1.482l.4.759.289.8A6.434,6.434,0,0,1,85.933,38a12.3,12.3,0,0,1,.325,1.663v3.362L83.8,41.758A9,9,0,0,1,84.956,41c.362-.253.759-.434,1.121-.651a19.407,19.407,0,0,1,2.35-1.048,17.1,17.1,0,0,1,2.422-.723,13.99,13.99,0,0,1,2.458-.434,21.692,21.692,0,0,1,4.989,0,13.92,13.92,0,0,1,2.386.47,6.078,6.078,0,0,1,1.193.362l1.121.362H98.26a7.447,7.447,0,0,0-2.35.253l-1.121.217-1.121.253a22.444,22.444,0,0,0-2.205.723l-2.061.9a17.139,17.139,0,0,0-1.952,1.121l-.9.615-.8.651L83.33,46.313V39.987a7.558,7.558,0,0,0-.289-1.3,7.229,7.229,0,0,0-.47-1.229,6.762,6.762,0,0,0-.542-1.157,5.967,5.967,0,0,0-.723-1.121,6.727,6.727,0,0,0-.687-.976,5.17,5.17,0,0,0-.94-.831,6.8,6.8,0,0,0-2.1-1.193,3.941,3.941,0,0,0-1.121-.289,4.158,4.158,0,0,0-1.157,0,3.109,3.109,0,0,0-1.157,0,4.374,4.374,0,0,0-1.157.4,11.929,11.929,0,0,0-2.061,1.229l-1.121,1.012-.253.253h0l-.434.542a12.65,12.65,0,0,0-.868,1.085l-.723,1.157a6.617,6.617,0,0,0-.651,1.229,5.565,5.565,0,0,0-.542,1.265,17.459,17.459,0,0,0-.8,2.675,24.66,24.66,0,0,0-.325,2.856,26.392,26.392,0,0,0,0,2.928,25.089,25.089,0,0,0,.94,6.11" transform="translate(165.213 74.665)" fill="#f6c1d2"/>
        <path id="Trazado_22483" data-name="Trazado 22483" d="M36.406,37.44a20.389,20.389,0,0,1-2.422-5.6,19.6,19.6,0,0,1-.687-6.182,16.341,16.341,0,0,1,1.482-6.218,14.749,14.749,0,0,1,1.591-2.856l.47-.651h.181l.217-.289a11.5,11.5,0,0,1,1.121-1.229,10.339,10.339,0,0,1,6.327-3,9.508,9.508,0,0,1,6.724,2.278,13.629,13.629,0,0,1,3.868,5.531,14.786,14.786,0,0,1,.8,6.616l-2.6-1.41c.506-.687.94-1.193,1.446-1.771L56.47,21.1a27.693,27.693,0,0,1,3.615-2.675,17.425,17.425,0,0,1,8.351-2.675,15.474,15.474,0,0,1,2.241,0,11.425,11.425,0,0,1,2.169.4,14.75,14.75,0,0,1,4.013,1.591,18.759,18.759,0,0,1,1.808,1.121,20.353,20.353,0,0,1,1.663,1.3c.542.434,1.048.94,1.555,1.41l1.446,1.555-1.663-1.3-1.88-1.012c-.578-.325-1.121-.723-1.771-1.012a11.824,11.824,0,0,0-1.808-.868,15.184,15.184,0,0,0-3.868-1.121,17.717,17.717,0,0,0-1.952,0,11.822,11.822,0,0,0-1.952,0,15.8,15.8,0,0,0-7.23,3,24.729,24.729,0,0,0-2.964,2.567l-1.3,1.482a18.075,18.075,0,0,0-1.121,1.518l-2.964,4.411.217-5.387a11.352,11.352,0,0,0-.9-5.134,10.05,10.05,0,0,0-3-4.085,6.327,6.327,0,0,0-4.3-1.555,7.736,7.736,0,0,0-4.374,1.952,11.5,11.5,0,0,0-.94.94l-.289.253h0l-.434.506a19.194,19.194,0,0,0-1.518,2.278A16.2,16.2,0,0,0,35.5,25.763a23.425,23.425,0,0,0-.253,5.893,27.222,27.222,0,0,0,1.157,5.82" transform="translate(87.016 29.853)" fill="#f6c1d2"/>
        <path id="Trazado_22484" data-name="Trazado 22484" d="M99.035,41.185a39.767,39.767,0,0,0,4.23-10.339,15.291,15.291,0,0,0,.4-5.242,9.725,9.725,0,0,0-.578-2.35,8.641,8.641,0,0,0-1.229-2.1,9.652,9.652,0,0,0-3.615-2.928A10.2,10.2,0,0,0,93.5,17.4a8.676,8.676,0,0,0-7.483,5.17l-1.193,2.639-1.446-2.422-.615-.868a8.5,8.5,0,0,0-.687-.9,22.884,22.884,0,0,0-1.591-1.663,12.834,12.834,0,0,0-3.977-2.278,10.014,10.014,0,0,0-4.519-.578,14.678,14.678,0,0,0-4.664,1.374,14.026,14.026,0,0,1,2.061-1.446,10.846,10.846,0,0,1,2.386-1.012,10.412,10.412,0,0,1,5.278,0A13.015,13.015,0,0,1,81.9,17.686a15.4,15.4,0,0,1,2.061,1.735,12.222,12.222,0,0,1,.94.976l.868,1.085-2.639.253a11.207,11.207,0,0,1,9.978-7.483,12.545,12.545,0,0,1,6.4,1.157,12,12,0,0,1,4.917,4.194,11.643,11.643,0,0,1,1.446,2.928,10.846,10.846,0,0,1,.542,3.181,16.015,16.015,0,0,1-1.121,5.82,25.3,25.3,0,0,1-2.639,5.206,27.15,27.15,0,0,1-3.615,4.519" transform="translate(176.079 37.207)" fill="#f6c1d2"/>
        <path id="Trazado_22485" data-name="Trazado 22485" d="M54.632,9.6a9.039,9.039,0,0,1,1.518-.615,13.412,13.412,0,0,1,4.3-.8,12.472,12.472,0,0,1,3,.181l1.627.4a12.473,12.473,0,0,1,1.663.687,11.352,11.352,0,0,1,3.037,2.278,11.568,11.568,0,0,1,2.241,3.254A12.4,12.4,0,0,1,73.07,18.6a8.533,8.533,0,0,1,0,1.916,9.87,9.87,0,0,1-.253,1.844,12.473,12.473,0,0,1-1.085,3.218,15.076,15.076,0,0,1-1.482,2.531,17.5,17.5,0,0,1-2.928,3.181,8.243,8.243,0,0,1-1.338.976s.325-.506.8-1.41a38.429,38.429,0,0,0,1.7-3.615c.289-.8.578-1.627.831-2.494A6.579,6.579,0,0,0,69.6,23.37a9.4,9.4,0,0,0,.181-1.41,6.146,6.146,0,0,0,0-1.41,9.33,9.33,0,0,0,0-1.446,11.6,11.6,0,0,0-.289-1.3,13.665,13.665,0,0,0-.578-1.482v-.4h0l-.362-.615a14.459,14.459,0,0,0-.868-1.193,11.279,11.279,0,0,0-2.061-1.88c-.4-.253-.831-.434-1.193-.687a4.952,4.952,0,0,0-1.265-.542,21.69,21.69,0,0,0-2.494-.723,30.15,30.15,0,0,0-4.519-.651H54.56" transform="translate(142.684 21.4)" fill="#f6c1d2"/>
        <path id="Trazado_22486" data-name="Trazado 22486" d="M82.15,49.755a8.606,8.606,0,0,1,.217-1.627A20.5,20.5,0,0,1,83.6,43.971a17.713,17.713,0,0,1,3.615-5.278,14.171,14.171,0,0,1,2.856-2.35,10.051,10.051,0,0,1,1.771-.868,8.422,8.422,0,0,1,1.916-.578l.976-.217h3a9.255,9.255,0,0,1,3.615,1.482,10.3,10.3,0,0,1,2.494,2.531,11.494,11.494,0,0,1,1.446,2.675,10.593,10.593,0,0,1,.759,2.386,15.4,15.4,0,0,1,.325,1.844,11.419,11.419,0,0,1,0,1.663s-.253-.542-.723-1.446l-.9-1.591c-.361-.578-.8-1.229-1.265-1.88a12.182,12.182,0,0,0-1.7-1.952,10.412,10.412,0,0,0-2.133-1.627,7.013,7.013,0,0,0-2.494-.723H94.3a4.591,4.591,0,0,0-1.374.4,11.135,11.135,0,0,0-1.374.578,17.712,17.712,0,0,0-2.422,1.627,27.939,27.939,0,0,0-2.1,2.025c-.615.687-1.193,1.374-1.7,2.061A52.177,52.177,0,0,0,82.15,49.5" transform="translate(214.836 90.745)" fill="#f6c1d2"/>
        <path id="Trazado_22487" data-name="Trazado 22487" d="M17.31,49.344a9.363,9.363,0,0,1-.615-1.446,18.365,18.365,0,0,1-.9-4.085,17.5,17.5,0,0,1,0-2.82,16.63,16.63,0,0,1,.4-3.181,15.328,15.328,0,0,1,1.193-3.326,13.81,13.81,0,0,1,2.1-3.109l.687-.651.145-.181h0l.687-.47a4.591,4.591,0,0,1,.759-.506,8.894,8.894,0,0,1,1.88-.759,8.242,8.242,0,0,1,1.88-.362,9.074,9.074,0,0,1,3.615.4,12.834,12.834,0,0,1,2.639,1.3,12.979,12.979,0,0,1,3.109,2.892,8.966,8.966,0,0,1,.868,1.3l-.976-1.265a18.473,18.473,0,0,0-3.615-1.627,14.9,14.9,0,0,0-2.35-.578,9.617,9.617,0,0,0-2.494,0,7.23,7.23,0,0,0-2.241.9,2.783,2.783,0,0,0-.615.434l-.651.506a10.412,10.412,0,0,0-.94.9,13.124,13.124,0,0,0-1.7,2.314,14.1,14.1,0,0,0-1.193,2.6c-.289.9-.578,1.808-.8,2.675a23.211,23.211,0,0,0-.434,2.531,51.012,51.012,0,0,0-.47,5.5" transform="translate(41.148 74.346)" fill="#f6c1d2"/>
        <path id="Trazado_22488" data-name="Trazado 22488" d="M20.818,35.822V34.231A19.377,19.377,0,0,1,21.4,30.11a15.149,15.149,0,0,1,.94-2.711,13.919,13.919,0,0,1,1.555-2.856,12.689,12.689,0,0,1,2.386-2.675,10.845,10.845,0,0,1,3.29-1.952l.94-.325h2.748a8.676,8.676,0,0,1,3.832.94A9.11,9.11,0,0,1,39.8,22.663a12,12,0,0,1,1.735,2.386,13.809,13.809,0,0,1,.976,2.205c.253.651.4,1.265.542,1.771A11.208,11.208,0,0,1,43.3,30.58s-.325-.506-.9-1.3L41.353,27.9c-.434-.542-.9-1.085-1.446-1.663a16.3,16.3,0,0,0-1.844-1.663,11.5,11.5,0,0,0-2.241-1.265,6.363,6.363,0,0,0-2.422-.362h-.578l-.8.181h-.651l-.651.253A5.133,5.133,0,0,0,29.459,24a6.037,6.037,0,0,0-1.193.759,11.461,11.461,0,0,0-2.061,1.916,23.933,23.933,0,0,0-1.7,2.205c-.506.759-.976,1.482-1.374,2.205-1.518,2.856-2.422,4.989-2.422,4.989" transform="translate(54.16 51.282)" fill="#f6c1d2"/>
        <path id="Trazado_22489" data-name="Trazado 22489" d="M42.49,39.466a20.246,20.246,0,0,1,3.326-4.157,17.859,17.859,0,0,1,4.411-3.073,13.918,13.918,0,0,1,5.459-1.627,13.593,13.593,0,0,1,2.964,0,13.918,13.918,0,0,1,1.482.325,8.134,8.134,0,0,1,1.338.434,12.073,12.073,0,0,1,2.711,1.41A12.4,12.4,0,0,1,66.495,34.8a14.75,14.75,0,0,1,2.856,5.278,18.076,18.076,0,0,1,.759,5.712,15.617,15.617,0,0,1-1.085,5.784l-3.218-1.988a35.177,35.177,0,0,1,2.711-2.531,34.705,34.705,0,0,1,2.856-2.314,39.767,39.767,0,0,1,6.254-3.868,22.2,22.2,0,0,1,7.23-2.241,12.87,12.87,0,0,1,3.615,0,11.135,11.135,0,0,1,3.434,1.229,10.158,10.158,0,0,0-1.771-.325,9.29,9.29,0,0,0-1.735,0,14.457,14.457,0,0,0-1.7.181l-1.627.434a23.427,23.427,0,0,0-6.11,3,50.615,50.615,0,0,0-5.423,4.194L71.05,49.733c-.831.8-1.663,1.663-2.35,2.458l-5.857,6.724,2.567-8.6a15.654,15.654,0,0,0,.615-4.411,17.1,17.1,0,0,0-.687-4.519,10.412,10.412,0,0,0-1.952-3.832A9.58,9.58,0,0,0,61.9,36.068,9.4,9.4,0,0,0,60.1,34.947l-1.121-.434a5.713,5.713,0,0,0-1.012-.289,9.075,9.075,0,0,0-2.205-.362,13.774,13.774,0,0,0-4.591.687,22.7,22.7,0,0,0-4.483,2.061,29.753,29.753,0,0,0-4.194,3" transform="translate(111.119 79.886)" fill="#f6c1d2"/>
        <path id="Trazado_22490" data-name="Trazado 22490" d="M45.37,44.264a25.812,25.812,0,0,1,2.278-9.4,15.98,15.98,0,0,1,1.229-2.169,14.206,14.206,0,0,1,1.591-1.988l.976-.868a11.06,11.06,0,0,1,1.048-.759,5.1,5.1,0,0,1,1.157-.615l1.229-.506,1.3-.253a3.181,3.181,0,0,1,.723,0h3.181a5.459,5.459,0,0,1,1.338.253,7.231,7.231,0,0,1,1.265.4,11.713,11.713,0,0,1,2.386,1.3l1.048.868.94.976a15.364,15.364,0,0,1,1.555,2.133,23.827,23.827,0,0,1,1.193,2.35,15.98,15.98,0,0,1,.8,2.531H67.639c.4-1.41.831-2.675,1.338-4.013s1.048-2.567,1.663-3.832a31.525,31.525,0,0,1,4.591-7.23,16.919,16.919,0,0,1,7.23-5.278,12,12,0,0,1,4.664-.578,12.327,12.327,0,0,1,2.314.362,4.132,4.132,0,0,1,1.085.325l.542.181h.47l1.808.9A18.868,18.868,0,0,1,95.3,20.693c.289.253.651.47.94.759l.759.868a6.29,6.29,0,0,1,1.374,1.844,15.617,15.617,0,0,1,1.808,4.157,15.7,15.7,0,0,0,.4,2.205v2.169a28.345,28.345,0,0,1-.289,4.3,31.523,31.523,0,0,1-.94,4.157,28.921,28.921,0,0,1-1.482,3.977A12.256,12.256,0,0,1,95.4,48.963L93.886,47.3a22.125,22.125,0,0,1,2.494-1.735,26.172,26.172,0,0,1,2.639-1.374c.47-.181.94-.4,1.41-.542a12.469,12.469,0,0,1,1.446-.4A11.1,11.1,0,0,1,103.394,43h1.518l1.518.181a5.752,5.752,0,0,1,1.482.434,12.112,12.112,0,0,1,1.338.723,4.736,4.736,0,0,1,1.157.94,7.229,7.229,0,0,1,1.012,1.085l.8,1.229a7.23,7.23,0,0,1,.651,1.3l.578,1.3-.759-1.229a5.061,5.061,0,0,0-.8-1.157l-.9-1.085a6.293,6.293,0,0,0-1.048-.9,7.014,7.014,0,0,0-2.386-1.229,7.555,7.555,0,0,0-1.3-.289h-.759l-1.338.217a5.838,5.838,0,0,0-1.3.362,9.217,9.217,0,0,0-1.265.506c-.4,0-.8.4-1.229.578a22.342,22.342,0,0,0-2.314,1.446,19.272,19.272,0,0,0-2.1,1.663l-1.518-1.663a13.34,13.34,0,0,0,1.663-3.145,27.189,27.189,0,0,0,1.157-3.615,28.305,28.305,0,0,0,.651-3.832,26.647,26.647,0,0,0,0-3.615v-1.88a9.681,9.681,0,0,0-.4-1.771A12.761,12.761,0,0,0,95.982,26.3a7.665,7.665,0,0,0-1.048-1.374l-.615-.651a4.266,4.266,0,0,0-.651-.47L92.8,22.789a2.1,2.1,0,0,0-.723-.47l-1.844-.9h-.651a7.844,7.844,0,0,0-.868-.253,13.774,13.774,0,0,0-1.7-.253,9.508,9.508,0,0,0-3.326.47,13.593,13.593,0,0,0-5.784,4.157,34.126,34.126,0,0,0-4.23,6.435,36.715,36.715,0,0,0-1.663,3.615c-.506,1.265-.976,2.458-1.374,3.615L68.832,44.95l-1.157-5.857a18.074,18.074,0,0,0-.578-2.061,13.992,13.992,0,0,0-.9-1.988,11.822,11.822,0,0,0-1.157-1.808l-.687-.8-.8-.723a9.653,9.653,0,0,0-1.771-1.085,3.9,3.9,0,0,0-.976-.362,3.254,3.254,0,0,0-.976-.253l-1.012-.181H55.493L54.48,30.2a2.783,2.783,0,0,0-1.012.434c-.289.181-.651.325-.94.542l-.9.651a13.56,13.56,0,0,0-1.591,1.627c-.47.578-.9,1.229-1.338,1.88a22.384,22.384,0,0,0-1.085,2.061c-.325.723-.615,1.482-.9,2.205a23.849,23.849,0,0,0-.723,2.278c-.217.759-.4,1.555-.542,2.35" transform="translate(118.65 45.95)" fill="#f6c1d2"/>
        <path id="Trazado_22491" data-name="Trazado 22491" d="M83.279,76.05c-7.99.687,0,7.447,0,7.447a153.9,153.9,0,0,0,99.2,12.509L178.5,87.474c-.325,0-48.8,13.81-95.332-11.424" transform="translate(208.502 198.935)" fill="#e04899"/>
        <path id="Trazado_22492" data-name="Trazado 22492" d="M109.082,105.694s7.845,1.88,15.111,2.892c5.965.868,13.34.8,15.328-2.82a3.615,3.615,0,0,0-1.555-5.206c-4.88-2.6-19.522,0-19.522,0s21.691-10.665,17.136-18.8c-4.953-9.183-22.306,13.665-22.306,13.665s10.448-16.268,8.676-20.317c-2.422-5.531-11.279-1.771-15.69,21.366-1.41,7.52,1.193,8.459,2.82,9.038" transform="translate(276.837 190.584)" fill="#e04899"/>
        <path id="Trazado_22493" data-name="Trazado 22493" d="M29.283,100.817S39.3,97.2,42.731,90.839c2.82-5.314-.362-15.545-3.073-18.654-1.88-2.133-4.3,5.857-4.844,7.628A17.136,17.136,0,0,1,27.8,90.333s-5.893-7.917-1.952-13.593,1.988-12.8-2.35-12.183c-5.025.759-8.893,8.5-8.243,15.365a28.488,28.488,0,0,0,5.965,13.557,14.063,14.063,0,0,1-9.291-3.832c-3.615-3.832.651-13.629-6.869-11.243-5.784,1.844-11.569,17.57,12.87,24.33,7.23,2.024,10.231-.578,11.352-1.916" transform="translate(0 168.781)" fill="#e04899"/>
        <path id="Trazado_22494" data-name="Trazado 22494" d="M44.413,174.818c-4.194-25.306-6.254-65.073-4.953-65.073l7.917-3.615-.506,5.387a496.6,496.6,0,0,0,6.146,59.723Z" transform="translate(102.182 277.599)" fill="#e04899"/>
        <path id="Trazado_22495" data-name="Trazado 22495" d="M65.319,123.82S26.492,131.05,35.313,139.4s38.574-10.846,30.006-15.581" transform="translate(88.94 323.862)" fill="#e04899"/>
        <path id="Trazado_22496" data-name="Trazado 22496" d="M93.988,169.507l-7.917,3.615C69.116,150.383,59.716,112.351,58.74,111.3l7.23-5.423a197.389,197.389,0,0,0,26.246,63.844" transform="translate(153.615 276.946)" fill="#e04899"/>
        <path id="Trazado_22497" data-name="Trazado 22497" d="M67.311,123.954s40.165-4.266,32.537,6.327-40.382.687-32.537-6.327" transform="translate(172.881 321.992)" fill="#e04899"/>
        <path id="Trazado_22498" data-name="Trazado 22498" d="M16.67,50.907l21,234.119c4.917,3.832,69.158,31.488,195.689,17.027L289.9,79.214A36.911,36.911,0,0,0,266.84,54.7,33.332,33.332,0,0,0,234.3,64.066c-5.712-13.846-38.682-30.512-57.373-7.99-13.7-17.027-47.467-29.644-71.906-4.591-6.507-13.2-30.187-24.945-47-.253-7.23-18.076-32.1-19.377-41.358-.325" transform="translate(43.595 96.317)" fill="#e04899"/>
        <path id="Trazado_22499" data-name="Trazado 22499" d="M28.13,51.156l7.664,244.169a316.692,316.692,0,0,0,35.754,6.941L75.163,51.445h0c-6.507-13.159-30.078-24.872-47-.4" transform="translate(73.565 96.249)" fill="#e863a3"/>
        <path id="Trazado_22500" data-name="Trazado 22500" d="M95.848,299.429c5.929-35.537,34.055-204,39.767-241.421-5.6-13.81-38.465-30.331-57.12-7.881h0L54.31,300.152q19.142.38,41.538-.723" transform="translate(142.03 102.268)" fill="#e863a3"/>
        <path id="Trazado_22501" data-name="Trazado 22501" d="M34.76,76.154s35.537,71.219,65.4,73.1c27.475,1.663,55.276-26.138,61.711-77.762a81.848,81.848,0,0,1-63.266,30.4c-34.85.181-54.661-12.978-63.844-25.668" transform="translate(90.903 187.01)" fill="#2f3031"/>
        <path id="Trazado_22502" data-name="Trazado 22502" d="M102.726,94.587a29.717,29.717,0,0,0-26.9-10.846,30.765,30.765,0,0,0-25.957,30.765,21.691,21.691,0,0,0,10.846,3.615c15.148.9,30.729-7.23,42.044-23.535" transform="translate(130.417 218.429)" fill="#e84c76"/>
        <path id="Trazado_22503" data-name="Trazado 22503" d="M55.2,109.246a8.46,8.46,0,0,1-8.243,8.387h0a7.917,7.917,0,0,1-8.026-8.134l.687-48.588A8.5,8.5,0,0,1,47.9,52.561h0a7.917,7.917,0,0,1,8.026,8.134Z" transform="translate(101.806 137.504)" fill="#262b2e"/>
        <path id="Trazado_22504" data-name="Trazado 22504" d="M77.561,108.094a8.532,8.532,0,0,1-8.893,7.845h0a8.026,8.026,0,0,1-8.387-7.953L61.871,61.53a8.568,8.568,0,0,1,8.893-7.845h0a8.062,8.062,0,0,1,8.387,7.99Z" transform="translate(157.642 140.428)" fill="#262b2e"/>
        <path id="Trazado_22505" data-name="Trazado 22505" d="M19.34,75.339l.651,12.834s84.884,5.206,88.933,5.676c5.025.4,9.833-9.363,21.33-9.11S144.5,94.9,149.233,95.584,259.749,98.3,260.074,97.356c0-.289,5.278-20.462,5.278-20.462s5.061,27.981-107.8,6.507c-6.182-1.193-25.089-16.991-25.089-16.991L107.984,83Z" transform="translate(50.577 173.725)" fill="#1a1a1a" opacity="0.15" style="mix-blend-mode: multiply;isolation: isolate"/>
        <path id="Trazado_22506" data-name="Trazado 22506" d="M61.168,36.68c1.952,2.458-1.627,8.64-7.953,13.738S40.2,57.648,38.284,55.189s1.663-8.64,7.99-13.774S59.252,34.185,61.168,36.68Z" transform="translate(98.767 93.228)" fill="#2f3031"/>
        <path id="Trazado_22507" data-name="Trazado 22507" d="M60.82,41.159c-2.025,2.494,1.3,8.6,7.23,13.593s12.725,7.013,14.75,4.519-1.3-8.64-7.23-13.629S63.025,38.629,60.82,41.159Z" transform="translate(157.5 104.836)" fill="#2f3031"/>
        <path id="Trazado_22508" data-name="Trazado 22508" d="M110.308,55.113s20.353-2.531,27.909-3.615c5.278-.687,5.17,8.062,2.711,19.558-2.241,10.412-5.423,19.92-7.483,22.306-.831.759-6.182.289,0-13.051a38,38,0,0,0,3.326-9.978C135.759,57.137,97,139.021,97,139.021L91.22,126.259l1.193-42.948Z" transform="translate(238.556 134.627)" fill="#919191"/>
        <path id="Trazado_22509" data-name="Trazado 22509" d="M66.541,116.638l77.979,5.134a9.978,9.978,0,0,0,10.846-8.206l4.917-45.66a8.929,8.929,0,0,0-8.857-9.508L73.337,53.3a9.942,9.942,0,0,0-10.846,8.206L57.684,107.13a8.929,8.929,0,0,0,8.857,9.508Z" transform="translate(150.803 139.295)" fill="#006da5"/>
        <path id="Trazado_22510" data-name="Trazado 22510" d="M25.9,113.968l77.871,5.134A9.978,9.978,0,0,0,114.62,110.9l4.953-45.66A8.929,8.929,0,0,0,111,55.728l-78.16-5.1A9.942,9.942,0,0,0,22,58.837L17.01,104.46a9,9,0,0,0,8.893,9.508Z" transform="translate(44.447 132.312)" fill="#e00b64"/>
        <path id="Trazado_22511" data-name="Trazado 22511" d="M6.87,46.57l3.615,84.993,129.5,8.387s10.846-11.5,22.667-10.846c13.232.868,23.282,13.738,23.282,13.738l131.448,8.749,14.461-83.836ZM196.341,79.107A9.942,9.942,0,0,1,207.187,70.9L285.166,76a8.929,8.929,0,0,1,8.821,9.508L289,131.02a9.942,9.942,0,0,1-10.845,8.206l-77.943-5.134a8.966,8.966,0,0,1-8.857-9.472Zm-146.957-9.8A9.906,9.906,0,0,1,60.23,61.1l77.907,5.1a8.929,8.929,0,0,1,8.857,9.472l-4.989,45.7a9.942,9.942,0,0,1-10.846,8.206l-77.907-5.134a8.929,8.929,0,0,1-8.857-9.472Z" transform="translate(17.966 121.84)" fill="#dcddde"/>
        <g id="Grupo_322" data-name="Grupo 322" transform="translate(62.345 182.995)" opacity="0.59">
          <path id="Trazado_22512" data-name="Trazado 22512" d="M66.769,116.668l77.979,5.134a9.942,9.942,0,0,0,10.846-8.206l4.989-45.66a8.93,8.93,0,0,0-8.857-9.508l-78.052-5.1a9.942,9.942,0,0,0-10.846,8.206L57.912,107.16a8.966,8.966,0,0,0,8.857,9.508Z" transform="translate(89.061 -43.622)" fill="#006da5" opacity="0.89"/>
          <path id="Trazado_22513" data-name="Trazado 22513" d="M26.083,114l77.979,5.134a9.978,9.978,0,0,0,10.846-8.206l4.989-45.66A9,9,0,0,0,111,55.649L33.024,50.66a9.942,9.942,0,0,0-10.846,8.206l-4.917,45.66A8.929,8.929,0,0,0,26.083,114Z" transform="translate(-17.245 -50.605)" fill="#e00b64" opacity="0.65"/>
        </g>
        <g id="Grupo_323" data-name="Grupo 323" transform="translate(93.271 192.523)" opacity="0.3">
          <path id="Trazado_22514" data-name="Trazado 22514" d="M68.54,57.1c6.688,4.555,13.015,9.616,19.377,14.461a232.543,232.543,0,0,1,18.437,16.124c-6.688-4.591-13.015-9.653-19.341-14.678S74.4,62.7,68.54,57.1Z" transform="translate(85.973 -43.145)" fill="#fff"/>
          <path id="Trazado_22515" data-name="Trazado 22515" d="M64.51,56.1C72.066,61.342,79.188,66.946,86.2,72.766s14.135,11.6,20.86,17.9C99.541,85.419,92.383,79.816,85.37,74S71.2,62.354,64.51,56.1Z" transform="translate(75.433 -45.761)" fill="#fff"/>
          <path id="Trazado_22516" data-name="Trazado 22516" d="M65.82,60.27c8.1,5.6,15.8,11.677,23.535,17.714s15.256,12.364,22.523,18.98c-8.1-5.567-15.8-11.677-23.535-17.714S73.086,66.886,65.82,60.27Z" transform="translate(78.859 -34.855)" fill="#fff"/>
          <path id="Trazado_22517" data-name="Trazado 22517" d="M29.83,54.24c6.688,4.591,13.015,9.653,19.341,14.678s12.509,10.3,18.365,15.907C60.848,80.233,54.522,75.172,48.2,70.147S35.687,59.844,29.83,54.24Z" transform="translate(-15.261 -50.625)" fill="#fff"/>
          <path id="Trazado_22518" data-name="Trazado 22518" d="M25.8,53.24c7.52,5.278,14.678,10.846,21.872,16.666s14.135,11.641,20.86,18.076C61.012,82.74,53.854,77.136,46.84,71.316S32.488,59.6,25.8,53.24Z" transform="translate(-25.8 -53.24)" fill="#fff"/>
          <path id="Trazado_22519" data-name="Trazado 22519" d="M27.11,57.41c8.1,5.6,15.8,11.677,23.535,17.751S65.9,87.488,73.167,94.14c-8.1-5.6-15.8-11.677-23.535-17.751S34.376,64.062,27.11,57.41Z" transform="translate(-22.374 -42.335)" fill="#fff"/>
        </g>
      </g>
    </g>
  </g>
</svg>
