<svg xmlns="http://www.w3.org/2000/svg" width="633.014" height="630.733" viewBox="0 0 633.014 630.733">
  <g id="Grupo_513" data-name="Grupo 513" transform="translate(-379 -243.043)">
    <g id="Persojanes-06" transform="translate(689.488 266.374)" style="isolation: isolate">
      <g id="Capa_1" data-name="Capa 1" transform="translate(0 0)">
        <path id="Trazado_22156" data-name="Trazado 22156" d="M20.655,34.975c5.026-.205,7.549-6.687,10.113-11.016s3.426-9.6,1.456-11.3-4.1-.7-5.805,3.221A81.848,81.848,0,0,0,22.194,27c.226-7.159,1.067-15.919.677-19.139C21.927-.308,18.481-.6,16.8.41,14.378,1.928,12,8.205,18.05,28.6c0,0-4.1-9.047-6.852-14.667s-6.134-9.6-9.272-7.077c-6.154,4.923,3.98,16.514,7.282,20.062,2.318,2.523,6.339,7.241,9.929,7.959A6.5,6.5,0,0,0,20.655,34.975Z" transform="translate(0.017 0)" fill="#2af47a"/>
        <path id="Trazado_22157" data-name="Trazado 22157" d="M166.841,188.983c0,8.205-29.786,14.913-66.505,14.913S33.81,197.229,33.81,188.983,63.6,174.09,100.336,174.09,166.841,180.757,166.841,188.983Z" transform="translate(35.583 183.032)" opacity="0.15" style="mix-blend-mode: multiply;isolation: isolate"/>
        <path id="Trazado_22158" data-name="Trazado 22158" d="M95.431,196.226c4.657-3.651,29.355-17.806,23.611-30.77-1.805-4.1-6.544-3.508-11.631.164A58.074,58.074,0,0,0,88.19,193.99S90.754,199.939,95.431,196.226Z" transform="translate(92.756 170.968)" fill="#2af47a"/>
        <path id="Trazado_22159" data-name="Trazado 22159" d="M117.889,236.7c-25.027-33.458-51.694-67.7-57.438-110.343-.677-5.087,7.282-5.21,7.959-.185,5.518,41.068,32.186,74.3,56.31,106.425C127.777,236.7,120.925,240.807,117.889,236.7Z" transform="translate(63.549 128.766)" fill="#2af47a"/>
        <path id="Trazado_22160" data-name="Trazado 22160" d="M63.853,197.088c3.857-3.364,10.852-9.847,11.59-13.785,1.19-6.359-4.759-18.36-9.4-21.191s-8.7-.308-6.441.944,11.3,12.8,9.252,19.3S52.14,194.011,55.217,199.447s34.3,12.718,33.376,5.169C88.038,199.242,76.058,192.8,63.853,197.088Z" transform="translate(57.644 169.08)" fill="#2af47a"/>
        <path id="Trazado_22161" data-name="Trazado 22161" d="M16.426,14.53s3.385,39.222,13.293,69.746c6.3,19.488,14.462,31.8,24.9,46.71l-2.051,9.559S34.6,121.242,22.15,88.277C12.754,63.394,8.139,27.495,7.79,18.038Z" transform="translate(8.226 15.275)" fill="#2af47a"/>
        <path id="Trazado_22162" data-name="Trazado 22162" d="M113.392,113.3c-2.4,4.226,1.456,10.975,3.241,15.365s5.518,8.513,8.205,8.021,3-2.81.964-6.585a84.111,84.111,0,0,0-6.318-10.093c5.559,4.513,12.042,10.482,14.831,12.124,7.077,4.1,9.416,1.58,9.6-.308.308-2.913-3.282-8.534-23.2-16.083,0,0,9.7,2.195,15.837,3.426s11.365.923,11.241-3.1c-.246-7.877-16.555-7.18-21.437-6.79-3.139.246-9.6.431-12.021,2.872a5.108,5.108,0,0,0-.944,1.149Z" transform="translate(118.448 114.669)" fill="#2af47a"/>
        <path id="Trazado_22163" data-name="Trazado 22163" d="M68,85.6s19.673,21.7,46.874,33.335c24.042,10.257,35.755,13.457,55.079,17.047l-1.662,7.057s-32.412-5.334-57.438-17.991C97.2,118.135,73.933,103.857,61.44,86.072Z" transform="translate(64.632 89.996)" fill="#2af47a"/>
        <path id="Trazado_22164" data-name="Trazado 22164" d="M44.653,23.478s-21.211,87.757-20.37,163.535S53.9,304.208,73.926,313.029c26.134,11.508,62.033,2.195,72.618-27.734,10.77-30.483-14.236-61.418-13.129-113.153.923-42.833,17.56-126.651,19.3-133.626S52.591,2.083,44.653,23.478Z" transform="translate(25.54 16.625)" fill="#20c868"/>
        <path id="Trazado_22165" data-name="Trazado 22165" d="M25.659,33.736c2.728,4.985,9.108,7.323,15,8.205s43.981,4.308,72.188,10.934,47.387,12.6,47.387,12.6a17.026,17.026,0,0,0,20.042-12.7h0c2.051-8.9-3.857-15.816-11.036-18.934,0,0-11.959-6.318-48.453-14.236S52.019,7.293,44.881,6.986c-6.154-.308-10.257.8-13.416,3.282a17.662,17.662,0,0,0-6.728,11.385,17.088,17.088,0,0,0,.923,12.083Z" transform="translate(25.312 7.291)" fill="#2af47a"/>
        <path id="Trazado_22166" data-name="Trazado 22166" d="M30.2,12.3c4.431-4.472,10.524-4.78,20.985-2.933,8.452,1.518-16.739-.985-14.852,20.8C36.909,36.853,18.446,24.217,30.2,12.3Z" transform="translate(27.663 8.727)" fill="#8bffb8"/>
        <path id="Trazado_22167" data-name="Trazado 22167" d="M29.33,108.926s23.242-5.805,41.643,9.682,34.4,14.154,53.787,7.262c0,0,11.8,35.243,9.662,53.336-1.764,14.954-15.96,31.2-34.689,32.7s-37.458-2.831-51.428-27C42.418,174.775,31.258,144.292,29.33,108.926Z" transform="translate(30.872 113.4)" fill="#088443"/>
        <path id="Trazado_22168" data-name="Trazado 22168" d="M59.179,123.583a4.964,4.964,0,0,0-5.662,3.918,4.677,4.677,0,0,0,3.816,5.539,4.923,4.923,0,0,0,5.621-3.918,4.677,4.677,0,0,0-3.775-5.539Z" transform="translate(56.205 129.862)" fill="#20c868"/>
        <path id="Trazado_22169" data-name="Trazado 22169" d="M53.108,116.945a8.923,8.923,0,0,0-10.257,7.118A8.472,8.472,0,0,0,49.7,134.136a8.944,8.944,0,0,0,10.257-7.118,8.472,8.472,0,0,0-6.852-10.072Z" transform="translate(44.901 122.818)" fill="#20c868"/>
        <path id="Trazado_22170" data-name="Trazado 22170" d="M63.507,76.647c-.533,3.057-2.831,5.293-5.149,4.964h0c-2.318-.328-3.775-3.077-3.241-6.154L60.7,43.209c.533-3.077,2.851-5.293,5.169-4.985h0c2.3.328,3.754,3.077,3.221,6.154Z" transform="translate(57.868 40.157)" fill="#2e2f30"/>
        <path id="Trazado_22171" data-name="Trazado 22171" d="M74.174,77.689c-.39,3.036-2.646,5.087-4.759,4.882h0c-2.051-.287-3.405-2.954-2.913-5.949L71.938,45.2c.513-2.995,2.646-5.169,4.78-4.882h0c2.051.287,3.405,2.974,2.892,5.949Z" transform="translate(69.847 42.356)" fill="#2e2f30"/>
        <path id="Trazado_22172" data-name="Trazado 22172" d="M65.4,29.562c-3.754,2.482-7.693,3.1-8.78,1.415s1.067-5.087,4.841-7.57,7.713-3.1,8.8-1.395S69.179,27.1,65.4,29.562Z" transform="translate(59.273 22.132)" fill="#2e2f30"/>
        <path id="Trazado_22173" data-name="Trazado 22173" d="M76.834,27.135c-2.585-3.528-3.344-7.405-1.682-8.616s5.067.656,7.652,4.205,3.344,7.385,1.682,8.616S79.418,30.683,76.834,27.135Z" transform="translate(78.121 19.082)" fill="#2e2f30"/>
        <path id="Trazado_22174" data-name="Trazado 22174" d="M46.95,48.94s2.3,23.652,16.144,33.56c12.308,8.841,29.97,4.39,37.212-5.272,0,0-10.852,18.155-18.114,33.519s-11.036,20.083-17.7,17.047c-6.154-2.81-11.241-15.385-14.77-32.617C46.437,79.2,45.452,58.253,46.95,48.94Z" transform="translate(48.68 51.453)" fill="#2e2f30"/>
        <path id="Trazado_22175" data-name="Trazado 22175" d="M73.631,96.943C71.272,85.189,66.1,76.081,59.62,73.332c-4.882-2.051-8.452,1.108-10.79,4.759,3.344,13.354,7.652,22.442,12.883,24.8C66.349,104.985,69.692,103.3,73.631,96.943Z" transform="translate(51.374 76.417)" fill="#2af47a"/>
        <path id="Trazado_22176" data-name="Trazado 22176" d="M30.167,88.45a196.93,196.93,0,0,0-.882,46.382c3.2,29.786,9.067,49.233,15,60.023a35.92,35.92,0,0,0,17.806,14.831S49.634,192.536,45.675,158.4c-4.246-36.925-.533-56.269-.533-56.269S37.921,98.871,30.167,88.45Z" transform="translate(29.81 92.993)" fill="#8bffb8"/>
      </g>
    </g>
    <g id="Persojanes-33" transform="translate(379 243.043)" style="isolation: isolate">
      <g id="Capa_1-2" data-name="Capa 1" transform="translate(0 0)">
        <path id="Trazado_22910" data-name="Trazado 22910" d="M64.429,167.81c-9.055-11.83-27.409-16.187-41.6-15.8a2.726,2.726,0,0,1,0-5.428c16.382-.438,35.953,5.014,46.249,18.5,2.118,2.775-2.58,5.453-4.674,2.726Z" transform="translate(171.272 210.193)" fill="#b52025"/>
        <path id="Trazado_22911" data-name="Trazado 22911" d="M14.81,170.258c0,6.377,27.214,11.538,60.854,11.538s60.854-5.16,60.854-11.538S109.3,158.72,75.664,158.72,14.81,163.88,14.81,170.258Z" transform="translate(117.877 227.632)" opacity="0.15" style="mix-blend-mode: multiply;isolation: isolate"/>
        <path id="Trazado_22912" data-name="Trazado 22912" d="M57.827,150.54a66.331,66.331,0,0,0-2.7,34.663c.56,3.408-4.649,4.868-5.233,1.436a71.784,71.784,0,0,1,2.726-37.559c1.217-3.237,6.475-1.826,5.209,1.436Z" transform="translate(114.22 211.178)" fill="#b52025"/>
        <path id="Trazado_22913" data-name="Trazado 22913" d="M2.621,86.35c15.871.316,28.65,5.55,41.381,14.9,2.166,1.607,1.607,6.207-1.217,6.378-9.737.584-20.058,7.765-26.484,16.893-2,2.824-7.035,0-5.282-3.091,5.6-9.737,16.236-19.936,32.569-19.741-.438,1.68-2.434,3.481-2.872,5.16A62.656,62.656,0,0,0,2.426,93.215c-3.481,0-3.189-6.937.292-6.864Z" transform="translate(245.227 123.841)" fill="#b52025"/>
        <path id="Trazado_22914" data-name="Trazado 22914" d="M147.627,109.5c-24.8,17.5-59.175,8.325-83.614-6.67-2.97-1.826-.341-8.763,2.653-6.937,22.881,14.045,52.676,22.3,75.946,5.866,2.848-2.02,5.55,2.678,2.726,4.674Z" transform="translate(-9.829 137.086)" fill="#b52025"/>
        <path id="Trazado_22915" data-name="Trazado 22915" d="M44.164,53.422c-14.605,7.3-21.908,18.67-25.827,33.2C12.3,109.019,14.419,135.308,27.9,164.25c15.238,32.594,35.734,38.606,46.687,61.244,12.755,31.815-7.3,55.329-5.72,60.854s5.6,17.307,23.027,17.307c24.074.56,85.439-72.027,62.534-170.952C139.34,75.6,105.481,59.386,87.176,50.574,72.814,43.637,52.83,49.065,44.164,53.422Z" transform="translate(94.146 67.776)" fill="#f32732"/>
        <path id="Trazado_22916" data-name="Trazado 22916" d="M206.749,120.881s51.58-72.417-32.009-107.25c0,0,7.741,9.883,9.4,16.82,0,0-17.867-17.94-50.533-26.435-22.492-5.866-56.96-6.572-86.218,6.572a46.42,46.42,0,0,1,42.16,26.459c13.339,26.995-5.039,58.006,18.6,87.63,22.784,28.066,58.664,20.277,58.664,20.277S172.744,126.31,206.749,120.881Z" transform="translate(-47.384 0)" fill="#b52025"/>
        <path id="Trazado_22917" data-name="Trazado 22917" d="M66.5,4.523,67.522,4.3C85.56,4.5,119.2.726,132.977,28.645s-18.67,83.93,62.047,98.584a28.48,28.48,0,0,0-9.152,11.66s-35.88,7.789-58.566-20.4c-23.563-29.5-5.258-60.514-18.694-87.508A46.42,46.42,0,0,0,66.5,4.523Z" transform="translate(-66.451 6.066)" fill="#921a1d"/>
        <path id="Trazado_22918" data-name="Trazado 22918" d="M118.473,55.051s-47.272,0-72.66,41.186c0,0-11.124-26.776,24.342-46.006C94.2,37.087,117.573,51.376,118.473,55.051Z" transform="translate(64.479 64.224)" fill="#ff7d83"/>
        <path id="Trazado_22919" data-name="Trazado 22919" d="M57.349,91.433A4.552,4.552,0,0,0,63.07,94.3h0a4.528,4.528,0,0,0,2.166-5.939L51.41,53.508a4.528,4.528,0,0,0-5.72-2.872h0a4.528,4.528,0,0,0-2.166,6.012Z" transform="translate(119.907 72.29)" fill="#2e2f30"/>
        <path id="Trazado_22920" data-name="Trazado 22920" d="M64.868,94.668A4.868,4.868,0,0,0,71.1,97.345h0a4.868,4.868,0,0,0,2.678-6.231L59.927,56.256A4.868,4.868,0,0,0,53.6,53.579h0a4.868,4.868,0,0,0-2.7,6.231Z" transform="translate(93.231 76.333)" fill="#2e2f30"/>
        <path id="Trazado_22921" data-name="Trazado 22921" d="M64.235,58.122c1.923.925,5.014-1.461,6.864-5.331s1.8-7.789-.146-8.714-5.014,1.46-6.889,5.355S62.287,57.2,64.235,58.122Z" transform="translate(65.336 62.929)" fill="#2e2f30"/>
        <path id="Trazado_22922" data-name="Trazado 22922" d="M49.121,42.948c-.779,2.02,1.85,4.868,5.842,6.451s7.887,1.168,8.666-.828-1.85-4.868-5.866-6.451S49.778,40.952,49.121,42.948Z" transform="translate(107.445 59.02)" fill="#2e2f30"/>
        <path id="Trazado_22923" data-name="Trazado 22923" d="M10.925,166.784c-2.848-3.627,25.729-22.078,27.993-17.915S13.8,170.435,10.925,166.784Z" transform="translate(225.287 212.631)" fill="#b52025"/>
        <path id="Trazado_22924" data-name="Trazado 22924" d="M45.92,166.515c0,1.947,4.868,3.505,10.832,3.505s10.832-1.558,10.832-3.505-4.868-3.505-10.832-3.505S45.92,164.592,45.92,166.515Z" transform="translate(111.084 233.785)" fill="#b52025"/>
        <path id="Trazado_22925" data-name="Trazado 22925" d="M12.119,102.1c5.4-2.8,8.812,2.434,8.617,6.012s-5.818,7.035-3.822,9.031,6.012-5.818,9.226-4.406,2.02,5.4-2.8,7.619-8.422,3.6-9.737.609c1.607,3.213,13.047-.414,12.439,4.868-.243,2.191-12.828,4.6-15.238-1.826S6.642,104.921,12.119,102.1Z" transform="translate(241.814 145.288)" fill="#b52025"/>
        <path id="Trazado_22926" data-name="Trazado 22926" d="M116.642,114.133a75.291,75.291,0,0,1,2.8-15.652,25.753,25.753,0,0,1,3.213-5.55c.949-1.29,2.872-2.848,2.751-4.7a3.749,3.749,0,0,0-4.649-3.164,10.151,10.151,0,0,0-6.012,5.331,16.14,16.14,0,0,0-1.509,3.895c-.365,1.534,0,2.994-.219,4.528-1.436,7.595-8.568,2.045-13.631,2.775-5.6.8-6.012,10.029-6.012,10.029s-4.868,7.3-.389,11.222S114.622,132.56,116.642,114.133Z" transform="translate(-56.689 121.836)" fill="#b52025"/>
        <path id="Trazado_22927" data-name="Trazado 22927" d="M92.94,76.233S83.2,90.473,68.087,87.041,42.212,71,40.411,68.59C38.8,84.656,58.862,133.485,73.3,134.167c10.224,0,10.929-3.651,9.883-8.666C82.181,122.7,83.325,92.469,92.94,76.233Z" transform="translate(99.359 98.37)" fill="#2e2f30"/>
        <path id="Trazado_22928" data-name="Trazado 22928" d="M44.534,86.594a22.321,22.321,0,0,1,21.275,4.868c7.156,6.694,11.319,14.143,6.524,17.331C62.888,111.958,55.975,108.355,44.534,86.594Z" transform="translate(107.65 122.892)" fill="#c63937"/>
      </g>
    </g>
    <g id="Persojanes-38" transform="translate(788.905 452.388)" style="isolation: isolate">
      <g id="Capa_1-3" data-name="Capa 1" transform="translate(0 0)">
        <g id="Grupo_325" data-name="Grupo 325" transform="translate(49.109 282.534)" opacity="0.15" style="mix-blend-mode: multiply;isolation: isolate">
          <path id="Trazado_23044" data-name="Trazado 23044" d="M164.555,133.924c0,3.317-26.063,12.676-72.171,11.847-39.734-.782-71.816-7.321-71.674-14.619s32.46-12.534,72.195-11.847S164.7,126.65,164.555,133.924Z" transform="translate(-20.71 -119.244)"/>
        </g>
        <path id="Trazado_23045" data-name="Trazado 23045" d="M101.763,12.653v1.279a22.436,22.436,0,0,1-.237,3.578c-.237,1.564-.237,3.436-.45,5.568s-.427,4.549-.687,7.108-.616,5.473-.971,8.482-.711,6.184-1.185,9.477-1.019,6.658-1.516,10.07l-.853,5.307c-.332,1.73-.64,3.459-.971,5.189-.64,3.459-1.28,6.942-1.9,10.33s-1.4,6.753-2.109,9.975-1.422,6.35-2.085,9.312c-.355,1.469-.663,2.914-.971,4.289L86.717,106.6c-2.772,10.212-4.739,17.012-4.739,17.012l-4.739-1.422s1.8-6.729,4.525-16.823c.332-1.279.687-2.583,1.043-3.957l.948-4.265c.64-2.914,1.3-6.018,2.014-9.193s1.469-6.492,2.014-9.88,1.208-6.824,1.824-10.259l.924-5.142c.237-1.73.5-3.436.734-5.142.5-3.388.971-6.729,1.445-9.975s.758-6.4,1.114-9.359.711-5.8.924-8.411.45-4.976.64-7.108.284-3.933.4-5.45.19-2.7.213-3.53V12.44Z" transform="translate(105.811 17.035)" fill="#bb732b"/>
        <path id="Trazado_23046" data-name="Trazado 23046" d="M83.9,25.065a16.728,16.728,0,0,0,10.97,3.578c3.507,0,8.7-1.587,5.331-6.753,4.739.64,11.255-.853,10.875-6.492-.521-7.748-7.44-10.378-12.937-10.97-5.142-.545-11.3-.687-13.458,5.686a24.9,24.9,0,0,0-.734,7.108C81.744,18.312,80.441,21.582,83.9,25.065Z" transform="translate(112.016 5.737)" fill="#bb732b"/>
        <path id="Trazado_23047" data-name="Trazado 23047" d="M46.256,158.915,40.19,157.8c4.194-22.58,7.44-45.018,8.7-59.732l6.137.545C53.719,113.826,50.52,135.814,46.256,158.915Z" transform="translate(55.075 134.294)" fill="#bd742b"/>
        <path id="Trazado_23048" data-name="Trazado 23048" d="M53.689,122.016S36.2,120.357,32.72,126.044c-4.739,7.558,8.269,10.591,24.95,1.872,0,0,1.516-3.862,0-5.852a2.559,2.559,0,0,0-3.981-.047Z" transform="translate(43.496 165.815)" fill="#bd742b"/>
        <path id="Trazado_23049" data-name="Trazado 23049" d="M63.357,158.915c-4.265-23.1-7.464-45.018-8.767-60.3l6.137-.545c1.256,14.809,4.5,37.152,8.7,59.732Z" transform="translate(74.794 134.294)" fill="#bd742b"/>
        <path id="Trazado_23050" data-name="Trazado 23050" d="M62.536,122.015s17.51-1.659,20.993,4.028c4.739,7.558-8.293,10.591-24.949,1.872,0,0-1.516-3.862,0-5.852a2.535,2.535,0,0,1,3.957-.047Z" transform="translate(79.335 165.815)" fill="#bd742b"/>
        <path id="Trazado_23051" data-name="Trazado 23051" d="M12.973,13l.261,1.232c.166.829.426,1.99.758,3.459s.687,3.27,1.185,5.331,1.09,4.383,1.706,6.942,1.374,5.26,2.132,8.151,1.564,5.971,2.512,9.1,1.9,6.374,2.891,9.643l1.493,4.976c.569,1.635,1.114,3.293,1.682,4.952l3.317,9.857c1.043,3.27,2.369,6.4,3.459,9.478l3.365,8.79c.521,1.4,1.043,2.772,1.564,4.075s1.09,2.559,1.611,3.744L47.85,118.7,43.4,120.806l-7.108-16.135c-.521-1.208-1.09-2.369-1.659-3.767l-1.587-4.1c-1.114-2.82-2.251-5.8-3.459-8.885s-2.369-6.231-3.554-9.477-2.369-6.611-3.412-9.928c-.592-1.659-1.161-3.341-1.73-5s-1.019-3.341-1.54-5l-2.985-9.738c-.948-3.151-1.753-6.255-2.583-9.169s-1.587-5.663-2.2-8.222L9.822,24.278c-.521-2.085-.924-3.933-1.256-5.45s-.663-2.583-.806-3.459L7.5,14.161Z" transform="translate(10.31 17.802)" fill="#bb732b"/>
        <path id="Trazado_23052" data-name="Trazado 23052" d="M28.006,16.775a25.5,25.5,0,0,0-1.824-7.108C23.03,3.435,16.7,4.572,11.609,5.923,5.994,7.558-.593,11.136.023,19.12c.474,5.781,7.464,6.3,12.084,4.952-2.606,5.781,2.938,6.539,6.516,6.066a17.3,17.3,0,0,0,10.662-5.355C32.294,20.755,30.47,17.651,28.006,16.775Z" transform="translate(0.017 6.658)" fill="#bb732b"/>
        <path id="Trazado_23053" data-name="Trazado 23053" d="M17.86,129.344c0,65.205,50.278,129.273,76.01,129.273,29.5,0,75.82-64.139,75.82-129.344S123.89,0,93.751,0C64.892,0,17.836,64.139,17.86,129.344Z" transform="translate(24.497)" fill="#f39223"/>
        <path id="Trazado_23054" data-name="Trazado 23054" d="M80.642.53a87.38,87.38,0,0,0-9.193,8.222A154.627,154.627,0,0,0,51.215,34.033,165.243,165.243,0,0,0,40.742,52.988,168.956,168.956,0,0,0,32.094,75.5a179.5,179.5,0,0,0-7.748,51.723A198.007,198.007,0,0,0,25.791,153.8a175.5,175.5,0,0,0,4.976,25.329,171.231,171.231,0,0,0,7.961,22.77,161.759,161.759,0,0,0,9.857,19.239,153.012,153.012,0,0,0,19.429,25.9,86.409,86.409,0,0,0,8.956,8.435,86.7,86.7,0,0,1-9.122-8.269A145.221,145.221,0,0,1,47.9,221.568a164.246,164.246,0,0,1-18.363-42.222,190.758,190.758,0,0,1-6.658-52.126,180.831,180.831,0,0,1,8.008-52.126A163.653,163.653,0,0,1,50.527,33.583,147.281,147.281,0,0,1,71.283,8.562,87.669,87.669,0,0,1,80.642.53Z" transform="translate(31.351 0.726)" fill="#b7702a"/>
        <path id="Trazado_23055" data-name="Trazado 23055" d="M52.81.53a85.3,85.3,0,0,1,9.359,8.008,147.443,147.443,0,0,1,20.756,25,162.324,162.324,0,0,1,19.689,41.559,181.611,181.611,0,0,1,8.056,52.126,190.806,190.806,0,0,1-6.611,52.126,164.409,164.409,0,0,1-18.315,42.127A146.4,146.4,0,0,1,65.818,247.11a86.956,86.956,0,0,1-9.146,8.293,85.3,85.3,0,0,0,8.956-8.459,153.108,153.108,0,0,0,19.405-25.9,160.351,160.351,0,0,0,9.857-19.263,174.647,174.647,0,0,0,7.937-22.77,178.749,178.749,0,0,0,4.928-25.352,202.02,202.02,0,0,0,1.422-26.584,180.333,180.333,0,0,0-7.8-51.7A171.944,171.944,0,0,0,92.71,52.893a157.944,157.944,0,0,0-10.5-18.955A153.366,153.366,0,0,0,62,8.752,84.968,84.968,0,0,0,52.81.53Z" transform="translate(72.357 0.726)" fill="#b7702a"/>
        <path id="Trazado_23056" data-name="Trazado 23056" d="M24.05,44.248H147.542A180.69,180.69,0,0,0,130.269,14.11H41.536A182.918,182.918,0,0,0,24.05,44.248Z" transform="translate(32.974 19.322)" fill="#fccd8e"/>
        <path id="Trazado_23057" data-name="Trazado 23057" d="M43.128,112.907h82.123A167.681,167.681,0,0,0,142.286,84.64H25.5a178.816,178.816,0,0,0,17.628,28.267Z" transform="translate(34.959 115.903)" fill="#fccd8e"/>
        <path id="Trazado_23058" data-name="Trazado 23058" d="M77.271,34.978l.355.9c.261.616.569,1.493.971,2.63s.853,2.488,1.3,4.075l.735,2.535c.237.9.474,1.848.711,2.82.521,1.967.948,4.123,1.422,6.4s.9,4.739,1.185,7.227c.166,1.256.355,2.535.521,3.815s.237,2.63.379,3.957c.284,2.63.379,5.355.5,8.032s0,5.426,0,8.08-.213,5.284-.308,7.8-.5,4.976-.711,7.274-.592,4.478-.9,6.492-.545,3.838-.948,5.426l-.924,4.17c-.5,2.369-.806,3.6-.806,3.6a1.919,1.919,0,0,1-2.369,1.493,1.943,1.943,0,0,1-1.493-2.227v-.118l.64-3.578c.19-1.114.45-2.512.711-4.075s.45-3.388.734-5.331.592-4.075.735-6.326.4-4.62.5-7.108.237-5,.261-7.582,0-5.189-.142-7.819-.19-5.236-.474-7.819c0-1.279-.213-2.559-.308-3.815s-.332-2.512-.474-3.72c-.261-2.369-.711-4.739-1.043-7.108s-.758-4.312-1.185-6.231-.829-3.673-1.232-5.213-.758-2.891-1.066-3.981l-.758-2.512-.284-.877h0a1.943,1.943,0,0,1,1.232-2.369A1.967,1.967,0,0,1,77.271,34.978Z" transform="translate(100.591 46.22)" fill="#fcd19b"/>
        <line id="Línea_11" data-name="Línea 11" y1="2.227" x2="9.312" transform="translate(174.473 93.164)" fill="none" stroke="#fcd19b" stroke-linecap="round" stroke-miterlimit="10" stroke-width="1.85"/>
        <line id="Línea_12" data-name="Línea 12" y1="1.469" x2="9.454" transform="translate(177.625 111.811)" fill="none" stroke="#fcd19b" stroke-linecap="round" stroke-miterlimit="10" stroke-width="1.85"/>
        <line id="Línea_13" data-name="Línea 13" x2="9.572" y2="0.213" transform="translate(178.62 132.898)" fill="none" stroke="#fcd19b" stroke-linecap="round" stroke-miterlimit="10" stroke-width="1.85"/>
        <line id="Línea_14" data-name="Línea 14" x2="9.027" y2="1.09" transform="translate(176.985 153.701)" fill="none" stroke="#fcd19b" stroke-linecap="round" stroke-miterlimit="10" stroke-width="1.8"/>
        <path id="Trazado_23059" data-name="Trazado 23059" d="M66.551,25.9c-1.445,1.564-5.284.426-8.577-2.559s-4.739-6.705-3.365-8.293,5.284-.426,8.577,2.559S68.091,24.316,66.551,25.9Z" transform="translate(74.112 19.636)" fill="#2e2f30"/>
        <path id="Trazado_23060" data-name="Trazado 23060" d="M53,13.852c1.185,1.777-.853,5.213-4.549,7.7s-7.653,3.033-8.838,1.256.829-5.213,4.525-7.7S51.818,12.075,53,13.852Z" transform="translate(53.825 17.542)" fill="#2e2f30"/>
        <path id="Trazado_23061" data-name="Trazado 23061" d="M27.81,33.1a2.512,2.512,0,0,0,5,0,2.512,2.512,0,0,0-5,0Z" transform="translate(38.122 42.222)" fill="#c97c29"/>
        <path id="Trazado_23062" data-name="Trazado 23062" d="M32.613,35.281a2.725,2.725,0,1,0,2.7-2.369A2.583,2.583,0,0,0,32.613,35.281Z" transform="translate(44.668 45.064)" fill="#c97c29"/>
        <path id="Trazado_23063" data-name="Trazado 23063" d="M28.36,37.025A2.725,2.725,0,1,0,31.085,34.3,2.725,2.725,0,0,0,28.36,37.025Z" transform="translate(38.876 46.969)" fill="#c97c29"/>
        <path id="Trazado_23064" data-name="Trazado 23064" d="M65.212,33.367a5.392,5.392,0,1,0,0,.024Z" transform="translate(87.558 39.562)" fill="#c97c29"/>
        <path id="Trazado_23065" data-name="Trazado 23065" d="M69.539,30.656a2.583,2.583,0,1,0-1.566-2.194A2.583,2.583,0,0,0,69.539,30.656Z" transform="translate(93.112 35.188)" fill="#c97c29"/>
        <path id="Trazado_23066" data-name="Trazado 23066" d="M69.179,34.966A2.7,2.7,0,0,0,72.828,33.9a2.772,2.772,0,0,0-4.9-2.512,2.677,2.677,0,0,0,1.256,3.578Z" transform="translate(92.689 41.28)" fill="#c97c29"/>
        <path id="Trazado_23067" data-name="Trazado 23067" d="M37.85,41.826S49.057,31.59,60.809,44.835c0,0-3.293-11.847-11.491-12.344S37.85,41.826,37.85,41.826Z" transform="translate(51.871 44.467)" fill="#2e2f30"/>
        <path id="Trazado_23068" data-name="Trazado 23068" d="M73.991,41.716S63.163,31.5,51.79,44.725c0,0,3.175-11.847,11.112-12.344S73.991,41.716,73.991,41.716Z" transform="translate(70.96 44.316)" fill="#2e2f30"/>
        <path id="Trazado_23069" data-name="Trazado 23069" d="M32,41.987a34.166,34.166,0,0,0,2.82,3.2,45.518,45.518,0,0,0,8.767,6.824A46.44,46.44,0,0,0,58.111,57.6a52.129,52.129,0,0,0,8.743,1,65.564,65.564,0,0,0,9.17-.355,56.864,56.864,0,0,0,8.956-1.659,47.672,47.672,0,0,0,8.293-3.08,41.393,41.393,0,0,0,12.771-8.885,37.91,37.91,0,0,0,6.516-8.861,24.757,24.757,0,0,0,1.706-3.886,22.675,22.675,0,0,1-1.4,4.028,36.345,36.345,0,0,1-2.369,4.36,36.986,36.986,0,0,1-3.838,5.142,42.648,42.648,0,0,1-12.842,9.643,49.237,49.237,0,0,1-8.364,3.2,60.069,60.069,0,0,1-9.241,1.777,58.833,58.833,0,0,1-9.359.45,48.477,48.477,0,0,1-9.027-1.161,43.335,43.335,0,0,1-8.1-2.677,46.153,46.153,0,0,1-6.658-3.673,39.26,39.26,0,0,1-8.459-7.511A23.693,23.693,0,0,1,32,41.987Z" transform="translate(43.86 43.642)" fill="#2e2f30"/>
      </g>
    </g>
    <g id="WILLY-05" transform="translate(519.244 417.446)" style="isolation: isolate">
      <g id="Capa_1-4" data-name="Capa 1" transform="translate(0 0)">
        <g id="Grupo_347" data-name="Grupo 347" transform="translate(58.086 270.92)" opacity="0.15" style="mix-blend-mode: multiply;isolation: isolate">
          <path id="Trazado_24097" data-name="Trazado 24097" d="M285.656,178.576c0,8.189-56.081,14.889-125.281,14.889S35.11,186.848,35.11,178.576,91.175,163.77,160.375,163.77,285.656,170.4,285.656,178.576Z" transform="translate(-35.11 -163.77)"/>
        </g>
        <path id="Trazado_24098" data-name="Trazado 24098" d="M81.452,139.4c-9.76,3.821-25.692,12.391-29.778,22.8-4.7,11.911,4.582,22.3,11.58,31.035,2.614,3.309,7.147-1.357,4.566-4.566-6.038-7.527-15.948-17.916-7.759-27.412a62.2,62.2,0,0,1,23.16-15.633c3.838-1.505,2.167-7.742-1.654-6.22Z" transform="translate(32.979 91.051)" fill="#96a3ac"/>
        <path id="Trazado_24099" data-name="Trazado 24099" d="M46.317,174.063a54.477,54.477,0,0,1,14.541-5.84c7.411-1.538,16.08,2.845,8.834,7.775s-22.681,4.235-24.335,2.266S46.317,174.063,46.317,174.063Z" transform="translate(29.321 109.859)" fill="#96a3ac"/>
        <path id="Trazado_24100" data-name="Trazado 24100" d="M146.745,143.867a85.3,85.3,0,0,1,48.935,42.1c1.82,3.739,7.378.463,5.559-3.309-10.075-20.729-30.87-38.149-52.773-45.064-3.987-1.274-5.674,4.963-1.654,6.22Z" transform="translate(94.557 89.913)" fill="#96a3ac"/>
        <path id="Trazado_24101" data-name="Trazado 24101" d="M186.173,90.7c11.464-14.078,23.938-28.454,38.264-39.7,3.309-2.564-1.34-7.1-4.566-4.549-14.326,11.249-26.8,25.642-38.264,39.7-2.6,3.193,1.936,7.792,4.566,4.566Z" transform="translate(118.323 29.891)" fill="#96a3ac"/>
        <path id="Trazado_24102" data-name="Trazado 24102" d="M210.389,41.308s-1.754-11.2-9.744-12.258-12.474,4.814-4.88,9.132,9.066,12.523,9.148,17.2c.1,6.882,9.926,13.235,16.014,10.555,7.66-3.441,11.58-12.887,10.852-20.795a9.661,9.661,0,0,0-1.654-4.963,11.381,11.381,0,0,0-3.689-1.82s-.844-6.3-6.369-5.889S214.045,38.215,210.389,41.308Z" transform="translate(125.54 18.918)" fill="#96a3ac"/>
        <path id="Trazado_24103" data-name="Trazado 24103" d="M56.691,95.564c-12.771,11.183-41.705,8.966-42.086-12.093,0-4.185-6.518-3.97-6.435.182.463,27.164,36.395,31.018,53.269,16.3,3.127-2.746-1.654-7.1-4.748-4.384Z" transform="translate(5.348 52.622)" fill="#96a3ac"/>
        <path id="Trazado_24104" data-name="Trazado 24104" d="M56.683,125.576c2.9,29.215-20.729,52.508-2.068,72.327a127.5,127.5,0,0,0,105.512,39.6c70.16-6.932,86.223-66.95,79.291-137.11S184.066,20.3,137,29.063C98.041,36.259,49.719,55.433,56.683,125.576Z" transform="translate(30.998 17.25)" fill="#8d45b6"/>
        <path id="Trazado_24105" data-name="Trazado 24105" d="M107.16,76.73,119.8,204.559l1.208-.1a127.382,127.382,0,0,0,94.859-58.116Z" transform="translate(70.119 50.198)" fill="#f353af"/>
        <path id="Trazado_24106" data-name="Trazado 24106" d="M215.534,163.087A127.465,127.465,0,0,0,229.133,52L107.16,92.895Z" transform="translate(70.119 34.017)" fill="#f32732"/>
        <path id="Trazado_24107" data-name="Trazado 24107" d="M107.16,124.008l122.254-40A127.879,127.879,0,0,0,151.148,4.45Z" transform="translate(70.119 2.904)" fill="#ff9400"/>
        <path id="Trazado_24108" data-name="Trazado 24108" d="M133.11,126.982,177.776,7.541A127.9,127.9,0,0,0,67.45,19.005Z" transform="translate(44.136 -0.005)" fill="#f8dd41"/>
        <path id="Trazado_24109" data-name="Trazado 24109" d="M31.35,104.773l125.43,14.773L91.352,11.37a127.862,127.862,0,0,0-60,93.4Z" transform="translate(20.515 7.432)" fill="#20c868"/>
        <path id="Trazado_24110" data-name="Trazado 24110" d="M31.825,67.31A127.531,127.531,0,0,0,66.334,171.979l90.805-89.1Z" transform="translate(20.14 44.034)" fill="#1675ce"/>
        <path id="Trazado_24111" data-name="Trazado 24111" d="M158.834,42.913,129.619,13.78,105.3,48.67a81.194,81.194,0,1,0,53.468-5.757Z" transform="translate(38.628 9.009)" fill="#d8d7d6" stroke="#fff" stroke-linejoin="round" stroke-width="2.58"/>
        <path id="Trazado_24112" data-name="Trazado 24112" d="M94.8,32.966c1.075,1.439-.761,4.616-4.119,7.08s-6.932,3.309-7.99,1.82.778-4.616,4.119-7.08S93.739,31.51,94.8,32.966Z" transform="translate(53.911 21.089)" fill="#2e2f30"/>
        <path id="Trazado_24113" data-name="Trazado 24113" d="M116.568,28.878c-1.026,1.489.926,4.6,4.367,6.948s7.031,3.027,8.057,1.522-.943-4.582-4.384-6.915S117.577,27.39,116.568,28.878Z" transform="translate(76.096 18.378)" fill="#2e2f30"/>
        <path id="Trazado_24114" data-name="Trazado 24114" d="M73,79.385s33.5,52.938,60.829,50.209S185.51,76.656,188.5,64.48a71.136,71.136,0,0,1-56.842,35.6C92.14,103.026,73,79.385,73,79.385Z" transform="translate(47.768 42.183)" fill="#2e2f30"/>
        <path id="Trazado_24115" data-name="Trazado 24115" d="M68.15,71.235C95.231,120.864,179.486,112.741,195.284,58,183.82,116.067,91.757,124.868,68.15,71.235Z" transform="translate(44.594 37.943)" fill="#2e2f30"/>
        <path id="Trazado_24116" data-name="Trazado 24116" d="M64.941,71.714a4.4,4.4,0,0,1,0-.976,6.965,6.965,0,0,1,.86-2.465,5.988,5.988,0,0,1,1.191-1.357c4.632-3.954,11.729.414,15.054,4.285C76.918,69.4,68.365,64.534,64.941,71.714Z" transform="translate(42.477 42.757)" fill="#2e2f30"/>
        <path id="Trazado_24117" data-name="Trazado 24117" d="M156.511,62.474c-4.781-6.369-12.192,0-16.891,2.845,2.5-4.467,8.6-10.091,13.929-7.147a5.806,5.806,0,0,1,1.423,1.108,6.27,6.27,0,0,1,1.323,2.25,5.338,5.338,0,0,1,.215.943Z" transform="translate(91.358 37.521)" fill="#2e2f30"/>
        <path id="Trazado_24118" data-name="Trazado 24118" d="M103.127,85.686a6.187,6.187,0,0,1-5.559,6.766h0A6.171,6.171,0,0,1,90.8,86.91L88.123,59.8a6.187,6.187,0,0,1,5.558-6.783h0a6.154,6.154,0,0,1,6.766,5.542Z" transform="translate(57.642 34.658)" fill="#2e2f30"/>
        <path id="Trazado_24119" data-name="Trazado 24119" d="M130.4,82.995a6.187,6.187,0,0,1-5.559,6.766h0a6.2,6.2,0,0,1-6.766-5.559l-2.68-27.114a6.187,6.187,0,0,1,5.542-6.766h0a6.2,6.2,0,0,1,6.783,5.559Z" transform="translate(75.486 32.899)" fill="#2e2f30"/>
        <path id="Trazado_24120" data-name="Trazado 24120" d="M98,106.421c6.1,3.987,13.235,6.617,19.554,5.939,7.345-.728,14.69-4.963,20.944-11-3.309-6.75-11.878-11.051-21.324-10.108C107.281,92.227,99.522,98.646,98,106.421Z" transform="translate(64.126 59.615)" fill="#ed696b"/>
        <path id="Trazado_24121" data-name="Trazado 24121" d="M178.873,178.714c2.531.414,5.062-1.423,6.617-3.788,2.415-3.855,3.755-6.237,7.577-9.2,2.994-2.333,9.479-5.74,7.825-10.6-1.175-3.441-6.055-4.053-9.1-3.441-6.617,1.373-23.16,19.008-15.4,25.774a4.963,4.963,0,0,0,2.481,1.257Z" transform="translate(114.092 99.104)" fill="#96a3ac"/>
        <path id="Trazado_24122" data-name="Trazado 24122" d="M21.507,75.915s1.654-11.183,9.744-12.292,12.457,4.814,4.88,9.115-9.082,12.54-9.148,17.221c-.1,6.865-9.926,13.235-16.014,10.555C3.31,97.124-.644,87.661.084,79.77a9.711,9.711,0,0,1,1.654-4.963c.331-.4,3.722-2.151,3.689-1.82,0,0,.844-6.3,6.369-5.889S17.818,72.871,21.507,75.915Z" transform="translate(0.002 41.534)" fill="#96a3ac"/>
      </g>
    </g>
    <g id="Persojanes-13" transform="translate(662.027 616.788)" style="isolation: isolate">
      <g id="Capa_1-5" data-name="Capa 1" transform="translate(0 0)">
        <path id="Trazado_22344" data-name="Trazado 22344" d="M34.79,130.252c0,7.17,30.946,12.981,69.1,12.981s69.1-5.91,69.1-12.981-30.946-12.962-69.1-12.962S34.79,123.1,34.79,130.252Z" transform="translate(33.743 113.755)" opacity="0.15" style="mix-blend-mode: multiply;isolation: isolate"/>
        <path id="Trazado_22345" data-name="Trazado 22345" d="M100.472,65.179a3.152,3.152,0,1,1,0-6.3h0c.256,0,25.057-.256,27.834-17.729v-.2c2.285-10.046-5.082-22.752-5.161-22.89a3.152,3.152,0,0,1,5.437-3.171c.355.591,8.648,14.931,5.91,27.361C131.556,60.353,110.971,65.179,100.472,65.179Z" transform="translate(94.388 13.064)" fill="#4d96da"/>
        <path id="Trazado_22346" data-name="Trazado 22346" d="M56.633,129.667c18.3-.847,21.274-7.151,20.29-13.139-1.97-12.115-12.233-18.95-12.371-19.068l-2.974,3.94c.453.394,8.529,6.146,10.046,15.759.926,5.91-8.392,6.757-16.074,7.308Z" transform="translate(53.877 94.523)" fill="#4d96da"/>
        <path id="Trazado_22347" data-name="Trazado 22347" d="M57.4,111.273a2.974,2.974,0,0,1,1.97,2.206c1.241,3.94,6.717,10.243,9.219,13.789a3.29,3.29,0,0,1-1.97,5.082C56.713,133.552,51.139,109.184,57.4,111.273Z" transform="translate(53.108 107.796)" fill="#4d96da"/>
        <path id="Trazado_22348" data-name="Trazado 22348" d="M110.461,116.035c8.589-11.327,11.11-24.466,6.835-28.189-6.264-5.417-29.981,3.684-30.158,3.782L87,96.908c3.329-1.438,16.724-6.225,24.466-4.925,5.181.847-1.773,16.507-7.426,23.106Z" transform="translate(84.379 83.531)" fill="#4d96da"/>
        <path id="Trazado_22349" data-name="Trazado 22349" d="M95.938,103.247a2.915,2.915,0,0,1,2.8-1.123c4.176.335,11.6-2.718,15.759-3.94a3.625,3.625,0,0,1,4.452,4.2C115.5,112.841,91.7,108.31,95.938,103.247Z" transform="translate(92.559 95.117)" fill="#4d96da"/>
        <path id="Trazado_22350" data-name="Trazado 22350" d="M199.464,73.259c15.444,52.95-13.789,107.574-65.005,121.993s-105.7-16.763-121.146-69.713S27.1,17.965,78.417,3.526,184.021,20.309,199.464,73.259Z" transform="translate(8.909 0.001)" fill="#1675ce"/>
        <path id="Trazado_22351" data-name="Trazado 22351" d="M11.638,38a15.444,15.444,0,0,0,2.876,10.105c3.664,4.255-5.22,20.467,5.516,29.292,8.49,6.973,12.213,5.594,15.128,16.626s-3.073,13.316-3.841,14.774,2.876,5.732,2.206,9.652a18.773,18.773,0,0,0-.768,7.111A102.807,102.807,0,0,1,13.312,88.783,101.329,101.329,0,0,1,11.638,38Z" transform="translate(8.91 36.855)" fill="#4d96da"/>
        <path id="Trazado_22352" data-name="Trazado 22352" d="M55.14,111.393c-.886-2.4,0-8.746,6.894-12.489,8.214-4.472,21.353-7.584,26.554-15.5,3.467-5.279,14.813-2.915,14.813-2.915s8.687-5.653,16.369-2.6,1.517,9.3,2.837,10.224a10.3,10.3,0,0,1,5.516,7.367,10.105,10.105,0,0,1-.847,4.669,92.721,92.721,0,0,1-37.211,20.447,94,94,0,0,1-34.453,3.093,17.868,17.868,0,0,1,2.206-1.2C65.856,118.858,57.228,116.967,55.14,111.393Z" transform="translate(53.203 74.661)" fill="#4d96da"/>
        <path id="Trazado_22353" data-name="Trazado 22353" d="M69.013,3.526A94.336,94.336,0,0,1,107.327.867a8.175,8.175,0,0,1,3.447,5.614c-.138,4.728-4.9,10.3-11.819,11.307s-10.6-1.773-12.863-.256-3.25,7.584-6.835,7.879c-2.64.177-8.529,7.407-2.187,11.208,2.187,1.32,6.264.63,11.071-.532,0,0-1.5,5.24-9.1,7.269s-5.791-5.634-15.286-3.94S53.51,32.779,53.9,30.159s-9,2.5-13.631-2.974C38.6,25.214,24.514,37.033,18.88,38.137A93.43,93.43,0,0,1,69.013,3.526Z" transform="translate(18.313 0)" fill="#4d96da"/>
        <path id="Trazado_22354" data-name="Trazado 22354" d="M69.422,50.327a4.747,4.747,0,0,0,5.26,3.6h0c1.97-.571,2.9-3.112,1.97-5.693L70.446,30.511a4.787,4.787,0,0,0-5.3-3.487h0c-1.97.591-2.9,3.132-1.97,5.713Z" transform="translate(60.925 26.163)" fill="#2e2f30"/>
        <path id="Trazado_22355" data-name="Trazado 22355" d="M57.548,55.5a5.063,5.063,0,0,0,5.791,3.7h0a4.57,4.57,0,0,0,2.443-6.146L59.4,34.243a5.141,5.141,0,0,0-5.91-3.8h0a4.59,4.59,0,0,0-2.423,6.166Z" transform="translate(49.121 29.442)" fill="#2e2f30"/>
        <path id="Trazado_22356" data-name="Trazado 22356" d="M59.293,8.738c-.611,1.34,1.438,3.625,4.57,5.122s6.166,1.615,6.757.3-1.438-3.644-4.55-5.141S59.9,7.4,59.293,8.738Z" transform="translate(57.403 7.572)" fill="#2e2f30"/>
        <path id="Trazado_22357" data-name="Trazado 22357" d="M42.571,27.278c1.517,1.143,4.59-.394,6.835-3.408s2.837-6.4,1.3-7.545-4.59.394-6.835,3.428S41.035,26.136,42.571,27.278Z" transform="translate(40.46 15.468)" fill="#2e2f30"/>
        <path id="Trazado_22358" data-name="Trazado 22358" d="M120.637,41.865s-3.329,22.318-33.645,23.008S37.47,38.28,37.47,38.28s9.849,25.037,27.578,44.814,29.8,22.673,34.413,20.23c3.093-1.615,6.323-18.6,11.819-36.186a129.81,129.81,0,0,1,6.619-16,23.107,23.107,0,0,0,2.738-9.278Z" transform="translate(36.342 37.127)" fill="#2e2f30"/>
        <path id="Trazado_22359" data-name="Trazado 22359" d="M53.1,66.606c-1.1-1.221-2.187-2.482-3.231-3.743A22.575,22.575,0,0,1,66.1,55.22c12.331.177,20.92,9.337,26.692,18.32-1.97,7.269-3.723,12.449-5.358,13.3C82.826,89.338,71.026,86.442,53.1,66.606Z" transform="translate(48.368 53.556)" fill="#4d96da"/>
        <path id="Trazado_22360" data-name="Trazado 22360" d="M13.632,95.787a3.546,3.546,0,0,1-2.147-1.024C4.413,87.789-1.792,73.153.474,63.934a9.849,9.849,0,0,1,6.678-7.446c12.666-3.8,28.11,13.454,29.824,15.424a3.625,3.625,0,0,1-.355,5.122c-1.517,1.32-3.8,0-5.122-1.556C26.18,69.371,12.9,56.9,6.8,63.816c-4.058,4.59,1.97,20.506,8,26.4,1.418,1.4,3.231,3.034,1.832,4.472a3.684,3.684,0,0,1-2.994,1.1Z" transform="translate(0.001 54.257)" fill="#4d96da"/>
        <path id="Trazado_22361" data-name="Trazado 22361" d="M4.863,89.482c1.32,1.536,3.526,1.28,4.255-1.221s-.236-4.846.453-6.757c1.753,6.461,8.195,15.759,11.819,14.616,5.457-1.753-4.629-12.075-8.431-17.729A81.039,81.039,0,0,1,20.484,84.1a4.9,4.9,0,0,0,6.107.808c2.7-1.733,0-4.9-1.556-6.382C22,75.594,17.765,74.471,13.688,73.6a6.717,6.717,0,0,0-3.191,0C5.3,75.082,1.14,85.089,4.863,89.482Z" transform="translate(3.334 71.2)" fill="#4d96da"/>
        <path id="Trazado_22362" data-name="Trazado 22362" d="M127.228,13.825c-.906-1.793-3.132-2.068-4.412.2s-.926,4.747-1.97,6.441c-.177-6.678-4.235-17.276-8.057-16.98-5.732.433,1.635,12.824,3.94,19.108a79.916,79.916,0,0,1-5.91-7.308,4.925,4.925,0,0,0-5.752-2.226c-3.034,1.024-1.143,4.767,0,6.56a22.456,22.456,0,0,0,9.849,7.466,6.4,6.4,0,0,0,3.112.729C123.407,27.712,129.809,18.986,127.228,13.825Z" transform="translate(100.312 3.373)" fill="#4d96da"/>
      </g>
    </g>
    <g id="Persojanes-21" transform="translate(382.426 459.838)" style="isolation: isolate">
      <g id="Capa_1-6" data-name="Capa 1" transform="translate(0 0)">
        <path id="Trazado_22549" data-name="Trazado 22549" d="M143.673,130.384c0,4.827-26.6,8.764-59.4,8.764S25,135.212,25,130.384,51.581,121.6,84.378,121.6s59.4,3.936,59.4,8.785" transform="translate(26.885 130.326)" fill="#232121" opacity="0.15" style="mix-blend-mode: multiply;isolation: isolate"/>
        <path id="Trazado_22550" data-name="Trazado 22550" d="M41.159,109.931c7.189,7.189,12.679,19.206,14.5,29.005.684,3.6,4.889,2.072,4.144-1.512-2.072-10.794-8.287-23.7-16.036-31.554a2.842,2.842,0,1,0-4.019,4.019" transform="translate(41.803 112.575)" fill="#e543a0"/>
        <path id="Trazado_22551" data-name="Trazado 22551" d="M52.69,108.337a73.321,73.321,0,0,0,16.036,33.791c2.445,2.714,5.18-1.305,2.756-4.019a67.872,67.872,0,0,1-14.5-31.284c-.622-3.6-4.827-2.072-4.144,1.512" transform="translate(56.563 112.284)" fill="#e543a0"/>
        <path id="Trazado_22552" data-name="Trazado 22552" d="M21.448,83.606s-8.515,3.936-12.431,1.637a6.92,6.92,0,0,1-2.963-9.178A5.8,5.8,0,0,1,.046,70.8c-.974-5.573,6.215-8.515,10.173-8.184,0,0-6.215-7.541-2.963-14.772S18.423,40.3,24,43.268c0,0,2.942-10.815,11.478-4.268,0,0-5.242-11.146,4.247-14.5,0,0-1.948-8.847,8.536-10.815s16.72,11.126,16.72,11.126-.891-7.127,3.046-8.992,10.483,4.579,10.483,4.579-3.273-8.536,5.9-8.536a10.794,10.794,0,0,1,11.478-7.21c8.847.994,9.841,11.809,10.173,15.414,0,0,3-5.988,7.21-6.878,4.579-.994,7.873,2.942,8.287,7.541,0,0,6.878-10.5,16.719-.994,0,0,5.573-5.573,11.478-1.968s7.21,9.841,2.942,16.409a10.981,10.981,0,0,1,7.541-.994c4.268.994,5.242,7.21,4.268,11.146,0,0,8.515-7.852,14.088,1.326,0,0,7.21-1.305,9.51,7.21a11.809,11.809,0,0,1-3.667,12.679s6.215-1.761,8.287,3.273c2.2,5.594-4.372,9.157-4.372,9.157s-.663,9.82-11.478,5.573-55.752,23.929-155.386,0" transform="translate(0.043 4.895)" fill="#ffaada"/>
        <path id="Trazado_22553" data-name="Trazado 22553" d="M93.69,31.087a12.741,12.741,0,0,0-2.279-.373,9.634,9.634,0,0,0-2.2.166,5.468,5.468,0,0,0-.994.29,3.584,3.584,0,0,0-.953.414,3.771,3.771,0,0,0-.849.559,5.47,5.47,0,0,0-.767.642c-.228.249-.477.5-.684.746l-.58.849a15.971,15.971,0,0,0-1.015,1.844L83,37.241a8.577,8.577,0,0,0-.394,1.015l-.622,2.072-1.119,3.9-1.616-3.6c-.124-.311-.331-.684-.518-1.036a10.467,10.467,0,0,0-.58-1.057,13.031,13.031,0,0,0-1.367-2.072A16.575,16.575,0,0,0,75.21,34.63a6.217,6.217,0,0,0-.87-.787c-.331-.249-.6-.539-.932-.746s-.663-.456-1.015-.642l-1.057-.539a10.36,10.36,0,0,0-1.119-.435,4.723,4.723,0,0,0-1.181-.311c-.394,0-.808-.207-1.222-.249H66.55a6.65,6.65,0,0,0-1.285,0H63.96a15.022,15.022,0,0,1,2.507-.891l1.347-.249a10.359,10.359,0,0,1,1.388,0,7.832,7.832,0,0,1,1.388.1A5.6,5.6,0,0,1,72,30.134l1.347.456c.435.166.849.414,1.285.622a7.126,7.126,0,0,1,1.2.725,9.718,9.718,0,0,1,1.14.87,16.41,16.41,0,0,1,2.072,2.072,19.826,19.826,0,0,1,1.637,2.279c.249.373.477.787.7,1.2a13.236,13.236,0,0,1,.622,1.326l-2.756.166.767-2.341c.269-.767.663-1.512,1.015-2.279a19.719,19.719,0,0,1,1.409-2.072c.269-.331.58-.642.849-.974l1.015-.829a7.81,7.81,0,0,1,1.119-.7,4.889,4.889,0,0,1,1.222-.5,5.138,5.138,0,0,1,1.264-.311,5.3,5.3,0,0,1,1.285,0,7.956,7.956,0,0,1,2.424.435A8.059,8.059,0,0,1,93.691,31.4" transform="translate(68.643 31.889)" fill="#f7cadb"/>
        <path id="Trazado_22554" data-name="Trazado 22554" d="M41.518,24.728a11.4,11.4,0,0,0-2.4.331,9.551,9.551,0,0,0-2.072.849,6.94,6.94,0,0,0-.912.6,4.62,4.62,0,0,0-.829.725,6.4,6.4,0,0,0-.684.808,4.143,4.143,0,0,0-.58.912c-.166.311-.331.622-.477.953s-.228.7-.352,1.036a19.1,19.1,0,0,0-.5,2.072l-.1,1.14v7.479L30.04,38.506c-.207-.269-.518-.58-.787-.87s-.58-.6-.891-.891a19.746,19.746,0,0,0-1.927-1.554,15.766,15.766,0,0,0-2.072-1.285,6.754,6.754,0,0,0-1.119-.518,9.593,9.593,0,0,0-1.16-.435,8.8,8.8,0,0,1-1.16-.311L19.7,32.435H18.459a6.216,6.216,0,0,0-1.243,0,9.074,9.074,0,0,0-1.285.166l-1.264.311a7.5,7.5,0,0,0-1.264.414l-1.264.456,1.057-.87a8.577,8.577,0,0,1,1.139-.787l1.243-.642a9.2,9.2,0,0,1,1.326-.5,8.018,8.018,0,0,1,1.388-.352c.477,0,.953-.145,1.45-.186h1.45a11.11,11.11,0,0,1,1.45.207,6.526,6.526,0,0,1,1.43.331,9.736,9.736,0,0,1,1.367.5,12.989,12.989,0,0,1,1.326.622c.414.249.87.435,1.264.725A20.863,20.863,0,0,1,30.31,34.59c.373.311.7.642,1.057.974a13.986,13.986,0,0,1,.994,1.139l-2.59.912V35.046a15.678,15.678,0,0,1,.373-2.569,22.375,22.375,0,0,1,.663-2.486,12.826,12.826,0,0,1,.58-1.2c.228-.394.5-.767.746-1.139a6.05,6.05,0,0,1,.891-1.036,4.724,4.724,0,0,1,1.057-.87,5.035,5.035,0,0,1,1.16-.684,5.366,5.366,0,0,1,1.243-.5,8.909,8.909,0,0,1,2.548-.352,8.287,8.287,0,0,1,2.486.435" transform="translate(13.101 25.942)" fill="#f7cadb"/>
        <path id="Trazado_22555" data-name="Trazado 22555" d="M47.88,45.054a14.627,14.627,0,0,0,.974-6.63,12.12,12.12,0,0,0-.311-1.554,7.065,7.065,0,0,0-.559-1.43,13.631,13.631,0,0,0-.787-1.305l-.166-.249-.29-.331c-.186-.207-.394-.456-.58-.622a6.216,6.216,0,0,0-1.036-.725,2.756,2.756,0,0,0-1.16-.394,2.631,2.631,0,0,0-1.2,0,3.274,3.274,0,0,0-1.16.477,3.75,3.75,0,0,0-1.057.849A5.138,5.138,0,0,0,39.7,34.26a5.532,5.532,0,0,0-.58,1.285,6.547,6.547,0,0,0-.29,1.409l-.373,2.838L36.692,37.72a6.754,6.754,0,0,0-.87-.808,9.468,9.468,0,0,0-1.015-.787c-.352-.249-.746-.435-1.119-.663a5.8,5.8,0,0,0-1.2-.559,12.829,12.829,0,0,0-1.243-.477l-1.326-.352a7.79,7.79,0,0,0-1.367-.207l-1.43-.207,1.409-.29a7,7,0,0,1,1.45-.207h1.492a8.971,8.971,0,0,1,1.471.207,6.216,6.216,0,0,1,1.471.373,6.878,6.878,0,0,1,1.409.559,8.556,8.556,0,0,1,1.409.953,7.437,7.437,0,0,1,1.326.974l-2.072.829a9.7,9.7,0,0,1,.207-2.072,8.1,8.1,0,0,1,.7-1.948,4.246,4.246,0,0,1,.539-.891,4.931,4.931,0,0,1,.642-.829,7.542,7.542,0,0,1,1.637-1.388,6.05,6.05,0,0,1,2.072-.849,5.615,5.615,0,0,1,2.279,0,6.07,6.07,0,0,1,2.072.787,7.521,7.521,0,0,1,1.72,1.43c.207.249.352.477.539.7l.269.352a5.263,5.263,0,0,1,.29.518,8.287,8.287,0,0,1,.829,1.782,10.214,10.214,0,0,1,.456,1.906,10.007,10.007,0,0,1,0,1.927,13.467,13.467,0,0,1-.29,1.865,14.646,14.646,0,0,1-.6,1.761,10.712,10.712,0,0,1-1.927,3.046" transform="translate(29.157 31.037)" fill="#f7cadb"/>
        <path id="Trazado_22556" data-name="Trazado 22556" d="M83.411,31.45a14.875,14.875,0,0,0,1.057-6.588,12.143,12.143,0,0,0-.269-1.554,9.322,9.322,0,0,0-.518-1.45,9.528,9.528,0,0,0-.767-1.326A5.8,5.8,0,0,0,82,19.371a4.351,4.351,0,0,0-2.2-1.222,3.729,3.729,0,0,0-2.32.559,6.215,6.215,0,0,0-2.756,4.682l-.394,4.372-2.072-3.833c-.124-.249-.352-.6-.539-.912a9.059,9.059,0,0,0-.642-.912,11.5,11.5,0,0,0-1.512-1.657,9.53,9.53,0,0,0-3.812-2.2,8.722,8.722,0,0,0-4.5,0,16.243,16.243,0,0,0-4.413,1.927A17.486,17.486,0,0,1,58.756,18.6a14.274,14.274,0,0,1,2.2-1.243,9.572,9.572,0,0,1,5.138-.725,10.359,10.359,0,0,1,4.827,2.072,14.5,14.5,0,0,1,1.948,1.8c.29.331.58.663.849,1.015a10.854,10.854,0,0,1,.767,1.139l-2.258.5a8.287,8.287,0,0,1,3.729-7.044,5.925,5.925,0,0,1,4.33-.912,6.36,6.36,0,0,1,3.812,2.258,9.1,9.1,0,0,1,1.119,1.678,8.744,8.744,0,0,1,.767,1.8,10.047,10.047,0,0,1,.394,1.906,9.778,9.778,0,0,1,0,1.906,10.733,10.733,0,0,1-.332,1.844,15.638,15.638,0,0,1-.6,1.74,10.856,10.856,0,0,1-2.03,3.108" transform="translate(61.022 16.195)" fill="#f7cadb"/>
        <path id="Trazado_22557" data-name="Trazado 22557" d="M28.249,29.422a15.207,15.207,0,0,1-3.273-5.988,9.054,9.054,0,0,1-.311-3.688,6.941,6.941,0,0,1,.559-1.906l.269-.5.228-.352a6.215,6.215,0,0,1,.622-.829A7.562,7.562,0,0,1,29.7,14.09a8,8,0,0,1,4.019-.352,7.79,7.79,0,0,1,3.626,1.8,7.376,7.376,0,0,1,2.072,3.481l-2.072-.456a8.288,8.288,0,0,1,.622-.6,4.849,4.849,0,0,1,.642-.5,9.51,9.51,0,0,1,1.367-.87,7.831,7.831,0,0,1,3.128-.932,6.215,6.215,0,0,1,3.149.539,7.376,7.376,0,0,1,2.4,1.844,9.012,9.012,0,0,0-2.673-.953,5.8,5.8,0,0,0-2.61.145,7.417,7.417,0,0,0-2.279,1.16,7.707,7.707,0,0,0-.994.849l-.456.456-.373.456-1.347,1.823-.808-2.258a4.807,4.807,0,0,0-3.771-3.149,6.091,6.091,0,0,0-2.59.145A5.78,5.78,0,0,0,28.5,17.985a4.331,4.331,0,0,0-.414.456l-.249.331L27.69,19a5.262,5.262,0,0,0-.518,1.2,8.412,8.412,0,0,0-.207,2.921,26.27,26.27,0,0,0,1.512,6.215" transform="translate(26.454 14.598)" fill="#f7cadb"/>
        <path id="Trazado_22558" data-name="Trazado 22558" d="M56.072,11.448a19.889,19.889,0,0,0-3.315.207,13.735,13.735,0,0,0-1.43.311,9.178,9.178,0,0,0-1.409.58,6.361,6.361,0,0,0-1.222.891,7.935,7.935,0,0,0-.974,1.139,4.6,4.6,0,0,0-.435.808,3.792,3.792,0,0,0-.249.642,5.283,5.283,0,0,0-.29,1.512,6.505,6.505,0,0,0,0,1.554,10.359,10.359,0,0,0,.228,1.471A26.48,26.48,0,0,0,47.95,23.8a8.847,8.847,0,0,1-3.232-4.144,7.521,7.521,0,0,1-.5-2.072,6.816,6.816,0,0,1,.145-2.32,5.158,5.158,0,0,1,.414-1.243,5.719,5.719,0,0,1,.5-.953,7.562,7.562,0,0,1,1.657-1.844,7.417,7.417,0,0,1,2.072-1.1,7.624,7.624,0,0,1,3.874-.186,8.805,8.805,0,0,1,2.445.912,4.91,4.91,0,0,1,.808.559" transform="translate(47.443 10.465)" fill="#f7cadb"/>
        <path id="Trazado_22559" data-name="Trazado 22559" d="M25.455,42.883s-.7-1.243-1.782-2.859A15.373,15.373,0,0,0,21.6,37.6a7.355,7.355,0,0,0-1.285-.994,3.666,3.666,0,0,0-.684-.394,3.211,3.211,0,0,0-.746-.269l-.373-.145h-1.1A4.5,4.5,0,0,0,16.09,36a5.884,5.884,0,0,0-1.305.642,8.557,8.557,0,0,0-1.139.932,18.439,18.439,0,0,0-1.616,1.74l-.622.746a8.288,8.288,0,0,1,0-.994,8.7,8.7,0,0,1,.787-2.486,6.9,6.9,0,0,1,2.714-2.921,5.345,5.345,0,0,1,2.424-.684h1.222l.311.041h.373l.6.186a6.837,6.837,0,0,1,2.072,1.139,7.355,7.355,0,0,1,1.6,1.616,9.7,9.7,0,0,1,1.6,3.418,8.971,8.971,0,0,1,.269,3.543" transform="translate(12.301 35.342)" fill="#f7cadb"/>
        <path id="Trazado_22560" data-name="Trazado 22560" d="M91.405,47.486s0-1.388-.145-3.253a16.574,16.574,0,0,0-.539-2.983,7.872,7.872,0,0,0-1.347-2.776l-.228-.311h0l-.228-.249a5.906,5.906,0,0,0-.622-.559,3.605,3.605,0,0,0-1.119-.6,5.3,5.3,0,0,0-2.673-.186,14.5,14.5,0,0,0-2.2.518l-.87.269a4.62,4.62,0,0,1,.539-.767,7.127,7.127,0,0,1,1.948-1.6,6.215,6.215,0,0,1,1.678-.684,5.7,5.7,0,0,1,2.072,0,3.9,3.9,0,0,1,1.139.311,4.143,4.143,0,0,1,1.14.58,6.733,6.733,0,0,1,.932.642l.186.166.269.29.373.456A8.08,8.08,0,0,1,93.291,40.9a9.779,9.779,0,0,1-.331,3.522,8.515,8.515,0,0,1-1.512,3.066" transform="translate(87.378 36.665)" fill="#f7cadb"/>
        <path id="Trazado_22561" data-name="Trazado 22561" d="M89.332,35.53s-.518-1.305-1.326-2.983a15.083,15.083,0,0,0-1.6-2.59,9.3,9.3,0,0,0-1.057-1.139,5.427,5.427,0,0,0-1.243-.829l-.331-.166h-.249l-.456-.145h-.249a3.688,3.688,0,0,0-1.264,0,5.594,5.594,0,0,0-1.326.456,11.562,11.562,0,0,0-1.2.725,19.742,19.742,0,0,0-1.761,1.471c-.435.373-.684.622-.684.622a4.807,4.807,0,0,1,.186-.932,7.417,7.417,0,0,1,1.057-2.3,6.443,6.443,0,0,1,2.942-2.507,5.49,5.49,0,0,1,2.445-.352l.7.1.456.124h.5l.539.249A6.423,6.423,0,0,1,87.3,26.745a7.5,7.5,0,0,1,1.305,1.8A9.592,9.592,0,0,1,89.6,32.07a8.577,8.577,0,0,1-.269,3.46" transform="translate(82.18 26.618)" fill="#f7cadb"/>
        <path id="Trazado_22562" data-name="Trazado 22562" d="M74.445,39.879a16.823,16.823,0,0,0-4.91-3.17,7.064,7.064,0,0,0-1.285-.394,5.117,5.117,0,0,0-1.243-.166,5.966,5.966,0,0,0-1.222,0h-.6s-.414.124-.622.207a1.492,1.492,0,0,0-.539.228,3.4,3.4,0,0,0-.456.249,5.489,5.489,0,0,0-.87.684,5.8,5.8,0,0,0-1.285,1.906,8.784,8.784,0,0,0-.663,2.383,8.514,8.514,0,0,0,0,2.4l.953,7.148-3.854-5.594a18.878,18.878,0,0,0-1.16-1.554L55.4,42.676a29.918,29.918,0,0,0-2.8-2.818,14.959,14.959,0,0,0-3.253-2.2,7.459,7.459,0,0,0-3.9-.808,6.733,6.733,0,0,1,4.289-.456,13.052,13.052,0,0,1,4.144,1.657,21.878,21.878,0,0,1,3.543,2.59,18.089,18.089,0,0,1,1.575,1.512c.518.539.974,1.057,1.471,1.657L57.6,45.141a9.385,9.385,0,0,1-.29-3.6,10.174,10.174,0,0,1,.29-1.74A9.675,9.675,0,0,1,59.134,36.5,9.034,9.034,0,0,1,60.4,35.093a7.127,7.127,0,0,1,1.616-1.036,9.034,9.034,0,0,1,1.8-.642l.849-.145h.912a9.137,9.137,0,0,1,3.481.746,8.6,8.6,0,0,1,1.471.87,10.215,10.215,0,0,1,2.362,2.258,10.836,10.836,0,0,1,1.554,2.735" transform="translate(48.814 35.653)" fill="#f7cadb"/>
        <path id="Trazado_22563" data-name="Trazado 22563" d="M78.415,37.636a15.538,15.538,0,0,0-1.492-5.283,6.838,6.838,0,0,0-.663-1.139,7.6,7.6,0,0,0-.829-.974,4.909,4.909,0,0,0-.994-.767,5.615,5.615,0,0,0-1.077-.5l-.6-.145H70.936a4.35,4.35,0,0,0-1.119.249,4.143,4.143,0,0,0-1.015.477,6.217,6.217,0,0,0-.912.746,6.486,6.486,0,0,0-.746.912,6.631,6.631,0,0,0-.6,1.057,7.583,7.583,0,0,0-.456,1.077L64.6,38.091,63.6,33.16c-.145-.684-.352-1.43-.559-2.072s-.477-1.409-.746-2.072-.6-1.367-.932-2.072A11.809,11.809,0,0,0,60.246,25.1,8.7,8.7,0,0,0,58.9,23.568l-.746-.6-.829-.456a5.615,5.615,0,0,0-1.761-.414h-.932c-.269,0-.725,0-.849.124l-1.119.373a2.8,2.8,0,0,0-.829.435l-.373.207-.352.311a3.356,3.356,0,0,0-.684.642,6.588,6.588,0,0,0-1.057,1.616l-.352.953-.249,1.015a15.1,15.1,0,0,0-.1,4.33,15.433,15.433,0,0,0,.394,2.175,7.582,7.582,0,0,0,.663,1.8l-1.409,1.285a10.669,10.669,0,0,0-1.077-1.1,11.851,11.851,0,0,0-2.569-1.782,6.879,6.879,0,0,0-1.43-.5H41.724a3.108,3.108,0,0,0-.725.186,1.885,1.885,0,0,0-.725.311,4.434,4.434,0,0,0-.663.414l-.642.539a3.915,3.915,0,0,0-.559.6l-.539.642.414-.746a5.18,5.18,0,0,1,.435-.725l.559-.663a2.963,2.963,0,0,1,.663-.58,2.61,2.61,0,0,1,.746-.5,4.331,4.331,0,0,1,.849-.352,6.07,6.07,0,0,1,1.844-.207,8.805,8.805,0,0,1,1.782.373,9.136,9.136,0,0,1,1.657.725,16.761,16.761,0,0,1,1.512.953,14.211,14.211,0,0,1,1.388,1.16l-1.388,1.285a7.334,7.334,0,0,1-1.305-2.465,16.9,16.9,0,0,1-.622-2.445,14.979,14.979,0,0,1-.186-5.221l.228-1.305.435-1.285a10.048,10.048,0,0,1,1.388-2.4,5.656,5.656,0,0,1,.994-.994l.539-.477.642-.373a10.359,10.359,0,0,1,2.383-1.057,13.385,13.385,0,0,1,1.471-.269l.7-.1h.725a7.769,7.769,0,0,1,2.818.642l1.243.7c.394.269.725.6,1.077.891a11.437,11.437,0,0,1,1.74,2.072,18.9,18.9,0,0,1,2.279,4.537c.269.787.518,1.575.725,2.383a22.169,22.169,0,0,1,.518,2.445l-2.486-.166a8.287,8.287,0,0,1,.684-1.492,11.335,11.335,0,0,1,.912-1.305,9.7,9.7,0,0,1,1.1-1.16,8.783,8.783,0,0,1,1.347-.953,8.288,8.288,0,0,1,1.554-.6,6.216,6.216,0,0,1,1.637-.186h.849l.7.145h.331a2.341,2.341,0,0,1,.435.124l.767.269a6.838,6.838,0,0,1,1.347.808,7.024,7.024,0,0,1,1.119,1.1,9.656,9.656,0,0,1,.829,1.285,11.267,11.267,0,0,1,.58,1.367,14.275,14.275,0,0,1,.58,5.718" transform="translate(40.679 20.369)" fill="#f7cadb"/>
        <path id="Trazado_22564" data-name="Trazado 22564" d="M8.91,47.053l23.6,135.517s57.058,18.522,117.057,0L169.247,47.032A17.714,17.714,0,0,0,154.5,38.6a18.294,18.294,0,0,0-15.083,8.432c-3.936-7.749-20.014-13.943-29.772,0a29.544,29.544,0,0,0-41.312,0c-4.972-6.671-18.294-15.249-30.7,0-6.091-9.924-20.718-12.928-28.715,0" transform="translate(9.64 41.179)" fill="#e543a0"/>
        <path id="Trazado_22565" data-name="Trazado 22565" d="M24.034,45.519h-.1l-.642.746-.518.622L35.2,186.65A229.746,229.746,0,0,0,58.157,189.8L53.6,46.845l-.145.145c-4.807-6.443-17.382-14.648-29.44-1.471" transform="translate(24.495 41.242)" fill="#f95db6"/>
        <path id="Trazado_22566" data-name="Trazado 22566" d="M55.2,190.291a196.082,196.082,0,0,0,22.79-2.61L90.006,46.549a3.171,3.171,0,0,0-.228.331c-3.936-7.749-20.014-13.943-29.772,0l-.269-.249Z" transform="translate(59.254 41.351)" fill="#f95db6"/>
        <path id="Trazado_22567" data-name="Trazado 22567" d="M46.56,91.271a4.62,4.62,0,0,1-9.22,0V64.13a4.62,4.62,0,0,1,9.22,0Z" transform="translate(40.111 64.108)" fill="#2e2f30"/>
        <path id="Trazado_22568" data-name="Trazado 22568" d="M47.206,45.579c1.057,1.45-1.077,4.765-4.744,7.376s-7.5,3.584-8.536,2.072,1.1-4.765,4.765-7.4,7.5-3.564,8.515-2.072" transform="translate(36.171 48.061)" fill="#2e2f30"/>
        <path id="Trazado_22569" data-name="Trazado 22569" d="M59.438,51.525c-1.285,1.243.207,4.869,3.356,8.122s6.713,4.889,8,3.646-.207-4.869-3.356-8.121-6.713-4.889-8-3.646" transform="translate(63.303 54.773)" fill="#2e2f30"/>
        <path id="Trazado_22570" data-name="Trazado 22570" d="M72.111,73.506c-6.215-4.972-14.689-4.786-19.6,0-1.968,1.927-2.88-.352-1.865-2.3a11.5,11.5,0,0,1,10.359-6.215,13.488,13.488,0,0,1,12.307,5.677c1.678,2.486,1.512,4.993-1.139,2.9" transform="translate(53.925 69.587)" fill="#2e2f30"/>
        <path id="Trazado_22571" data-name="Trazado 22571" d="M27.88,83.311a129.7,129.7,0,0,0,12.472,22.521c9.033,12.887,22.148,25.732,34.454,23.992,21.63-3.066,29.005-51.567,29.005-60.393,0,0-2.217,25.587-35.967,29.793-30.352,3.75-39.9-15.849-39.9-15.849" transform="translate(29.972 74.409)" fill="#2e2f30"/>
        <path id="Trazado_22572" data-name="Trazado 22572" d="M43.415,104.7a21.236,21.236,0,0,0,14.876,4.144c5.925-.829,11.043-5.3,14.689-11.25A15.124,15.124,0,0,0,56.861,89.31c-8.287,1.1-14.337,7.956-13.446,15.373" transform="translate(46.529 95.489)" fill="#e84c76"/>
        <path id="Trazado_22573" data-name="Trazado 22573" d="M54.707,121.32s-17.279,1.844-15.7,8.142,12.037,3.108,16.574-1.119,7.769-8.6-.87-7.023" transform="translate(41.784 129.673)" fill="#e543a0"/>
        <path id="Trazado_22574" data-name="Trazado 22574" d="M60.354,124.157A18.294,18.294,0,0,0,70.278,135.1c7.79,3.336,9.613-2.072,5.283-6.36s-19.786-12.99-15.207-4.579" transform="translate(63.879 129.281)" fill="#e543a0"/>
        <path id="Trazado_22575" data-name="Trazado 22575" d="M11.077,17.9a6.091,6.091,0,0,1,.414-8.93c4.682-4.662,12.762-5.511,11.478,1.7,3.833-2.963,8.08,7.666,4.268,8.93-.435,6.381-6.381,8.93-11.5,6.816-8.515,7.21-12.659-6.816-4.662-8.515" transform="translate(7.369 5.737)" fill="#efa8c9"/>
        <path id="Trazado_22576" data-name="Trazado 22576" d="M64.356,5.425A4.724,4.724,0,0,1,68.79.1c5.076-.7,10.359,2.528,6.215,6.4,3.771,0,1.43,8.515-1.533,7.521a6.215,6.215,0,0,1-10.359-1.16c-8.639.5-4.724-10.173,1.077-7.438" transform="translate(62.342 -0.003)" fill="#efa8c9"/>
        <path id="Trazado_22577" data-name="Trazado 22577" d="M30.793,113.991a116.629,116.629,0,0,1-12.8-3.771c-9.344-3.4-14.648-5.718-16.243-9.717a7.458,7.458,0,0,1,.311-6.215C8.065,81.858,32.305,75.642,35.061,75l.539,4.517c-6.609,1.7-25.5,8.867-29.358,16.823a1.305,1.305,0,0,0,0,1.2c1.823,4.62,16.968,9.758,26.519,11.871ZM35.6,80.842l-.269-2.88Z" transform="translate(1.389 80.379)" fill="#e543a0"/>
        <path id="Trazado_22578" data-name="Trazado 22578" d="M22.919,93.6s-6.36,4.454-11.664,4c-4.786-.414-4.682,4.537.352,5.159a11.664,11.664,0,0,0,8.7-2.942,15.7,15.7,0,0,1-9.965,5.8c-2.942.539-2.445,4.413.559,4.889,2.383.352,7.044-.559,11.312-7.023,0,0-.186,3.273-6.05,8.287-2.072,1.782,2.631,6.381,7.293-.642s7.168-18.5,2.2-19.558Z" transform="translate(8.393 98.139)" fill="#e543a0"/>
        <path id="Trazado_22579" data-name="Trazado 22579" d="M81.579,109.591c9.53-2.072,24.675-7.272,26.519-11.892a1.388,1.388,0,0,0,0-1.2c-3.874-7.935-22.79-15.1-29.378-16.74l.58-4.537c2.756.684,26.934,6.961,32.983,19.289a4.848,4.848,0,0,1,.311,4.889c-1.575,4-6.9,7.583-16.243,10.981a111.882,111.882,0,0,1-12.8,3.75ZM78.72,80.98h0l.29-2.88Z" transform="translate(84.463 80.615)" fill="#e543a0"/>
        <path id="Trazado_22580" data-name="Trazado 22580" d="M84.278,93.811s6.319,4.454,11.664,3.978c4.807-.414,4.682,4.537-.352,5.159a11.582,11.582,0,0,1-8.7-2.942,15.622,15.622,0,0,0,9.986,5.8c2.942.539,2.445,4.413-.58,4.889-2.362.352-7.044-.559-11.312-7.023,0,0,.186,3.273,6.05,8.287,2.072,1.782-2.631,6.381-7.293-.642s-7.148-18.5-2.2-19.558Z" transform="translate(84.582 98.343)" fill="#e543a0"/>
      </g>
    </g>
    <g id="Persojanes-47" transform="translate(501.669 573.471)" style="isolation: isolate">
      <g id="Capa_1-7" data-name="Capa 1" transform="translate(0 0)">
        <path id="Trazado_23320" data-name="Trazado 23320" d="M132.244,131.5c0,2.557-20.059,9.728-55.354,9.042-30.452-.6-55.063-5.612-54.959-11.2s24.944-9.624,55.354-9.021S132.244,125.954,132.244,131.5Z" transform="translate(23.67 129.712)" opacity="0.15" style="mix-blend-mode: multiply;isolation: isolate"/>
        <path id="Trazado_23321" data-name="Trazado 23321" d="M91.607,74.8c0,11.287-7.961,20.433-17.793,20.433S56,86.091,56,74.8,63.961,54.35,73.772,54.35,91.607,63.5,91.607,74.8Z" transform="translate(60.42 58.618)" fill="#bba331"/>
        <path id="Trazado_23322" data-name="Trazado 23322" d="M81.491,45.5s8.169-22.2-1.226-33.549S52.411-3.475,43.327,3.281s-5.758,19.768-5.758,19.768-12.118-6.236-15.756,3.243,4.843,20.558,4.843,20.558-14.176-5.4-23.011,6.506.291,26.773,6.963,31.387S4.852,94.471,8.177,101.85s18.479,8.917,18.479,8.917S24.224,98.3,31.209,94.8,22.125,69.86,41.81,63.956,47.568,42.8,81.491,45.5Z" transform="translate(0.008 -0.003)" fill="#fae26f"/>
        <path id="Trazado_23323" data-name="Trazado 23323" d="M86.31,130.1c-1.559-1.309-7.774,2.91-11.911,7.836a31.408,31.408,0,0,0-3.846,5.841,113.265,113.265,0,0,1-14.259-13.615c-5.4-5.9-12.368-13.7-13.386-22.013-.395-3.284-5.592-3.326-5.176,0,1.143,9.271,7.483,17.17,13.407,24.008a108.461,108.461,0,0,0,18.583,17.419c1.268.915,7.878-3.866,10.393-6.818C84.169,137.725,87.869,131.3,86.31,130.1Z" transform="translate(40.69 113.971)" fill="#9e8d33"/>
        <path id="Trazado_23324" data-name="Trazado 23324" d="M46.26,138.028c6.714-1.746,14.135-4.989,14.426-12.638.229-6.236-4.885-11.724-7.795-16.754a2.6,2.6,0,0,0-4.469,2.619c2.37,4.157,5.633,7.9,6.88,12.472,1.892,7.109-9.541,9.146-14.156,10.123-2.079.457,1.5,11.557,5.529,14.55s12.306,1.039,12.472-1-4.157-2.286-7.67-4.157C49.108,142.1,47.258,138.984,46.26,138.028Z" transform="translate(43.74 115.975)" fill="#9e8d33"/>
        <path id="Trazado_23325" data-name="Trazado 23325" d="M113.886,72.645c-1.476-6.236-7.712-12.721-11.308-10.393-3.1,1.912,2.079,6.236,4.656,12.472a17.377,17.377,0,0,1,1.5,10.123s-1.351-6.943-6.007-4.157a6.464,6.464,0,0,0-2.557,4.157c-3.617-2.058-4.76,2.349-4.615,4.427s1.746,5.55,4.615,4.282a16.38,16.38,0,0,0,3.929,4.885,20.786,20.786,0,0,1-15.049,15.777c-5.4,1.6-12.68,1.933-17.835-.769-2.952-1.559-5.571,2.91-2.619,4.469,6.963,3.658,16.109,3.2,23.364.811A25.526,25.526,0,0,0,109.209,98.69a7.571,7.571,0,0,0,.624-.852C117.066,85.116,115.424,79.068,113.886,72.645Z" transform="translate(72.605 66.618)" fill="#9e8d33"/>
        <path id="Trazado_23326" data-name="Trazado 23326" d="M143.553,197.58s-13.74-38.205-10.1-121.891c0,0-1.767-61.3-64.022-60.7-53.816.54-60.759,41.947-58.95,82.335s14.55,115.926,14.55,115.926S85.642,218.907,143.553,197.58Z" transform="translate(11.051 16.16)" fill="#e8cc30"/>
        <path id="Trazado_23327" data-name="Trazado 23327" d="M23.077,50.8l96.407,1.954,1.455,48.786-98.32,4.074Z" transform="translate(24.415 54.788)" fill="#2e2f30"/>
        <path id="Trazado_23328" data-name="Trazado 23328" d="M41.15,81.953A3.554,3.554,0,0,0,44.7,85.507h0a3.575,3.575,0,0,0,3.554-3.554v-13.7A3.554,3.554,0,0,0,44.7,64.7h0a3.534,3.534,0,0,0-3.554,3.554Z" transform="translate(44.402 69.781)" fill="#edd963"/>
        <path id="Trazado_23329" data-name="Trazado 23329" d="M48.373,81.785a3.575,3.575,0,0,0,3.471,3.554h0A3.554,3.554,0,0,0,55.4,81.785V68.024a3.554,3.554,0,0,0-3.554-3.554h0a3.575,3.575,0,0,0-3.554,3.554Z" transform="translate(52.103 69.533)" fill="#edd963"/>
        <path id="Trazado_23330" data-name="Trazado 23330" d="M144.365,86.735s-73.792,1.7-128.855,6.548c0,0,3.7-29.558,9.874-45.834,0,0,75.184-13.677,114.907-6.672C140.291,40.734,146.132,56.989,144.365,86.735Z" transform="translate(16.746 41.823)" fill="#9e8d33"/>
        <path id="Trazado_23331" data-name="Trazado 23331" d="M74.376,45.44,64.69,46.646l.52,25.463,9.4-.249Z" transform="translate(69.793 49.007)" fill="#85772e"/>
        <path id="Trazado_23332" data-name="Trazado 23332" d="M63.986,46.23l.831,25.089-9.125.5L54.32,46.812Z" transform="translate(58.608 49.859)" fill="#85772e"/>
        <path id="Trazado_23333" data-name="Trazado 23333" d="M54.317,46.75l.021,24.362-8.855.644L43.82,47.769Z" transform="translate(47.282 50.42)" fill="#85772e"/>
        <path id="Trazado_23334" data-name="Trazado 23334" d="M42.1,47.84l1.1,22.99-8.834,1.019L33.12,48.193Z" transform="translate(35.74 51.596)" fill="#85772e"/>
        <path id="Trazado_23335" data-name="Trazado 23335" d="M42.607,74.8c0,11.287-7.961,20.433-17.793,20.433S7,86.091,7,74.8,14.961,54.35,24.772,54.35,42.607,63.5,42.607,74.8Z" transform="translate(7.566 58.618)" fill="#88782e"/>
        <path id="Trazado_23336" data-name="Trazado 23336" d="M62.344,81.807c-6.236,2.079-5.259,15.174-5.259,15.174A12.742,12.742,0,0,0,48.77,86.359c-7.753-2.577-13.428,9.292-6.922,7.13s8.065,5.571,15.091,9.084a19.85,19.85,0,0,0,4.8,2.245c-1.538,8.065-5.467,16.047-15.112,12.742-10.684-3.7-18.292-15.548-22.761-25.11-1.434-3.035-5.883-.395-4.49,2.6,5.384,11.516,14.8,24.736,27.812,28.124,12.1,3.16,17.544-7.566,19.5-17.627,6.943-.333,12.035-5.966,13.7-11.827C82.8,85.3,68.538,79.728,62.344,81.807Z" transform="translate(20.631 87.762)" fill="#9e8d33"/>
      </g>
    </g>
  </g>
</svg>
