<svg xmlns="http://www.w3.org/2000/svg" width="112.163" height="238.178" viewBox="0 0 112.163 238.178">
  <g id="Persojanes-31" transform="translate(0 0)" style="isolation: isolate">
    <g id="Capa_1" data-name="Capa 1" transform="translate(0 0)">
      <path id="Trazado_22873" data-name="Trazado 22873" d="M30.411,57.778a1.525,1.525,0,0,0,1.949-.918,1.483,1.483,0,0,0-.748-2.005,1.539,1.539,0,0,0-1.949.918,1.483,1.483,0,0,0,.748,2.005Z" transform="translate(12.166 22.575)" fill="#5a99d1"/>
      <path id="Trazado_22874" data-name="Trazado 22874" d="M45.5,100.108c.325-1.144,1.85-1.652,2.824-2.288,1.949,1.412,0,4.434-2.217,3.333a3.177,3.177,0,0,1-.1-1.144" transform="translate(18.754 40.319)" fill="#5a99d1"/>
      <path id="Trazado_22875" data-name="Trazado 22875" d="M28.22,165.921c0,3.629,15.534,6.581,34.655,6.581s34.669-2.951,34.669-6.581S82.01,159.34,62.875,159.34,28.22,162.249,28.22,165.921Z" transform="translate(11.632 65.676)" opacity="0.15" style="mix-blend-mode: multiply;isolation: isolate"/>
      <path id="Trazado_22876" data-name="Trazado 22876" d="M58.761,82.626s-41.25,20.731-52.745-20.6c0,0,4.237,4.237,7.357,5.395,0,0-6.2-8.177-5.154-24.275C9.165,28.526,18.358,13.289,0,0,0,0,23.1.593,35.813,6.341s23.64,13.515,32.353,29.246S72.4,65.243,72.4,65.243,63.294,66.937,58.761,82.626Z" fill="#b52025"/>
      <path id="Trazado_22877" data-name="Trazado 22877" d="M34.67,9.7A63.322,63.322,0,0,1,53.876,31.589C62.6,47.32,58.112,61.244,58.112,61.244s-7.513,2.98-11.3,7.16C56.319,46.967,46.716,21.237,34.67,9.7Z" transform="translate(14.29 3.998)" fill="#921a1d"/>
      <path id="Trazado_22878" data-name="Trazado 22878" d="M58.842,173.644c2.132-14.955,4.929-36.717,4.957-36.957l-3.417-.438c0,.212-2.824,21.973-4.971,36.914Z" transform="translate(22.839 56.159)" fill="#b52025"/>
      <path id="Trazado_22879" data-name="Trazado 22879" d="M55.422,162.572s10.45-2.5,14.122,1.991C72.368,167.953,55,165.354,55.422,162.572Z" transform="translate(22.841 66.723)" fill="#b52025"/>
      <path id="Trazado_22880" data-name="Trazado 22880" d="M51.7,173.3c2.7-14.672,5.776-34.556,5.8-34.754L54.1,138c0,.2-3.107,20.039-5.8,34.669Z" transform="translate(19.908 56.88)" fill="#b52025"/>
      <path id="Trazado_22881" data-name="Trazado 22881" d="M55.4,162.618s-9.222-2.415-15.167,2.951c-3.827,3.488,11.41.353,15.04-2.259a5.153,5.153,0,0,1,.127-.692Z" transform="translate(16.329 66.804)" fill="#b52025"/>
      <path id="Trazado_22882" data-name="Trazado 22882" d="M72.307,100.281c0-.381,5.2-38.016,5.649-65.271H73.719C73.3,62,68.169,99.391,68.07,99.758Z" transform="translate(28.057 14.43)" fill="#b52025"/>
      <path id="Trazado_22883" data-name="Trazado 22883" d="M76.58,41.61A4.237,4.237,0,0,0,78.854,39.9c1.666-1.991,6.129-7.71,3.4-10.252-2.3-2.161-4.858,8.3-4.858,8.3s3.46-14.249-.212-14.362-2.471,14.588-2.471,14.588S73.855,26.4,70.07,27.163s2.245,11.057,3.347,12.328C74.716,41.016,75.634,41.751,76.58,41.61Z" transform="translate(28.373 9.723)" fill="#b52025"/>
      <path id="Trazado_22884" data-name="Trazado 22884" d="M50.166,89.974,45.8,89c-.085.381-8.3,38.5-17.412,64.847l4.237,1.412C41.806,128.725,50.081,90.412,50.166,89.974Z" transform="translate(11.702 36.684)" fill="#b52025"/>
      <path id="Trazado_22885" data-name="Trazado 22885" d="M35.951,148.214c-3.008,1.271-1.793-9.786-1.793-9.786s-1.666,15.054-5.338,13.938,2.824-15.11,2.824-15.11-5,11.128-8.4,9.066,7.428-11.82,9.673-12.3C36.742,133.174,40.117,146.434,35.951,148.214Z" transform="translate(9.309 55.224)" fill="#b52025"/>
      <path id="Trazado_22886" data-name="Trazado 22886" d="M41.753,53.528c-8.332,4.152-12.5,10.648-14.729,18.937-3.446,12.71-1.13,30.291,6.567,46.757,16.551,35.432,16.268,47.6,19.771,63.732,1.186,5.536,5.649,13.331,15.633,13.331,8.685,0,18.132-11.82,20.717-18.457,3.46-8.939,17.6-43.551,9.476-84.731C93.269,63.046,77.848,54.206,67.412,49.179,59.194,45.239,46.668,51.057,41.753,53.528Z" transform="translate(10.498 19.721)" fill="#f32732"/>
      <path id="Trazado_22887" data-name="Trazado 22887" d="M72.6,53.253S44.55,49.835,26.686,73.743c0,0-4.787-17.469,17.525-26.916C59.406,40.4,72.3,50.951,72.6,53.253Z" transform="translate(10.822 18.458)" fill="#ff7d83"/>
      <path id="Trazado_22888" data-name="Trazado 22888" d="M55.1,75.825a2.6,2.6,0,0,0,3.22,1.709h0A2.6,2.6,0,0,0,59.55,74.1L51.7,54.219a2.6,2.6,0,0,0-3.262-1.652h0a2.584,2.584,0,0,0-1.229,3.488Z" transform="translate(19.348 21.615)" fill="#2e2f30"/>
      <path id="Trazado_22889" data-name="Trazado 22889" d="M47.361,78.9a2.725,2.725,0,0,0,3.545,1.525h0a2.726,2.726,0,0,0,1.525-3.545L44.537,56.972a2.726,2.726,0,0,0-3.545-1.525h0a2.725,2.725,0,0,0-1.525,3.545Z" transform="translate(16.187 22.774)" fill="#2e2f30"/>
      <path id="Trazado_22890" data-name="Trazado 22890" d="M33.7,54.181c1.1.523,2.824-.833,3.926-3.036s1.017-4.434-.085-4.971-2.824.833-3.926,3.05S32.6,53.644,33.7,54.181Z" transform="translate(13.534 18.984)" fill="#2e2f30"/>
      <path id="Trazado_22891" data-name="Trazado 22891" d="M44.332,44.4c-.438,1.144,1.059,2.824,3.347,3.658s4.5.678,4.943-.466-1.059-2.824-3.347-3.672S44.784,43.26,44.332,44.4Z" transform="translate(18.241 17.887)" fill="#2e2f30"/>
      <path id="Trazado_22892" data-name="Trazado 22892" d="M69.146,63.62a19.771,19.771,0,0,1-1.116,11.4,14.574,14.574,0,0,1-8.628,7.8C50.788,86.088,42.315,81.1,37.81,73.689,41.171,81.95,50.7,88.008,59.558,84.52c4.011-1.582,7.555-4.067,9.292-8.177A17.878,17.878,0,0,0,69.146,63.62Z" transform="translate(15.585 26.223)" fill="#2e2f30"/>
    </g>
  </g>
</svg>
