<svg xmlns="http://www.w3.org/2000/svg" width="112.521" height="188.849" viewBox="0 0 112.521 188.849">
  <g id="Persojanes-04" style="isolation: isolate">
    <g id="Capa_1" data-name="Capa 1" transform="translate(0 0)">
      <path id="Trazado_22114" data-name="Trazado 22114" d="M83.744,175.33c0,4.034-15.287,7.26-34.152,7.26s-34.142-3.267-34.142-7.26,15.287-7.26,34.142-7.26S83.744,171.3,83.744,175.33Z" transform="translate(0.577 6.259)" opacity="0.15" style="mix-blend-mode: multiply;isolation: isolate"/>
      <path id="Trazado_22115" data-name="Trazado 22115" d="M33.914,75.992c-.529,0-23.978,7.7-31.414-1.7C-1.462,69.282-1.919,60.27,10.154,41l3.931,1.493C4.626,57.77,2.966,67.187,6.824,71.439c6.223,6.824,27.38.2,28,.176l-.871,4.4Z" transform="translate(0.003 1.542)" fill="#2af47a"/>
      <path id="Trazado_22116" data-name="Trazado 22116" d="M49.494,175.494l-3.547-.726c-1.193-24.32,3.464-40.842,3.464-41.008h3.184C52.595,134.009,48.4,150.6,49.494,175.494Z" transform="translate(1.702 4.985)" fill="#2af47a"/>
      <path id="Trazado_22117" data-name="Trazado 22117" d="M47.965,172.576s-12.632-2.074-13.991,2.717c-.747,2.645,1.888,4.8,5.258,4.148a24.663,24.663,0,0,0,10.7-5.372Z" transform="translate(1.26 6.41)" fill="#2af47a"/>
      <path id="Trazado_22118" data-name="Trazado 22118" d="M52.125,160.646c-15.557,0-25.119-4.688-26.54-9.178-3.008-9.458,10.828-20.525,10.879-20.618l2.842,1.431c0,.093-11.408,10.122-10.184,17,.819,4.636,11.222,7.851,23.916,7.913Z" transform="translate(0.937 4.877)" fill="#2af47a"/>
      <path id="Trazado_22119" data-name="Trazado 22119" d="M50.46,158.521s.228,14.623,6.088,14.177c4.646-.342,0-13.576-4.449-16.449Z" transform="translate(1.876 5.82)" fill="#2af47a"/>
      <path id="Trazado_22120" data-name="Trazado 22120" d="M80.981,68.11l.591.467c.384.322,23.626,20.639,27.525,32.368.539,1.618.964,2.385-.363,3.194-.664.653-6.43,1.037-11.709,2.9a29.579,29.579,0,0,0-8.867,5.186l-4.314-3.941s7.395-4.335,13.182-5.424c1.649-.342,6.482-1.224,7.747-1.348.591,0-2.3-7.6-7.9-13.929a132.853,132.853,0,0,0-15.9-14.52c-.674-.581-1.877-.695-2.24-1.037l-.56-.467Z" transform="translate(2.905 2.549)" fill="#2af47a"/>
      <path id="Trazado_22121" data-name="Trazado 22121" d="M29.569,18.014c1.639,9.272,5.186,26.841,1.815,48.745-3.267,21.095-12.725,47.272-11.771,56.316,1.525,14.52,9.78,26.965,25.223,28,14.914,1.172,25.461-10.516,30.554-25.793,7.2-21.624,18.181-72,9.085-115.639C82.69,1.078,27.671,7.259,29.569,18.014Z" transform="translate(0.729 0.229)" fill="#20c868"/>
      <path id="Trazado_22122" data-name="Trazado 22122" d="M32.581,92.6a104.8,104.8,0,0,0-5.818,20.369c-2.178,12.725,5.912,26.063,17.092,27.266s20.369-7.26,24.362-20c2.966-9.438,5.818-21.78,5.818-21.78S68.953,93,53.292,96.645A25.928,25.928,0,0,1,32.581,92.6Z" transform="translate(0.984 3.458)" fill="#088443"/>
      <path id="Trazado_22123" data-name="Trazado 22123" d="M17.721,15.319c.353,4.4,3.8,7.872,9.977,8.359,32.358,2.541,40.6-9.1,58.545-6.223,6.855,1.11,10.724-1.11,11.025-6.907.218-4.045-2.759-7.975-8.743-9.49C71.309-3.266,49.519,6.825,25.7,6.68,21.62,6.68,17.4,10.932,17.721,15.319Z" transform="translate(0.66 0.02)" fill="#2af47a"/>
      <path id="Trazado_22124" data-name="Trazado 22124" d="M54.4,42.119a2.24,2.24,0,0,1-2.136,2.333h0a2.24,2.24,0,0,1-2.489-1.971L48.74,29.964a2.24,2.24,0,0,1,2.136-2.334h0A2.24,2.24,0,0,1,53.366,29.6Z" transform="translate(1.812 1.045)" fill="#2e2f30"/>
      <path id="Trazado_22125" data-name="Trazado 22125" d="M67.856,40.795a2.479,2.479,0,0,1-2.24,2.707h0a2.5,2.5,0,0,1-2.645-2.323L61.82,26.6a2.479,2.479,0,0,1,2.261-2.7h0a2.479,2.479,0,0,1,2.634,2.313Z" transform="translate(2.298 0.907)" fill="#2e2f30"/>
      <path id="Trazado_22126" data-name="Trazado 22126" d="M50.649,30c-2.344.726-4.366.083-4.667-.892s.519-1.514,1.825-1.763a16.231,16.231,0,0,0,4.283-1.5c.788-.332,1.773-.394,2.168.519C54.881,27.767,52.993,29.26,50.649,30Z" transform="translate(1.708 0.971)" fill="#2e2f30"/>
      <path id="Trazado_22127" data-name="Trazado 22127" d="M64.869,15.882c-1.846-1.234-2.883-2.914-2.365-3.775s2.531-.539,4.4.685,2.925,2.914,2.365,3.765S66.736,17.106,64.869,15.882Z" transform="translate(2.318 0.452)" fill="#2e2f30"/>
      <path id="Trazado_22128" data-name="Trazado 22128" d="M34.017,73c-1.452,10.662-9.7,35.148-10.133,42.657a21.614,21.614,0,0,0,1.162,9.666,17.952,17.952,0,0,0,3.879,6.793s-1.556-8.183,3.111-22.817c4.843-15.038,8.722-29.34,8.722-29.34A34.567,34.567,0,0,1,34.017,73Z" transform="translate(0.885 2.73)" fill="#8bffb8"/>
      <path id="Trazado_22129" data-name="Trazado 22129" d="M61.133,101.528A2.251,2.251,0,1,0,63.913,100a2.25,2.25,0,0,0-2.779,1.525Z" transform="translate(2.269 3.729)" fill="#20c868"/>
      <path id="Trazado_22130" data-name="Trazado 22130" d="M53.006,108.285a4.086,4.086,0,1,0,5.051-2.8A4.148,4.148,0,0,0,53.006,108.285Z" transform="translate(1.965 3.93)" fill="#20c868"/>
      <path id="Trazado_22131" data-name="Trazado 22131" d="M20.2,10.965c1.608-2.479,4.46-4.231,10.112-3.2,2.665.487-8.525,1.037-5.32,10.817C25.965,21.6,15.884,17.53,20.2,10.965Z" transform="translate(0.713 0.297)" fill="#8bffb8"/>
      <path id="Trazado_22132" data-name="Trazado 22132" d="M45.21,45.351c4.148,3.028,9.448,4.148,15.64,3.028,8.37-1.566,14.063-9.936,15.028-21.779.726,0,.124,7.146-2.427,12.964-1.462,3.36-5.072,8.3-10.9,9.946C56.12,51.294,47.4,48.867,45.21,45.351Z" transform="translate(1.681 1.008)" fill="#2e2f30"/>
      <path id="Trazado_22133" data-name="Trazado 22133" d="M72.21,30.487s3.277-5.58,4.854-3.028c0,0-.373-2.676-2.427-1.7S72.21,30.487,72.21,30.487Z" transform="translate(2.684 0.969)" fill="#2e2f30"/>
      <path id="Trazado_22134" data-name="Trazado 22134" d="M23.17,19.466c-3.92-.944-7.633,2.157-10.153,4.729A27.193,27.193,0,0,0,6.525,34.276c-.954,2.894,3.671,3.267,4.522.653a14.727,14.727,0,0,1,1.691-3.412C14.251,30.19,15.62,28.7,17.269,27.5A52.893,52.893,0,0,1,23.8,23.438a2.136,2.136,0,0,0-.633-3.972Z" transform="translate(0.241 0.737)" fill="#2af47a"/>
      <path id="Trazado_22135" data-name="Trazado 22135" d="M10.076,46.213a12,12,0,0,1-2.427-15.1s6.3-.965,8.722,4.553S12.98,48.484,10.076,46.213Z" transform="translate(0.226 1.173)" fill="#2af47a"/>
      <path id="Trazado_22136" data-name="Trazado 22136" d="M84.349,106.637a17.05,17.05,0,0,0-7.322,9.832c-2.209,7.581.913,9.635,2.5,9.334,1.172-.2,1.359-1.815,1.3-4.947,0-2.686.436-5.87,1.431-7.374a21.78,21.78,0,0,0-.249,9.116c1.13,5.673,4.418,6.4,5.725,5.455,2.728-1.95-3.4-7.364-1.95-14.177,0,0,.166,8.3,4.906,9.407,2.769.643,3.454-2.074,1.908-3.63a13.732,13.732,0,0,1-3.92-7.872,6.606,6.606,0,0,1,.882-3.9C91.547,105.351,87.077,105.548,84.349,106.637Z" transform="translate(2.834 3.95)" fill="#2af47a"/>
    </g>
  </g>
</svg>
