<svg xmlns="http://www.w3.org/2000/svg" width="105.46" height="151.776" viewBox="0 0 105.46 151.776">
  <g id="Persojanes-47" style="isolation: isolate">
    <g id="Capa_1" data-name="Capa 1" transform="translate(0 0)">
      <path id="Trazado_23320" data-name="Trazado 23320" d="M83.871,126.574c0,1.436-11.263,5.462-31.081,5.077-17.1-.338-30.918-3.151-30.86-6.291s14.006-5.4,31.081-5.065S83.871,123.458,83.871,126.574Z" transform="translate(3.675 20.099)" opacity="0.15" style="mix-blend-mode: multiply;isolation: isolate"/>
      <path id="Trazado_23321" data-name="Trazado 23321" d="M75.993,65.835c0,6.338-4.47,11.473-9.991,11.473S56,72.173,56,65.835,60.47,54.35,65.979,54.35,75.993,59.485,75.993,65.835Z" transform="translate(9.37 9.081)" fill="#bba331"/>
      <path id="Trazado_23322" data-name="Trazado 23322" d="M45.754,25.549s4.587-12.465-.689-18.838-15.64-8.66-20.74-4.867-3.233,11.1-3.233,11.1-6.8-3.5-8.847,1.821,2.719,11.543,2.719,11.543S7,23.273,2.044,29.96s.163,15.033,3.91,17.624S2.721,53.047,4.588,57.19,14.964,62.2,14.964,62.2s-1.366-7,2.556-8.964-5.1-14.006,5.953-17.321S26.706,24.031,45.754,25.549Z" transform="translate(0.008 -0.003)" fill="#fae26f"/>
      <path id="Trazado_23323" data-name="Trazado 23323" d="M65,119.385c-.875-.735-4.365,1.634-6.688,4.4a17.634,17.634,0,0,0-2.159,3.28,63.6,63.6,0,0,1-8.007-7.645c-3.035-3.315-6.945-7.692-7.516-12.36-.222-1.844-3.14-1.867-2.906,0,.642,5.206,4.2,9.641,7.528,13.481a60.9,60.9,0,0,0,10.434,9.781c.712.514,4.424-2.171,5.836-3.828C63.8,123.668,65.874,120.062,65,119.385Z" transform="translate(6.312 17.659)" fill="#9e8d33"/>
      <path id="Trazado_23324" data-name="Trazado 23324" d="M43.75,124.653c3.77-.98,7.937-2.8,8.1-7.1.128-3.5-2.743-6.583-4.377-9.407a1.459,1.459,0,0,0-2.509,1.471c1.331,2.334,3.163,4.435,3.863,7,1.062,3.992-5.357,5.135-7.948,5.684-1.167.257.84,6.489,3.1,8.17s6.91.584,7-.56-2.334-1.284-4.307-2.334C45.349,126.941,44.311,125.19,43.75,124.653Z" transform="translate(6.785 17.97)" fill="#9e8d33"/>
      <path id="Trazado_23325" data-name="Trazado 23325" d="M93.457,67.875c-.829-3.5-4.33-7.143-6.349-5.836-1.739,1.074,1.167,3.5,2.614,7a9.758,9.758,0,0,1,.84,5.684s-.759-3.9-3.373-2.334a3.63,3.63,0,0,0-1.436,2.334c-2.031-1.155-2.673,1.319-2.591,2.486s.98,3.116,2.591,2.4a9.2,9.2,0,0,0,2.206,2.743,11.672,11.672,0,0,1-8.45,8.859c-3.035.9-7.12,1.085-10.014-.432-1.657-.875-3.128,1.634-1.471,2.509,3.91,2.054,9.045,1.8,13.119.455A14.333,14.333,0,0,0,90.83,82.5a4.248,4.248,0,0,0,.35-.479C95.242,74.878,94.32,71.481,93.457,67.875Z" transform="translate(11.258 10.321)" fill="#9e8d33"/>
      <path id="Trazado_23326" data-name="Trazado 23326" d="M85.091,117.514s-7.715-21.452-5.672-68.442c0,0-.992-34.419-35.948-34.081-30.218.3-34.116,23.553-33.1,46.231s8.17,65.092,8.17,65.092S52.574,129.489,85.091,117.514Z" transform="translate(1.719 2.502)" fill="#e8cc30"/>
      <path id="Trazado_23327" data-name="Trazado 23327" d="M22.877,50.8,77.01,51.9l.817,27.393L22.62,81.578Z" transform="translate(3.79 8.488)" fill="#2e2f30"/>
      <path id="Trazado_23328" data-name="Trazado 23328" d="M41.15,74.387a2,2,0,0,0,2,2h0a2.008,2.008,0,0,0,2-2V66.7a2,2,0,0,0-2-2h0a1.984,1.984,0,0,0-2,2Z" transform="translate(6.887 10.811)" fill="#edd963"/>
      <path id="Trazado_23329" data-name="Trazado 23329" d="M48.337,74.192a2.007,2.007,0,0,0,1.949,2h0a2,2,0,0,0,2-2V66.466a2,2,0,0,0-2-2h0a2.008,2.008,0,0,0-2,2Z" transform="translate(8.081 10.773)" fill="#edd963"/>
      <path id="Trazado_23330" data-name="Trazado 23330" d="M87.862,65.706s-41.434.957-72.352,3.677c0,0,2.078-16.6,5.544-25.736,0,0,42.216-7.68,64.52-3.747C85.574,39.877,88.854,49,87.862,65.706Z" transform="translate(2.602 6.479)" fill="#9e8d33"/>
      <path id="Trazado_23331" data-name="Trazado 23331" d="M70.129,45.44l-5.439.677.292,14.3,5.276-.14Z" transform="translate(10.822 7.592)" fill="#85772e"/>
      <path id="Trazado_23332" data-name="Trazado 23332" d="M59.747,46.23l.467,14.088-5.124.28-.77-14.041Z" transform="translate(9.089 7.724)" fill="#85772e"/>
      <path id="Trazado_23333" data-name="Trazado 23333" d="M49.714,46.75l.012,13.679-4.972.362L43.82,47.322Z" transform="translate(7.334 7.811)" fill="#85772e"/>
      <path id="Trazado_23334" data-name="Trazado 23334" d="M38.162,47.84l.619,12.909-4.96.572-.7-13.282Z" transform="translate(5.545 7.993)" fill="#85772e"/>
      <path id="Trazado_23335" data-name="Trazado 23335" d="M26.993,65.835c0,6.338-4.47,11.473-9.991,11.473S7,72.173,7,65.835,11.47,54.35,16.979,54.35,26.993,59.485,26.993,65.835Z" transform="translate(1.179 9.081)" fill="#88782e"/>
      <path id="Trazado_23336" data-name="Trazado 23336" d="M43.387,81.615c-3.5,1.167-2.953,8.52-2.953,8.52a7.155,7.155,0,0,0-4.669-5.964c-4.354-1.447-7.54,5.217-3.887,4s4.529,3.128,8.474,5.1a11.146,11.146,0,0,0,2.7,1.261c-.864,4.529-3.07,9.01-8.485,7.155-6-2.078-10.271-8.73-12.78-14.1-.805-1.7-3.3-.222-2.521,1.459,3.023,6.466,8.31,13.889,15.617,15.792,6.793,1.774,9.851-4.248,10.948-9.9,3.9-.187,6.758-3.35,7.692-6.641C54.871,83.576,46.865,80.448,43.387,81.615Z" transform="translate(3.204 13.598)" fill="#9e8d33"/>
    </g>
  </g>
</svg>
