<svg xmlns="http://www.w3.org/2000/svg" width="295.113" height="324.059" viewBox="0 0 295.113 324.059">
  <g id="Persojanes-46" transform="translate(0 0)" style="isolation: isolate">
    <g id="Capa_1" data-name="Capa 1" transform="translate(0 0)">
      <path id="Trazado_23302" data-name="Trazado 23302" d="M214.052,122.2c0,8.228-42.1,14.974-94.015,14.974S26.05,130.452,26.05,122.2s42.071-14.947,93.987-14.947S214.052,113.942,214.052,122.2Z" transform="translate(45.383 186.888)" opacity="0.15" style="mix-blend-mode: multiply;isolation: isolate"/>
      <path id="Trazado_23303" data-name="Trazado 23303" d="M68.315,145.392c-4.58-18.019-8.008-38.039-11.464-54.851-.439-2.167-5.485-3.812-5.485-.713a314.32,314.32,0,0,0,6.719,52.328c0,.219-.905.411-1.536.576a91.443,91.443,0,0,0-14.7,3.538A4.608,4.608,0,0,0,43,155.21c6.28,1.179,13.713-1.508,19.938-4.114,1.1-.411,2.386-.905,3.456-1.426A3.675,3.675,0,0,0,68.315,145.392Z" transform="translate(67.541 153.546)" fill="#9e8d33"/>
      <path id="Trazado_23304" data-name="Trazado 23304" d="M109.149,145.929a77.836,77.836,0,0,0-11.3-2.029,26.685,26.685,0,0,1-8.365-1.92c-3.209-7.871-6.253-16.455-8.968-23.778-3.757-10.257-7.048-18.293-10.367-27.727-.686-2-5.485-2.523-5.485-.329-.192,7.131,3.428,15.386,5.7,22.763,3.4,10.97,7.6,22.681,10.97,33.322a7.131,7.131,0,0,0,4.607,4.251c3.1,1.1,16.455,6.006,22.955,5.485C113.7,155.638,114.552,148.1,109.149,145.929Z" transform="translate(112.659 154.599)" fill="#9e8d33"/>
      <path id="Trazado_23305" data-name="Trazado 23305" d="M71.768,114.924S62.69,87.334,50.733,68.081A297.567,297.567,0,0,0,16.78,22.39L12.2,35.8s32.636,25.725,55.948,84.553Z" transform="translate(21.249 39.015)" fill="#9e8d33"/>
      <path id="Trazado_23306" data-name="Trazado 23306" d="M75.4,39.19S80.172,7.459,98.821,1.7s43.442,3.785,49.887,18.622-6.061,27.069-6.061,27.069,18.594,2.221,16.73,15.879-19.2,19.8-19.2,19.8,20.6,4.8,23.312,25.231-17.881,30.442-28.852,30.579.494,15.605-8.228,21.392-28.139-3.949-28.139-3.949,10.97-12.4,5.019-21.8S130.47,113.02,110.806,91,117.772,62.283,75.4,39.19Z" transform="translate(131.378 0)" fill="#fae26f"/>
      <path id="Trazado_23307" data-name="Trazado 23307" d="M117.476,113.526c5.485,0,3.1-8.584,2.194-11.628A16.263,16.263,0,0,0,109.3,90.3a13.713,13.713,0,0,0-17.388,8.392c-.905,2.468,1.7,5.485,5.129,3.209,2.743-1.728,4.278-5.293,6.116-7.46-.85,8.228-4.553,25.04-.3,26.411,6.226,2,6.582-13.548,5.485-23.97a83.921,83.921,0,0,0,3.072,8.666C112.073,108.726,112.951,113.608,117.476,113.526Z" transform="translate(159.841 156.039)" fill="#9e8d33"/>
      <path id="Trazado_23308" data-name="Trazado 23308" d="M145.859,137.768l-7.542,2.029C118.68,94.354,76.994,67.751,72.77,66.352l5.787-2C80.312,65.612,124.6,88.293,145.859,137.768Z" transform="translate(126.795 112.132)" fill="#9e8d33"/>
      <path id="Trazado_23309" data-name="Trazado 23309" d="M28.56,247.55S28.4,88.482,62.4,39.911c0,0,44.237-64.258,109.7-25.122,56.551,33.788,37.134,85.677,19.472,130.189-19.2,48.488-14.865,112.17-14.865,112.17a790.26,790.26,0,0,1-148.153-9.6Z" transform="translate(49.757 3.749)" fill="#e8cc30"/>
      <path id="Trazado_23310" data-name="Trazado 23310" d="M140.428,139.909l15.8-59.4L52.309,19.73c-10.641,20.35-17.662,57.594-21.419,90.5C99.756,121.369,140.428,139.909,140.428,139.909Z" transform="translate(53.817 34.38)" fill="#2e2f30"/>
      <path id="Trazado_23311" data-name="Trazado 23311" d="M26.12,72.834s91.217,19.911,146.672,67.055c0,0,9.27-32.006,12.04-54.275,0,0-61.872-62.859-121.879-77.614A241.344,241.344,0,0,0,26.12,72.834Z" transform="translate(45.505 13.939)" fill="#9e8d33"/>
      <path id="Trazado_23312" data-name="Trazado 23312" d="M49.366,15.9l10.943,6.664L46.788,51.444,34.94,47.275Z" transform="translate(60.875 27.706)" fill="#85772e"/>
      <path id="Trazado_23313" data-name="Trazado 23313" d="M57.817,19.47,44.57,49.364l10.806,5.129,13.8-29.51Z" transform="translate(77.655 33.927)" fill="#85772e"/>
      <path id="Trazado_23314" data-name="Trazado 23314" d="M66.953,24.22,54.2,53.154l10.175,5.458L78.8,30.994Z" transform="translate(94.436 42.204)" fill="#85772e"/>
      <path id="Trazado_23315" data-name="Trazado 23315" d="M76.254,31,63.09,57.712l9.9,5.869,13.6-27.426Z" transform="translate(109.928 54.018)" fill="#85772e"/>
      <path id="Trazado_23316" data-name="Trazado 23316" d="M71.776,64.752c-4.086,14.069,2.413,29.016,14.536,33.4S111.543,94.673,115.63,80.6s-2.386-29.044-14.481-33.432S75.917,50.655,71.776,64.752Z" transform="translate(122.935 80.081)" fill="#88782e"/>
      <path id="Trazado_23317" data-name="Trazado 23317" d="M56.04,50.591C62.814,58.462,73.565,60.3,81,55.446c2.989-1.975,3.593,1.124,1.81,3.373A14.947,14.947,0,0,1,68.135,64.3,17.388,17.388,0,0,1,53.873,54.047C52.338,50.4,53.16,47.245,56.04,50.591Z" transform="translate(92.541 85.685)" fill="#eeda63"/>
      <path id="Trazado_23318" data-name="Trazado 23318" d="M39.6,45.846a19.2,19.2,0,0,0,24.683,8.228c3.4-1.7,3.51,1.646,1.289,3.785a15.8,15.8,0,0,1-15.962,3.894A17.168,17.168,0,0,1,36.806,49.3C35.846,45.188,37.218,41.979,39.6,45.846Z" transform="translate(63.588 76.855)" fill="#eeda63"/>
      <path id="Trazado_23319" data-name="Trazado 23319" d="M4.738,12.605c2.743,1.481,3.785,3.949,6.911,7.981a50.024,50.024,0,0,0,10.614,10.97,28.136,28.136,0,0,1,2.743-.8c14.59-3.867,15.057,3.4,16.62,20.542a3.894,3.894,0,0,1-2.743,4.224c-4.2,2.743-18.128,2.88-20.377-5.1a47.008,47.008,0,0,1,.466-7.652A64.039,64.039,0,0,1,.789,19.983C-1.625,14.772,2.05,11.152,4.738,12.605Z" transform="translate(-0.004 21.401)" fill="#9e8d33"/>
    </g>
  </g>
</svg>
