<svg xmlns="http://www.w3.org/2000/svg" width="110.171" height="152.639" viewBox="0 0 110.171 152.639">
  <g id="Persojanes-38" transform="translate(0 0)" style="isolation: isolate">
    <g id="Capa_1" data-name="Capa 1" transform="translate(0 0)">
      <g id="Grupo_325" data-name="Grupo 325" transform="translate(24.25 139.515)" opacity="0.15" style="mix-blend-mode: multiply;isolation: isolate">
        <path id="Trazado_23044" data-name="Trazado 23044" d="M91.74,126.493c0,1.638-12.87,6.259-35.638,5.85-19.621-.386-35.463-3.615-35.392-7.219s16.029-6.189,35.65-5.85S91.811,122.9,91.74,126.493Z" transform="translate(-20.71 -119.244)"/>
      </g>
      <path id="Trazado_23045" data-name="Trazado 23045" d="M89.349,12.545v.632a11.08,11.08,0,0,1-.117,1.767c-.117.772-.117,1.7-.222,2.749s-.211,2.246-.339,3.51-.3,2.7-.48,4.189-.351,3.054-.585,4.68-.5,3.288-.749,4.972l-.421,2.621c-.164.854-.316,1.708-.48,2.562-.316,1.708-.632,3.428-.936,5.1s-.69,3.334-1.041,4.926-.7,3.136-1.03,4.6c-.176.725-.328,1.439-.48,2.118l-.55,1.966c-1.369,5.043-2.34,8.4-2.34,8.4l-2.34-.7s.889-3.323,2.235-8.307c.164-.632.339-1.275.515-1.954l.468-2.106c.316-1.439.643-2.972.994-4.54s.725-3.206.994-4.879.6-3.37.9-5.066l.456-2.539c.117-.854.246-1.7.363-2.539.246-1.673.48-3.323.714-4.926s.374-3.159.55-4.621.351-2.866.456-4.153.222-2.457.316-3.51.14-1.942.2-2.691.094-1.334.105-1.743v-.62Z" transform="translate(13.15 2.115)" fill="#bb732b"/>
      <path id="Trazado_23046" data-name="Trazado 23046" d="M82.823,14.5a8.26,8.26,0,0,0,5.417,1.767c1.732,0,4.294-.784,2.633-3.334,2.34.316,5.557-.421,5.37-3.206C95.985,5.9,92.569,4.6,89.854,4.307c-2.539-.269-5.581-.339-6.646,2.808a12.3,12.3,0,0,0-.363,3.51C81.758,11.163,81.115,12.778,82.823,14.5Z" transform="translate(13.921 0.712)" fill="#bb732b"/>
      <path id="Trazado_23047" data-name="Trazado 23047" d="M43.185,128.115l-3-.55c2.071-11.15,3.674-22.23,4.294-29.5l3.03.269C46.871,105.85,45.291,116.708,43.185,128.115Z" transform="translate(6.852 16.671)" fill="#bd742b"/>
      <path id="Trazado_23048" data-name="Trazado 23048" d="M42.575,121.547s-8.635-.819-10.354,1.989c-2.34,3.732,4.083,5.23,12.32.924,0,0,.749-1.907,0-2.89a1.264,1.264,0,0,0-1.966-.023Z" transform="translate(5.414 20.584)" fill="#bd742b"/>
      <path id="Trazado_23049" data-name="Trazado 23049" d="M58.919,128.115c-2.106-11.407-3.685-22.23-4.329-29.776l3.03-.269c.62,7.312,2.223,18.345,4.294,29.5Z" transform="translate(9.3 16.671)" fill="#bd742b"/>
      <path id="Trazado_23050" data-name="Trazado 23050" d="M60.192,121.546s8.646-.819,10.366,1.989c2.34,3.732-4.095,5.23-12.32.924,0,0-.749-1.907,0-2.89a1.252,1.252,0,0,1,1.954-.023Z" transform="translate(9.863 20.584)" fill="#bd742b"/>
      <path id="Trazado_23051" data-name="Trazado 23051" d="M10.2,13l.129.608c.082.409.211.983.374,1.708s.339,1.615.585,2.632.538,2.164.842,3.428.679,2.6,1.053,4.025.772,2.948,1.24,4.493.936,3.147,1.427,4.762l.737,2.457c.281.807.55,1.626.831,2.445l1.638,4.867c.515,1.615,1.17,3.159,1.708,4.68l1.661,4.341c.257.69.515,1.369.772,2.012s.538,1.264.8,1.849l3.428,7.886-2.2,1.041-3.51-7.968c-.257-.6-.538-1.17-.819-1.86l-.784-2.024C19.563,52.99,19,51.516,18.4,50s-1.17-3.077-1.755-4.68-1.17-3.264-1.685-4.9c-.293-.819-.573-1.65-.854-2.469s-.5-1.65-.761-2.469l-1.474-4.809c-.468-1.556-.866-3.089-1.275-4.528s-.784-2.8-1.088-4.06l-.866-3.51c-.257-1.03-.456-1.942-.62-2.691S7.7,14.6,7.629,14.17l-.129-.6Z" transform="translate(1.295 2.21)" fill="#bb732b"/>
      <path id="Trazado_23052" data-name="Trazado 23052" d="M13.821,10.745a12.589,12.589,0,0,0-.9-3.51c-1.556-3.077-4.68-2.515-7.2-1.849C2.951,6.193-.3,7.96,0,11.9c.234,2.855,3.685,3.112,5.967,2.445-1.287,2.855,1.451,3.229,3.217,3A8.541,8.541,0,0,0,14.452,14.7C15.938,12.71,15.037,11.178,13.821,10.745Z" transform="translate(0.017 0.827)" fill="#bb732b"/>
      <path id="Trazado_23053" data-name="Trazado 23053" d="M17.86,63.87c0,32.2,24.827,63.835,37.533,63.835,14.566,0,37.44-31.672,37.44-63.87S70.217,0,55.335,0C41.084,0,17.848,31.672,17.86,63.87Z" transform="translate(3.056)" fill="#f39223"/>
      <path id="Trazado_23054" data-name="Trazado 23054" d="M51.4.53a43.147,43.147,0,0,0-4.54,4.06,76.354,76.354,0,0,0-9.992,12.484,81.6,81.6,0,0,0-5.171,9.36,83.43,83.43,0,0,0-4.27,11.115A88.639,88.639,0,0,0,23.6,63.089a97.775,97.775,0,0,0,.714,13.127,86.661,86.661,0,0,0,2.457,12.507A84.554,84.554,0,0,0,30.7,99.968a79.876,79.876,0,0,0,4.867,9.5,75.557,75.557,0,0,0,9.594,12.788,42.669,42.669,0,0,0,4.423,4.165,42.811,42.811,0,0,1-4.5-4.083,71.71,71.71,0,0,1-9.851-12.659,81.1,81.1,0,0,1-9.067-20.849,94.2,94.2,0,0,1-3.288-25.74,89.294,89.294,0,0,1,3.955-25.74,80.811,80.811,0,0,1,9.7-20.5A72.727,72.727,0,0,1,46.774,4.5,43.29,43.29,0,0,1,51.4.53Z" transform="translate(3.907 0.09)" fill="#b7702a"/>
      <path id="Trazado_23055" data-name="Trazado 23055" d="M52.81.53a42.121,42.121,0,0,1,4.621,3.955A72.808,72.808,0,0,1,67.681,16.828,80.155,80.155,0,0,1,77.4,37.35a89.68,89.68,0,0,1,3.978,25.74,94.22,94.22,0,0,1-3.264,25.74,81.185,81.185,0,0,1-9.044,20.8,72.293,72.293,0,0,1-9.84,12.659,42.939,42.939,0,0,1-4.516,4.095,42.118,42.118,0,0,0,4.423-4.177,75.6,75.6,0,0,0,9.582-12.788,79.184,79.184,0,0,0,4.867-9.512,86.241,86.241,0,0,0,3.919-11.244,88.265,88.265,0,0,0,2.434-12.519,99.756,99.756,0,0,0,.7-13.127A89.048,89.048,0,0,0,76.795,37.49a84.906,84.906,0,0,0-4.282-11.1,77.991,77.991,0,0,0-5.183-9.36A75.732,75.732,0,0,0,57.35,4.59,41.957,41.957,0,0,0,52.81.53Z" transform="translate(8.997 0.09)" fill="#b7702a"/>
      <path id="Trazado_23056" data-name="Trazado 23056" d="M24.05,28.992H85.03A89.223,89.223,0,0,0,76.5,14.11H32.685A90.325,90.325,0,0,0,24.05,28.992Z" transform="translate(4.108 2.399)" fill="#fccd8e"/>
      <path id="Trazado_23057" data-name="Trazado 23057" d="M34.2,98.6H74.757A82.8,82.8,0,0,0,83.169,84.64H25.5A88.3,88.3,0,0,0,34.2,98.6Z" transform="translate(4.355 14.388)" fill="#fccd8e"/>
      <path id="Trazado_23058" data-name="Trazado 23058" d="M75.326,34.358l.175.445c.129.3.281.737.48,1.3s.421,1.228.643,2.012l.363,1.252c.117.445.234.913.351,1.392.257.971.468,2.036.7,3.159s.445,2.34.585,3.568c.082.62.175,1.252.257,1.884s.117,1.3.187,1.954c.14,1.3.187,2.644.246,3.966s0,2.679,0,3.99-.105,2.609-.152,3.849-.246,2.457-.351,3.592-.292,2.211-.445,3.206-.269,1.9-.468,2.679l-.456,2.059c-.246,1.17-.4,1.778-.4,1.778a.948.948,0,0,1-1.17.737.959.959,0,0,1-.737-1.1v-.059l.316-1.767c.094-.55.222-1.24.351-2.012s.222-1.673.363-2.632.293-2.012.363-3.124.2-2.281.246-3.51.117-2.469.129-3.744,0-2.562-.07-3.861-.094-2.586-.234-3.861c0-.632-.105-1.264-.152-1.884s-.164-1.24-.234-1.837c-.129-1.17-.351-2.34-.515-3.51s-.374-2.129-.585-3.077-.41-1.813-.608-2.574-.374-1.427-.526-1.966l-.374-1.24-.14-.433h0a.959.959,0,0,1,.608-1.17A.971.971,0,0,1,75.326,34.358Z" transform="translate(12.502 5.738)" fill="#fcd19b"/>
      <line id="Línea_11" data-name="Línea 11" y1="1.1" x2="4.598" transform="translate(86.155 46.004)" fill="none" stroke="#fcd19b" stroke-linecap="round" stroke-miterlimit="10" stroke-width="1.85"/>
      <line id="Línea_12" data-name="Línea 12" y1="0.725" x2="4.668" transform="translate(87.711 55.212)" fill="none" stroke="#fcd19b" stroke-linecap="round" stroke-miterlimit="10" stroke-width="1.85"/>
      <line id="Línea_13" data-name="Línea 13" x2="4.727" y2="0.105" transform="translate(88.202 65.625)" fill="none" stroke="#fcd19b" stroke-linecap="round" stroke-miterlimit="10" stroke-width="1.85"/>
      <line id="Línea_14" data-name="Línea 14" x2="4.458" y2="0.538" transform="translate(87.395 75.897)" fill="none" stroke="#fcd19b" stroke-linecap="round" stroke-miterlimit="10" stroke-width="1.8"/>
      <path id="Trazado_23059" data-name="Trazado 23059" d="M60.244,20.05c-.714.772-2.609.211-4.235-1.264s-2.34-3.311-1.661-4.095,2.609-.211,4.235,1.264S61,19.266,60.244,20.05Z" transform="translate(9.215 2.438)" fill="#2e2f30"/>
      <path id="Trazado_23060" data-name="Trazado 23060" d="M46.055,13.325c.585.877-.421,2.574-2.246,3.8s-3.779,1.5-4.364.62.41-2.574,2.235-3.8S45.47,12.447,46.055,13.325Z" transform="translate(6.697 2.178)" fill="#2e2f30"/>
      <path id="Trazado_23061" data-name="Trazado 23061" d="M27.81,31.953a1.24,1.24,0,1,0,1.234-1.12A1.24,1.24,0,0,0,27.81,31.953Z" transform="translate(4.747 5.241)" fill="#c97c29"/>
      <path id="Trazado_23062" data-name="Trazado 23062" d="M32.6,34.08a1.346,1.346,0,1,0,1.334-1.17A1.275,1.275,0,0,0,32.6,34.08Z" transform="translate(5.56 5.594)" fill="#c97c29"/>
      <path id="Trazado_23063" data-name="Trazado 23063" d="M28.36,35.645A1.345,1.345,0,1,0,29.705,34.3,1.345,1.345,0,0,0,28.36,35.645Z" transform="translate(4.841 5.831)" fill="#c97c29"/>
      <path id="Trazado_23064" data-name="Trazado 23064" d="M64.553,31.1a2.662,2.662,0,1,0,0,.012Z" transform="translate(10.884 4.911)" fill="#c97c29"/>
      <path id="Trazado_23065" data-name="Trazado 23065" d="M68.743,28.146a1.275,1.275,0,1,0-.773-1.083A1.275,1.275,0,0,0,68.743,28.146Z" transform="translate(11.574 4.368)" fill="#c97c29"/>
      <path id="Trazado_23066" data-name="Trazado 23066" d="M68.409,32.526a1.334,1.334,0,0,0,1.8-.527,1.369,1.369,0,0,0-2.422-1.24,1.322,1.322,0,0,0,.62,1.767Z" transform="translate(11.521 5.124)" fill="#c97c29"/>
      <path id="Trazado_23067" data-name="Trazado 23067" d="M37.85,37.091s5.534-5.054,11.337,1.486c0,0-1.626-5.85-5.674-6.1S37.85,37.091,37.85,37.091Z" transform="translate(6.454 5.52)" fill="#2e2f30"/>
      <path id="Trazado_23068" data-name="Trazado 23068" d="M62.753,36.981s-5.347-5.043-10.963,1.486c0,0,1.568-5.85,5.487-6.1S62.753,36.981,62.753,36.981Z" transform="translate(8.824 5.501)" fill="#2e2f30"/>
      <path id="Trazado_23069" data-name="Trazado 23069" d="M32,36.866a16.872,16.872,0,0,0,1.392,1.58,22.477,22.477,0,0,0,4.329,3.37,22.932,22.932,0,0,0,7.172,2.761,25.741,25.741,0,0,0,4.317.491,32.375,32.375,0,0,0,4.528-.175,28.079,28.079,0,0,0,4.423-.819,23.54,23.54,0,0,0,4.095-1.521,20.44,20.44,0,0,0,6.306-4.387,18.72,18.72,0,0,0,3.217-4.376,12.225,12.225,0,0,0,.842-1.919,11.2,11.2,0,0,1-.69,1.989,17.947,17.947,0,0,1-1.17,2.153,18.264,18.264,0,0,1-1.9,2.539,21.06,21.06,0,0,1-6.341,4.762,24.313,24.313,0,0,1-4.13,1.58,29.662,29.662,0,0,1-4.563.877,29.051,29.051,0,0,1-4.621.222,23.938,23.938,0,0,1-4.458-.573,21.4,21.4,0,0,1-4-1.322,22.79,22.79,0,0,1-3.288-1.813,19.387,19.387,0,0,1-4.177-3.709A11.7,11.7,0,0,1,32,36.866Z" transform="translate(5.46 5.418)" fill="#2e2f30"/>
    </g>
  </g>
</svg>
