<svg xmlns="http://www.w3.org/2000/svg" width="107.324" height="146.38" viewBox="0 0 107.324 146.38">
  <g id="Persojanes-21" transform="translate(-0.001 0)" style="isolation: isolate">
    <g id="Capa_1" data-name="Capa 1" transform="translate(0.001 0)">
      <path id="Trazado_22549" data-name="Trazado 22549" d="M89.464,126.372c0,2.622-14.45,4.761-32.266,4.761S25,128.994,25,126.372,39.439,121.6,57.255,121.6s32.266,2.138,32.266,4.772" transform="translate(3.184 15.248)" fill="#232121" opacity="0.15" style="mix-blend-mode: multiply;isolation: isolate"/>
      <path id="Trazado_22550" data-name="Trazado 22550" d="M40.136,107.7c3.905,3.905,6.888,10.433,7.878,15.756.371,1.958,2.656,1.125,2.251-.822-1.125-5.863-4.5-12.875-8.711-17.14a1.544,1.544,0,1,0-2.183,2.183" transform="translate(4.93 13.17)" fill="#e543a0"/>
      <path id="Trazado_22551" data-name="Trazado 22551" d="M52.69,106.706A39.828,39.828,0,0,0,61.4,125.062c1.328,1.474,2.814-.709,1.5-2.183a36.869,36.869,0,0,1-7.878-16.994c-.338-1.958-2.622-1.125-2.251.822" transform="translate(6.657 13.136)" fill="#e543a0"/>
      <path id="Trazado_22552" data-name="Trazado 22552" d="M11.631,47.5s-4.625,2.138-6.753.889a3.759,3.759,0,0,1-1.609-4.986A3.151,3.151,0,0,1,.005,40.549c-.529-3.027,3.376-4.625,5.526-4.445,0,0-3.376-4.1-1.609-8.024s6.066-4.1,9.093-2.487c0,0,1.6-5.875,6.235-2.318,0,0-2.847-6.055,2.307-7.878,0,0-1.058-4.806,4.637-5.875s9.082,6.044,9.082,6.044-.484-3.871,1.654-4.884,5.695,2.487,5.695,2.487-1.778-4.637,3.207-4.637a5.863,5.863,0,0,1,6.235-3.916c4.806.54,5.346,6.415,5.526,8.373,0,0,1.632-3.252,3.916-3.736,2.487-.54,4.277,1.6,4.5,4.1,0,0,3.736-5.706,9.082-.54,0,0,3.027-3.027,6.235-1.069s3.916,5.346,1.6,8.913a5.965,5.965,0,0,1,4.1-.54c2.318.54,2.847,3.916,2.318,6.055,0,0,4.625-4.265,7.653.72,0,0,3.916-.709,5.166,3.916a6.415,6.415,0,0,1-1.992,6.888s3.376-.957,4.5,1.778c1.193,3.039-2.375,4.974-2.375,4.974s-.36,5.334-6.235,3.027-30.285,13-84.407,0" transform="translate(0.043 0.57)" fill="#ffaada"/>
      <path id="Trazado_22553" data-name="Trazado 22553" d="M80.11,30.48a6.921,6.921,0,0,0-1.238-.2,5.233,5.233,0,0,0-1.193.09,2.972,2.972,0,0,0-.54.158,1.948,1.948,0,0,0-.518.225,2.05,2.05,0,0,0-.461.3,2.971,2.971,0,0,0-.416.349c-.124.135-.259.27-.371.405l-.315.461a8.68,8.68,0,0,0-.551,1l-.2.551a4.657,4.657,0,0,0-.214.551L73.751,35.5l-.608,2.116-.878-1.958c-.068-.169-.18-.371-.281-.563a5.686,5.686,0,0,0-.315-.574,7.075,7.075,0,0,0-.743-1.125,9.007,9.007,0,0,0-.855-.99,3.377,3.377,0,0,0-.473-.428c-.18-.135-.326-.293-.506-.405s-.36-.248-.551-.349l-.574-.293a5.626,5.626,0,0,0-.608-.236,2.566,2.566,0,0,0-.641-.169c-.214,0-.439-.113-.664-.135h-.686a3.612,3.612,0,0,0-.7,0H63.96a8.158,8.158,0,0,1,1.362-.484l.732-.135a5.628,5.628,0,0,1,.754,0,4.255,4.255,0,0,1,.754.056,3.039,3.039,0,0,1,.765.135l.732.248c.236.09.461.225.7.338a3.871,3.871,0,0,1,.653.394,5.279,5.279,0,0,1,.619.473,8.914,8.914,0,0,1,1.125,1.125,10.771,10.771,0,0,1,.889,1.238c.135.2.259.428.383.653a7.19,7.19,0,0,1,.338.72l-1.5.09.416-1.272c.146-.416.36-.822.551-1.238A10.715,10.715,0,0,1,74,31.606c.146-.18.315-.349.461-.529l.551-.45a4.24,4.24,0,0,1,.608-.383,2.657,2.657,0,0,1,.664-.27,2.791,2.791,0,0,1,.687-.169,2.881,2.881,0,0,1,.7,0,4.322,4.322,0,0,1,1.317.236,4.378,4.378,0,0,1,1.125.608" transform="translate(8.071 3.729)" fill="#f7cadb"/>
      <path id="Trazado_22554" data-name="Trazado 22554" d="M28.1,24.491a6.19,6.19,0,0,0-1.305.18,5.188,5.188,0,0,0-1.125.461,3.769,3.769,0,0,0-.5.326,2.51,2.51,0,0,0-.45.394,3.477,3.477,0,0,0-.371.439,2.25,2.25,0,0,0-.315.5c-.09.169-.18.338-.259.518s-.124.383-.191.563a10.376,10.376,0,0,0-.27,1.125l-.056.619v4.063l-1.4-1.7c-.113-.146-.281-.315-.428-.473s-.315-.326-.484-.484a10.727,10.727,0,0,0-1.047-.844,8.564,8.564,0,0,0-1.125-.7,3.669,3.669,0,0,0-.608-.281,5.213,5.213,0,0,0-.63-.236,4.78,4.78,0,0,1-.63-.169l-.664-.113h-.675a3.377,3.377,0,0,0-.675,0,4.929,4.929,0,0,0-.7.09l-.687.169a4.073,4.073,0,0,0-.687.225l-.687.248.574-.473a4.659,4.659,0,0,1,.619-.428l.675-.349a5,5,0,0,1,.72-.27,4.356,4.356,0,0,1,.754-.191c.259,0,.518-.079.788-.1h.788a6.034,6.034,0,0,1,.788.113,3.545,3.545,0,0,1,.777.18,5.29,5.29,0,0,1,.743.27,7.059,7.059,0,0,1,.72.338c.225.135.473.236.687.394a11.333,11.333,0,0,1,1.238.957c.2.169.383.349.574.529a7.6,7.6,0,0,1,.54.619l-1.407.5V30.1a8.517,8.517,0,0,1,.2-1.4,12.154,12.154,0,0,1,.36-1.351A6.97,6.97,0,0,1,22.6,26.7c.124-.214.27-.416.405-.619a3.286,3.286,0,0,1,.484-.563,2.566,2.566,0,0,1,.574-.473,2.735,2.735,0,0,1,.63-.371,2.915,2.915,0,0,1,.675-.27,4.84,4.84,0,0,1,1.384-.191,4.5,4.5,0,0,1,1.351.236" transform="translate(1.571 3.033)" fill="#f7cadb"/>
      <path id="Trazado_22555" data-name="Trazado 22555" d="M38.4,37.7a7.946,7.946,0,0,0,.529-3.6,6.585,6.585,0,0,0-.169-.844,3.838,3.838,0,0,0-.3-.777,7.408,7.408,0,0,0-.428-.709l-.09-.135-.158-.18c-.1-.113-.214-.248-.315-.338a3.377,3.377,0,0,0-.563-.394,1.5,1.5,0,0,0-.63-.214,1.429,1.429,0,0,0-.653,0,1.778,1.778,0,0,0-.63.259,2.037,2.037,0,0,0-.574.461,2.791,2.791,0,0,0-.461.608,3,3,0,0,0-.315.7,3.557,3.557,0,0,0-.158.765l-.2,1.542-.957-1.125a3.67,3.67,0,0,0-.473-.439,5.145,5.145,0,0,0-.551-.428c-.191-.135-.405-.236-.608-.36a3.152,3.152,0,0,0-.653-.3,6.97,6.97,0,0,0-.675-.259l-.72-.191a4.231,4.231,0,0,0-.743-.113l-.777-.113.765-.158a3.8,3.8,0,0,1,.788-.113h.81a4.874,4.874,0,0,1,.8.113,3.377,3.377,0,0,1,.8.2,3.736,3.736,0,0,1,.765.3,4.648,4.648,0,0,1,.765.518,4.04,4.04,0,0,1,.72.529l-1.125.45a5.267,5.267,0,0,1,.113-1.125,4.4,4.4,0,0,1,.383-1.058,2.307,2.307,0,0,1,.293-.484,2.678,2.678,0,0,1,.349-.45,4.1,4.1,0,0,1,.889-.754,3.286,3.286,0,0,1,1.125-.461,3.05,3.05,0,0,1,1.238,0,3.3,3.3,0,0,1,1.125.428,4.085,4.085,0,0,1,.934.777c.113.135.191.259.293.383l.146.191a2.856,2.856,0,0,1,.158.281,4.5,4.5,0,0,1,.45.968,5.548,5.548,0,0,1,.248,1.035,5.435,5.435,0,0,1,0,1.047,7.317,7.317,0,0,1-.158,1.013,7.954,7.954,0,0,1-.326.957,5.818,5.818,0,0,1-1.047,1.654" transform="translate(3.45 3.629)" fill="#f7cadb"/>
      <path id="Trazado_22556" data-name="Trazado 22556" d="M71.278,23.989a8.08,8.08,0,0,0,.574-3.579,6.6,6.6,0,0,0-.146-.844,5.062,5.062,0,0,0-.281-.788,5.177,5.177,0,0,0-.416-.72,3.152,3.152,0,0,0-.5-.63,2.363,2.363,0,0,0-1.193-.664,2.026,2.026,0,0,0-1.26.3,3.376,3.376,0,0,0-1.5,2.543l-.214,2.375L65.223,19.9c-.068-.135-.191-.326-.293-.5a4.916,4.916,0,0,0-.349-.5,6.246,6.246,0,0,0-.822-.9,5.177,5.177,0,0,0-2.071-1.193,4.738,4.738,0,0,0-2.442,0,8.823,8.823,0,0,0-2.4,1.047,9.5,9.5,0,0,1,1.035-.855,7.755,7.755,0,0,1,1.193-.675,5.2,5.2,0,0,1,2.791-.394,5.627,5.627,0,0,1,2.622,1.125,7.877,7.877,0,0,1,1.058.979c.158.18.315.36.461.551a5.9,5.9,0,0,1,.416.619l-1.227.27a4.5,4.5,0,0,1,2.026-3.826,3.219,3.219,0,0,1,2.352-.5,3.455,3.455,0,0,1,2.071,1.227,4.941,4.941,0,0,1,.608.912,4.75,4.75,0,0,1,.416.979,5.458,5.458,0,0,1,.214,1.035,5.31,5.31,0,0,1,0,1.035,5.831,5.831,0,0,1-.18,1,8.5,8.5,0,0,1-.326.945,5.9,5.9,0,0,1-1.1,1.688" transform="translate(7.179 1.892)" fill="#f7cadb"/>
      <path id="Trazado_22557" data-name="Trazado 22557" d="M26.581,22.206A8.261,8.261,0,0,1,24.8,18.954a4.918,4.918,0,0,1-.169-2,3.77,3.77,0,0,1,.3-1.035l.146-.27.124-.191a3.376,3.376,0,0,1,.338-.45,4.108,4.108,0,0,1,1.823-1.125,4.344,4.344,0,0,1,2.183-.191,4.232,4.232,0,0,1,1.969.979,4.006,4.006,0,0,1,1.125,1.891l-1.125-.248a4.5,4.5,0,0,1,.338-.326,2.634,2.634,0,0,1,.349-.27,5.166,5.166,0,0,1,.743-.473,4.254,4.254,0,0,1,1.7-.506,3.376,3.376,0,0,1,1.711.293,4.007,4.007,0,0,1,1.305,1,4.9,4.9,0,0,0-1.452-.518,3.151,3.151,0,0,0-1.418.079,4.029,4.029,0,0,0-1.238.63,4.187,4.187,0,0,0-.54.461l-.248.248-.2.248-.732.99L31.4,16.939a2.611,2.611,0,0,0-2.048-1.711,3.309,3.309,0,0,0-1.407.079,3.14,3.14,0,0,0-1.227.687,2.352,2.352,0,0,0-.225.248l-.135.18-.079.124A2.859,2.859,0,0,0,26,17.2a4.569,4.569,0,0,0-.113,1.587,14.27,14.27,0,0,0,.822,3.376" transform="translate(3.134 1.705)" fill="#f7cadb"/>
      <path id="Trazado_22558" data-name="Trazado 22558" d="M50.64,10.682a10.8,10.8,0,0,0-1.8.113,7.461,7.461,0,0,0-.777.169,4.986,4.986,0,0,0-.765.315,3.455,3.455,0,0,0-.664.484,4.311,4.311,0,0,0-.529.619,2.5,2.5,0,0,0-.236.439,2.06,2.06,0,0,0-.135.349,2.87,2.87,0,0,0-.158.822,3.533,3.533,0,0,0,0,.844,5.625,5.625,0,0,0,.124.8,14.384,14.384,0,0,0,.529,1.756,4.806,4.806,0,0,1-1.756-2.251,4.085,4.085,0,0,1-.27-1.125,3.7,3.7,0,0,1,.079-1.26,2.8,2.8,0,0,1,.225-.675,3.106,3.106,0,0,1,.27-.518,4.108,4.108,0,0,1,.9-1,4.029,4.029,0,0,1,1.125-.6,4.142,4.142,0,0,1,2.1-.1,4.783,4.783,0,0,1,1.328.5,2.668,2.668,0,0,1,.439.3" transform="translate(5.59 1.222)" fill="#f7cadb"/>
      <path id="Trazado_22559" data-name="Trazado 22559" d="M19.031,38.36s-.383-.675-.968-1.553a8.35,8.35,0,0,0-1.125-1.317,4,4,0,0,0-.7-.54,1.992,1.992,0,0,0-.371-.214,1.744,1.744,0,0,0-.405-.146l-.2-.079h-.6a2.442,2.442,0,0,0-.72.113,3.2,3.2,0,0,0-.709.349,4.647,4.647,0,0,0-.619.506,10.017,10.017,0,0,0-.878.945l-.338.405a4.5,4.5,0,0,1,0-.54,4.727,4.727,0,0,1,.428-1.351A3.748,3.748,0,0,1,13.3,33.351a2.9,2.9,0,0,1,1.317-.371h.664l.169.023h.2l.326.1a3.714,3.714,0,0,1,1.125.619,4,4,0,0,1,.867.878,5.267,5.267,0,0,1,.867,1.857,4.873,4.873,0,0,1,.146,1.924" transform="translate(1.478 4.133)" fill="#f7cadb"/>
      <path id="Trazado_22560" data-name="Trazado 22560" d="M86.853,41.423s0-.754-.079-1.767a9,9,0,0,0-.293-1.621,4.276,4.276,0,0,0-.732-1.508l-.124-.169h0l-.124-.135a3.207,3.207,0,0,0-.338-.3,1.958,1.958,0,0,0-.608-.326,2.881,2.881,0,0,0-1.452-.1,7.88,7.88,0,0,0-1.193.281l-.473.146a2.509,2.509,0,0,1,.293-.416,3.871,3.871,0,0,1,1.058-.867,3.375,3.375,0,0,1,.912-.371,3.1,3.1,0,0,1,1.125,0,2.116,2.116,0,0,1,.619.169,2.251,2.251,0,0,1,.619.315,3.658,3.658,0,0,1,.506.349l.1.09.146.158.2.248a4.389,4.389,0,0,1,.855,2.251,5.312,5.312,0,0,1-.18,1.913,4.625,4.625,0,0,1-.822,1.666" transform="translate(10.263 4.288)" fill="#f7cadb"/>
      <path id="Trazado_22561" data-name="Trazado 22561" d="M83.511,30.647s-.281-.709-.72-1.621a8.193,8.193,0,0,0-.867-1.407A5.05,5.05,0,0,0,81.351,27a2.948,2.948,0,0,0-.675-.45l-.18-.09H80.36l-.248-.079h-.135a2,2,0,0,0-.687,0,3.039,3.039,0,0,0-.72.248,6.279,6.279,0,0,0-.653.394,10.721,10.721,0,0,0-.957.8c-.236.2-.371.338-.371.338a2.61,2.61,0,0,1,.1-.506,4.028,4.028,0,0,1,.574-1.249,3.5,3.5,0,0,1,1.6-1.362,2.982,2.982,0,0,1,1.328-.191l.383.056.248.068h.27l.293.135a3.489,3.489,0,0,1,1.024.765,4.074,4.074,0,0,1,.709.979,5.211,5.211,0,0,1,.54,1.913,4.659,4.659,0,0,1-.146,1.879" transform="translate(9.655 3.112)" fill="#f7cadb"/>
      <path id="Trazado_22562" data-name="Trazado 22562" d="M61.2,36.86a9.138,9.138,0,0,0-2.667-1.722,3.837,3.837,0,0,0-.7-.214,2.78,2.78,0,0,0-.675-.09,3.241,3.241,0,0,0-.664,0h-.326s-.225.068-.338.113a.81.81,0,0,0-.293.124,1.847,1.847,0,0,0-.248.135,2.982,2.982,0,0,0-.473.371,3.151,3.151,0,0,0-.7,1.035,4.772,4.772,0,0,0-.36,1.294,4.625,4.625,0,0,0,0,1.305l.518,3.883L52.19,40.056a10.252,10.252,0,0,0-.63-.844l-.7-.833a16.254,16.254,0,0,0-1.519-1.531,8.125,8.125,0,0,0-1.767-1.193,4.051,4.051,0,0,0-2.116-.439,3.658,3.658,0,0,1,2.33-.248,7.09,7.09,0,0,1,2.251.9,11.886,11.886,0,0,1,1.924,1.407,9.825,9.825,0,0,1,.855.822c.281.293.529.574.8.9l-1.564.72A5.1,5.1,0,0,1,51.9,37.76a5.526,5.526,0,0,1,.158-.945,5.255,5.255,0,0,1,.833-1.789,4.907,4.907,0,0,1,.687-.765,3.872,3.872,0,0,1,.878-.563,4.908,4.908,0,0,1,.979-.349l.461-.079h.5a4.963,4.963,0,0,1,1.891.405,4.669,4.669,0,0,1,.8.473,5.548,5.548,0,0,1,1.283,1.227A5.886,5.886,0,0,1,61.2,36.86" transform="translate(5.75 4.169)" fill="#f7cadb"/>
      <path id="Trazado_22563" data-name="Trazado 22563" d="M59.895,29.128a8.441,8.441,0,0,0-.81-2.87,3.714,3.714,0,0,0-.36-.619,4.13,4.13,0,0,0-.45-.529,2.667,2.667,0,0,0-.54-.416,3.05,3.05,0,0,0-.585-.27l-.326-.079h-.99a2.364,2.364,0,0,0-.608.135,2.251,2.251,0,0,0-.551.259,3.376,3.376,0,0,0-.5.405,3.523,3.523,0,0,0-.405.5,3.6,3.6,0,0,0-.326.574,4.12,4.12,0,0,0-.248.585l-.81,2.577-.54-2.679c-.079-.371-.191-.777-.3-1.125s-.259-.765-.405-1.125-.326-.743-.506-1.125a6.416,6.416,0,0,0-.608-1,4.727,4.727,0,0,0-.732-.833l-.405-.326-.45-.248a3.05,3.05,0,0,0-.957-.225h-.506c-.146,0-.394,0-.461.068l-.608.2a1.519,1.519,0,0,0-.45.236l-.2.113-.191.169a1.823,1.823,0,0,0-.371.349,3.579,3.579,0,0,0-.574.878l-.191.518-.135.551a8.2,8.2,0,0,0-.056,2.352,8.383,8.383,0,0,0,.214,1.182,4.119,4.119,0,0,0,.36.979l-.765.7a5.8,5.8,0,0,0-.585-.6,6.438,6.438,0,0,0-1.4-.968,3.737,3.737,0,0,0-.777-.27h-.822a1.688,1.688,0,0,0-.394.1,1.024,1.024,0,0,0-.394.169,2.408,2.408,0,0,0-.36.225l-.349.293a2.128,2.128,0,0,0-.3.326l-.293.349L38.1,28.2a2.815,2.815,0,0,1,.236-.394l.3-.36a1.609,1.609,0,0,1,.36-.315,1.418,1.418,0,0,1,.405-.27,2.353,2.353,0,0,1,.461-.191,3.3,3.3,0,0,1,1-.113,4.783,4.783,0,0,1,.968.2,4.963,4.963,0,0,1,.9.394,9.1,9.1,0,0,1,.822.518,7.721,7.721,0,0,1,.754.63l-.754.7a3.984,3.984,0,0,1-.709-1.339,9.181,9.181,0,0,1-.338-1.328,8.137,8.137,0,0,1-.1-2.836l.124-.709.236-.7a5.459,5.459,0,0,1,.754-1.305,3.072,3.072,0,0,1,.54-.54l.293-.259.349-.2A5.627,5.627,0,0,1,46,19.213a7.272,7.272,0,0,1,.8-.146l.383-.056h.394a4.22,4.22,0,0,1,1.531.349l.675.383c.214.146.394.326.585.484a6.213,6.213,0,0,1,.945,1.125,10.264,10.264,0,0,1,1.238,2.465c.146.428.281.855.394,1.294a12.042,12.042,0,0,1,.281,1.328l-1.351-.09a4.5,4.5,0,0,1,.371-.81,6.155,6.155,0,0,1,.5-.709,5.266,5.266,0,0,1,.6-.63,4.771,4.771,0,0,1,.732-.518,4.5,4.5,0,0,1,.844-.326,3.376,3.376,0,0,1,.889-.1h.461l.383.079h.18a1.271,1.271,0,0,1,.236.068l.416.146a3.714,3.714,0,0,1,.732.439,3.815,3.815,0,0,1,.608.6,5.244,5.244,0,0,1,.45.7,6.122,6.122,0,0,1,.315.743,7.754,7.754,0,0,1,.315,3.106" transform="translate(4.799 2.381)" fill="#f7cadb"/>
      <path id="Trazado_22564" data-name="Trazado 22564" d="M8.91,43.112l12.819,73.614s30.994,10.061,63.586,0L96.007,43.1a9.622,9.622,0,0,0-8.013-4.58A9.937,9.937,0,0,0,79.8,43.1c-2.138-4.209-10.872-7.574-16.172,0a16.049,16.049,0,0,0-22.441,0c-2.7-3.624-9.937-8.283-16.679,0-3.309-5.391-11.254-7.023-15.6,0" transform="translate(1.166 4.816)" fill="#e543a0"/>
      <path id="Trazado_22565" data-name="Trazado 22565" d="M23.457,42.306H23.4l-.349.405-.281.338,6.753,75.921a124.8,124.8,0,0,0,12.47,1.711L39.516,43.026l-.079.079c-2.611-3.5-9.442-7.957-15.992-.8" transform="translate(2.905 4.823)" fill="#f95db6"/>
      <path id="Trazado_22566" data-name="Trazado 22566" d="M55.2,120.994a106.513,106.513,0,0,0,12.38-1.418l6.527-76.664a1.725,1.725,0,0,0-.124.18c-2.138-4.209-10.872-7.574-16.172,0l-.146-.135Z" transform="translate(6.972 4.836)" fill="#f95db6"/>
      <path id="Trazado_22567" data-name="Trazado 22567" d="M42.348,76.9a2.51,2.51,0,0,1-5.008,0V62.161a2.51,2.51,0,0,1,5.008,0Z" transform="translate(4.732 7.499)" fill="#2e2f30"/>
      <path id="Trazado_22568" data-name="Trazado 22568" d="M41.02,45.244c.574.788-.585,2.588-2.577,4.007s-4.074,1.947-4.637,1.125.6-2.588,2.588-4.018,4.074-1.936,4.626-1.125" transform="translate(4.271 5.621)" fill="#2e2f30"/>
      <path id="Trazado_22569" data-name="Trazado 22569" d="M59.228,51.335c-.7.675.113,2.645,1.823,4.412S64.7,58.4,65.4,57.728s-.113-2.645-1.823-4.412-3.646-2.656-4.344-1.981" transform="translate(7.446 6.407)" fill="#2e2f30"/>
      <path id="Trazado_22570" data-name="Trazado 22570" d="M62.115,69.589c-3.376-2.7-7.979-2.6-10.647,0C50.4,70.636,49.9,69.4,50.455,68.34a6.246,6.246,0,0,1,5.627-3.376,7.327,7.327,0,0,1,6.685,3.084c.912,1.35.822,2.712-.619,1.576" transform="translate(6.349 8.14)" fill="#2e2f30"/>
      <path id="Trazado_22571" data-name="Trazado 22571" d="M27.88,76.97A70.453,70.453,0,0,0,34.655,89.2c4.907,7,12.031,13.978,18.716,13.032C65.12,100.57,69.127,74.224,69.127,69.43c0,0-1.2,13.9-19.537,16.184C33.1,87.651,27.914,77,27.914,77" transform="translate(3.546 8.704)" fill="#2e2f30"/>
      <path id="Trazado_22572" data-name="Trazado 22572" d="M43.375,97.575a11.536,11.536,0,0,0,8.081,2.251c3.219-.45,6-2.881,7.979-6.111a8.216,8.216,0,0,0-8.756-4.5c-4.5.6-7.788,4.322-7.3,8.351" transform="translate(5.483 11.171)" fill="#e84c76"/>
      <path id="Trazado_22573" data-name="Trazado 22573" d="M47.487,121.17s-9.386,1-8.531,4.423,6.539,1.688,9-.608,4.22-4.671-.473-3.815" transform="translate(4.928 15.171)" fill="#e543a0"/>
      <path id="Trazado_22574" data-name="Trazado 22574" d="M59.971,122.544a9.938,9.938,0,0,0,5.391,5.942c4.232,1.812,5.222-1.125,2.87-3.455s-10.748-7.056-8.261-2.487" transform="translate(7.513 15.125)" fill="#e543a0"/>
      <path id="Trazado_22575" data-name="Trazado 22575" d="M9.119,12.169a3.309,3.309,0,0,1,.225-4.851c2.543-2.532,6.933-2.994,6.235.923,2.082-1.609,4.389,4.164,2.318,4.851-.236,3.466-3.466,4.851-6.246,3.7-4.625,3.916-6.876-3.7-2.532-4.625" transform="translate(0.901 0.669)" fill="#efa8c9"/>
      <path id="Trazado_22576" data-name="Trazado 22576" d="M61.49,2.948A2.566,2.566,0,0,1,63.9.056c2.757-.383,5.627,1.373,3.376,3.478,2.048,0,.777,4.625-.833,4.085a3.376,3.376,0,0,1-5.627-.63c-4.693.27-2.566-5.526.585-4.04" transform="translate(7.334 -0.003)" fill="#efa8c9"/>
      <path id="Trazado_22577" data-name="Trazado 22577" d="M17.281,96.18a63.364,63.364,0,0,1-6.955-2.048C5.25,92.286,2.369,91.026,1.5,88.854a4.051,4.051,0,0,1,.169-3.376C4.935,78.725,18.1,75.349,19.6,75l.293,2.453c-3.59.923-13.854,4.817-15.947,9.138a.709.709,0,0,0,0,.653c.99,2.51,9.217,5.3,14.405,6.449Zm2.611-18.007-.146-1.564Z" transform="translate(0.201 9.403)" fill="#e543a0"/>
      <path id="Trazado_22578" data-name="Trazado 22578" d="M15.989,92.673s-3.455,2.42-6.336,2.172c-2.6-.225-2.543,2.465.191,2.8a6.336,6.336,0,0,0,4.727-1.6A8.531,8.531,0,0,1,9.157,99.2c-1.6.293-1.328,2.4.3,2.656,1.294.191,3.826-.3,6.145-3.815,0,0-.1,1.778-3.286,4.5-1.125.968,1.429,3.466,3.961-.349s3.894-10.05,1.193-10.624Z" transform="translate(1.02 11.481)" fill="#e543a0"/>
      <path id="Trazado_22579" data-name="Trazado 22579" d="M80.273,93.891c5.177-1.125,13.4-3.95,14.405-6.46a.754.754,0,0,0,0-.653c-2.1-4.31-12.38-8.2-15.958-9.093l.315-2.465c1.5.371,14.631,3.781,17.917,10.478a2.633,2.633,0,0,1,.169,2.656c-.855,2.172-3.748,4.119-8.823,5.965a60.778,60.778,0,0,1-6.955,2.037ZM78.72,78.349h0l.158-1.564Z" transform="translate(9.922 9.431)" fill="#e543a0"/>
      <path id="Trazado_22580" data-name="Trazado 22580" d="M81.79,92.874s3.433,2.42,6.336,2.161c2.611-.225,2.543,2.465-.191,2.8a6.291,6.291,0,0,1-4.727-1.6,8.486,8.486,0,0,0,5.425,3.151c1.6.293,1.328,2.4-.315,2.656-1.283.191-3.826-.3-6.145-3.815,0,0,.1,1.778,3.286,4.5,1.125.968-1.429,3.466-3.961-.349S77.614,92.334,80.3,91.76Z" transform="translate(9.936 11.505)" fill="#e543a0"/>
    </g>
  </g>
</svg>
