<svg xmlns="http://www.w3.org/2000/svg" width="284.743" height="428.198" viewBox="0 0 284.743 428.198">
  <g id="Persojanes-02" transform="translate(0 0)" style="isolation: isolate">
    <g id="Capa_1" data-name="Capa 1" transform="translate(0 0)">
      <path id="Trazado_22070" data-name="Trazado 22070" d="M12.63,184.953c0,11.035,42.495,19.977,94.9,19.977s94.9-8.941,94.9-19.977S159.926,165,107.619,165,12.63,173.918,12.63,184.953Z" transform="translate(17.147 223.269)" opacity="0.15" style="mix-blend-mode: multiply;isolation: isolate"/>
      <path id="Trazado_22071" data-name="Trazado 22071" d="M46.019,232.012l-8.259-1.176a949.608,949.608,0,0,0,14.447-104.5h8.4A962.675,962.675,0,0,1,46.019,232.012Z" transform="translate(51.147 170.963)" fill="#2af47a"/>
      <path id="Trazado_22072" data-name="Trazado 22072" d="M60.318,170.289S27.377,164.312,23.8,177.63c-2.871,10.565,30.589,4.824,41.342-3.271Z" transform="translate(32.024 228.615)" fill="#2af47a"/>
      <path id="Trazado_22073" data-name="Trazado 22073" d="M76.23,229.342A906.254,906.254,0,0,1,55.83,126h8.706c0,7.059,5.553,44.706,20.212,101.53Z" transform="translate(75.595 170.503)" fill="#2af47a"/>
      <path id="Trazado_22074" data-name="Trazado 22074" d="M69.324,169.491s32.941-8.188,37.271,4.541c3.459,10.094-30.589,7.059-42.095-.118Z" transform="translate(87.325 225.837)" fill="#2af47a"/>
      <path id="Trazado_22075" data-name="Trazado 22075" d="M76.466,76.29s17.906,51.13,37.153,50.189c16.471-.8,20.235-48.165,18.635-54.989L140,74.267s3.082,54.942-24.847,61.177c-23.859,5.412-45.059-47.977-44.706-53.6S74.513,69.066,76.466,76.29Z" transform="translate(95.359 96.753)" fill="#2af47a"/>
      <path id="Trazado_22076" data-name="Trazado 22076" d="M109.782,78.112s43.765-18.824,48.189-8.235S135.9,82.088,124.347,83.9c0,0,8.141,1.365,8.824,11.553s-18.518,13.2-27.836,4.071c-7.953-7.812-7.694-13.741-6.777-22.73.729-7.459-9.177-12.141-3.506-16.306C98.888,57.523,110.394,63.171,109.782,78.112Z" transform="translate(126.279 80.837)" fill="#2af47a"/>
      <path id="Trazado_22077" data-name="Trazado 22077" d="M55.093,153.462A205.725,205.725,0,0,1,33,146.921c-16.141-5.859-25.318-12.047-28.047-18.965a12.847,12.847,0,0,1,.541-10.588C15.846,96.05,57.7,85.2,62.458,84.05l.682,7.059c-11.412,2.824-43.765,15.953-50.448,29.671a2.353,2.353,0,0,0,0,2.071c3.153,7.977,28.871,18.283,45.342,21.953ZM63.4,94.027l-.471-4.988Z" transform="translate(5.555 113.746)" fill="#2af47a"/>
      <path id="Trazado_22078" data-name="Trazado 22078" d="M40.187,112.652s-10.894,7.694-20.141,6.894c-8.282-.729-8.071,7.835.588,8.918a20.188,20.188,0,0,0,15.059-5.106A27.106,27.106,0,0,1,18.446,133.4c-5.082.918-4.212,7.624.988,8.424,4.094.612,12.165-.965,19.553-12.118,0,0-.329,5.647-10.471,14.4-3.553,3.082,4.541,11.012,12.612-1.082,8.424-12.635,12.353-31.977,3.788-33.789Z" transform="translate(18.978 147.827)" fill="#2af47a"/>
      <path id="Trazado_22079" data-name="Trazado 22079" d="M10.76,41.128S35.466,92.234,43.7,178.823c6.824,71.836-6.329,138.1,42.942,154.519,28.918,9.624,59.224-.871,70.589-35.718,10.753-32.8,10.682-70.589,4.706-135.413-4.447-48.965-21.694-131.766-27.294-147.554C132.055,6.869,19.889,16.657,10.76,41.128Z" transform="translate(14.617 16.314)" fill="#20c868"/>
      <path id="Trazado_22080" data-name="Trazado 22080" d="M7.587,71.03c5.247,3.718,13.765,3.2,20.188,1.271s52.965-22.612,85.2-28.494c28.494-5.224,36.918-4.894,46.753-7.271s16.777-9.977,14.541-20.047l-.682-2.776C171.235,3.664,161.824-.406,153.047.017c0,0-10.894-.8-49.812,6.024S22.387,31.359,14.928,34.559A24.918,24.918,0,0,0,2.081,45.406a19.906,19.906,0,0,0-1.2,14.847A16.824,16.824,0,0,0,7.587,71.03Z" transform="translate(0.025 0.013)" fill="#2af47a"/>
      <path id="Trazado_22081" data-name="Trazado 22081" d="M1.483,31.025c1.318-7.059,6.8-11.13,17.718-16,8.847-3.953-16.235,9.624-.682,28.777C23.272,49.684-1.928,49.566,1.483,31.025Z" transform="translate(1.634 19.429)" fill="#8bffb8"/>
      <path id="Trazado_22082" data-name="Trazado 22082" d="M29.87,100.2a98.566,98.566,0,0,0,41.906,8.377c42.518-1.035,57.224-22.424,59.577-3.953s.471,49.765-6.353,69.836c-5.412,16.165-19.53,35.765-38.612,37.177s-38.094-3.647-48.895-30.753C32.952,169.5,31.07,140.743,29.87,100.2Z" transform="translate(40.472 131.454)" fill="#088443"/>
      <path id="Trazado_22083" data-name="Trazado 22083" d="M62.537,121.117a5.153,5.153,0,0,0-5.859,4.071,4.847,4.847,0,0,0,3.929,5.765,5.106,5.106,0,0,0,5.859-4.071,4.894,4.894,0,0,0-3.929-5.765Z" transform="translate(76.605 163.81)" fill="#20c868"/>
      <path id="Trazado_22084" data-name="Trazado 22084" d="M71.467,109.991a9.412,9.412,0,0,0-10.612,7.388,8.824,8.824,0,0,0,7.059,10.471,9.412,9.412,0,0,0,10.612-7.388,8.8,8.8,0,0,0-7.059-10.471Z" transform="translate(82.146 148.7)" fill="#20c868"/>
      <path id="Trazado_22085" data-name="Trazado 22085" d="M61.3,68.726A5.577,5.577,0,0,1,57.96,75.5h0c-2.353.565-4.965-1.553-5.577-4.706L45.865,37.479A5.553,5.553,0,0,1,49.183,30.7h0c2.353-.565,4.965,1.553,5.577,4.706Z" transform="translate(61.794 41.446)" fill="#2e2f30"/>
      <path id="Trazado_22086" data-name="Trazado 22086" d="M70.7,66.737c.588,3.153-.8,6.118-3.059,6.588h0c-2.353.494-4.541-1.694-5.129-4.847L56.562,35.325c-.565-3.153.824-6.094,3.082-6.588h0c2.353-.471,4.541,1.694,5.106,4.847Z" transform="translate(76.415 38.823)" fill="#2e2f30"/>
      <path id="Trazado_22087" data-name="Trazado 22087" d="M27.14,78.14s2.024,23.671,3.129,49.553c1.365,31.083,2.494,55.906,7.718,67.648,3.2,7.224,11.106,15.577,17.906,17.671,0,0-6.682-18.824-8.682-62.212-1.788-38.518-1.224-61.012-1.224-61.012A106.965,106.965,0,0,1,27.14,78.14Z" transform="translate(36.778 105.75)" fill="#8bffb8"/>
      <path id="Trazado_22088" data-name="Trazado 22088" d="M49.156,20.3c-3.224,3.765-7.059,5.647-8.847,4.188s-.447-5.694,2.8-9.412,7.177-5.647,8.847-4.188S52.426,16.514,49.156,20.3Z" transform="translate(53.516 14.104)" fill="#2e2f30"/>
      <path id="Trazado_22089" data-name="Trazado 22089" d="M59.622,20.983c-3.247-2.847-4.706-6.541-3.2-8.259s5.294-.776,8.518,2.094,4.706,6.541,3.2,8.235S62.845,23.947,59.622,20.983Z" transform="translate(75.591 16.083)" fill="#2e2f30"/>
      <path id="Trazado_22090" data-name="Trazado 22090" d="M36.52,41.63s.588,1.153,1.765,3.035a58.824,58.824,0,0,0,5.435,7.247,50.189,50.189,0,0,0,9.412,8.494A40,40,0,0,0,59.3,63.842c1.082.494,2.235.941,3.341,1.318s2.353.776,3.577,1.059a46.731,46.731,0,0,0,7.177,1.247,47.861,47.861,0,0,0,7.059,0,47.249,47.249,0,0,0,6.588-.941,57.152,57.152,0,0,0,5.812-1.647c1.765-.612,3.341-1.271,4.706-1.859s2.588-1.247,3.577-1.741c1.929-1.082,3.082-1.671,3.082-1.671l-2.753,2.188c-.918.612-2.047,1.412-3.365,2.235a38.517,38.517,0,0,1-4.706,2.494,42.633,42.633,0,0,1-5.882,2.353c-1.082.353-2.212.565-3.341.871a24.67,24.67,0,0,1-3.577.565A42.165,42.165,0,0,1,65.25,69.254c-1.294-.353-2.541-.729-3.718-1.153s-2.353-.941-3.647-1.482a36.47,36.47,0,0,1-6.494-3.953,42.354,42.354,0,0,1-9.035-9.624,45.814,45.814,0,0,1-4.706-8.118A23.977,23.977,0,0,1,36.52,41.63Z" transform="translate(49.469 56.354)" fill="#2e2f30"/>
      <path id="Trazado_22091" data-name="Trazado 22091" d="M62.025,101.614c-1.506-.165-2.353,2.729-.494,2.988S64.284,101.849,62.025,101.614Z" transform="translate(81.87 137.5)" fill="#088443"/>
      <path id="Trazado_22092" data-name="Trazado 22092" d="M64.73,122.837a12.824,12.824,0,0,0-5.177-10.777c-3.906-2.494,1.6-4.706,7.577-4.377s-.8-5.177,5.177-6.377,10.377,5.977,10.377,5.977Z" transform="translate(78.859 136.912)" fill="#088443"/>
    </g>
  </g>
</svg>
