<svg xmlns="http://www.w3.org/2000/svg" width="181.032" height="161.738" viewBox="0 0 181.032 161.738">
  <g id="WILLY-04" transform="translate(-0.006 -0.004)" style="isolation: isolate">
    <g id="Capa_1" data-name="Capa 1" transform="translate(0.006 0.004)">
      <path id="Trazado_24072" data-name="Trazado 24072" d="M39.2,98.693a6.923,6.923,0,0,1-1.793-.248c-6.5-1.707-9.731-9.39-14.511-19.838l1.9-3.218c2.51,5.446,8.391,18.2,13.786,19.633a2.339,2.339,0,0,0,2.04-.333c3.295-2.143,5.728-10.653,6.5-15.51l1.707,1.033c-.23,1.485.239,13.427-5.762,17.337A6.94,6.94,0,0,1,39.2,98.693Z" transform="translate(-3.357 -11.04)" fill="#96a3ac"/>
      <path id="Trazado_24073" data-name="Trazado 24073" d="M16.074,81.05a5.659,5.659,0,0,0,6.573-7.6c-2.16-5.557-7.529-9.68-13.308-12.787-4.917-2.629-7.862-2.3-8.886-.734-1.707,2.612,1.707,4.319,6.214,6.206,3.414,1.434,6.231,2.757,7.9,4.268,0,0-4.038-2.561-5.583,2.433-.393,1.272.282,2.177,1.255,3.466-3.278,1.357-1.033,4.268.367,5.275C11.849,82.476,14.512,83.483,16.074,81.05Z" transform="translate(-0.006 -8.6)" fill="#96a3ac"/>
      <g id="Grupo_346" data-name="Grupo 346" transform="translate(61.071 146.373)" opacity="0.15" style="mix-blend-mode: multiply;isolation: isolate">
        <path id="Trazado_24074" data-name="Trazado 24074" d="M184.431,179.162c0,4.268-25.275,7.682-56.449,7.682S71.55,183.43,71.55,179.162s25.258-7.682,56.432-7.682S184.431,174.937,184.431,179.162Z" transform="translate(-71.55 -171.48)"/>
      </g>
      <path id="Trazado_24075" data-name="Trazado 24075" d="M113.928,172.57c-2.561-9.279-5-20.9-5.028-21.024l3.184-.666c0,.12,2.45,11.652,4.985,20.828Z" transform="translate(-15.947 -22.091)" fill="#96a3ac"/>
      <path id="Trazado_24076" data-name="Trazado 24076" d="M114.7,174.286s-6.095-1.033-10.4-.1c-3.773.811-7.051,4.2-1.707,4.78,6.317.691,13.581-1.989,13.436-3.116C115.813,174.294,114.7,174.286,114.7,174.286Z" transform="translate(-14.614 -25.446)" fill="#96a3ac"/>
      <path id="Trazado_24077" data-name="Trazado 24077" d="M146.464,172.4c-2.561-10.047-4.618-21.494-4.644-21.6l3.21-.58c0,.111,2.074,11.455,4.592,21.391Z" transform="translate(-20.766 -21.993)" fill="#96a3ac"/>
      <path id="Trazado_24078" data-name="Trazado 24078" d="M148.508,174.08a27.733,27.733,0,0,1,8.075.435c3.8.854,6.906,4.823,2.441,5.557s-11.532-2.962-11.882-4.268S148.508,174.08,148.508,174.08Z" transform="translate(-21.538 -25.47)" fill="#96a3ac"/>
      <path id="Trazado_24079" data-name="Trazado 24079" d="M169.776,80.6c-1.946,15.365,10.329,28.015.085,38.259a68.57,68.57,0,0,1-56.876,19.582c-37.337-4.55-45.053-36.483-40.376-73.487s30.662-41.622,55.638-36.406C148.948,32.856,174.471,43.6,169.776,80.6Z" transform="translate(-10.455 -3.922)" fill="#f353af"/>
      <path id="Trazado_24080" data-name="Trazado 24080" d="M120.774,78.66,112.238,146.1l-.649-.06a67.828,67.828,0,0,1-49.8-31.916Z" transform="translate(-9.05 -11.519)" fill="#8d45b6"/>
      <path id="Trazado_24081" data-name="Trazado 24081" d="M60.282,110.419A66.889,66.889,0,0,1,54.6,51.52L119.1,74.653Z" transform="translate(-7.363 -7.546)" fill="#1675ce"/>
      <path id="Trazado_24082" data-name="Trazado 24082" d="M119.8,67.713,55.13,45.016A68.289,68.289,0,0,1,98.007,3.94Z" transform="translate(-8.075 -0.58)" fill="#20c868"/>
      <path id="Trazado_24083" data-name="Trazado 24083" d="M127.117,67.171,105,3.466a68.733,68.733,0,0,1,58.7,7.452Z" transform="translate(-15.376 -0.004)" fill="#f8dd41"/>
      <path id="Trazado_24084" data-name="Trazado 24084" d="M198.018,62.8,130.89,69.018,167.322,12.68a67.324,67.324,0,0,1,30.7,50.115Z" transform="translate(-19.166 -1.86)" fill="#ff9400"/>
      <path id="Trazado_24085" data-name="Trazado 24085" d="M197.975,70.86a66.342,66.342,0,0,1-.179,15.271,67.136,67.136,0,0,1-19.7,39.624L130.89,77.51Z" transform="translate(-19.166 -10.377)" fill="#f32732"/>
      <path id="Trazado_24086" data-name="Trazado 24086" d="M109.564,28.168l18.105-15.7,9.987,19.343a42.766,42.766,0,1,1-28.092-3.645Z" transform="translate(-11.08 -1.829)" fill="#d8d7d6"/>
      <path id="Trazado_24087" data-name="Trazado 24087" d="M118.234,113.888A44.106,44.106,0,0,1,108.716,26.7l17.849-15.467a1.323,1.323,0,0,1,2.057.393l9.791,18.993a44.106,44.106,0,0,1-20.179,83.3ZM127.026,14.4,110.2,28.911a1.408,1.408,0,0,1-.6.3,41.434,41.434,0,0,0,3.619,81.673,40.97,40.97,0,0,0,5.011.3,41.443,41.443,0,0,0,18.592-78.447,1.272,1.272,0,0,1-.589-.572Z" transform="translate(-10.846 -1.599)" fill="#fff"/>
      <path id="Trazado_24088" data-name="Trazado 24088" d="M148.6,22.943c-.589.751.324,2.458,2.04,3.816s3.585,1.861,4.174,1.11-.324-2.441-2.04-3.807S149.188,22.226,148.6,22.943Z" transform="translate(-21.732 -3.313)" fill="#2e2f30"/>
      <path id="Trazado_24089" data-name="Trazado 24089" d="M125.6,14.561c.5.854-.649,2.475-2.561,3.551s-3.858,1.229-4.353.333.649-2.475,2.561-3.542S125.109,13.674,125.6,14.561Z" transform="translate(-17.363 -2.051)" fill="#2e2f30"/>
      <path id="Trazado_24090" data-name="Trazado 24090" d="M103.12,61.252s4.166,12.505,7.409,22.032,5.122,13.282,10.081,15.177c6.948,2.655,27.375-.657,31.464-42.68,0,0-4.951,22.458-29.023,19.846A24.652,24.652,0,0,1,103.12,61.252Z" transform="translate(-15.101 -8.169)" fill="#2e2f30"/>
      <path id="Trazado_24091" data-name="Trazado 24091" d="M164.527,58.111a2.56,2.56,0,0,0-.051-.6,3.329,3.329,0,0,0-1.443-2.211c-3.073-2.151-7.375.8-9.313,3.261C156.87,57.266,162.077,53.928,164.527,58.111Z" transform="translate(-22.508 -7.99)" fill="#2e2f30"/>
      <path id="Trazado_24092" data-name="Trazado 24092" d="M140.3,59.764a3.116,3.116,0,0,0,2.971,3.363h0a3.244,3.244,0,0,0,3.414-3.133l.589-14.341a3.261,3.261,0,0,0-3.133-3.414h0a3.15,3.15,0,0,0-3.244,3.21Z" transform="translate(-20.542 -6.187)" fill="#2e2f30"/>
      <path id="Trazado_24093" data-name="Trazado 24093" d="M117.527,59.5a3.141,3.141,0,0,0,2.766,3.474h0a3.15,3.15,0,0,0,3.244-3.03L124.6,45.624a3.141,3.141,0,0,0-2.749-3.474h0a3.15,3.15,0,0,0-3.252,3.022Z" transform="translate(-17.207 -6.174)" fill="#2e2f30"/>
      <path id="Trazado_24094" data-name="Trazado 24094" d="M122.12,102.583v.051c.4.2.854.393,1.272.572,4.268,1.63,13.658,1,21.187-9.5a11.66,11.66,0,0,0-9.569-5.216C128.1,88.5,122.325,94.807,122.12,102.583Z" transform="translate(-17.882 -12.958)" fill="#ed696b"/>
      <path id="Trazado_24095" data-name="Trazado 24095" d="M204.6,123.144c2.561,4.2,6.129,14.614-4.592,14.93-7.315.213-15.126-4.635-20.64-9.023,1.093-1.374,1.886-2.023,2.979-3.414a41.391,41.391,0,0,0,11.951,7.307c1.784.691,4.661,1.63,6.872,1.434s5.608-2.817-3.833-14.563a11.355,11.355,0,0,1-1.3-1.349,19.437,19.437,0,0,0,2.015-3.7,48.792,48.792,0,0,1,6.547,8.374Z" transform="translate(-26.263 -16.805)" fill="#96a3ac"/>
      <path id="Trazado_24096" data-name="Trazado 24096" d="M181.7,129.556s-2.894,1.033-3.773,2.877c-2.236,4.72-1.776,11.874-5.344,10.354-4.063-1.707-.077-9.219,3.824-13.188a12.19,12.19,0,0,0-4.14,3.594c-2.885,3.568-4.959,7.682-7.128,5.352-1.861-2.006-.145-5.907,3.295-8.536a12.3,12.3,0,0,1,7-2.749,8.45,8.45,0,0,0-5.318.5c-5.523,2.143-8.169,1.775-8.135-.58,0-2.2,4.046-4.558,9.176-3.892,3.022.393,6.829,1.622,8.818,3.414a4.268,4.268,0,0,1,1.724,2.851Z" transform="translate(-23.717 -18.035)" fill="#96a3ac"/>
    </g>
  </g>
</svg>
