<svg xmlns="http://www.w3.org/2000/svg" width="128.644" height="143.911" viewBox="0 0 128.644 143.911">
  <g id="Persojanes-15" style="isolation: isolate">
    <g id="Capa_1" data-name="Capa 1" transform="translate(0 0)">
      <path id="Trazado_22382" data-name="Trazado 22382" d="M7.293,83.051c0-.144-.12-.3-.168-.456a7.08,7.08,0,0,1-1.38.12,2.135,2.135,0,0,1-2.111-1.2C1.571,77.4,6.405,69.747,8.4,67.2L6,65.26a37.322,37.322,0,0,0-3.779,6c-2.4,4.8-2.831,8.7-1.38,11.625A5.231,5.231,0,0,0,5.553,85.8h.084A10.041,10.041,0,0,0,8.4,85.534,25.278,25.278,0,0,1,7.293,83.051Z" transform="translate(-0.005 13.03)" fill="#4d96da"/>
      <path id="Trazado_22383" data-name="Trazado 22383" d="M104.524,114.56c0,4.475-20.214,8.1-45.143,8.1s-45.131-3.6-45.131-8.1,20.214-8.11,45.131-8.11S104.524,110.085,104.524,114.56Z" transform="translate(2.84 21.254)" opacity="0.15" style="mix-blend-mode: multiply;isolation: isolate"/>
      <path id="Trazado_22384" data-name="Trazado 22384" d="M35.209,109.812a6.825,6.825,0,0,0-2.183-.084c-3.935.324-11.2,1.5-9,4.007C27.039,117.178,38.184,111.936,35.209,109.812Z" transform="translate(4.71 21.898)" fill="#4d96da"/>
      <path id="Trazado_22385" data-name="Trazado 22385" d="M69.778,115.746l-3.263-.96c-1.6-7.378-3.143-15.1-3.755-19.05l2.183-2.2C65.063,93.648,67.331,106.592,69.778,115.746Z" transform="translate(12.525 18.676)" fill="#4d96da"/>
      <path id="Trazado_22386" data-name="Trazado 22386" d="M66.373,110.59s14.492.6,11.469,4.079S63.362,112.737,66.373,110.59Z" transform="translate(13.146 22.081)" fill="#4d96da"/>
      <path id="Trazado_22387" data-name="Trazado 22387" d="M33.657,114.858l-2.147-1.883c4.523-5.159,9.849-19.075,9.909-19.194l2.651,1.008C43.842,95.364,38.5,109.3,33.657,114.858Z" transform="translate(6.286 18.724)" fill="#4d96da"/>
      <path id="Trazado_22388" data-name="Trazado 22388" d="M89.724,83.116c6.358-.924,17.083-4.8,18.475-7.7a1,1,0,0,0,0-.792c-2.135-5.4-14.732-8.985-18.979-10.377l.648-3.035c1.764.576,16.531,4.307,20.538,12.38A3.083,3.083,0,0,1,110.3,76.9c-1.2,2.543-5.494,5.075-11.781,6.838-4.391,1.2-8.4,2.543-8.59,2.567ZM89.28,64.245h0l.324-1.883Z" transform="translate(17.808 12.222)" fill="#4d96da"/>
      <path id="Trazado_22389" data-name="Trazado 22389" d="M91.743,80.894s3.911,3.239,7.438,3.2c3.167,0,2.843,3.2-.48,3.359a7.642,7.642,0,0,1-5.566-2.4A10.341,10.341,0,0,0,99.4,89.363c1.9.492,1.38,3.011-.624,3.167-1.572.12-4.583-.708-7.066-5.159,0,0,0,2.147,3.6,5.77,1.272,1.272-2.039,4.055-4.8-.78-2.843-5.039-3.767-12.488-.468-12.932Z" transform="translate(17.552 15.859)" fill="#4d96da"/>
      <path id="Trazado_22390" data-name="Trazado 22390" d="M1.15,60.427A60.355,60.355,0,1,0,61.509.06,60.352,60.352,0,0,0,1.15,60.427Z" transform="translate(0.224 0.013)" fill="#1675ce"/>
      <path id="Trazado_22391" data-name="Trazado 22391" d="M26.638,92.131c-1.284,10.8,22.925,12.452,29.787,12.452a60.5,60.5,0,0,0,20.934-3.731c3.443-1.272,11.037-5.195,3.6-8.134-3.695-1.464-9.069,0-11.877-3.695-2.231-2.951-.684-6.118-5.3-7.51-2.639-.8-6.742,0-9.153,1.056-3.167,1.428-2.855,2-5.926,1.044s-4.439-2.759-7.306-.756c-2.531,1.776-3.407,5.518-6,7.414C32.588,92.323,29.757,91.112,26.638,92.131Z" transform="translate(5.303 16.21)" fill="#4d96da"/>
      <path id="Trazado_22392" data-name="Trazado 22392" d="M95.936,25.52a9.093,9.093,0,0,1,0,6.346c-1.452,3.083,6.706,11.061,1.811,17.995C93.873,55.307,91.4,55.115,91.582,62s4.175,7.2,4.895,7.978-.72,3.8.36,6A10.881,10.881,0,0,1,98.54,80a60.474,60.474,0,0,0-2.651-54.4Z" transform="translate(18.277 5.096)" fill="#4d96da"/>
      <path id="Trazado_22393" data-name="Trazado 22393" d="M55.693,0A60.738,60.738,0,0,0,30.8,5.387c1.4,1.943,5.159,3.6,9.189,3.191,4.319-.444,5.794-2.159,7.474-1.763s3.6,3.047,5.722,2.7c1.6-.252,6.646,2.279,3.767,4.8-1,.876-3.6,1.092-6.622,1.2,0,0,2.039,2.207,6.946,2.159s2.147-3.311,8.122-3.719,4.535-4.355,3.695-5.47,5.83,0,7.342-3.107c.228-.48,2.315-.108,4.907.468A57.859,57.859,0,0,0,55.693,0Z" transform="translate(6.144 0.001)" fill="#4d96da"/>
      <path id="Trazado_22394" data-name="Trazado 22394" d="M47.85,36.94A2.4,2.4,0,0,1,45.6,39.484h0a2.4,2.4,0,0,1-2.183-2.615l.156-9.765a2.4,2.4,0,0,1,2.267-2.543h0a2.4,2.4,0,0,1,2.171,2.615Z" transform="translate(8.66 4.904)" fill="#2e2f30"/>
      <path id="Trazado_22395" data-name="Trazado 22395" d="M60.541,37.144a2.4,2.4,0,0,1-2.255,2.543h0A2.4,2.4,0,0,1,56.1,37.048l.156-9.765a2.4,2.4,0,0,1,2.267-2.543h0A2.4,2.4,0,0,1,60.7,27.355Z" transform="translate(11.193 4.94)" fill="#2e2f30"/>
      <path id="Trazado_22396" data-name="Trazado 22396" d="M36.91,36.114C41.181,43.108,49.3,45.855,57,44.811A22.242,22.242,0,0,0,75.779,28.16c-.444,9.525-8.985,17.179-17.995,18.295a21.822,21.822,0,0,1-9.873-.564,18,18,0,0,1-11-9.777Z" transform="translate(7.364 5.623)" fill="#2e2f30"/>
      <path id="Trazado_22397" data-name="Trazado 22397" d="M47.556,8.937c.528.768-.564,2.4-2.4,3.707s-3.827,1.68-4.355.9.576-2.4,2.4-3.707S47.064,8.158,47.556,8.937Z" transform="translate(8.114 1.704)" fill="#2e2f30"/>
      <path id="Trazado_22398" data-name="Trazado 22398" d="M64.519,18.422c-.492.8-2.459.468-4.379-.732s-3.083-2.819-2.591-3.6,2.4-.468,4.391.732S65.023,17.666,64.519,18.422Z" transform="translate(11.462 2.729)" fill="#2e2f30"/>
      <path id="Trazado_22399" data-name="Trazado 22399" d="M21.558,71C18.907,75.523,10.221,81.8,5.627,81.629a2.135,2.135,0,0,1-2.111-1.2,4.2,4.2,0,0,1-.408-1.3,6.682,6.682,0,0,0-1.859,1.62c-.216.264-.444.54-.648.84l.108.24a5.231,5.231,0,0,0,4.715,2.915h.1c3.815.132,8.242-2.5,10.545-4.067a28.432,28.432,0,0,0,8.194-8.11Z" transform="translate(0.114 14.176)" fill="#4d96da"/>
      <path id="Trazado_22400" data-name="Trazado 22400" d="M34.889,66.528c-1.2-1.5-3.143-2.291-6-2.543a12.692,12.692,0,0,0-5.566.588,5.171,5.171,0,0,0-2.087,1.344c-1.452,1.632-1.2,3.683.552,2.879a9.873,9.873,0,0,1,5.83-1.38,9,9,0,0,1,4.475,1.308,3.071,3.071,0,0,0,2.4.348,1.68,1.68,0,0,0,.4-2.543Z" transform="translate(4.046 12.758)" fill="#4d96da"/>
      <path id="Trazado_22401" data-name="Trazado 22401" d="M17.631,73.051c.18-2.279,2.039-7.27,6.442-8.661,0,0,3.731,3.155,2.147,7.2S17.415,75.811,17.631,73.051Z" transform="translate(3.514 12.857)" fill="#4d96da"/>
    </g>
  </g>
</svg>
