<svg xmlns="http://www.w3.org/2000/svg" width="148" height="30" viewBox="0 0 148 30">
  <g id="Grupo_440" data-name="Grupo 440" transform="translate(-0.227 1.448)">
    <rect id="Rectángulo_442" data-name="Rectángulo 442" width="17" height="24" rx="6" transform="translate(0.226 3.551)" fill="#fff"/>
    <rect id="Rectángulo_449" data-name="Rectángulo 449" width="17" height="24" rx="6" transform="translate(75.226 3.551)" fill="#fff"/>
    <rect id="Rectángulo_445" data-name="Rectángulo 445" width="17" height="24" rx="6" transform="translate(37.226 3.551)" fill="#fff"/>
    <rect id="Rectángulo_447" data-name="Rectángulo 447" width="17" height="24" rx="6" transform="translate(112.226 3.551)" fill="#fff"/>
    <rect id="Rectángulo_443" data-name="Rectángulo 443" width="17" height="24" rx="6" transform="translate(19.226 3.551)" fill="#fff"/>
    <rect id="Rectángulo_448" data-name="Rectángulo 448" width="17" height="24" rx="6" transform="translate(94.226 3.551)" fill="#fff"/>
    <rect id="Rectángulo_444" data-name="Rectángulo 444" width="16" height="24" rx="6" transform="translate(57.226 3.551)" fill="#fff"/>
    <rect id="Rectángulo_446" data-name="Rectángulo 446" width="16" height="24" rx="6" transform="translate(132.226 3.551)" fill="#fff"/>
    <text id="_1" data-name="1" transform="translate(9.227 22.551)" fill="#1675ce" font-size="20" font-family="SegoeUI, Segoe UI"><tspan x="-5.391" y="0">1</tspan></text>
    <text id="_2" data-name="2" transform="translate(28.227 22.551)" fill="#1675ce" font-size="22" font-family="SegoeUI, Segoe UI"><tspan x="-5.93" y="0">2</tspan></text>
    <text id="_3" data-name="3" transform="translate(46.227 22.551)" fill="#1675ce" font-size="22" font-family="SegoeUI, Segoe UI"><tspan x="-5.93" y="0">3</tspan></text>
    <text id="_4" data-name="4" transform="translate(64.227 20.551)" fill="#1675ce" font-size="20" font-family="SegoeUI, Segoe UI"><tspan x="-5.391" y="0">4</tspan></text>
    <text id="_5" data-name="5" transform="translate(84.227 22.551)" fill="#1675ce" font-size="22" font-family="SegoeUI, Segoe UI"><tspan x="-5.93" y="0">5</tspan></text>
    <text id="_6" data-name="6" transform="translate(103.227 22.551)" fill="#1675ce" font-size="21" font-family="SegoeUI, Segoe UI"><tspan x="-5.66" y="0">6</tspan></text>
    <text id="_7" data-name="7" transform="translate(121.227 22.551)" fill="#1675ce" font-size="22" font-family="SegoeUI, Segoe UI"><tspan x="-5.93" y="0">7</tspan></text>
    <text id="_8" data-name="8" transform="translate(140.227 21.551)" fill="#1675ce" font-size="21" font-family="SegoeUI, Segoe UI"><tspan x="-5.66" y="0">8</tspan></text>
  </g>
</svg>
