<svg xmlns="http://www.w3.org/2000/svg" width="53" height="52.612" viewBox="0 0 53 52.612">
  <g id="Grupo_546" data-name="Grupo 546" transform="translate(-79.923 -275.231)">
    <path id="Trazado_26983" data-name="Trazado 26983" d="M92.128,323.239l-.059-.269c-.028-.123-.056-.251-.083-.38l-.031-.144c-.083-.391-.167-.782-.248-1.173-.049-.238-.1-.476-.145-.714L91.449,320c-.058-.284-.116-.569-.168-.854-.022-.123-.034-.248-.046-.373,0-.058-.01-.117-.016-.177l-.006-.049c-.019-.167-.038-.333-.062-.5-.007-.05-.018-.1-.028-.15a2.529,2.529,0,0,1-.044-.268,6.1,6.1,0,0,0-.243-1.109l-.06-.213h-.354a.51.51,0,0,1-.28-.036,1.467,1.467,0,0,1-.163-.1l-.071-.044c-.023-.013-.046-.027-.068-.041a.473.473,0,0,0-.061-.037,4.411,4.411,0,0,1-.672-.2,4.553,4.553,0,0,0-.521-.164c-.172-.04-.342-.087-.513-.135-.142-.04-.284-.079-.427-.114l-.21-.048a5.881,5.881,0,0,1-.735-.2,1.558,1.558,0,0,0-.218-.055c-.071-.014-.143-.029-.213-.049l-.23-.064a7,7,0,0,1-.758-.238,3.718,3.718,0,0,0-.742-.211,1.018,1.018,0,0,1-.25-.084l-.109-.048a.929.929,0,0,0-.308-.1.585.585,0,0,1-.232-.069.5.5,0,0,1-.293-.6.283.283,0,0,0,0-.13.943.943,0,0,1,.034-.429c.042-.142.091-.282.138-.422l.072-.212q.067-.2.13-.411.114-.373.225-.746l.114-.385c.059-.2.117-.4.18-.606.259-.844.5-1.537.754-2.181l.053-.132a6.643,6.643,0,0,0,.385-1.172v0a3.9,3.9,0,0,1-.778-.618c-.071-.067-.142-.135-.215-.2a4.724,4.724,0,0,0-.525-.418c-.217-.147-.421-.31-.618-.467l-.027-.022c-.105-.084-.207-.171-.309-.26-.081-.069-.162-.138-.244-.206l-.2-.166c-.231-.186-.471-.379-.694-.6l-.009-.008a4.121,4.121,0,0,0-.4-.331c-.085-.064-.17-.129-.252-.2-.114-.094-.227-.191-.338-.287l-.21-.18c-.092-.079-.184-.158-.273-.24a2.968,2.968,0,0,1-.292-.3.5.5,0,0,1-.117-.37.488.488,0,0,1,.186-.328,3,3,0,0,0,.354-.355,3.3,3.3,0,0,1,.5-.482c.236-.172.465-.355.7-.536l.264-.208c.15-.117.3-.236.445-.361l.117-.1a9.046,9.046,0,0,1,1.024-.8.613.613,0,0,0,.075-.051,3.667,3.667,0,0,1,.4-.387l.108-.1a1.159,1.159,0,0,1,.421-.274l.013-.013a.961.961,0,0,1,.07-.067l.985-.846.114-.1-.115-.2c-.115-.2-.224-.383-.348-.557-.294-.409-.575-.832-.846-1.242-.225-.34-.451-.679-.685-1.014-.486-.693-.9-1.434-1.306-2.151l-.132-.233c-.052-.092-.108-.182-.162-.272l-.147-.242a1.26,1.26,0,0,1-.141-.272.733.733,0,0,0-.159-.277.484.484,0,0,1,.1-.779.985.985,0,0,1,.348-.138,10.051,10.051,0,0,0,1.6-.452c.676-.242,1.307-.441,1.932-.614a.773.773,0,0,1,.381-.019.71.71,0,0,0,.313-.022q.778-.175,1.553-.355a.44.44,0,0,0,.073-.025l.076-.027a4.1,4.1,0,0,1,.991-.23,3.636,3.636,0,0,0,.855-.215l.115-.038c0-.067,0-.129-.005-.19s0-.117-.005-.176a18.529,18.529,0,0,1,.055-2.005l.028-.437c.01-.171.035-.336.059-.5l.019-.122a18.745,18.745,0,0,0,.15-1.96,10.859,10.859,0,0,1,.21-1.922,1.658,1.658,0,0,1,.062-.205.9.9,0,0,0,.042-.139c.022-.128.034-.258.045-.388l.01-.113a.634.634,0,0,1,.563-.637,1.558,1.558,0,0,1,.708.036c.133.034.265.07.4.1.34.091.694.186,1.04.254a8.435,8.435,0,0,1,1.512.5c.114.046.228.088.343.132l.237.09a1.594,1.594,0,0,1,.216.1,1.523,1.523,0,0,0,.455.17,1.256,1.256,0,0,1,.638.3.759.759,0,0,0,.188.091L97,280.6c.106.042.213.079.321.117s.2.069.294.106.183.074.275.114.163.07.245.1c.353.137.706.269,1.06.4a1.114,1.114,0,0,1,.314-.491c.322-.333.634-.663.945-.994q.413-.438.828-.873c.629-.655,1.265-1.3,1.9-1.954.241-.245.5-.507.769-.757.172-.159.349-.313.528-.466l.254-.221c.036-.031.071-.064.106-.1l.133-.123a1.2,1.2,0,0,1,.174-.142.554.554,0,0,1,.425-.084.571.571,0,0,1,.36.266l.113.177c.059.091.117.181.174.273a8.317,8.317,0,0,0,.709.931l.03.036a15.1,15.1,0,0,1,1.16,1.508,1.156,1.156,0,0,1,.137.276,1.746,1.746,0,0,0,.284.5c.111.153.213.314.314.475l.147.233a.6.6,0,0,0,.033.051l.342.464c.368.5.736,1,1.108,1.494a.572.572,0,0,0,.088.106l.019-.013.071-.047.269-.168c.1-.061.27-.2.368-.263,0,0,.445-.322.561-.373.188-.085.43-.314.62-.4l.275-.189q.276-.119.551-.242c.385-.171.782-.346,1.182-.505a9.9,9.9,0,0,0,.956-.456c.288-.15.587-.305.9-.436l.4-.165c.091-.038.181-.076.269-.119.057-.026.111-.055.165-.085a2.573,2.573,0,0,1,.409-.189,2.861,2.861,0,0,1,.532-.108l.1-.014a.464.464,0,0,1,.415.159.437.437,0,0,1,.082.418c-.017.05,0,.108.034.239a3.36,3.36,0,0,1,.129.593,7.052,7.052,0,0,0,.172.866c.049.2.1.406.136.611.005.028.013.057.02.085a1.365,1.365,0,0,1,.043.223,5.616,5.616,0,0,0,.206.994c.035.129.07.257.1.388.06.246.126.491.193.736s.14.517.2.778c.056.232.1.467.15.7.035.176.07.351.11.525.067.3.146.6.226.895a2.181,2.181,0,0,1,.066.507,1.291,1.291,0,0,0,.084.5l.016.008c.073.029.142.058.213.08a1.181,1.181,0,0,0,.26.055,1.647,1.647,0,0,0,.337-.007,2.445,2.445,0,0,1,.686.019l.783.114c.5.073,1.006.146,1.508.221.385.058.771.119,1.154.19a3.117,3.117,0,0,1,.355.093c.052.016.1.032.154.046l.08.023c.086.023.171.049.257.064.22.043.44.083.66.123.418.077.836.153,1.251.242l.2.04a2.94,2.94,0,0,1,1.007.329.189.189,0,0,0,.112,0,.493.493,0,0,1,.424.086.521.521,0,0,1,.19.415.838.838,0,0,1-.054.3.969.969,0,0,1-.139.248,8.458,8.458,0,0,0-.623,1.016c-.078.143-.156.285-.237.425l-.01.018.093.135L129,292.2c-.1.159-.2.313-.295.472-.367.634-.727,1.271-1.088,1.908l-.1.183q-.385.679-.764,1.362c-.123.221-.242.446-.36.67l-.022.04a3.231,3.231,0,0,1-.376.587.759.759,0,0,0-.124.247,1.674,1.674,0,0,1-.183.391c.166.117.334.234.5.347.188.126.376.25.566.373.15.1.3.2.451.3.062.042.123.086.183.131s.112.084.171.121a.936.936,0,0,0,.194.108,2.594,2.594,0,0,1,.694.367c1.134.786,2.1,1.505,2.959,2.2.07.057.135.118.2.181.043.04.085.081.13.12.164.14.331.276.5.411.054.044.111.085.167.128.088.067.177.132.261.2a.672.672,0,0,1,.263.491.645.645,0,0,1-.218.49,6.563,6.563,0,0,1-.673.58c-.183.135-.373.258-.563.382-.119.078-.237.155-.354.235-.081.055-.159.116-.236.176s-.138.107-.21.158c-.135.1-.273.19-.411.284l-.269.185c-.122.086-.245.171-.371.251l.054.205-.218.137c-.032.019-.064.039-.094.058a1.266,1.266,0,0,1-.3.159,2.8,2.8,0,0,0-.617.34c-.087.058-.174.115-.264.171-.108.065-.21.139-.311.213a4.3,4.3,0,0,1-.479.313,2.538,2.538,0,0,0-.3.2c-.07.052-.14.1-.212.151-.093.062-.189.12-.284.178l-.2.12-.007,0a1.536,1.536,0,0,1-.438.4,1.574,1.574,0,0,0,.031.19c.07.324.147.647.223.97a.158.158,0,0,0,.016.049.516.516,0,0,1,.295.533,2.831,2.831,0,0,0,.122.885c.019.082.04.165.058.247a19.865,19.865,0,0,0,.56,1.95c.042.129.076.261.105.394q.128.566.254,1.133l.133.6a.358.358,0,0,0,.011.051,2.565,2.565,0,0,1,.218.785,1.1,1.1,0,0,0,.07.213c.019.049.039.1.056.15l.049.142-.329.6-.229-.031a.837.837,0,0,0-.4.041,1.179,1.179,0,0,1-.432.048c-.439-.02-.878-.043-1.318-.073-.215-.013-.429-.029-.644-.045-.325-.024-.649-.049-.974-.065-.309-.016-.629-.014-.938-.013h-.106a.917.917,0,0,1-.469-.1,1.55,1.55,0,0,0-.59-.138l-.135-.016a12.91,12.91,0,0,0-1.4-.079,3.052,3.052,0,0,1-.35-.03.18.18,0,0,0-.094.06c0,.022-.009.058-.014.094l-.012.078c-.1.545-.218,1.1-.365,1.65a1.54,1.54,0,0,0-.035.247l-.006.067c-.006.055-.009.111-.011.165a2.742,2.742,0,0,1-.031.325c-.18,1.039-.361,2.079-.552,3.116l-.014.078a4.171,4.171,0,0,1-.224.868.958.958,0,0,0-.043.174c-.01.048-.019.1-.031.144a.679.679,0,0,1-.857.57,3.083,3.083,0,0,1-.541-.146q-1.107-.4-2.209-.8c-.111-.041-.222-.086-.332-.13s-.205-.083-.309-.122c-.213-.079-.426-.156-.64-.233-.258-.093-.516-.186-.773-.281-.148-.056-.294-.117-.439-.18l-.854-.353a1.264,1.264,0,0,1-.279-.138,2.21,2.21,0,0,0-.529-.236l-.137-.048-.04-.013v0a1.916,1.916,0,0,1-.438.516l-.1.1c-.393.378-.781.763-1.168,1.149l-.076.076c-.049.049-.093.1-.136.153l-.373.441c-.238.281-.476.562-.718.838a3.283,3.283,0,0,1-.357.334l-.07.058q-.279.238-.567.465a.855.855,0,0,1-.6.227,3.1,3.1,0,0,0-.639.712.651.651,0,0,0-.051.106l-.085.192-.216.082c-.07.026-.137.052-.2.078a.5.5,0,0,1-.588-.144,3.252,3.252,0,0,1-.263-.373l-.022-.039c-.087-.149-.139-.234-.224-.269a.572.572,0,0,1-.263-.241,1.626,1.626,0,0,1-.149-.274,4.522,4.522,0,0,0-.439-.766l-.062-.1a2.011,2.011,0,0,0-.144-.185c-.046-.055-.091-.111-.134-.168-.334-.45-.7-.888-1.064-1.312-.22-.26-.415-.533-.588-.772-.355-.492-.7-.989-1.054-1.487l-.064,0a1.151,1.151,0,0,0-.222.008,8.267,8.267,0,0,0-1.213.349c-.383.135-.768.263-1.154.391l-.3.1q-.259.085-.519.163c-.105.031-.213.059-.319.087l-.171.046c-.277.076-.556.129-.827.18a7.809,7.809,0,0,0-.929.213,6.93,6.93,0,0,1-.736.178,1.3,1.3,0,0,1-.953-.08Z"/>
    <path id="Trazado_26984" data-name="Trazado 26984" d="M115.318,292.471l.005-.022c-.64-.149-1.28-.291-1.918-.449a4.228,4.228,0,0,0-1.265-.126c-.384.022-.771-.01-1.157-.02-.052,0-.1-.012-.155-.016-.166-.015-.331-.039-.5-.04-.3,0-.6.015-.907.014a8.731,8.731,0,0,0-1.769.2.5.5,0,0,1-.215.014,1.058,1.058,0,0,0-.585.039c-.26.073-.516.167-.776.241a3.27,3.27,0,0,1-.927.263.36.36,0,0,0-.118.037l-1.173.435a7.086,7.086,0,0,0-1.018.477,16.918,16.918,0,0,0-2.355,1.593c-.169.138-.343.272-.51.412a10.287,10.287,0,0,0-1.112,1.008.746.746,0,0,0-.155.229.5.5,0,0,1-.19.238,1.124,1.124,0,0,0-.236.2c-.3.412-.649.79-.917,1.227-.147.241-.3.475-.438.722-.259.476-.508.957-.755,1.44a3.943,3.943,0,0,0-.369,1.19c-.111.71-.25,1.416-.376,2.124a4.071,4.071,0,0,1-.076.43,2.357,2.357,0,0,0-.083.619c-.006.5-.016,1,0,1.5q.025.688.106,1.372a6.606,6.606,0,0,0,.263,1.254c.109.337.219.676.31,1.018a5.67,5.67,0,0,0,.311.883q.383.841.82,1.654a12.786,12.786,0,0,0,1.3,1.949,13.678,13.678,0,0,0,1.535,1.6.663.663,0,0,1,.165.185.639.639,0,0,0,.328.319,1.066,1.066,0,0,1,.177.126c.337.246.661.511,1.013.733.414.263.846.5,1.277.73a14.736,14.736,0,0,0,1.856.745c.447.171.911.3,1.373.43a4.844,4.844,0,0,0,.917.181,7.378,7.378,0,0,0,1.309.077.437.437,0,0,1,.124.015,2.671,2.671,0,0,0,.81.022,1.469,1.469,0,0,1,.56.011.677.677,0,0,0,.216,0c.083,0,.166-.023.248-.019a5.684,5.684,0,0,0,1.059-.07,18.012,18.012,0,0,0,1.815-.328,8.253,8.253,0,0,0,1.5-.527c.085-.04.174-.07.26-.108a4.824,4.824,0,0,0,1.15-.623,8.285,8.285,0,0,1,.839-.6q1.12-.718,2.175-1.528a13.325,13.325,0,0,0,1.809-1.633c.132-.147.253-.3.382-.454s.261-.3.391-.446a1.371,1.371,0,0,0,.254-.311c.087-.2.2-.386.3-.581a19.056,19.056,0,0,0,1.129-2.611q.183-.548.358-1.1a2.55,2.55,0,0,0,.094-.4c.076-.5.156-1.009.211-1.516a8.312,8.312,0,0,0,.07-1.248,11.943,11.943,0,0,0-.325-2.477,5.02,5.02,0,0,1-.129-.707,1.426,1.426,0,0,0-.139-.444c-.056-.122-.109-.246-.155-.372-.1-.284-.192-.572-.3-.852-.184-.476-.367-.954-.572-1.421a6.938,6.938,0,0,0-.816-1.4c-.371-.49-.767-.963-1.123-1.464a7.288,7.288,0,0,0-.771-.9,20.922,20.922,0,0,0-2.558-2.248,4.55,4.55,0,0,0-1.055-.607c-.272-.1-.551-.192-.828-.287" transform="translate(-3.862 -4.171)" fill="#fff"/>
    <path id="Trazado_26985" data-name="Trazado 26985" d="M103.058,318.676c-.153-.067-.305-.139-.454-.221l-.092-.049c-.4-.217-.81-.441-1.2-.691-.255-.162-.5-.343-.727-.519-.1-.076-.2-.153-.3-.227-.023-.017-.046-.034-.067-.053a.364.364,0,0,0-.052-.04.967.967,0,0,1-.491-.478.906.906,0,0,0-.069-.066,14.166,14.166,0,0,1-1.591-1.657,13.283,13.283,0,0,1-1.333-2c-.29-.537-.569-1.1-.831-1.674a5.955,5.955,0,0,1-.329-.936c-.086-.325-.194-.655-.3-.974a7,7,0,0,1-.285-1.345c-.055-.47-.092-.941-.108-1.4s-.01-.9,0-1.33l0-.187a2.619,2.619,0,0,1,.1-.708,1.732,1.732,0,0,0,.043-.235c.008-.055.015-.109.025-.162q.059-.332.12-.665c.089-.483.178-.967.254-1.452a4.28,4.28,0,0,1,.4-1.29c.248-.486.5-.969.759-1.448.1-.175.2-.344.308-.514.046-.073.094-.147.138-.222a8.056,8.056,0,0,1,.6-.818c.114-.143.228-.285.335-.432a1.123,1.123,0,0,1,.258-.239l.046-.034c.064-.049.07-.066.075-.08a1.047,1.047,0,0,1,.221-.342,8.878,8.878,0,0,1,.977-.9l.169-.141c.1-.088.21-.171.317-.257l.2-.159a17.112,17.112,0,0,1,2.4-1.625,7.344,7.344,0,0,1,1.067-.5l1.173-.435a.562.562,0,0,1,.242-.058,1.34,1.34,0,0,0,.491-.129,3.258,3.258,0,0,1,.339-.12c.126-.036.251-.076.377-.117s.265-.085.4-.123a1.364,1.364,0,0,1,.767-.04s.023-.012.047-.016a9.013,9.013,0,0,1,1.847-.206c.141,0,.283,0,.424-.007.162,0,.322-.008.485-.007.126,0,.254.014.382.027l.141.014.078.009a.5.5,0,0,0,.059.007c.112,0,.228.007.343.013.272.011.528.022.783.007a4.552,4.552,0,0,1,1.364.135c.444.109.89.213,1.336.314l.908.211-.013.052c.184.062.367.125.549.193a5,5,0,0,1,1.134.65,21.137,21.137,0,0,1,2.6,2.283,7.491,7.491,0,0,1,.806.944c.218.305.456.608.688.9.144.183.289.367.43.553a7.32,7.32,0,0,1,.855,1.472c.192.435.365.884.533,1.317l.045.118c.066.17.125.343.184.516.039.115.078.229.12.343s.092.233.144.346a1.791,1.791,0,0,1,.168.547,4.908,4.908,0,0,0,.12.661,12.429,12.429,0,0,1,.337,2.546,8.765,8.765,0,0,1-.072,1.3c-.045.424-.11.849-.172,1.261l-.041.269a2.962,2.962,0,0,1-.105.446c-.116.37-.237.737-.359,1.1a19.676,19.676,0,0,1-1.149,2.657c-.039.076-.08.151-.121.226a3.7,3.7,0,0,0-.172.334,1.079,1.079,0,0,1-.24.328c-.024.024-.047.048-.069.073l-.172.2c-.073.082-.145.164-.216.248-.052.06-.1.121-.153.182-.077.094-.155.189-.236.278a13.384,13.384,0,0,1-1.853,1.675c-.7.54-1.443,1.06-2.2,1.544a8.117,8.117,0,0,0-.806.575,4.269,4.269,0,0,1-1.06.6l-.168.075c-.043.019-.088.037-.131.055s-.084.034-.124.052a8.709,8.709,0,0,1-1.561.549,18.532,18.532,0,0,1-1.85.334,5.926,5.926,0,0,1-1.121.073.545.545,0,0,0-.1.008c-.039,0-.078.009-.117.011l-.041,0a.748.748,0,0,1-.29-.016,1.043,1.043,0,0,0-.376,0l-.057.006a3.027,3.027,0,0,1-.911-.028l-.044-.009a4.461,4.461,0,0,1-.973-.039c-.124-.014-.248-.028-.371-.038a5.156,5.156,0,0,1-.982-.192c-.478-.132-.945-.265-1.4-.44-.171-.065-.343-.126-.515-.188-.306-.109-.62-.219-.928-.355m2.02-25.889-.039.016-1.173.435a6.724,6.724,0,0,0-.97.455,16.456,16.456,0,0,0-2.309,1.562l-.2.164c-.1.081-.2.162-.3.245l-.171.144a8.13,8.13,0,0,0-.905.831.661.661,0,0,0-.088.116.835.835,0,0,1-.3.4l-.057.041a.7.7,0,0,0-.111.092c-.113.155-.233.305-.352.455a7.422,7.422,0,0,0-.549.75c-.047.077-.1.153-.144.23-.1.156-.2.314-.287.477-.257.474-.5.953-.75,1.432a3.585,3.585,0,0,0-.335,1.089c-.078.491-.168.979-.257,1.469-.041.221-.082.441-.12.662-.009.045-.015.091-.022.136a2.238,2.238,0,0,1-.063.328,2,2,0,0,0-.07.53l0,.188c-.005.426-.011.869,0,1.3s.051.893.1,1.344a6.135,6.135,0,0,0,.249,1.19c.114.354.224.692.315,1.035a5.243,5.243,0,0,0,.292.83c.255.56.528,1.11.81,1.633a12.535,12.535,0,0,0,1.265,1.9,13.446,13.446,0,0,0,1.5,1.562.958.958,0,0,1,.242.289.308.308,0,0,0,.163.159.866.866,0,0,1,.2.13l.04.031c.1.076.208.155.312.233.231.174.45.34.682.487.375.238.777.456,1.165.667l.092.05a8.673,8.673,0,0,0,1.285.533c.177.064.354.126.53.193.43.165.881.293,1.342.421a4.563,4.563,0,0,0,.854.17c.132.01.264.025.4.04a3.989,3.989,0,0,0,.853.038.694.694,0,0,1,.216.018,2.372,2.372,0,0,0,.72.018l.054,0a1.587,1.587,0,0,1,.632.028s.015-.007.034-.008l.068-.006.075-.007a1.284,1.284,0,0,1,.207-.012,5.3,5.3,0,0,0,1-.067,17.639,17.639,0,0,0,1.783-.321,7.926,7.926,0,0,0,1.44-.506c.052-.024.1-.046.157-.067l.107-.045.172-.076a3.682,3.682,0,0,0,.9-.5,8.845,8.845,0,0,1,.872-.624c.74-.474,1.464-.982,2.152-1.511a12.842,12.842,0,0,0,1.763-1.592c.075-.083.146-.17.217-.256.053-.064.106-.129.161-.193.073-.085.148-.17.224-.255l.168-.191c.03-.035.062-.068.094-.1a.691.691,0,0,0,.1-.123,4.264,4.264,0,0,1,.2-.4c.037-.067.074-.135.11-.2a19.243,19.243,0,0,0,1.11-2.566c.121-.363.241-.727.355-1.093a2.374,2.374,0,0,0,.082-.344l.041-.271c.061-.4.125-.822.168-1.232a8.041,8.041,0,0,0,.069-1.2,11.853,11.853,0,0,0-.316-2.408,5.312,5.312,0,0,1-.138-.753,1.132,1.132,0,0,0-.111-.341c-.06-.131-.117-.264-.166-.4-.043-.117-.083-.236-.123-.355-.056-.163-.112-.328-.174-.489l-.046-.117c-.165-.427-.335-.867-.521-1.288a6.655,6.655,0,0,0-.776-1.336c-.138-.183-.281-.364-.423-.544-.236-.3-.48-.609-.706-.929a7,7,0,0,0-.736-.86,20.532,20.532,0,0,0-2.516-2.213,4.233,4.233,0,0,0-.977-.564c-.186-.071-.374-.134-.564-.2l-.444-.151-.347-.08c-.449-.1-.9-.207-1.345-.317a3.875,3.875,0,0,0-1.166-.117c-.287.016-.573,0-.85-.007-.111-.005-.222-.01-.334-.012a1.212,1.212,0,0,1-.129-.013l-.2-.021c-.105-.01-.21-.022-.316-.023-.153,0-.308,0-.462.007s-.295.007-.443.007a8.4,8.4,0,0,0-1.7.189.774.774,0,0,1-.374.008.749.749,0,0,0-.4.04c-.126.035-.251.076-.374.116s-.268.087-.4.124c-.092.026-.183.063-.272.1a1.965,1.965,0,0,1-.707.177m-.042,0h0Z" transform="translate(-3.749 -4.057)"/>
    <path id="Trazado_26986" data-name="Trazado 26986" d="M121.2,279.26a1.822,1.822,0,0,1,.257.649c.094.385.168.777.271,1.16.13.483.283.961.42,1.442.074.262.132.527.2.79.126.486.26.969.381,1.456.088.355.158.714.243,1.07.073.305.156.608.236.911a1.105,1.105,0,0,1,.069.43.366.366,0,0,0,.033.15,1.767,1.767,0,0,1,.07.172c.093.415.083.421-.165.673-.154.156-.3.319-.451.48a.585.585,0,0,1-.091.087,12.854,12.854,0,0,0-1.138,1.027c-.386.335-.748.7-1.117,1.054-.083.08-.155.171-.232.257a.259.259,0,0,1-.34.067,5.287,5.287,0,0,1-.565-.334c-.263-.189-.51-.4-.769-.595a2.838,2.838,0,0,0-.731-.418,6.9,6.9,0,0,1-.877-.416c-.434-.235-.893-.411-1.341-.611a1.2,1.2,0,0,1-.3-.169.931.931,0,0,0-.36-.182l-1.116-.315c-.392-.111-.782-.231-1.175-.331a9.9,9.9,0,0,0-1.571-.3c-.5-.044-1-.085-1.5-.132a5.316,5.316,0,0,0-1.312.047c-.289.045-.581.075-.872.1a10.191,10.191,0,0,0-2.275.436c-.667.214-1.321.467-1.975.718a8.828,8.828,0,0,0-.822.388c-.4.205-.792.427-1.193.629a8.063,8.063,0,0,0-1.253.831c-.257.2-.5.41-.748.62-.1.081-.18.174-.267.263-.124.127-.242.26-.373.381a1.043,1.043,0,0,1-.235.149.2.2,0,0,1-.257-.046.651.651,0,0,1-.086-.091,3.709,3.709,0,0,0-.858-.9,1.8,1.8,0,0,1-.2-.2c-.168-.186-.329-.377-.5-.564-.265-.3-.529-.592-.8-.883-.142-.153-.3-.295-.445-.441q-.378-.375-.758-.749a.319.319,0,0,1-.106-.248c.012-.721.014-1.443.027-2.164.005-.272.022-.543.047-.814.073-.759.151-1.519.23-2.278.05-.479.111-.955.155-1.434.031-.343.045-.688.065-1.032.016-.282.08-.331.352-.259a15.4,15.4,0,0,1,1.511.523c.293.111.582.233.872.352a2.082,2.082,0,0,0,.483.126,3.49,3.49,0,0,1,.632.177c.392.143.776.311,1.17.45q1.094.386,2.2.749c.3.1.6.171.905.258a.342.342,0,0,0,.412-.137c.073-.1.163-.192.236-.294a13.017,13.017,0,0,1,.922-1.067c.139-.156.275-.315.41-.474.3-.358.606-.72.914-1.076a6.031,6.031,0,0,1,.427-.458c.192-.18.347-.39.522-.584.285-.319.587-.624.887-.928a5.014,5.014,0,0,1,.558-.5,1.736,1.736,0,0,0,.3-.359c.189-.247.251-.257.449-.014.231.284.456.572.662.874.447.657.88,1.324,1.321,1.985a.694.694,0,0,0,.168.182,1.185,1.185,0,0,1,.273.3c.214.3.44.585.655.88.248.337.493.677.733,1.018a8.58,8.58,0,0,0,.65.882,3.732,3.732,0,0,1,.3.435.186.186,0,0,0,.27.069.163.163,0,0,0,.028-.015,11.849,11.849,0,0,1,1.158-.688c.507-.313,1.038-.587,1.557-.877.128-.072.253-.149.384-.214.486-.244.973-.483,1.459-.727.094-.046.18-.107.27-.159a13.581,13.581,0,0,1,1.363-.706c.267-.115.518-.272.778-.4.081-.042.17-.068.272-.109" transform="translate(-3.597 -0.284)" fill="#a80092"/>
    <path id="Trazado_26987" data-name="Trazado 26987" d="M139.084,320.907a.756.756,0,0,1-.15.052,2.708,2.708,0,0,1-.281.017c-.428.012-.855.012-1.283-.013-.575-.034-1.14-.144-1.711-.208a1.45,1.45,0,0,0-.559.013.89.89,0,0,1-.279.015c-.605-.028-1.211-.057-1.817-.093-.343-.021-.687-.057-1.031-.085-.187-.016-.374-.036-.562-.042a1.194,1.194,0,0,1-.842-.361c-.34-.34-.684-.675-1.027-1.013-.513-.506-1.025-1.015-1.541-1.519-.194-.19-.4-.369-.6-.556-.13-.123-.135-.177-.034-.325a1.013,1.013,0,0,1,.159-.194c.248-.223.5-.438.752-.662a3.9,3.9,0,0,0,.3-.317c.153-.173.3-.346.449-.525.112-.137.217-.281.321-.423.085-.119.16-.245.248-.362a12.7,12.7,0,0,0,.789-1.17c.133-.224.259-.453.4-.676a9.23,9.23,0,0,0,.684-1.479,11.835,11.835,0,0,0,.583-1.95,17.4,17.4,0,0,0,.287-1.731c.026-.259.035-.52.043-.781.013-.386.017-.772.024-1.158a1.116,1.116,0,0,0,0-.187c-.07-.486-.081-.98-.186-1.461-.079-.358-.165-.713-.25-1.069-.055-.233-.1-.469-.171-.7-.107-.361-.15-.736-.284-1.09q-.277-.734-.625-1.437c-.135-.272-.269-.544-.4-.819a13.375,13.375,0,0,0-1.042-1.749c-.238-.356-.5-.7-.749-1.045-.031-.043-.064-.083-.091-.127a.17.17,0,0,1,.01-.205,2,2,0,0,1,.165-.188c.247-.241.5-.473.744-.72.6-.613,1.247-1.177,1.8-1.832a3.772,3.772,0,0,1,.364-.344.3.3,0,0,1,.294-.064,15.857,15.857,0,0,0,2.224.375c.487.072.979.089,1.465.145a6.113,6.113,0,0,1,1.354.243,3.78,3.78,0,0,0,.45.131,1.7,1.7,0,0,0,.278.014,2.357,2.357,0,0,1,.309.019,5.119,5.119,0,0,1,.52.117,1.593,1.593,0,0,0,.649.08.089.089,0,0,1,.031,0c.4.088.8.165,1.19.272a1.215,1.215,0,0,0,.424.086.388.388,0,0,1,.108.029.6.6,0,0,1-.042.142c-.126.217-.256.43-.384.646-.273.459-.546.916-.816,1.375a1.232,1.232,0,0,0-.235.606.367.367,0,0,1-.056.144c-.088.177-.176.355-.269.53s-.2.367-.307.546c-.229.386-.462.77-.69,1.158a1.446,1.446,0,0,1-.286.368,1.054,1.054,0,0,0-.228.295c-.256.492-.513.982-.747,1.485-.141.3-.242.623-.36.936a.228.228,0,0,0,.078.281.65.65,0,0,1,.2.236.358.358,0,0,0,.1.12c.253.2.505.4.765.6s.506.372.766.545a4.77,4.77,0,0,0,.44.236,2.291,2.291,0,0,1,.221.114q.559.376,1.113.761c.48.334.96.667,1.434,1.009.263.189.516.394.77.594a.944.944,0,0,1,.179.175,1.349,1.349,0,0,0,.659.457,3.945,3.945,0,0,1,.45.216.629.629,0,0,1,.127.112.213.213,0,0,1-.154.2c-.475.225-.874.573-1.329.829-.119.067-.235.137-.354.2a2.562,2.562,0,0,0-.609.436,1.589,1.589,0,0,1-.361.248,1.819,1.819,0,0,0-.563.441.953.953,0,0,1-.242.2c-.429.28-.863.551-1.29.835-.208.138-.4.305-.6.448-.412.285-.831.561-1.247.841-.043.028-.092.049-.135.079a.273.273,0,0,0-.135.233c0,.1-.024.207-.022.31a1.2,1.2,0,0,0,.038.278c.076.293.167.582.234.877.122.529.222,1.063.347,1.592.084.355.195.7.293,1.056.059.212.131.421.175.635.094.453.3.869.429,1.309.161.529.385,1.038.527,1.574.04.151.068.305.109.457.026.1.064.194.1.308" transform="translate(-11.928 -4.3)" fill="#d60812"/>
    <path id="Trazado_26988" data-name="Trazado 26988" d="M122.6,328.878a.623.623,0,0,1,.006.105c-.086.621-.189,1.241-.255,1.863s-.156,1.223-.245,1.833c-.107.744-.207,1.489-.32,2.232-.058.382-.135.762-.207,1.141a.9.9,0,0,1-.06.152c-.084-.019-.154-.03-.221-.051-.289-.087-.579-.169-.863-.268-.563-.2-1.122-.4-1.682-.6a1.933,1.933,0,0,1-.206-.076c-.573-.284-1.195-.438-1.785-.679-.493-.2-.994-.385-1.491-.575-.293-.112-.587-.219-.88-.332a.433.433,0,0,0-.383.046,3.32,3.32,0,0,0-.862.664,1.127,1.127,0,0,0-.117.1,15.531,15.531,0,0,1-1.318,1.336c-.393.42-.807.816-1.23,1.206-.337.311-.664.635-.991.956-.12.117-.227.246-.341.368-.171.183-.342.367-.519.545-.114.114-.191.111-.287-.007-.126-.153-.243-.314-.37-.466-.114-.136-.245-.258-.353-.4-.263-.337-.516-.682-.776-1.023q-.19-.247-.388-.489a.518.518,0,0,0-.1-.072.648.648,0,0,1-.123-.094c-.227-.272-.452-.546-.676-.821-.027-.032-.049-.068-.077-.1-.507-.557-.947-1.17-1.419-1.754a1.709,1.709,0,0,1-.194-.285,2.115,2.115,0,0,0-.345-.4.164.164,0,0,0-.2-.035c-.2.084-.408.161-.611.245a5.647,5.647,0,0,1-1,.249,8.121,8.121,0,0,0-1.2.37c-.978.371-1.969.7-2.971,1-.26.078-.522.154-.783.225a1.142,1.142,0,0,1-.22.01c-.058-.526-.262-1-.311-1.514a2.58,2.58,0,0,0-.1-.458,1.571,1.571,0,0,1-.078-.617.463.463,0,0,0-.022-.154c-.088-.376-.188-.749-.263-1.127a9.658,9.658,0,0,1-.149-.993,9.213,9.213,0,0,0-.251-1.386,5.8,5.8,0,0,0-.17-.6.557.557,0,0,1,.151-.63q.71-.662,1.4-1.345c.29-.285.565-.587.849-.878.145-.15.289-.3.441-.444.246-.227.5-.444.751-.664.135-.117.192-.12.331-.019a1.574,1.574,0,0,1,.144.121c.287.26.571.522.857.78.094.084.193.161.291.238a4.457,4.457,0,0,0,.425.321,12.679,12.679,0,0,0,1.369.877,2.235,2.235,0,0,1,.223.115.434.434,0,0,0,.3.059.715.715,0,0,1,.672.161.27.27,0,0,0,.116.04c.14.037.284.066.421.112a.535.535,0,0,1,.21.123.5.5,0,0,0,.276.132c.184.038.368.076.548.127a19.956,19.956,0,0,0,2.229.516,2.01,2.01,0,0,1,.4.094,1.438,1.438,0,0,0,.519.094c.261,0,.523.027.783.019.365-.01.73-.051,1.095-.063a14.113,14.113,0,0,0,1.557-.172,1.621,1.621,0,0,0,.244-.056c.19-.056.376-.125.567-.174.456-.115.914-.222,1.371-.332.04-.01.082-.015.135-.024a.692.692,0,0,1,.092.071.189.189,0,0,0,.228.05c.212-.088.422-.18.633-.273a2.077,2.077,0,0,1,.225-.109c.562-.172,1.074-.462,1.615-.684.424-.174.831-.393,1.243-.6a.865.865,0,0,0,.221-.17,2.993,2.993,0,0,1,.607-.441.215.215,0,0,1,.311.031,1.858,1.858,0,0,1,.127.138,4.508,4.508,0,0,0,.323.34,5.558,5.558,0,0,1,.776.858,9.9,9.9,0,0,0,1.208,1.356c.156.139.322.267.483.4.1.086.214.167.314.259.052.048.117.111.123.172.012.13.131.122.207.2" transform="translate(-3.831 -12.303)" fill="#f07400"/>
    <path id="Trazado_26989" data-name="Trazado 26989" d="M84.344,317.872c.113-.454.209-.892.333-1.322.16-.551.347-1.1.517-1.645.049-.159.076-.324.12-.485a4.626,4.626,0,0,1,.138-.448,7.464,7.464,0,0,0,.37-1.1.676.676,0,0,1,.088-.233,1.772,1.772,0,0,0,.227-.645,4.53,4.53,0,0,1,.31-1.051.2.2,0,0,0-.037-.232.459.459,0,0,0-.141-.12.9.9,0,0,1-.306-.261,2.743,2.743,0,0,0-.325-.291c-.439-.354-.878-.709-1.324-1.055-.406-.314-.817-.617-1.2-.962s-.809-.694-1.222-1.032c-.161-.131-.345-.234-.516-.354-.128-.09-.255-.181-.376-.279a.122.122,0,0,1-.012-.171.759.759,0,0,1,.1-.116,13.756,13.756,0,0,1,1.313-1.116c.37-.273.715-.578,1.076-.864.319-.254.635-.51.965-.749a14.118,14.118,0,0,0,1.8-1.508,4,4,0,0,0,.4-.554.266.266,0,0,0-.01-.3c-.221-.39-.433-.787-.671-1.168-.177-.283-.388-.545-.586-.814-.658-.892-1.32-1.78-1.9-2.729-.2-.33-.391-.667-.594-1-.11-.177-.24-.342-.358-.513a1.3,1.3,0,0,1-.107-.192.123.123,0,0,1,.088-.193c.221-.066.441-.132.664-.186.609-.146,1.22-.286,1.831-.426.1-.023.207-.034.31-.051a1.012,1.012,0,0,0,.467-.161.851.851,0,0,1,.38-.135,11.842,11.842,0,0,0,1.379-.3c.71-.175,1.416-.362,2.122-.552.232-.062.457-.149.686-.222.079-.025.159-.05.241-.07a.211.211,0,0,1,.267.107c.1.225.3.342.467.5.385.368.777.729,1.158,1.1.62.607,1.233,1.221,1.849,1.832a1.383,1.383,0,0,1,.108.113.177.177,0,0,1,.011.255c-.07.1-.147.2-.222.3-.183.242-.369.482-.548.726-.074.1-.137.21-.2.318-.121.207-.239.417-.358.625-.016.027-.036.052-.049.08q-.394.836-.786,1.673c-.035.076-.06.156-.088.235-.111.3-.218.611-.333.914a8.638,8.638,0,0,0-.307,1.118.737.737,0,0,1-.135.346.316.316,0,0,0-.058.171q-.081,1.016-.155,2.032c0,.062.005.125,0,.188,0,.293-.02.585-.01.877.013.407.029.816.073,1.22a11.309,11.309,0,0,0,.341,1.657,1.465,1.465,0,0,1,.069.369,2.275,2.275,0,0,0,.18.791c.229.605.478,1.2.719,1.8a1.96,1.96,0,0,1,.17.536.575.575,0,0,0,.088.229c.266.45.545.892.807,1.345a8.065,8.065,0,0,0,1.036,1.413c.112.123.218.253.321.385s.108.2,0,.335a2.764,2.764,0,0,1-.255.275c-.443.428-.9.845-1.33,1.284-.536.543-1.048,1.108-1.58,1.654a4.188,4.188,0,0,1-.507.417.252.252,0,0,1-.177.028,18.313,18.313,0,0,1-2.008-.492c-.228-.074-.467-.117-.7-.181-.544-.151-1.086-.309-1.63-.458a14.63,14.63,0,0,0-1.858-.447c-.165-.022-.332-.03-.5-.049a.824.824,0,0,1-.131-.037" transform="translate(-0.26 -4.289)" fill="#ffd300"/>
    <path id="Trazado_26990" data-name="Trazado 26990" d="M108.56,318.513a7.72,7.72,0,0,1-4.508-3.628,4.052,4.052,0,0,1-.426-2.419l.1-.242.108.043c.275.11.019,1.3,1.087,2.742a7.3,7.3,0,0,0,3.913,2.785" transform="translate(-5.95 -9.313)"/>
    <path id="Trazado_26991" data-name="Trazado 26991" d="M110.513,319.444a6.848,6.848,0,0,0,4.593.592c1.765-.31,2.4-1.352,2.675-1.242l.109.043-.1.242q-.25.627-1.974,1.462c-1.738.479-2.042.78-5.578-.378" transform="translate(-7.633 -10.965)"/>
    <path id="Trazado_26992" data-name="Trazado 26992" d="M112.958,307.262c-.27.714-.864,1.151-1.326.976s-.617-.9-.347-1.609.864-1.151,1.327-.976.617.9.346,1.609" transform="translate(-7.862 -7.649)"/>
    <path id="Trazado_26993" data-name="Trazado 26993" d="M112.143,308.14c-.129.339-.411.546-.63.463s-.293-.425-.164-.764.41-.546.629-.463.293.425.165.764" transform="translate(-7.895 -8.088)" fill="#fff"/>
    <path id="Trazado_26994" data-name="Trazado 26994" d="M118.778,309.461c-.271.714-.864,1.152-1.326.976s-.617-.895-.347-1.609.864-1.152,1.327-.976.617.9.346,1.609" transform="translate(-9.327 -8.203)"/>
    <path id="Trazado_26995" data-name="Trazado 26995" d="M117.962,310.339c-.128.339-.41.546-.629.464s-.293-.426-.165-.765.41-.546.629-.463.293.425.165.764" transform="translate(-9.36 -8.642)" fill="#fff"/>
  </g>
</svg>
