<svg xmlns="http://www.w3.org/2000/svg" width="48.199" height="48.201" viewBox="0 0 48.199 48.201">
  <g id="Grupo_464" data-name="Grupo 464" transform="translate(11008.691 5156.601)">
    <g id="WILLY-08" transform="translate(-11008.691 -5156.601)">
      <path id="Trazado_24172" data-name="Trazado 24172" d="M18.241,49.977c0,5.537-4.861,9.467-1.73,13.545A24.051,24.051,0,0,0,35.6,72.915c13.3,0,17.439-10.976,17.439-24.286s-8.912-16.068-17.91-15.3C27.675,33.963,18.241,36.667,18.241,49.977Z" transform="translate(-11.504 -24.713)" fill="#8d45b6"/>
      <path id="Trazado_24173" data-name="Trazado 24173" d="M93.3,93.55v24.258h.228a24.051,24.051,0,0,0,18.9-9.157Z" transform="translate(-69.428 -69.614)" fill="#f353af"/>
      <path id="Trazado_24174" data-name="Trazado 24174" d="M112.354,93.067a23.979,23.979,0,0,0,5.273-15.034,24.248,24.248,0,0,0-.655-5.573L93.3,77.856Z" transform="translate(-69.428 -53.92)" fill="#f32732"/>
      <path id="Trazado_24175" data-name="Trazado 24175" d="M93.3,30.633l23.718-5.258A24.122,24.122,0,0,0,103.783,9Z" transform="translate(-69.428 -6.697)" fill="#ff9400"/>
      <path id="Trazado_24176" data-name="Trazado 24176" d="M63.182,23.945l10.6-21.61a24.138,24.138,0,0,0-20.937.1Z" transform="translate(-39.32 0)" fill="#f8dd41"/>
      <path id="Trazado_24177" data-name="Trazado 24177" d="M2.27,25.844l23.283,5.117L15.275,9.41A24.148,24.148,0,0,0,2.27,25.844Z" transform="translate(-1.689 -7.002)" fill="#20c868"/>
      <path id="Trazado_24178" data-name="Trazado 24178" d="M.616,73A24.076,24.076,0,0,0,5.155,93.3L23.871,78.258Z" transform="translate(0.001 -54.322)" fill="#1675ce"/>
      <g id="contento" transform="translate(8.305 3.728)">
        <path id="Trazado_24179" data-name="Trazado 24179" d="M54.643,22.453,49.692,16.44l-5.2,6.107a15.316,15.316,0,1,0,10.15-.095Z" transform="translate(-33.893 -15.961)" fill="#d8d7d6"/>
        <path id="Trazado_24180" data-name="Trazado 24180" d="M48.263,51.364a15.8,15.8,0,0,1-5.488-30.616l5.117-6.01a.455.455,0,0,1,.366-.169.491.491,0,0,1,.366.174l4.861,5.91a15.8,15.8,0,0,1-5.227,30.7Zm0-35.564-4.841,5.665a.512.512,0,0,1-.2.138,14.84,14.84,0,1,0,9.845-.09.461.461,0,0,1-.212-.148Z" transform="translate(-32.458 -14.569)" fill="#fff"/>
        <path id="Trazado_24181" data-name="Trazado 24181" d="M71.109,44.308c.136.31-.335.821-1.052,1.136s-1.412.32-1.535,0,.333-.819,1.049-1.136S70.971,43.991,71.109,44.308Z" transform="translate(-59.28 -36.522)" fill="#2e2f30"/>
        <path id="Trazado_24182" data-name="Trazado 24182" d="M109.322,44.849c-.154.3.289.839.988,1.19s1.392.4,1.535.092-.289-.837-.99-1.19S109.473,44.545,109.322,44.849Z" transform="translate(-89.633 -36.951)" fill="#2e2f30"/>
        <path id="Trazado_24183" data-name="Trazado 24183" d="M47.19,80.8c4.168,9.339,20.144,9.377,24.127-.141C68.086,90.853,50.629,90.8,47.19,80.8Z" transform="translate(-43.421 -63.75)" fill="#2e2f30"/>
        <path id="Trazado_24184" data-name="Trazado 24184" d="M42.9,81.5a.945.945,0,0,1,.023-.174,1.023,1.023,0,0,1,.207-.422,1,1,0,0,1,.256-.225c.947-.624,2.2.279,2.75,1.023C45.193,81.3,43.693,80.278,42.9,81.5Z" transform="translate(-40.228 -63.611)" fill="#2e2f30"/>
        <path id="Trazado_24185" data-name="Trazado 24185" d="M137.689,81.107c-.78-1.226-2.3-.2-3.229.21.555-.752,1.791-1.653,2.753-1.023a1.1,1.1,0,0,1,.256.223,1.115,1.115,0,0,1,.207.425A.726.726,0,0,1,137.689,81.107Z" transform="translate(-108.362 -63.32)" fill="#2e2f30"/>
        <path id="Trazado_24186" data-name="Trazado 24186" d="M74.849,71.992a1.169,1.169,0,0,1-1.169,1.169h0a1.169,1.169,0,0,1-1.169-1.169V66.847a1.164,1.164,0,0,1,1.169-1.167h0a1.164,1.164,0,0,1,1.169,1.167Z" transform="translate(-62.262 -52.603)" fill="#2e2f30"/>
        <path id="Trazado_24187" data-name="Trazado 24187" d="M108.326,71.992a1.169,1.169,0,0,1-1.167,1.169h0A1.169,1.169,0,0,1,106,71.992V66.847a1.167,1.167,0,0,1,1.172-1.167h0a1.164,1.164,0,0,1,1.167,1.167Z" transform="translate(-87.184 -52.603)" fill="#2e2f30"/>
      </g>
    </g>
  </g>
</svg>
