<svg id="Grupo_358" data-name="Grupo 358" xmlns="http://www.w3.org/2000/svg" width="515.273" height="87.636" viewBox="0 0 515.273 87.636">
  <g id="WILLY-08" transform="translate(0)">
    <path id="Trazado_24172" data-name="Trazado 24172" d="M20.517,63.694c0,10.067-8.839,17.212-3.145,24.627A43.727,43.727,0,0,0,52.084,105.4c24.19,0,31.707-19.956,31.707-44.155s-16.2-29.214-32.563-27.818C37.668,34.578,20.517,39.5,20.517,63.694Z" transform="translate(-8.268 -17.761)" fill="#8d45b6"/>
    <path id="Trazado_24173" data-name="Trazado 24173" d="M93.3,93.55v44.1h.414a43.728,43.728,0,0,0,34.363-16.649Z" transform="translate(-49.898 -50.032)" fill="#f353af"/>
    <path id="Trazado_24174" data-name="Trazado 24174" d="M127.942,109.926a43.6,43.6,0,0,0,9.587-27.334,44.086,44.086,0,0,0-1.191-10.132L93.3,82.271Z" transform="translate(-49.898 -38.753)" fill="#f32732"/>
    <path id="Trazado_24175" data-name="Trazado 24175" d="M93.3,48.331l43.123-9.56A43.858,43.858,0,0,0,112.359,9Z" transform="translate(-49.898 -4.813)" fill="#ff9400"/>
    <path id="Trazado_24176" data-name="Trazado 24176" d="M71.643,43.536,90.906,4.247a43.886,43.886,0,0,0-38.066.191Z" transform="translate(-28.259 0)" fill="#f8dd41"/>
    <path id="Trazado_24177" data-name="Trazado 24177" d="M2.27,39.289l42.332,9.3L25.915,9.41A43.9,43.9,0,0,0,2.27,39.289Z" transform="translate(-1.214 -5.032)" fill="#20c868"/>
    <path id="Trazado_24178" data-name="Trazado 24178" d="M1.121,73a43.774,43.774,0,0,0,8.252,36.912L43.4,82.56Z" transform="translate(0.001 -39.041)" fill="#1675ce"/>
    <g id="contento" transform="translate(15.099 6.778)">
      <path id="Trazado_24179" data-name="Trazado 24179" d="M71.216,27.372l-9-10.932-9.453,11.1a27.846,27.846,0,1,0,18.454-.172Z" transform="translate(-33.489 -15.57)" fill="#d8d7d6"/>
      <path id="Trazado_24180" data-name="Trazado 24180" d="M61.194,81.468A28.725,28.725,0,0,1,51.215,25.8l9.3-10.927a.828.828,0,0,1,.665-.307.893.893,0,0,1,.665.316l8.839,10.746a28.725,28.725,0,0,1-9.5,55.822Zm0-64.661-8.8,10.3a.93.93,0,0,1-.367.251,26.981,26.981,0,1,0,17.9-.163.837.837,0,0,1-.386-.27Z" transform="translate(-32.458 -14.569)" fill="#fff"/>
      <path id="Trazado_24181" data-name="Trazado 24181" d="M73.241,44.5c.247.563-.609,1.493-1.912,2.065s-2.568.581-2.791,0,.6-1.489,1.907-2.065S72.99,43.926,73.241,44.5Z" transform="translate(-51.735 -30.347)" fill="#2e2f30"/>
      <path id="Trazado_24182" data-name="Trazado 24182" d="M109.346,45.015c-.279.549.526,1.526,1.8,2.163s2.531.721,2.791.167-.526-1.521-1.8-2.163S109.621,44.462,109.346,45.015Z" transform="translate(-73.55 -30.655)" fill="#2e2f30"/>
      <path id="Trazado_24183" data-name="Trazado 24183" d="M47.19,80.916C54.768,97.9,83.814,97.965,91.057,80.66,85.182,99.193,53.442,99.091,47.19,80.916Z" transform="translate(-40.337 -49.916)" fill="#2e2f30"/>
      <path id="Trazado_24184" data-name="Trazado 24184" d="M42.9,82.347a1.717,1.717,0,0,1,.042-.316,1.861,1.861,0,0,1,.377-.768,1.814,1.814,0,0,1,.465-.409c1.721-1.135,4,.507,5,1.861C47.068,81.979,44.342,80.118,42.9,82.347Z" transform="translate(-38.043 -49.816)" fill="#2e2f30"/>
      <path id="Trazado_24185" data-name="Trazado 24185" d="M140.331,81.946c-1.419-2.228-4.187-.372-5.871.381,1.009-1.368,3.256-3.005,5.005-1.861a2,2,0,0,1,.465.4,2.027,2.027,0,0,1,.377.772A1.321,1.321,0,0,1,140.331,81.946Z" transform="translate(-87.01 -49.606)" fill="#2e2f30"/>
      <path id="Trazado_24186" data-name="Trazado 24186" d="M76.762,77.156a2.126,2.126,0,0,1-2.126,2.126h0a2.126,2.126,0,0,1-2.126-2.126V67.8a2.117,2.117,0,0,1,2.126-2.121h0A2.117,2.117,0,0,1,76.762,67.8Z" transform="translate(-53.878 -41.904)" fill="#2e2f30"/>
      <path id="Trazado_24187" data-name="Trazado 24187" d="M110.229,77.156a2.126,2.126,0,0,1-2.121,2.126h0A2.126,2.126,0,0,1,106,77.156V67.8a2.121,2.121,0,0,1,2.131-2.121h0a2.117,2.117,0,0,1,2.121,2.121Z" transform="translate(-71.789 -41.904)" fill="#2e2f30"/>
    </g>
  </g>
  <g id="Componente_1_1" data-name="Componente 1 – 1" transform="translate(106.74 21.872)">
    <path id="Trazado_26996" data-name="Trazado 26996" d="M34.62-25.339a12.3,12.3,0,0,1-1.964,6.882,12.8,12.8,0,0,1-5.6,4.654,20.34,20.34,0,0,1-8.464,1.648h-3.48V0H3.718V-37.811h15.5q7.989,0,11.694,3.032T34.62-25.339Zm-12.05.4a4.43,4.43,0,0,0-1.345-3.507,5.811,5.811,0,0,0-3.955-1.187H15.108V-20.3h2.558Q22.57-20.3,22.57-24.943ZM58.746,0,55.925-8.147A10.13,10.13,0,0,0,53.8-11.918a3.875,3.875,0,0,0-2.834-1.371H50.52V0H39.129V-37.811H54.264q7.937,0,11.72,2.6a8.822,8.822,0,0,1,3.784,7.792,9.858,9.858,0,0,1-2.2,6.539,12.547,12.547,0,0,1-6.552,3.823v.105a9.155,9.155,0,0,1,3.995,2.4,14.843,14.843,0,0,1,2.861,4.931L71.587,0ZM57.665-25.813a3.959,3.959,0,0,0-1.16-3.006,5.121,5.121,0,0,0-3.639-1.107H50.52v8.648h2.057a5.222,5.222,0,0,0,3.691-1.292A4.231,4.231,0,0,0,57.665-25.813ZM75.964,0V-37.811H99.51V-28.9H87.354v5.511H98.771v8.912H87.354v5.563H100.38V0Zm62.912-2.479A24.38,24.38,0,0,1,132.5-.3,36.631,36.631,0,0,1,124.4.659q-9.94,0-15.346-4.97t-5.405-13.935a20.76,20.76,0,0,1,2.729-10.679,17.712,17.712,0,0,1,7.686-7.093,26.3,26.3,0,0,1,11.681-2.426,43.466,43.466,0,0,1,10.521,1.4v9.94a22.368,22.368,0,0,0-5.01-1.648,27.826,27.826,0,0,0-5.247-.461,10.022,10.022,0,0,0-7.475,2.821,10.561,10.561,0,0,0-2.782,7.752,10.828,10.828,0,0,0,2.333,7.383A8.218,8.218,0,0,0,124.611-8.6a14.128,14.128,0,0,0,2.874-.211v-5.405h-7.251v-8.622h18.642Zm39.1-14.792q0,9.1-4.153,13.513T161.024.659q-8.068,0-12.248-4.417T144.6-17.06V-37.811h11.443v21.173a9.791,9.791,0,0,0,1.358,5.6,4.443,4.443,0,0,0,3.889,1.964,4.494,4.494,0,0,0,3.889-1.846,9.294,9.294,0,0,0,1.332-5.458V-37.811h11.47ZM211.412,0,198.07-18.246a43.487,43.487,0,0,1-2.584-3.9h-.105q.158,2.795.158,6.275V0H184.992V-37.811H195.75l12.788,17.35q.237.343.58.817t.686.976q.343.5.646.976a6,6,0,0,1,.461.844h.105a34.268,34.268,0,0,1-.158-4.008V-37.811h10.547V0Zm36.545-28.9V0H236.514V-28.9H225.94v-8.912h32.722V-28.9ZM286.9,0,285.24-6.961H273.955L272.162,0H259.849l13.025-37.811h14.133L299.268,0Zm-7.172-29.584h-.264A18.368,18.368,0,0,1,279.1-27.5q-.316,1.45-3.19,12.445h7.225l-2.637-10.283A32.519,32.519,0,0,1,279.729-29.584Zm59.616,10.2a20.861,20.861,0,0,1-2.413,10.165,16.626,16.626,0,0,1-6.9,6.816A21.567,21.567,0,0,1,319.7,0h-16V-37.811h15.662Q339.346-37.811,339.346-19.38Zm-12.1.105a10.882,10.882,0,0,0-1.121-4.983,8.107,8.107,0,0,0-3.2-3.428,9.574,9.574,0,0,0-4.9-1.213h-2.927V-8.912h3.19A8.209,8.209,0,0,0,324.8-11.72,11.12,11.12,0,0,0,327.243-19.274Zm53.394.264A20.932,20.932,0,0,1,378.185-8.82a17.483,17.483,0,0,1-6.855,6.987A19.67,19.67,0,0,1,361.468.659a19.688,19.688,0,0,1-9.69-2.413,17.074,17.074,0,0,1-6.79-6.776,19.976,19.976,0,0,1-2.426-9.875,21.79,21.79,0,0,1,2.452-10.389,17.421,17.421,0,0,1,6.882-7.132,20.019,20.019,0,0,1,10.072-2.518,19.457,19.457,0,0,1,9.716,2.413,16.448,16.448,0,0,1,6.618,6.882A21.576,21.576,0,0,1,380.637-19.011Zm-12.076.316a13.125,13.125,0,0,0-1.793-7.356,5.6,5.6,0,0,0-4.9-2.689,6.2,6.2,0,0,0-5.3,2.584q-1.9,2.584-1.9,7.3a12.02,12.02,0,0,0,1.885,7.2,6.014,6.014,0,0,0,5.128,2.584,5.871,5.871,0,0,0,3.56-1.16,7.431,7.431,0,0,0,2.452-3.322A13.745,13.745,0,0,0,368.561-18.694Zm43.69,7.251a10.921,10.921,0,0,1-2.017,6.565,11.955,11.955,0,0,1-5.656,4.166A24.874,24.874,0,0,1,395.824.659a28.593,28.593,0,0,1-10.863-2V-11.707A21.458,21.458,0,0,0,390.208-8.9a15.434,15.434,0,0,0,5.353,1.068,5.284,5.284,0,0,0,2.9-.672,2.2,2.2,0,0,0,1.028-1.964,2.663,2.663,0,0,0-.514-1.622,5.049,5.049,0,0,0-1.556-1.305,28.976,28.976,0,0,0-3.863-1.661q-9.123-3.507-9.123-11.338a10.594,10.594,0,0,1,4.166-8.767q4.166-3.283,11.18-3.283,1.978,0,3.639.158t3.019.4q1.358.237,3.81.9v9.624a19.469,19.469,0,0,0-9.387-2.61,5.793,5.793,0,0,0-3.059.712,2.191,2.191,0,0,0-1.16,1.951,2.447,2.447,0,0,0,.936,1.964,17.549,17.549,0,0,0,3.916,2.017q5.88,2.373,8.319,5.194A9.906,9.906,0,0,1,412.251-11.443Z" transform="translate(-3.718 38.443)" fill="#fff"/>
  </g>
</svg>
