<svg xmlns="http://www.w3.org/2000/svg" width="537.256" height="100.365" viewBox="0 0 537.256 100.365">
  <g id="Grupo_545" data-name="Grupo 545" transform="translate(-20.654 -275.231)">
    <g id="Grupo_540" data-name="Grupo 540" transform="translate(188.601 349.322)">
      <g id="Grupo_538" data-name="Grupo 538" transform="translate(161.7)">
        <g id="Grupo_536" data-name="Grupo 536" transform="translate(80.223 0.016)">
          <path id="Trazado_26907" data-name="Trazado 26907" d="M374.475,336.617A10.328,10.328,0,1,0,384.8,346.945,10.341,10.341,0,0,0,374.475,336.617Zm8.051,4.563a13.3,13.3,0,0,1-1.664.962,10.593,10.593,0,0,0-1.23-1.928,10.115,10.115,0,0,0,1.2-.863A9.924,9.924,0,0,1,382.526,341.18Zm-4.344-3.424a9.812,9.812,0,0,1,2.315,1.327,8.612,8.612,0,0,1-1.138.8,11.009,11.009,0,0,0-1.7-1.569A4.676,4.676,0,0,0,378.183,337.757Zm.8,2.343a9.364,9.364,0,0,1-1.738.725,15.442,15.442,0,0,0-.861-1.682,4.706,4.706,0,0,0,.94-.553A10.255,10.255,0,0,1,378.982,340.1Zm-1.223-2.5a3.352,3.352,0,0,1-.456.47,10.588,10.588,0,0,0-1.728-.96A9.844,9.844,0,0,1,377.759,337.6Zm-.8.739a4.573,4.573,0,0,1-.793.445,16.423,16.423,0,0,0-1-1.388A10.717,10.717,0,0,1,376.957,338.335Zm-2.273-.869a14.338,14.338,0,0,1,1.066,1.461,4.272,4.272,0,0,1-1.066.186Zm0,2.073a4.725,4.725,0,0,0,1.3-.239,14.256,14.256,0,0,1,.847,1.643,9.471,9.471,0,0,1-2.146.3Zm-.43-2.053v1.627a4.479,4.479,0,0,1-1.053-.186A15.254,15.254,0,0,1,374.254,337.485Zm-1.456,1.3a4.053,4.053,0,0,1-.8-.445,10.309,10.309,0,0,1,1.783-.937A13.374,13.374,0,0,0,372.8,338.78Zm.594-1.678a10.415,10.415,0,0,0-1.741.963,4.181,4.181,0,0,1-.459-.47A9.713,9.713,0,0,1,373.393,337.1Zm7.075,17.727a2.118,2.118,0,0,1-1.329-2.185c.075-.392.342-.22.514-.22a3.987,3.987,0,0,0,3.023-1.464,4.586,4.586,0,0,0-.293-6.287c-2.186-2.105-4.509-1.737-6.013.153a2.274,2.274,0,0,1-1.7.651c-.962-.036-.357.721-.357.878s-.144.268-.227.245c-.328-.1-.2.39-.2.535a.223.223,0,0,1-.205.22c-.4,0-.295.363-.281.464a.36.36,0,0,1-.159.342.887.887,0,0,0-.281.635c0,.437.4.74,1.074,1.243a1.584,1.584,0,0,1,.765,1.317,3.994,3.994,0,0,0,.2,1.253.86.86,0,0,1-.774,1.281,13.018,13.018,0,0,0-3.313,1.012,4.015,4.015,0,0,1-2.148.142,9.31,9.31,0,0,1-1.013-.821,1.567,1.567,0,0,1,.33-1.272,1.753,1.753,0,0,0,1.255.363,15.17,15.17,0,0,0,2.086-.3.566.566,0,0,1,.448,0,1.173,1.173,0,0,0,1.73-.852c.33-1.136-.448-.818-.544-.767s-.238.034-.185-.062c.146-.289-.075-.261-.193-.272a1.458,1.458,0,0,0-.867.429.3.3,0,0,1-.316.083c-.424-.209-1.672.1-2.061-.585a22.526,22.526,0,0,0-.5-3.412.5.5,0,0,1,.051-.449c.315-.477,1.194.033,1.666.025a.858.858,0,0,0,.822-.447c.151-.187.26-.081.34-.133.1-.069.006-.2.042-.278s.083-.034.174-.121-.011-.267.04-.338c.139-.212.519-.043.292-.6a.9.9,0,0,1,.217-.855c.276-.356,1.345-1.859-.538-3.415-1.784-1.487-3.606-1.367-4.772-.1s-.588,3.119-.466,3.606a1.032,1.032,0,0,1-.637,1.124,9.489,9.489,0,0,0-1.6,1.118,9.859,9.859,0,0,1,6.209-8.965,4.987,4.987,0,0,0,.525.561c-.418.3-1.316,1.1-1.316,1.1s.129.021.238.05c.081.016.249.068.249.068s.794-.67,1.164-.94a4.658,4.658,0,0,0,.942.549c-.182.308-.633,1.156-.633,1.156s.106.062.2.124a1.564,1.564,0,0,1,.151.116s.493-.93.68-1.237a4.813,4.813,0,0,0,1.283.239v1.7c-.246-.007-.866-.034-1.12-.058l-.156-.016.087.132a2.662,2.662,0,0,1,.164.285l.018.037h.042c.183.017.752.037.965.042v3.1h.43v-.709c.628-.027,1.153-.075,1.785-.129l.029,0,.552-.494-.3.027c-.666.091-1.253.13-1.785.161l-.278.014v-1.963a9.981,9.981,0,0,0,2.314-.324c.21.509.6,1.749.6,1.749l.4-.128s-.392-1.228-.593-1.741a9.785,9.785,0,0,0,1.852-.79,10.185,10.185,0,0,1,1.224,1.9c-.305.144-.857.34-.857.34a4.511,4.511,0,0,1,.777.153s.157-.069.262-.112c.035.089.113.266.113.266l.553.251-.064-.156-.22-.542a15.049,15.049,0,0,0,1.717-1,9.9,9.9,0,0,1-2.3,13.3Z" transform="translate(-359.346 -336.617)" fill="#009ddd"/>
          <g id="Grupo_534" data-name="Grupo 534" transform="translate(0 2.602)">
            <path id="Trazado_26908" data-name="Trazado 26908" d="M363.705,338.917l-.161.139c-.6.538-1.987,1.954-1.777,3.508l.022.109.07.308.193-.179a6.429,6.429,0,0,0,1.744-3.6l.066-.426Z" transform="translate(-359.843 -338.772)" fill="#009ddd"/>
            <path id="Trazado_26909" data-name="Trazado 26909" d="M361.129,341.145l-.072.19a6.838,6.838,0,0,0-.365,1.527,4.664,4.664,0,0,0,.791,3.56l.1.124.108.134.128-.659a13.028,13.028,0,0,0-.471-4.691l-.155-.372Z" transform="translate(-360.073 -338.319)" fill="#009ddd"/>
            <path id="Trazado_26910" data-name="Trazado 26910" d="M360.2,344.623l-.01.187c-.075,1.048-.025,3.622,2.058,4.987l.251.159-.012-.291a13.14,13.14,0,0,0-2.032-4.941l-.245-.3Z" transform="translate(-360.169 -337.6)" fill="#009ddd"/>
            <path id="Trazado_26911" data-name="Trazado 26911" d="M360.494,348.434l.036.175a6.548,6.548,0,0,0,3.875,4.578l.3.093-.107-.291a13.4,13.4,0,0,0-3.838-4.537l-.3-.193Z" transform="translate(-360.11 -336.806)" fill="#009ddd"/>
            <path id="Trazado_26912" data-name="Trazado 26912" d="M364.52,340.756l-.17.1c-1.614.987-2.366,2.179-2.308,3.651l.014.337.229-.2a9.7,9.7,0,0,0,2.291-3.617l.116-.384Z" transform="translate(-359.782 -338.383)" fill="#009ddd"/>
            <path id="Trazado_26913" data-name="Trazado 26913" d="M363.616,343.428l-.127.116a4.933,4.933,0,0,0-1.636,3.575,3.481,3.481,0,0,0,.186.864l.1.281.17-.241a9.932,9.932,0,0,0,1.439-4.375l-.011-.337Z" transform="translate(-359.822 -337.831)" fill="#009ddd"/>
            <path id="Trazado_26914" data-name="Trazado 26914" d="M363.552,345.961l-.092.135a5.272,5.272,0,0,0-1,2.973,3.672,3.672,0,0,0,.668,1.993l.139.209.121-.222a10.609,10.609,0,0,0,.489-3.727,4.908,4.908,0,0,0-.147-1.188l-.088-.309Z" transform="translate(-359.694 -337.31)" fill="#009ddd"/>
            <path id="Trazado_26915" data-name="Trazado 26915" d="M364.067,348.667l-.041.138a5.821,5.821,0,0,0-.28,1.889,3.7,3.7,0,0,0,1.8,3.174l.193.123.042-.262c0-.007.019-.211.019-.211a12.686,12.686,0,0,0-1.507-4.758l-.176-.235Z" transform="translate(-359.429 -336.751)" fill="#009ddd"/>
            <path id="Trazado_26916" data-name="Trazado 26916" d="M362.143,352.254l.083.138c.868,1.458,2.346,3.338,5.105,2.855l.226-.04-.13-.192a13.674,13.674,0,0,0-5.049-2.848l-.319-.057Zm.2-.023Z" transform="translate(-359.778 -336.008)" fill="#009ddd"/>
            <path id="Trazado_26917" data-name="Trazado 26917" d="M365.584,355.395h0l-.433.117.417.169a8.511,8.511,0,0,0,5.225.5,2.861,2.861,0,0,0,1.128-.771c2.242.229,4.341,2.1,5.567,3.62l.064.075.1-.03a1.485,1.485,0,0,0,.437-.307l.087-.093-.078-.1a11.032,11.032,0,0,0-3.366-2.748A13.147,13.147,0,0,0,365.584,355.395Z" transform="translate(-359.137 -335.45)" fill="#009ddd"/>
            <path id="Trazado_26918" data-name="Trazado 26918" d="M365.589,351.456l.023.144c.267,1.654.938,3.82,3.729,3.582l.181-.016-.045-.173c-.192-.752-2.749-2.935-3.645-3.548l-.267-.138Z" transform="translate(-359.051 -336.174)" fill="#009ddd"/>
          </g>
          <g id="Grupo_535" data-name="Grupo 535" transform="translate(11.256 2.602)">
            <path id="Trazado_26919" data-name="Trazado 26919" d="M381.93,338.772l.071.426a6.374,6.374,0,0,0,1.742,3.6l.2.179.066-.308.022-.109c.214-1.554-1.169-2.97-1.778-3.508l-.164-.139Z" transform="translate(-366.916 -338.772)" fill="#009ddd"/>
            <path id="Trazado_26920" data-name="Trazado 26920" d="M384.448,340.958l-.15.372a12.922,12.922,0,0,0-.471,4.691l.134.659.1-.134.1-.124a4.684,4.684,0,0,0,.79-3.56,7.034,7.034,0,0,0-.366-1.527l-.064-.19Z" transform="translate(-366.533 -338.319)" fill="#009ddd"/>
            <path id="Trazado_26921" data-name="Trazado 26921" d="M385.62,344.429l-.243.3a13.291,13.291,0,0,0-2.035,4.941l-.007.291.246-.159c2.085-1.365,2.142-3.939,2.063-4.987l-.012-.187Z" transform="translate(-366.625 -337.6)" fill="#009ddd"/>
            <path id="Trazado_26922" data-name="Trazado 26922" d="M385.7,348.259l-.3.193a13.417,13.417,0,0,0-3.835,4.537l-.106.291.3-.093a6.535,6.535,0,0,0,3.873-4.578l.041-.175Z" transform="translate(-367.014 -336.806)" fill="#009ddd"/>
            <path id="Trazado_26923" data-name="Trazado 26923" d="M381.264,340.61l.112.384a9.6,9.6,0,0,0,2.21,3.663l.235.2.016-.338c.089-1.47-.643-2.679-2.239-3.694l-.167-.109Z" transform="translate(-367.054 -338.391)" fill="#009ddd"/>
            <path id="Trazado_26924" data-name="Trazado 26924" d="M382.022,343.311l-.01.337a9.977,9.977,0,0,0,1.438,4.375l.171.241.1-.281a3.763,3.763,0,0,0,.183-.864,4.956,4.956,0,0,0-1.638-3.575l-.118-.116Z" transform="translate(-366.899 -337.831)" fill="#009ddd"/>
            <path id="Trazado_26925" data-name="Trazado 26925" d="M382.034,345.826l-.092.309a4.54,4.54,0,0,0-.144,1.188,10.7,10.7,0,0,0,.482,3.727l.121.222.146-.209a3.668,3.668,0,0,0,.658-1.993,5.137,5.137,0,0,0-1-2.973l-.089-.135Z" transform="translate(-366.944 -337.31)" fill="#009ddd"/>
            <path id="Trazado_26926" data-name="Trazado 26926" d="M381.665,348.525l-.174.235a12.687,12.687,0,0,0-1.508,4.758s.018.2.02.211l.041.262.194-.123a3.711,3.711,0,0,0,1.8-3.174,5.74,5.74,0,0,0-.287-1.889l-.043-.138Z" transform="translate(-367.319 -336.751)" fill="#009ddd"/>
            <path id="Trazado_26927" data-name="Trazado 26927" d="M384.314,352.11l-.322.057a13.712,13.712,0,0,0-5.049,2.848l-.13.192.233.04c2.761.483,4.229-1.4,5.1-2.855l.085-.138Zm-.286.121Z" transform="translate(-367.562 -336.008)" fill="#009ddd"/>
            <path id="Trazado_26928" data-name="Trazado 26928" d="M372.941,355.827a10.966,10.966,0,0,0-3.371,2.748l-.077.1.086.093a1.441,1.441,0,0,0,.441.307l.093.03.066-.075c1.225-1.523,3.325-3.391,5.568-3.62a2.839,2.839,0,0,0,1.131.771,8.507,8.507,0,0,0,5.223-.5l.417-.169-.431-.117h0A13.138,13.138,0,0,0,372.941,355.827Z" transform="translate(-369.493 -335.45)" fill="#009ddd"/>
            <path id="Trazado_26929" data-name="Trazado 26929" d="M380.54,351.308l-.266.138c-.9.613-3.449,2.8-3.641,3.548l-.039.173.175.016c2.789.238,3.464-1.928,3.729-3.582l.017-.144Z" transform="translate(-368.021 -336.174)" fill="#009ddd"/>
          </g>
        </g>
        <g id="Grupo_537" data-name="Grupo 537">
          <path id="Trazado_26930" data-name="Trazado 26930" d="M320.738,337.221h3.527v3.217h-3.527Zm.281,22.538V344.088h2.966v15.671Z" transform="translate(-288.118 -336.476)" fill="#009ddd"/>
          <path id="Trazado_26931" data-name="Trazado 26931" d="M304.233,342.921H307.2v15.669h-2.906V356.28h-.06a5.935,5.935,0,0,1-5.37,2.78c-3.274,0-5.146-2.5-5.146-5.65v-10.49h2.967v9.27c0,2.717.619,4.713,3.46,4.713a3.712,3.712,0,0,0,3.494-2.245,11.6,11.6,0,0,0,.6-3.684Z" transform="translate(-293.717 -335.295)" fill="#009ddd"/>
          <path id="Trazado_26932" data-name="Trazado 26932" d="M310.287,345.31h.062a5.442,5.442,0,0,1,4.744-2.775c1.093,0,5.93.281,5.93,5.3v10.831h-2.964v-9.862c0-2.591-1.09-3.995-3.589-3.995a4.078,4.078,0,0,0-2.872,1.154c-.438.437-1.249,1.123-1.249,4.183v8.519h-2.964V343h2.9Z" transform="translate(-290.885 -335.375)" fill="#009ddd"/>
          <path id="Trazado_26933" data-name="Trazado 26933" d="M335.467,348.021c-.156-1.954-1.085-3.314-3.2-3.314-2.824,0-3.905,2.442-3.905,6.1s1.082,6.109,3.905,6.109c1.951,0,3.162-1.264,3.314-3.5h2.953c-.252,3.5-2.853,5.644-6.3,5.644-4.991,0-6.979-3.534-6.979-8.126,0-4.562,2.3-8.374,7.235-8.374a5.556,5.556,0,0,1,5.915,5.46Z" transform="translate(-287.181 -335.37)" fill="#009ddd"/>
          <path id="Trazado_26934" data-name="Trazado 26934" d="M340.455,351.369c-.216,2.731.9,5.552,3.9,5.552,2.3,0,3.445-.9,3.787-3.167h3.109c-.471,3.543-3.205,5.307-6.92,5.307-4.994,0-6.981-3.534-6.981-8.126,0-4.562,2.3-8.374,7.232-8.374,4.647.1,6.849,3.039,6.849,7.356v1.452Zm7.88-2.041c.06-2.606-1.122-4.62-3.978-4.62-2.447,0-3.9,2.068-3.9,4.62Z" transform="translate(-284.675 -335.37)" fill="#009ddd"/>
          <path id="Trazado_26935" data-name="Trazado 26935" d="M352.237,359.831V346.314h-2.675V344.26h2.675v-3.345c.1-3.413,2.664-4.311,4.869-4.311a12.66,12.66,0,0,1,2.114.305v2.449c-.5-.023-1-.092-1.5-.092-1.668,0-2.632.438-2.54,2.142v2.851h3.6v2.053h-3.6v13.517Z" transform="translate(-282.145 -336.604)" fill="#009ddd"/>
        </g>
      </g>
      <g id="Grupo_539" data-name="Grupo 539" transform="translate(0 5.394)">
        <path id="Trazado_26936" data-name="Trazado 26936" d="M167.487,357.986v-1.141a4.137,4.137,0,0,1-3.349,1.289,4.44,4.44,0,0,1-3.372-1.14,3.856,3.856,0,0,1-.994-2.7c0-2.108,1.463-3.62,4.341-3.62h3.323v-.893c0-1.586-.794-2.355-2.754-2.355a2.943,2.943,0,0,0-2.752,1.215l-1.661-1.562c1.19-1.39,2.43-1.811,4.514-1.811,3.447,0,5.183,1.464,5.183,4.316v8.407Zm-.049-5.556h-2.952c-1.488,0-2.256.67-2.256,1.811s.718,1.785,2.306,1.785a3,3,0,0,0,2.356-.719,2.527,2.527,0,0,0,.546-1.859Z" transform="translate(-159.773 -340.204)" fill="#009ddd"/>
        <path id="Trazado_26937" data-name="Trazado 26937" d="M185.253,357.866a4.344,4.344,0,0,1-3.075,1.115,3.869,3.869,0,0,1-3.323-1.487v1.339h-2.48V341.175H178.9v6.349a3.89,3.89,0,0,1,3.3-1.414,4.283,4.283,0,0,1,3.051,1.117c1.265,1.265,1.415,3.4,1.415,5.307S186.518,356.6,185.253,357.866Zm-3.719-9.5c-2.282,0-2.629,1.934-2.629,4.166s.348,4.191,2.629,4.191,2.6-1.959,2.6-4.191S183.815,348.368,181.533,348.368Z" transform="translate(-156.333 -341.051)" fill="#009ddd"/>
        <path id="Trazado_26938" data-name="Trazado 26938" d="M189.708,352.43c0,2.157,1.141,3.523,3.2,3.523a3.759,3.759,0,0,0,3.051-1.289l1.612,1.511a5.9,5.9,0,0,1-4.712,1.959c-3.15,0-5.655-1.661-5.655-6.448,0-4.067,2.108-6.424,5.332-6.424,3.373,0,5.332,2.48,5.332,6.052v1.115Zm5.307-3.472a2.592,2.592,0,0,0-2.48-1.588,2.627,2.627,0,0,0-2.5,1.588,3.977,3.977,0,0,0-.322,1.712h5.655A3.967,3.967,0,0,0,195.015,348.958Z" transform="translate(-154.089 -340.204)" fill="#009ddd"/>
        <path id="Trazado_26939" data-name="Trazado 26939" d="M206.474,357.986v-7.663c0-1.959-1.117-2.8-2.529-2.8a2.5,2.5,0,0,0-2.605,2.8v7.663h-2.529V345.411h2.481v1.265a4.494,4.494,0,0,1,3.348-1.414,4.361,4.361,0,0,1,3.1,1.141A4.62,4.62,0,0,1,209,349.951v8.035Z" transform="translate(-151.684 -340.204)" fill="#009ddd"/>
        <path id="Trazado_26940" data-name="Trazado 26940" d="M212.452,352.43c0,2.157,1.141,3.523,3.2,3.523a3.757,3.757,0,0,0,3.051-1.289l1.612,1.511a5.9,5.9,0,0,1-4.712,1.959c-3.15,0-5.655-1.661-5.655-6.448,0-4.067,2.109-6.424,5.332-6.424,3.373,0,5.332,2.48,5.332,6.052v1.115Zm5.307-3.472a2.592,2.592,0,0,0-2.48-1.588,2.628,2.628,0,0,0-2.5,1.588,3.994,3.994,0,0,0-.322,1.712h5.655A3.948,3.948,0,0,0,217.759,348.958Z" transform="translate(-149.376 -340.204)" fill="#009ddd"/>
        <path id="Trazado_26941" data-name="Trazado 26941" d="M224.619,348.437v10.417H222.09V348.437h-1.439V346.5h1.439v-1.934a3.273,3.273,0,0,1,3.447-3.5H227.1v2.157h-1.117c-.942,0-1.364.546-1.364,1.464v1.81H227.1v1.934Zm4.936-5.059v-2.255h2.7v2.255Zm.074,15.477V346.5h2.53v12.351Z" transform="translate(-147.158 -341.072)" fill="#009ddd"/>
        <path id="Trazado_26942" data-name="Trazado 26942" d="M238.605,358.134c-2.827,0-5.606-1.736-5.606-6.448s2.779-6.424,5.606-6.424a5.158,5.158,0,0,1,4.141,1.76l-1.735,1.688a2.93,2.93,0,0,0-2.406-1.19,2.832,2.832,0,0,0-2.331,1.116,4.652,4.652,0,0,0-.745,3.051,4.728,4.728,0,0,0,.745,3.075,2.834,2.834,0,0,0,2.331,1.117,2.93,2.93,0,0,0,2.406-1.19l1.735,1.661A5.176,5.176,0,0,1,238.605,358.134Z" transform="translate(-144.599 -340.204)" fill="#009ddd"/>
        <path id="Trazado_26943" data-name="Trazado 26943" d="M243.437,343.792v-2.678h2.679v2.678Zm.074,15.054V346.271h2.53v12.574Z" transform="translate(-142.436 -341.063)" fill="#009ddd"/>
        <path id="Trazado_26944" data-name="Trazado 26944" d="M257.432,356.647a5.092,5.092,0,0,1-3.77,1.487,5.032,5.032,0,0,1-3.745-1.487c-1.19-1.24-1.488-2.827-1.488-4.96,0-2.108.3-3.7,1.488-4.935a5.028,5.028,0,0,1,3.745-1.488,5.087,5.087,0,0,1,3.77,1.488c1.19,1.24,1.488,2.827,1.488,4.935C258.921,353.82,258.623,355.407,257.432,356.647Zm-1.91-8.408a2.563,2.563,0,0,0-1.86-.718,2.507,2.507,0,0,0-1.835.718c-.769.769-.868,2.084-.868,3.448s.1,2.679.868,3.448a2.526,2.526,0,0,0,1.835.744,2.582,2.582,0,0,0,1.86-.744c.769-.769.868-2.084.868-3.448S256.292,349.008,255.523,348.239Z" transform="translate(-141.402 -340.204)" fill="#009ddd"/>
        <path id="Trazado_26945" data-name="Trazado 26945" d="M272.206,358.833v-1.339a3.871,3.871,0,0,1-3.325,1.487,4.344,4.344,0,0,1-3.075-1.115c-1.265-1.265-1.414-3.422-1.414-5.332s.148-4.042,1.414-5.307a4.284,4.284,0,0,1,3.051-1.117,3.889,3.889,0,0,1,3.3,1.414v-6.349h2.53v17.658Zm-2.655-10.465c-2.28,0-2.628,1.934-2.628,4.166s.348,4.191,2.628,4.191,2.6-1.959,2.6-4.191S271.833,348.368,269.551,348.368Z" transform="translate(-138.094 -341.051)" fill="#009ddd"/>
        <path id="Trazado_26946" data-name="Trazado 26946" d="M278.22,352.43c0,2.157,1.14,3.523,3.2,3.523a3.757,3.757,0,0,0,3.051-1.289l1.613,1.511a5.9,5.9,0,0,1-4.713,1.959c-3.148,0-5.653-1.661-5.653-6.448,0-4.067,2.107-6.424,5.331-6.424,3.373,0,5.332,2.48,5.332,6.052v1.115Zm5.306-3.472a2.59,2.59,0,0,0-2.48-1.588,2.625,2.625,0,0,0-2.5,1.588,3.942,3.942,0,0,0-.322,1.712h5.653A3.967,3.967,0,0,0,283.526,348.958Z" transform="translate(-135.748 -340.204)" fill="#009ddd"/>
      </g>
    </g>
    <g id="Grupo_541" data-name="Grupo 541" transform="translate(190.174 291.597)">
      <path id="Trazado_26947" data-name="Trazado 26947" d="M161.076,289.387H172.81q5.938,0,8.909,3.188t2.97,9.343v5q0,6.157-2.97,9.343t-8.909,3.188h-3.767V340.09h-7.968ZM172.81,312.2a3.742,3.742,0,0,0,2.932-1.088,5.5,5.5,0,0,0,.978-3.693v-6.013a5.5,5.5,0,0,0-.978-3.693,3.743,3.743,0,0,0-2.932-1.088h-3.767V312.2Z" transform="translate(-161.076 -288.664)" fill="#fff"/>
      <path id="Trazado_26948" data-name="Trazado 26948" d="M188.653,289.387h10.793l8.256,50.7h-7.966l-1.449-10.067v.145h-9.054l-1.45,9.922H180.4Zm8.691,33.9-3.549-25.061h-.144l-3.478,25.061Z" transform="translate(-157.073 -288.664)" fill="#fff"/>
      <path id="Trazado_26949" data-name="Trazado 26949" d="M206.2,289.387H218q6.155,0,8.98,2.861t2.825,8.8v3.115q0,7.9-5.214,10v.145a6.22,6.22,0,0,1,4.092,3.548,17.881,17.881,0,0,1,1.2,7.172v8.909a33.737,33.737,0,0,0,.145,3.513,8.729,8.729,0,0,0,.724,2.643h-8.113a11.578,11.578,0,0,1-.581-2.318,34.92,34.92,0,0,1-.144-3.911v-9.27q0-3.477-1.123-4.853t-3.875-1.377h-2.752v21.73H206.2Zm10.865,21.73a4.777,4.777,0,0,0,3.585-1.23q1.2-1.231,1.2-4.129v-3.911a6.438,6.438,0,0,0-.978-3.984,3.7,3.7,0,0,0-3.078-1.233h-3.622v14.487Z" transform="translate(-151.726 -288.664)" fill="#fff"/>
      <path id="Trazado_26950" data-name="Trazado 26950" d="M236.891,289.387h10.793l8.259,50.7h-7.968l-1.45-10.067v.145h-9.054l-1.449,9.922h-7.388Zm8.692,33.9-3.548-25.061h-.145l-3.477,25.061Z" transform="translate(-147.077 -288.664)" fill="#fff"/>
      <path id="Trazado_26951" data-name="Trazado 26951" d="M264.033,289.387H272v43.46h13.11v7.243H264.033Z" transform="translate(-139.741 -288.664)" fill="#fff"/>
      <path id="Trazado_26952" data-name="Trazado 26952" d="M287.067,337.607q-3.115-3.33-3.113-9.416V301.535q0-6.083,3.113-9.415t8.982-3.332q5.869,0,8.983,3.332t3.113,9.415V328.19q0,6.086-3.113,9.416t-8.983,3.333Q290.182,340.94,287.067,337.607Zm13.11-8.909V301.028q0-5-4.129-5t-4.128,5V328.7q0,5,4.128,5T300.178,328.7Z" transform="translate(-135.613 -288.788)" fill="#fff"/>
      <path id="Trazado_26953" data-name="Trazado 26953" d="M310.263,337.643q-2.972-3.294-2.97-9.453v-2.9h7.532v3.477q0,4.927,4.13,4.925a3.883,3.883,0,0,0,3.078-1.2,5.818,5.818,0,0,0,1.05-3.875,10.747,10.747,0,0,0-1.449-5.615,26.873,26.873,0,0,0-5.361-5.831,32.064,32.064,0,0,1-6.881-7.858,16.04,16.04,0,0,1-1.954-7.933q0-6.01,3.041-9.308t8.838-3.294q5.72,0,8.656,3.294t2.932,9.453v2.1h-7.533v-2.609a5.821,5.821,0,0,0-1.014-3.8,3.677,3.677,0,0,0-2.97-1.2q-3.984,0-3.983,4.852a9.572,9.572,0,0,0,1.484,5.144,28.425,28.425,0,0,0,5.4,5.795,29.819,29.819,0,0,1,6.881,7.9,17.536,17.536,0,0,1,1.883,8.329q0,6.233-3.078,9.561t-8.945,3.333Q313.231,340.94,310.263,337.643Z" transform="translate(-130.777 -288.788)" fill="#fff"/>
      <path id="Trazado_26954" data-name="Trazado 26954" d="M342.938,337.68q-3.006-3.259-3.007-9.2V301.247q0-5.939,3.007-9.2t8.727-3.259q5.72,0,8.729,3.259t3.006,9.2v5.36h-7.533v-5.868q0-4.706-3.984-4.707t-3.985,4.707V329.06q0,4.638,3.985,4.637t3.984-4.637v-7.75H363.4v7.172q0,5.939-3.006,9.2t-8.729,3.26Q345.943,340.94,342.938,337.68Z" transform="translate(-124.014 -288.788)" fill="#fff"/>
      <path id="Trazado_26955" data-name="Trazado 26955" d="M363.332,289.387H371.3v20.645h8.548V289.387h7.968v50.7h-7.968V317.275H371.3V340.09h-7.966Z" transform="translate(-119.165 -288.664)" fill="#fff"/>
      <path id="Trazado_26956" data-name="Trazado 26956" d="M388.531,289.387H396.5v50.7h-7.968Z" transform="translate(-113.943 -288.664)" fill="#fff"/>
      <path id="Trazado_26957" data-name="Trazado 26957" d="M402.637,337.68q-3.006-3.259-3.006-9.2V301.247q0-5.939,3.006-9.2t8.727-3.259q5.722,0,8.729,3.259t3.006,9.2v5.36h-7.533v-5.868q0-4.706-3.984-4.707t-3.985,4.707V329.06q0,4.638,3.985,4.637t3.984-4.637v-7.75H423.1v7.172q0,5.939-3.006,9.2t-8.729,3.26Q405.642,340.94,402.637,337.68Z" transform="translate(-111.643 -288.788)" fill="#fff"/>
      <path id="Trazado_26958" data-name="Trazado 26958" d="M425.784,337.607q-3.115-3.33-3.113-9.416V301.535q0-6.083,3.113-9.415t8.982-3.332q5.869,0,8.983,3.332t3.113,9.415V328.19q0,6.086-3.113,9.416t-8.983,3.333Q428.9,340.94,425.784,337.607Zm13.11-8.909V301.028q0-5-4.129-5t-4.129,5V328.7q0,5,4.129,5T438.895,328.7Z" transform="translate(-106.868 -288.788)" fill="#fff"/>
      <path id="Trazado_26959" data-name="Trazado 26959" d="M448.981,337.643q-2.972-3.294-2.97-9.453v-2.9h7.532v3.477q0,4.927,4.13,4.925a3.883,3.883,0,0,0,3.078-1.2,5.818,5.818,0,0,0,1.05-3.875,10.748,10.748,0,0,0-1.45-5.615,26.831,26.831,0,0,0-5.36-5.831,32.037,32.037,0,0,1-6.881-7.858,16.039,16.039,0,0,1-1.954-7.933q0-6.01,3.041-9.308t8.838-3.294q5.72,0,8.655,3.294t2.934,9.453v2.1H462.09v-2.609a5.821,5.821,0,0,0-1.014-3.8,3.677,3.677,0,0,0-2.97-1.2q-3.984,0-3.984,4.852a9.573,9.573,0,0,0,1.485,5.144,28.391,28.391,0,0,0,5.4,5.795,29.841,29.841,0,0,1,6.881,7.9,17.535,17.535,0,0,1,1.882,8.329q0,6.233-3.078,9.561t-8.945,3.333Q451.949,340.94,448.981,337.643Z" transform="translate(-102.032 -288.788)" fill="#fff"/>
    </g>
    <g id="Grupo_542" data-name="Grupo 542" transform="translate(20.654 291.96)">
      <path id="Trazado_26960" data-name="Trazado 26960" d="M23.7,337.22q-3.042-3.294-3.042-9.453V289.088H28.62v39.259a5.535,5.535,0,0,0,1.05,3.768,3.855,3.855,0,0,0,3.007,1.158,3.852,3.852,0,0,0,3-1.158,5.535,5.535,0,0,0,1.05-3.768V289.088h7.678v38.679q0,6.157-3.042,9.453t-8.836,3.3Q26.737,340.516,23.7,337.22Z" transform="translate(-20.654 -289.088)" fill="#fff"/>
      <path id="Trazado_26961" data-name="Trazado 26961" d="M45.013,289.088h10l7.75,30.351H62.9V289.088H70v50.7H61.817l-9.561-37.013h-.145v37.013h-7.1Z" transform="translate(-15.606 -289.088)" fill="#fff"/>
    </g>
    <rect id="Rectángulo_479" data-name="Rectángulo 479" width="82.186" height="22.362" rx="3.674" transform="translate(473.081 351.277)" fill="#fff"/>
    <g id="Grupo_543" data-name="Grupo 543" transform="translate(481.151 354.991)">
      <path id="Trazado_26962" data-name="Trazado 26962" d="M403.688,348.126l.5,5.074v2.357h-2.081V353.2l.5-5.074Zm.424-2.628v1.923h-1.93V345.5Z" transform="translate(-402.107 -340.43)" fill="#e60319"/>
      <path id="Trazado_26963" data-name="Trazado 26963" d="M405.306,350.587l1.862-.226a1.758,1.758,0,0,0,.48,1.089,1.309,1.309,0,0,0,.944.377,1.3,1.3,0,0,0,1-.453,1.749,1.749,0,0,0,.408-1.217,1.634,1.634,0,0,0-.391-1.152,1.243,1.243,0,0,0-.951-.424,3.332,3.332,0,0,0-.884.144l.212-1.568a1.692,1.692,0,0,0,1.191-.339,1.2,1.2,0,0,0,.41-.955,1.087,1.087,0,0,0-.3-.808,1.076,1.076,0,0,0-.8-.3,1.161,1.161,0,0,0-.841.342,1.616,1.616,0,0,0-.426,1l-1.772-.3a3.935,3.935,0,0,1,.559-1.455,2.515,2.515,0,0,1,1.039-.856,3.48,3.48,0,0,1,1.5-.313,2.988,2.988,0,0,1,2.274.9,2.289,2.289,0,0,1-.74,3.78,2.344,2.344,0,0,1,1.38.829,2.4,2.4,0,0,1,.517,1.554,3.015,3.015,0,0,1-.966,2.253,3.6,3.6,0,0,1-4.662.147A3.083,3.083,0,0,1,405.306,350.587Z" transform="translate(-401.444 -340.912)" fill="#e60319"/>
      <path id="Trazado_26964" data-name="Trazado 26964" d="M415.075,343.171a2.741,2.741,0,0,1,2.28,1.042,9,9,0,0,1-.007,8.183,2.737,2.737,0,0,1-2.273,1.027,2.876,2.876,0,0,1-2.363-1.126,9.172,9.172,0,0,1,.091-8.1A2.738,2.738,0,0,1,415.075,343.171Zm0,1.6a.961.961,0,0,0-.622.221,1.5,1.5,0,0,0-.426.8,11.065,11.065,0,0,0-.2,2.513,10.859,10.859,0,0,0,.179,2.428,1.7,1.7,0,0,0,.448.88.988.988,0,0,0,1.243,0,1.5,1.5,0,0,0,.425-.8,10.963,10.963,0,0,0,.2-2.506,10.843,10.843,0,0,0-.179-2.427,1.723,1.723,0,0,0-.448-.885A.951.951,0,0,0,415.075,344.768Z" transform="translate(-400.095 -340.912)" fill="#e60319"/>
      <path id="Trazado_26965" data-name="Trazado 26965" d="M430.659,353.244h-2.207l-.875-2.28h-4.013l-.828,2.28h-2.15l3.909-10.038h2.143Zm-3.733-3.972-1.383-3.724-1.356,3.724Z" transform="translate(-398.278 -340.905)" fill="#e60319"/>
      <path id="Trazado_26966" data-name="Trazado 26966" d="M429.837,353.639V343.6h1.973l4.107,6.7v-6.7H437.8v10.038h-2.033l-4.048-6.547v6.547Zm2.519-10.592h-.876c0-.105-.007-.188-.007-.247a1.6,1.6,0,0,1,.349-1.106,1.159,1.159,0,0,1,.9-.386,1.881,1.881,0,0,1,.447.051,5.584,5.584,0,0,1,.748.295,2.288,2.288,0,0,0,.854.243.517.517,0,0,0,.365-.136.73.73,0,0,0,.19-.459h.89a2.076,2.076,0,0,1-.345,1.322,1.1,1.1,0,0,1-.874.4,2.25,2.25,0,0,1-.459-.048c-.105-.027-.367-.122-.787-.28a2.974,2.974,0,0,0-.917-.241.439.439,0,0,0-.342.135A.7.7,0,0,0,432.356,343.047Z" transform="translate(-396.361 -341.3)" fill="#e60319"/>
      <path id="Trazado_26967" data-name="Trazado 26967" d="M437.868,348.317a6.39,6.39,0,0,1,.459-2.575,4.706,4.706,0,0,1,.934-1.376,3.9,3.9,0,0,1,1.3-.9,5.5,5.5,0,0,1,2.165-.4,4.712,4.712,0,0,1,3.549,1.376,6.152,6.152,0,0,1,.011,7.631,5.276,5.276,0,0,1-7.094.007A5.181,5.181,0,0,1,437.868,348.317Zm2.088-.069a3.761,3.761,0,0,0,.787,2.585,2.706,2.706,0,0,0,3.989.006,3.837,3.837,0,0,0,.777-2.62,3.768,3.768,0,0,0-.757-2.573,2.8,2.8,0,0,0-4.03.008A3.794,3.794,0,0,0,439.956,348.248Z" transform="translate(-394.697 -340.935)" fill="#e60319"/>
      <path id="Trazado_26968" data-name="Trazado 26968" d="M446.818,350.007l1.971-.191a2.408,2.408,0,0,0,.723,1.458,2.182,2.182,0,0,0,1.468.465,2.258,2.258,0,0,0,1.477-.414,1.232,1.232,0,0,0,.5-.968.909.909,0,0,0-.209-.606,1.652,1.652,0,0,0-.729-.435c-.237-.083-.779-.229-1.622-.439a5.481,5.481,0,0,1-2.286-.992,2.611,2.611,0,0,1-.925-2.021,2.575,2.575,0,0,1,.433-1.433,2.734,2.734,0,0,1,1.253-1.018,5.05,5.05,0,0,1,1.976-.349,4.236,4.236,0,0,1,2.845.828,2.932,2.932,0,0,1,1,2.213l-2.027.088a1.725,1.725,0,0,0-.559-1.113,2.044,2.044,0,0,0-1.283-.338,2.32,2.32,0,0,0-1.383.362.731.731,0,0,0-.322.623.769.769,0,0,0,.3.61,5.327,5.327,0,0,0,1.863.671,9.83,9.83,0,0,1,2.188.722,2.809,2.809,0,0,1,1.109,1.021,3.154,3.154,0,0,1-.08,3.214,2.862,2.862,0,0,1-1.356,1.12,5.682,5.682,0,0,1-2.183.366,4.346,4.346,0,0,1-2.924-.88A3.827,3.827,0,0,1,446.818,350.007Z" transform="translate(-392.842 -340.935)" fill="#e60319"/>
      <path id="Trazado_26969" data-name="Trazado 26969" d="M455.69,350.655l-.5-5.093v-2.355h2.081v2.355l-.493,5.093Zm-.418,2.59V351.32H457.2v1.924Z" transform="translate(-391.107 -340.905)" fill="#e60319"/>
    </g>
    <g id="Grupo_544" data-name="Grupo 544" transform="translate(92.205 275.231)">
      <path id="Trazado_26970" data-name="Trazado 26970" d="M99.614,352.687l-.1-.433c-.045-.2-.091-.406-.134-.613l-.049-.232c-.134-.631-.269-1.262-.4-1.893-.08-.384-.157-.768-.234-1.152l-.181-.9c-.094-.459-.187-.918-.27-1.377-.036-.2-.056-.4-.074-.6-.007-.094-.017-.19-.027-.285l-.01-.08c-.031-.269-.062-.537-.1-.8-.012-.081-.029-.162-.046-.241a4.075,4.075,0,0,1-.071-.432,9.839,9.839,0,0,0-.392-1.789c-.033-.115-.064-.229-.1-.344l-.571,0a.823.823,0,0,1-.451-.058,2.364,2.364,0,0,1-.263-.156c-.039-.024-.076-.048-.115-.071s-.074-.043-.11-.066a.764.764,0,0,0-.1-.059,7.114,7.114,0,0,1-1.084-.325,7.357,7.357,0,0,0-.84-.264c-.278-.064-.552-.14-.827-.217-.229-.064-.458-.128-.689-.183l-.338-.077a9.5,9.5,0,0,1-1.185-.324,2.507,2.507,0,0,0-.353-.089c-.115-.023-.231-.047-.344-.08l-.372-.1a11.306,11.306,0,0,1-1.223-.384,6,6,0,0,0-1.2-.34,1.64,1.64,0,0,1-.4-.135l-.176-.077a1.5,1.5,0,0,0-.5-.164.943.943,0,0,1-.374-.111.8.8,0,0,1-.473-.961.456.456,0,0,0,0-.21,1.522,1.522,0,0,1,.054-.693c.068-.229.146-.455.223-.681l.116-.343q.109-.33.21-.663.185-.6.363-1.2l.183-.62c.1-.326.19-.652.291-.978.418-1.362.805-2.48,1.217-3.519l.086-.214a10.717,10.717,0,0,0,.621-1.892v0a6.29,6.29,0,0,1-1.256-1c-.115-.109-.229-.218-.346-.325a7.625,7.625,0,0,0-.847-.674c-.35-.237-.68-.5-1-.753l-.043-.036c-.17-.135-.334-.276-.5-.419-.13-.111-.261-.223-.394-.332l-.33-.268c-.373-.3-.759-.611-1.12-.962l-.014-.013a6.642,6.642,0,0,0-.652-.534c-.138-.1-.274-.208-.407-.315-.185-.151-.366-.308-.546-.464l-.338-.291c-.148-.128-.3-.255-.441-.388a4.79,4.79,0,0,1-.471-.488.808.808,0,0,1-.19-.6.787.787,0,0,1,.3-.529,4.833,4.833,0,0,0,.571-.573,5.325,5.325,0,0,1,.806-.777c.381-.278.751-.572,1.122-.866l.426-.336c.241-.19.484-.38.718-.582l.19-.164a14.605,14.605,0,0,1,1.651-1.289.981.981,0,0,0,.121-.082,5.915,5.915,0,0,1,.648-.624l.174-.155a1.869,1.869,0,0,1,.68-.442l.022-.022c.036-.037.074-.075.112-.107l1.59-1.365c.062-.051.123-.1.183-.155-.063-.105-.123-.209-.186-.315-.186-.317-.361-.618-.561-.9-.474-.659-.927-1.342-1.365-2-.363-.548-.728-1.1-1.106-1.636-.783-1.118-1.457-2.314-2.108-3.471l-.212-.375c-.083-.148-.174-.293-.262-.438l-.238-.39a2.033,2.033,0,0,1-.228-.438,1.183,1.183,0,0,0-.256-.447.781.781,0,0,1,.156-1.257,1.59,1.59,0,0,1,.561-.223,16.214,16.214,0,0,0,2.581-.729c1.09-.39,2.109-.712,3.117-.99a1.247,1.247,0,0,1,.614-.03,1.146,1.146,0,0,0,.5-.036q1.255-.283,2.506-.572a.709.709,0,0,0,.117-.04l.122-.043a6.608,6.608,0,0,1,1.6-.372,5.868,5.868,0,0,0,1.38-.346l.186-.062c0-.107-.007-.208-.008-.307s0-.19-.008-.284a29.892,29.892,0,0,1,.089-3.235l.045-.705c.017-.275.057-.542.1-.8l.03-.2a30.241,30.241,0,0,0,.241-3.163,17.517,17.517,0,0,1,.339-3.1,2.675,2.675,0,0,1,.1-.331,1.456,1.456,0,0,0,.068-.225c.036-.206.054-.416.072-.627l.017-.182a1.023,1.023,0,0,1,.909-1.027,2.514,2.514,0,0,1,1.142.058c.215.054.427.112.642.169.549.146,1.12.3,1.678.409a13.61,13.61,0,0,1,2.44.8c.184.074.368.142.554.212l.383.145a2.576,2.576,0,0,1,.349.158,2.459,2.459,0,0,0,.734.274,2.025,2.025,0,0,1,1.029.478,1.226,1.226,0,0,0,.3.146l.062.024c.171.068.344.128.518.188.158.056.316.111.474.171s.3.119.443.183c.132.056.263.112.4.164.57.221,1.14.435,1.711.651a1.8,1.8,0,0,1,.507-.792c.52-.537,1.023-1.07,1.525-1.6q.666-.706,1.336-1.409c1.015-1.058,2.041-2.1,3.068-3.152.389-.395.808-.817,1.241-1.22.278-.257.564-.5.851-.752l.409-.357c.058-.049.115-.1.171-.157l.215-.2a1.943,1.943,0,0,1,.281-.229.894.894,0,0,1,.686-.135.921.921,0,0,1,.581.43l.182.285c.1.146.19.292.281.441a13.42,13.42,0,0,0,1.144,1.5l.048.058a24.355,24.355,0,0,1,1.871,2.434,1.865,1.865,0,0,1,.221.445,2.816,2.816,0,0,0,.459.805c.18.247.343.507.506.767l.238.375a.957.957,0,0,0,.053.082l.552.748c.594.805,1.187,1.61,1.788,2.411a.923.923,0,0,0,.142.171l.03-.021.115-.076.433-.27c.157-.1.436-.326.594-.424,0,0,.718-.519.905-.6.3-.138.694-.507,1-.637l.444-.3q.445-.192.889-.39c.62-.275,1.262-.559,1.907-.815a15.985,15.985,0,0,0,1.543-.736c.465-.243.946-.493,1.449-.7l.653-.267c.146-.062.292-.123.433-.192.092-.042.18-.089.267-.136a4.147,4.147,0,0,1,.66-.3,4.618,4.618,0,0,1,.858-.175l.168-.023a.748.748,0,0,1,.669.256.706.706,0,0,1,.133.674c-.028.081,0,.175.056.385a5.423,5.423,0,0,1,.208.957,11.378,11.378,0,0,0,.278,1.4c.08.327.159.654.22.985.008.046.021.092.033.138a2.2,2.2,0,0,1,.07.36,9.057,9.057,0,0,0,.332,1.6c.057.208.113.415.164.625.1.4.2.792.311,1.187.113.418.226.834.328,1.256.091.374.167.753.243,1.132.057.284.113.566.177.847.109.485.235.965.365,1.444a3.519,3.519,0,0,1,.106.817,2.083,2.083,0,0,0,.135.814l.027.012c.118.047.229.094.344.129a1.91,1.91,0,0,0,.42.089,2.661,2.661,0,0,0,.543-.012,3.944,3.944,0,0,1,1.107.03l1.264.184c.81.117,1.623.235,2.433.357.622.093,1.243.192,1.862.307a5.05,5.05,0,0,1,.572.15c.083.027.165.052.249.074l.129.037c.139.037.275.078.415.1.355.069.71.134,1.065.2.675.124,1.348.248,2.018.391.107.023.216.043.325.065a4.743,4.743,0,0,1,1.625.531.3.3,0,0,0,.181-.007.8.8,0,0,1,.683.139.841.841,0,0,1,.307.669,1.351,1.351,0,0,1-.087.485,1.565,1.565,0,0,1-.225.4,13.648,13.648,0,0,0-1,1.639c-.126.231-.252.46-.383.686l-.016.029.15.219-.445.7c-.168.257-.328.5-.476.762-.592,1.023-1.173,2.051-1.755,3.078l-.167.3q-.621,1.1-1.233,2.2c-.2.356-.39.72-.581,1.08l-.035.065a5.211,5.211,0,0,1-.607.946,1.225,1.225,0,0,0-.2.4,2.7,2.7,0,0,1-.3.63c.268.189.538.378.81.56.3.2.607.4.913.6.243.159.485.317.728.479.1.068.2.139.3.211s.181.135.275.2a1.511,1.511,0,0,0,.313.174,4.184,4.184,0,0,1,1.119.592c1.829,1.269,3.39,2.429,4.773,3.544.113.092.219.191.324.292.07.065.138.13.21.193.264.226.534.445.805.663.087.071.179.138.269.206.142.107.285.214.421.33a1.084,1.084,0,0,1,.425.792,1.04,1.04,0,0,1-.352.791,10.59,10.59,0,0,1-1.085.936c-.295.217-.6.416-.909.617-.192.126-.383.25-.571.379-.13.089-.256.187-.38.284s-.223.173-.338.255c-.219.156-.441.307-.663.459l-.435.3c-.2.139-.395.276-.6.4l.087.331-.353.221c-.052.03-.1.063-.151.094a2.042,2.042,0,0,1-.483.256,4.519,4.519,0,0,0-.995.549c-.14.094-.281.186-.426.275-.174.105-.338.225-.5.344a6.931,6.931,0,0,1-.773.5,4.091,4.091,0,0,0-.487.327c-.112.083-.226.167-.342.244-.15.1-.3.193-.459.287l-.325.194-.011.006a2.477,2.477,0,0,1-.706.649,2.545,2.545,0,0,0,.049.307c.113.523.237,1.044.36,1.565a.253.253,0,0,0,.027.078.832.832,0,0,1,.476.86,4.567,4.567,0,0,0,.2,1.428c.031.133.064.266.094.4a32.056,32.056,0,0,0,.9,3.146c.068.209.122.421.17.636q.206.913.409,1.828l.215.974a.579.579,0,0,0,.018.082,4.139,4.139,0,0,1,.352,1.266,1.777,1.777,0,0,0,.112.344c.03.08.063.161.091.243l.078.229-.531.961-.369-.051a1.35,1.35,0,0,0-.645.066,1.9,1.9,0,0,1-.7.077c-.709-.033-1.417-.07-2.127-.117-.346-.022-.692-.047-1.039-.072-.524-.039-1.048-.078-1.572-.105-.5-.025-1.014-.023-1.514-.021h-.171a1.48,1.48,0,0,1-.757-.159,2.5,2.5,0,0,0-.951-.223l-.217-.025a20.826,20.826,0,0,0-2.253-.127,4.924,4.924,0,0,1-.565-.048.291.291,0,0,0-.151.1c-.007.035-.014.093-.023.151l-.019.126c-.153.88-.351,1.775-.589,2.662a2.483,2.483,0,0,0-.057.4l-.01.109c-.01.089-.014.179-.018.267a4.424,4.424,0,0,1-.049.524c-.291,1.677-.582,3.354-.891,5.027l-.023.126a6.73,6.73,0,0,1-.362,1.4,1.545,1.545,0,0,0-.069.281c-.016.077-.03.156-.049.232a1.1,1.1,0,0,1-1.382.92,4.97,4.97,0,0,1-.873-.235q-1.785-.639-3.564-1.294c-.18-.066-.359-.139-.536-.21s-.331-.134-.5-.2c-.343-.127-.687-.251-1.032-.375-.417-.15-.832-.3-1.247-.454-.239-.091-.474-.19-.709-.29l-1.377-.57a2.04,2.04,0,0,1-.45-.222,3.564,3.564,0,0,0-.854-.38l-.221-.077c-.025-.01-.047-.016-.064-.021v0a3.091,3.091,0,0,1-.706.833c-.056.051-.111.1-.167.155-.634.61-1.26,1.231-1.884,1.853l-.122.122c-.078.078-.15.163-.22.248l-.6.711c-.384.454-.768.907-1.159,1.352a5.3,5.3,0,0,1-.576.538l-.112.094q-.451.384-.915.751a1.379,1.379,0,0,1-.971.367,5.009,5.009,0,0,0-1.031,1.149,1.051,1.051,0,0,0-.082.171l-.138.31-.349.133c-.113.042-.221.083-.326.126a.813.813,0,0,1-.949-.233,5.245,5.245,0,0,1-.425-.6l-.035-.063c-.14-.24-.225-.378-.362-.433a.922.922,0,0,1-.424-.389,2.62,2.62,0,0,1-.24-.442,7.3,7.3,0,0,0-.709-1.236l-.1-.153a3.254,3.254,0,0,0-.233-.3c-.074-.089-.147-.179-.216-.272-.538-.726-1.137-1.433-1.717-2.117-.355-.42-.67-.86-.949-1.246-.573-.794-1.137-1.6-1.7-2.4l-.1,0a1.852,1.852,0,0,0-.359.012,13.329,13.329,0,0,0-1.957.564c-.618.217-1.24.424-1.862.63l-.49.164q-.418.138-.838.263c-.17.051-.343.1-.514.14l-.275.074c-.447.122-.9.208-1.334.29a12.6,12.6,0,0,0-1.5.344,11.179,11.179,0,0,1-1.187.287,2.1,2.1,0,0,1-1.537-.129Z" transform="translate(-79.923 -275.231)"/>
      <path id="Trazado_26971" data-name="Trazado 26971" d="M127.62,292.885l.008-.036c-1.032-.24-2.066-.47-3.094-.724a6.823,6.823,0,0,0-2.04-.2c-.619.035-1.243-.017-1.866-.033-.083,0-.167-.019-.25-.027-.268-.024-.534-.063-.8-.065-.488,0-.975.024-1.463.023a14.088,14.088,0,0,0-2.854.316.8.8,0,0,1-.348.023,1.707,1.707,0,0,0-.944.063c-.42.118-.832.269-1.252.389a5.276,5.276,0,0,1-1.5.424.58.58,0,0,0-.191.059l-1.892.7a11.432,11.432,0,0,0-1.643.77,27.3,27.3,0,0,0-3.8,2.57c-.273.222-.554.438-.823.665a16.6,16.6,0,0,0-1.794,1.626,1.2,1.2,0,0,0-.25.369.806.806,0,0,1-.307.384,1.815,1.815,0,0,0-.38.327c-.487.665-1.048,1.275-1.479,1.98-.237.389-.49.767-.706,1.165-.418.768-.82,1.544-1.218,2.323a6.362,6.362,0,0,0-.6,1.92c-.18,1.146-.4,2.285-.607,3.427a6.571,6.571,0,0,1-.123.694,3.8,3.8,0,0,0-.134,1c-.01.808-.027,1.616,0,2.423q.04,1.11.171,2.213a10.659,10.659,0,0,0,.425,2.023c.176.544.354,1.09.5,1.642a9.144,9.144,0,0,0,.5,1.425q.618,1.356,1.323,2.669a20.628,20.628,0,0,0,2.1,3.145,22.069,22.069,0,0,0,2.477,2.583,1.07,1.07,0,0,1,.266.3,1.031,1.031,0,0,0,.529.514,1.72,1.72,0,0,1,.286.2c.543.4,1.067.825,1.635,1.183.668.424,1.365.8,2.06,1.177a23.77,23.77,0,0,0,3,1.2c.722.275,1.469.488,2.215.694a7.815,7.815,0,0,0,1.48.292,11.9,11.9,0,0,0,2.113.124.706.706,0,0,1,.2.024,4.309,4.309,0,0,0,1.306.035,2.369,2.369,0,0,1,.9.018,1.092,1.092,0,0,0,.349,0c.134-.007.268-.037.4-.031a9.178,9.178,0,0,0,1.708-.112,29.07,29.07,0,0,0,2.929-.529,13.318,13.318,0,0,0,2.422-.851c.138-.064.28-.113.419-.175a7.784,7.784,0,0,0,1.856-1,13.372,13.372,0,0,1,1.353-.967q1.807-1.159,3.509-2.465a21.5,21.5,0,0,0,2.918-2.634c.212-.238.408-.491.617-.733s.421-.479.63-.719a2.212,2.212,0,0,0,.409-.5c.14-.327.33-.623.488-.937a30.741,30.741,0,0,0,1.822-4.213q.3-.884.577-1.773a4.112,4.112,0,0,0,.152-.637c.122-.814.252-1.629.34-2.446a13.409,13.409,0,0,0,.112-2.014,19.268,19.268,0,0,0-.525-4,8.1,8.1,0,0,1-.209-1.141,2.3,2.3,0,0,0-.225-.717c-.091-.2-.176-.4-.25-.6-.165-.458-.31-.922-.485-1.375-.3-.768-.592-1.539-.924-2.292a11.192,11.192,0,0,0-1.316-2.265c-.6-.791-1.237-1.554-1.812-2.361a11.759,11.759,0,0,0-1.243-1.455,33.759,33.759,0,0,0-4.126-3.627,7.345,7.345,0,0,0-1.7-.979c-.439-.168-.89-.31-1.335-.464" transform="translate(-76.745 -271.798)" fill="#fff"/>
      <path id="Trazado_26972" data-name="Trazado 26972" d="M108.115,335.439c-.247-.107-.493-.225-.733-.356l-.148-.08c-.642-.35-1.307-.712-1.942-1.115-.412-.261-.8-.554-1.173-.837-.163-.123-.326-.246-.49-.366-.037-.028-.074-.055-.109-.086a.59.59,0,0,0-.083-.064,1.561,1.561,0,0,1-.792-.771,1.471,1.471,0,0,0-.111-.106,22.852,22.852,0,0,1-2.567-2.673,21.427,21.427,0,0,1-2.151-3.227c-.467-.867-.917-1.776-1.34-2.7a9.6,9.6,0,0,1-.531-1.51c-.139-.524-.313-1.058-.479-1.572a11.3,11.3,0,0,1-.46-2.169c-.089-.758-.148-1.518-.174-2.258-.027-.719-.017-1.445-.006-2.146l0-.3a4.226,4.226,0,0,1,.156-1.142,2.8,2.8,0,0,0,.069-.379c.013-.088.024-.175.041-.261q.1-.536.194-1.073c.144-.78.287-1.56.41-2.343a6.9,6.9,0,0,1,.648-2.081c.4-.784.8-1.563,1.224-2.336.153-.283.325-.555.5-.829.075-.118.151-.238.223-.359a13,13,0,0,1,.963-1.319c.184-.231.368-.46.541-.7a1.81,1.81,0,0,1,.416-.385l.075-.054c.1-.078.112-.106.121-.129a1.69,1.69,0,0,1,.357-.552,14.322,14.322,0,0,1,1.577-1.455l.273-.227c.168-.141.339-.276.511-.414l.321-.257a27.607,27.607,0,0,1,3.875-2.622,11.85,11.85,0,0,1,1.721-.805l1.892-.7a.907.907,0,0,1,.39-.094,2.163,2.163,0,0,0,.792-.209,5.256,5.256,0,0,1,.547-.194c.2-.058.406-.123.608-.19s.427-.138.642-.2a2.2,2.2,0,0,1,1.237-.065c0-.007.037-.019.076-.027a14.541,14.541,0,0,1,2.981-.332c.228,0,.456,0,.685-.011.261-.007.52-.013.782-.011.2,0,.41.023.616.043l.228.023c.042,0,.083.008.126.014a.8.8,0,0,0,.1.011c.181,0,.368.012.554.021.438.018.852.036,1.263.012a7.342,7.342,0,0,1,2.2.219c.717.176,1.437.343,2.156.507l1.464.34-.021.083c.3.1.593.2.886.311a8.076,8.076,0,0,1,1.829,1.049,34.106,34.106,0,0,1,4.19,3.683,12.091,12.091,0,0,1,1.3,1.522c.351.493.736.981,1.109,1.455.232.3.466.593.693.892a11.812,11.812,0,0,1,1.38,2.375c.31.7.589,1.426.861,2.125l.072.191c.106.274.2.553.3.832.063.185.126.369.193.554s.148.375.233.558a2.89,2.89,0,0,1,.27.883,7.915,7.915,0,0,0,.193,1.066,20.056,20.056,0,0,1,.544,4.108,14.141,14.141,0,0,1-.116,2.1c-.072.684-.177,1.37-.278,2.034l-.066.435a4.779,4.779,0,0,1-.17.72c-.187.6-.383,1.189-.579,1.782a31.745,31.745,0,0,1-1.853,4.287c-.063.123-.129.244-.2.365a5.977,5.977,0,0,0-.278.54,1.741,1.741,0,0,1-.388.529c-.039.039-.076.077-.111.117l-.278.316c-.117.132-.234.264-.349.4-.085.1-.165.2-.246.293-.124.152-.25.3-.381.449a21.593,21.593,0,0,1-2.99,2.7c-1.135.872-2.328,1.709-3.546,2.49a13.1,13.1,0,0,0-1.3.928,6.888,6.888,0,0,1-1.709.961l-.27.121c-.07.031-.141.059-.211.088s-.135.054-.2.085a14.051,14.051,0,0,1-2.518.886,29.9,29.9,0,0,1-2.984.538,9.56,9.56,0,0,1-1.808.117.878.878,0,0,0-.158.013c-.063.007-.126.015-.188.018l-.066.006a1.206,1.206,0,0,1-.467-.027,1.684,1.684,0,0,0-.607-.007l-.092.01a4.884,4.884,0,0,1-1.469-.045l-.071-.014a7.2,7.2,0,0,1-1.571-.063c-.2-.023-.4-.046-.6-.062a8.322,8.322,0,0,1-1.585-.31c-.771-.212-1.525-.427-2.265-.71-.275-.105-.553-.2-.831-.3-.494-.175-1-.354-1.5-.572m3.259-41.77-.063.025-1.892.7a10.843,10.843,0,0,0-1.565.734,26.548,26.548,0,0,0-3.725,2.52l-.33.264c-.164.13-.328.261-.489.395l-.275.232a13.1,13.1,0,0,0-1.461,1.34,1.066,1.066,0,0,0-.142.187,1.347,1.347,0,0,1-.49.637l-.092.066a1.139,1.139,0,0,0-.18.149c-.182.25-.375.493-.567.734a11.973,11.973,0,0,0-.886,1.21c-.076.124-.155.248-.232.372-.159.252-.319.506-.462.769-.414.764-.814,1.537-1.211,2.311a5.784,5.784,0,0,0-.541,1.758c-.126.792-.27,1.58-.415,2.37-.066.356-.132.711-.194,1.068-.014.072-.024.146-.035.22a3.613,3.613,0,0,1-.1.529,3.23,3.23,0,0,0-.112.855l0,.3c-.008.688-.018,1.4.006,2.093.024.711.082,1.44.168,2.168a9.9,9.9,0,0,0,.4,1.921c.185.571.361,1.117.508,1.67a8.454,8.454,0,0,0,.471,1.339c.412.9.851,1.79,1.307,2.635a20.227,20.227,0,0,0,2.041,3.063,21.693,21.693,0,0,0,2.419,2.521,1.546,1.546,0,0,1,.39.466.5.5,0,0,0,.263.256,1.4,1.4,0,0,1,.32.21l.064.051c.168.123.336.25.5.377.373.281.727.548,1.1.786.6.384,1.253.736,1.88,1.077l.148.081a13.994,13.994,0,0,0,2.074.86c.286.1.571.2.855.311.694.266,1.421.472,2.166.678a7.357,7.357,0,0,0,1.379.274c.214.016.426.04.64.064a6.432,6.432,0,0,0,1.376.062,1.121,1.121,0,0,1,.349.029,3.825,3.825,0,0,0,1.161.029l.087-.007a2.56,2.56,0,0,1,1.02.046c0-.006.024-.011.056-.013l.11-.01c.04,0,.081-.007.121-.012a2.07,2.07,0,0,1,.334-.019,8.56,8.56,0,0,0,1.606-.107,28.459,28.459,0,0,0,2.877-.518,12.786,12.786,0,0,0,2.323-.816c.085-.039.169-.074.254-.107.057-.023.116-.047.173-.072l.278-.123a5.939,5.939,0,0,0,1.452-.8A14.287,14.287,0,0,1,130,332.867c1.194-.764,2.361-1.584,3.472-2.437a20.717,20.717,0,0,0,2.844-2.568c.121-.134.235-.274.35-.413.086-.1.171-.209.26-.311.118-.138.239-.274.361-.412l.27-.308c.048-.057.1-.11.152-.163a1.113,1.113,0,0,0,.169-.2,6.884,6.884,0,0,1,.326-.64c.06-.109.12-.219.177-.328a31.043,31.043,0,0,0,1.79-4.14c.2-.586.389-1.173.573-1.764a3.83,3.83,0,0,0,.133-.555l.066-.437c.1-.652.2-1.327.272-1.987a12.974,12.974,0,0,0,.111-1.932,19.124,19.124,0,0,0-.509-3.885,8.571,8.571,0,0,1-.222-1.216,1.828,1.828,0,0,0-.179-.551c-.1-.211-.19-.426-.268-.645-.069-.188-.134-.381-.2-.573-.091-.263-.181-.529-.281-.79l-.074-.19c-.267-.688-.541-1.4-.84-2.079a10.738,10.738,0,0,0-1.252-2.156c-.223-.3-.453-.587-.682-.878-.38-.483-.774-.983-1.14-1.5a11.29,11.29,0,0,0-1.188-1.387,33.131,33.131,0,0,0-4.059-3.57,6.829,6.829,0,0,0-1.577-.91c-.3-.115-.6-.216-.91-.319l-.716-.244-.56-.129c-.724-.168-1.45-.334-2.171-.512a6.253,6.253,0,0,0-1.881-.188c-.464.025-.925.007-1.371-.012-.179-.008-.359-.016-.538-.019a1.937,1.937,0,0,1-.209-.021l-.324-.034c-.17-.017-.339-.036-.511-.037-.247,0-.5,0-.745.011s-.476.012-.715.011a13.548,13.548,0,0,0-2.743.305,1.249,1.249,0,0,1-.6.013,1.209,1.209,0,0,0-.649.064c-.2.057-.4.122-.6.187-.216.07-.432.14-.651.2-.148.042-.295.1-.439.158a3.168,3.168,0,0,1-1.141.286m-.068,0h0Z" transform="translate(-76.838 -271.891)"/>
      <path id="Trazado_26973" data-name="Trazado 26973" d="M137.753,281.039a2.94,2.94,0,0,1,.414,1.048c.152.622.27,1.253.437,1.871.21.78.456,1.55.677,2.326.12.423.214.851.325,1.275.2.784.419,1.563.614,2.349.142.572.255,1.152.392,1.726.117.493.251.98.38,1.469a1.783,1.783,0,0,1,.111.694.591.591,0,0,0,.053.241,2.859,2.859,0,0,1,.113.278c.15.669.134.678-.267,1.085-.249.252-.485.515-.728.774a.941.941,0,0,1-.146.14,20.741,20.741,0,0,0-1.836,1.656c-.623.541-1.206,1.129-1.8,1.7-.134.129-.25.275-.374.414a.418.418,0,0,1-.548.107,8.536,8.536,0,0,1-.911-.54c-.425-.3-.823-.645-1.241-.96a4.578,4.578,0,0,0-1.179-.674,11.137,11.137,0,0,1-1.415-.671c-.7-.379-1.44-.663-2.163-.986a1.942,1.942,0,0,1-.48-.273,1.5,1.5,0,0,0-.581-.293l-1.8-.508c-.633-.179-1.262-.373-1.9-.535a15.98,15.98,0,0,0-2.534-.48c-.805-.071-1.613-.138-2.418-.212a8.578,8.578,0,0,0-2.117.076c-.466.072-.937.121-1.406.159a16.44,16.44,0,0,0-3.67.7c-1.076.345-2.131.753-3.186,1.159a14.253,14.253,0,0,0-1.326.627c-.646.331-1.277.689-1.924,1.015a13.008,13.008,0,0,0-2.021,1.34c-.414.319-.81.662-1.207,1-.155.13-.29.281-.431.425-.2.205-.391.42-.6.615a1.684,1.684,0,0,1-.379.24.326.326,0,0,1-.414-.075,1.049,1.049,0,0,1-.139-.146,5.984,5.984,0,0,0-1.385-1.45,2.9,2.9,0,0,1-.328-.315c-.27-.3-.531-.609-.8-.91-.427-.477-.854-.955-1.288-1.424-.229-.247-.478-.476-.718-.712q-.61-.6-1.223-1.208a.514.514,0,0,1-.17-.4c.019-1.164.023-2.328.043-3.491.008-.438.035-.876.076-1.313.117-1.225.244-2.451.371-3.675.081-.773.179-1.54.25-2.314.051-.553.072-1.109.105-1.665.025-.455.129-.534.569-.418a24.84,24.84,0,0,1,2.437.844c.473.179.939.377,1.408.567a3.358,3.358,0,0,0,.779.2,5.633,5.633,0,0,1,1.019.285c.633.231,1.252.5,1.888.726q1.766.623,3.543,1.208c.48.159.974.275,1.461.417a.552.552,0,0,0,.665-.221c.117-.164.263-.309.38-.474a20.983,20.983,0,0,1,1.487-1.722c.225-.251.443-.508.662-.765.491-.578.978-1.161,1.474-1.736a9.725,9.725,0,0,1,.689-.739c.31-.29.56-.629.841-.942.46-.514.946-1.007,1.432-1.5a8.1,8.1,0,0,1,.9-.811,2.8,2.8,0,0,0,.484-.58c.3-.4.406-.415.724-.023.373.458.736.923,1.068,1.41.722,1.06,1.42,2.136,2.132,3.2a1.12,1.12,0,0,0,.27.293,1.914,1.914,0,0,1,.441.479c.345.479.71.944,1.058,1.42.4.544.8,1.092,1.183,1.643a13.844,13.844,0,0,0,1.049,1.423,6.015,6.015,0,0,1,.489.7.3.3,0,0,0,.436.111.262.262,0,0,0,.045-.024,19.107,19.107,0,0,1,1.868-1.111c.817-.506,1.674-.946,2.512-1.415.206-.116.408-.24.619-.345.783-.394,1.571-.779,2.354-1.172.151-.075.29-.173.436-.256a21.907,21.907,0,0,1,2.2-1.14c.431-.186.835-.438,1.255-.653.13-.068.274-.11.438-.175" transform="translate(-76.963 -274.997)" fill="#a80092"/>
      <path id="Trazado_26974" data-name="Trazado 26974" d="M146.311,338.449a1.215,1.215,0,0,1-.243.085,4.37,4.37,0,0,1-.453.028c-.691.019-1.38.019-2.07-.022-.927-.056-1.839-.233-2.761-.336a2.339,2.339,0,0,0-.9.022,1.435,1.435,0,0,1-.45.024c-.977-.046-1.954-.092-2.931-.15-.554-.034-1.108-.092-1.664-.138-.3-.025-.6-.058-.907-.068a1.927,1.927,0,0,1-1.358-.582c-.548-.549-1.1-1.089-1.656-1.635-.828-.816-1.654-1.637-2.486-2.451-.313-.307-.643-.6-.961-.9-.21-.2-.217-.285-.054-.524a1.635,1.635,0,0,1,.256-.313c.4-.36.812-.706,1.213-1.068a6.273,6.273,0,0,0,.485-.512c.246-.279.49-.559.724-.846.181-.221.35-.453.518-.683.138-.192.258-.4.4-.584a20.483,20.483,0,0,0,1.272-1.887c.215-.362.418-.732.637-1.091a14.888,14.888,0,0,0,1.1-2.387,19.091,19.091,0,0,0,.94-3.146,28.067,28.067,0,0,0,.462-2.794c.042-.418.057-.839.069-1.26.021-.623.028-1.246.039-1.869a1.8,1.8,0,0,0,0-.3c-.112-.785-.13-1.582-.3-2.358-.127-.577-.267-1.15-.4-1.725-.089-.375-.165-.757-.275-1.128-.173-.582-.243-1.187-.459-1.759q-.447-1.184-1.008-2.318c-.217-.438-.435-.878-.64-1.321a21.582,21.582,0,0,0-1.682-2.821c-.384-.575-.805-1.125-1.208-1.685-.049-.069-.1-.134-.147-.205a.274.274,0,0,1,.017-.331,3.224,3.224,0,0,1,.267-.3c.4-.389.811-.763,1.2-1.161.966-.989,2.011-1.9,2.908-2.956a6.081,6.081,0,0,1,.587-.555.476.476,0,0,1,.474-.1,25.583,25.583,0,0,0,3.588.6c.786.116,1.579.144,2.364.234a9.865,9.865,0,0,1,2.185.392,6.092,6.092,0,0,0,.727.211,2.747,2.747,0,0,0,.448.023,3.806,3.806,0,0,1,.5.03,8.26,8.26,0,0,1,.839.19,2.57,2.57,0,0,0,1.047.129.143.143,0,0,1,.051,0c.641.142,1.289.266,1.921.438a1.961,1.961,0,0,0,.683.139.625.625,0,0,1,.175.047.964.964,0,0,1-.068.229c-.2.35-.413.694-.619,1.042-.441.74-.881,1.478-1.317,2.219a1.987,1.987,0,0,0-.379.978.593.593,0,0,1-.091.233c-.142.286-.284.573-.435.855-.159.3-.324.592-.495.881-.369.623-.746,1.242-1.113,1.868a2.333,2.333,0,0,1-.461.594,1.7,1.7,0,0,0-.368.476c-.413.793-.827,1.585-1.2,2.4-.228.488-.391,1-.581,1.51a.368.368,0,0,0,.126.453,1.049,1.049,0,0,1,.32.382.577.577,0,0,0,.159.194c.408.326.815.652,1.234.965s.816.6,1.236.88a7.7,7.7,0,0,0,.71.382,3.7,3.7,0,0,1,.357.185q.9.607,1.8,1.228c.774.538,1.549,1.077,2.314,1.629.425.305.832.635,1.242.959a1.525,1.525,0,0,1,.289.283,2.176,2.176,0,0,0,1.064.738,6.375,6.375,0,0,1,.727.349,1.015,1.015,0,0,1,.205.181.344.344,0,0,1-.249.32c-.767.363-1.41.925-2.144,1.338-.192.107-.379.221-.571.328a4.133,4.133,0,0,0-.983.7,2.564,2.564,0,0,1-.582.4,2.935,2.935,0,0,0-.908.711,1.536,1.536,0,0,1-.391.315c-.692.452-1.393.889-2.081,1.347-.336.223-.641.493-.973.723-.665.46-1.34.905-2.012,1.357-.07.046-.148.08-.218.127a.44.44,0,0,0-.217.377c-.006.167-.039.334-.036.5a1.933,1.933,0,0,0,.062.448c.122.472.269.939.378,1.415.2.854.359,1.715.56,2.568.135.573.314,1.137.473,1.7.1.342.211.678.282,1.024.152.732.477,1.4.692,2.113.26.853.622,1.674.85,2.54.065.244.11.493.175.738.042.159.1.313.164.5" transform="translate(-70.106 -271.691)" fill="#d60812"/>
      <path id="Trazado_26975" data-name="Trazado 26975" d="M139.435,331.809a1,1,0,0,1,.01.17c-.139,1-.3,2-.412,3.006s-.252,1.973-.395,2.958c-.173,1.2-.334,2.4-.515,3.6-.094.617-.219,1.229-.333,1.841a1.46,1.46,0,0,1-.1.245c-.135-.03-.249-.048-.357-.082-.466-.14-.934-.273-1.393-.432-.908-.316-1.81-.647-2.714-.973a3.107,3.107,0,0,1-.332-.123c-.925-.458-1.928-.707-2.88-1.095-.8-.325-1.6-.62-2.406-.927-.472-.181-.948-.354-1.42-.536a.7.7,0,0,0-.618.074,5.357,5.357,0,0,0-1.391,1.072,1.808,1.808,0,0,0-.19.167,25.047,25.047,0,0,1-2.126,2.156c-.634.677-1.3,1.317-1.985,1.946-.544.5-1.072,1.025-1.6,1.543-.193.19-.366.4-.55.594-.276.295-.552.592-.837.879-.185.185-.308.179-.464-.011-.2-.247-.392-.506-.6-.752-.185-.22-.395-.417-.57-.642-.424-.545-.833-1.1-1.252-1.65q-.306-.4-.627-.788a.835.835,0,0,0-.162-.116,1.048,1.048,0,0,1-.2-.152c-.367-.438-.729-.881-1.091-1.324-.043-.052-.078-.11-.124-.159-.818-.9-1.527-1.887-2.29-2.83a2.76,2.76,0,0,1-.313-.46,3.41,3.41,0,0,0-.557-.648.264.264,0,0,0-.325-.057c-.327.135-.658.26-.985.395a9.111,9.111,0,0,1-1.618.4,13.1,13.1,0,0,0-1.932.6c-1.578.6-3.177,1.134-4.793,1.616-.42.126-.841.249-1.264.363a1.842,1.842,0,0,1-.355.017c-.093-.849-.423-1.619-.5-2.443a4.161,4.161,0,0,0-.168-.739,2.535,2.535,0,0,1-.126-1,.746.746,0,0,0-.035-.249c-.142-.606-.3-1.208-.425-1.818a15.578,15.578,0,0,1-.24-1.6,14.862,14.862,0,0,0-.406-2.236,9.355,9.355,0,0,0-.274-.969.9.9,0,0,1,.244-1.017q1.146-1.068,2.264-2.169c.468-.46.911-.946,1.369-1.417.234-.243.466-.489.712-.716.4-.366.806-.717,1.212-1.072.217-.19.309-.194.534-.031a2.547,2.547,0,0,1,.232.2c.462.419.921.841,1.383,1.258.151.135.311.26.47.384a7.2,7.2,0,0,0,.686.518,20.454,20.454,0,0,0,2.208,1.415,3.592,3.592,0,0,1,.36.186.7.7,0,0,0,.487.1,1.153,1.153,0,0,1,1.084.26.436.436,0,0,0,.187.065c.226.059.458.106.68.18a.862.862,0,0,1,.339.2.805.805,0,0,0,.445.212c.3.062.594.123.884.205a32.2,32.2,0,0,0,3.6.833,3.245,3.245,0,0,1,.637.151,2.321,2.321,0,0,0,.838.151c.421,0,.844.043,1.264.031.589-.017,1.177-.082,1.766-.1a22.779,22.779,0,0,0,2.512-.278,2.611,2.611,0,0,0,.394-.091c.307-.091.607-.2.915-.28.736-.186,1.475-.359,2.212-.536.065-.016.132-.024.219-.039a1.111,1.111,0,0,1,.148.115.3.3,0,0,0,.368.081c.342-.142.681-.291,1.021-.441a3.339,3.339,0,0,1,.363-.176c.907-.278,1.732-.746,2.605-1.1.684-.281,1.341-.634,2.005-.966a1.4,1.4,0,0,0,.357-.274,4.827,4.827,0,0,1,.979-.711.346.346,0,0,1,.5.051,2.987,2.987,0,0,1,.205.223,7.269,7.269,0,0,0,.522.549,8.969,8.969,0,0,1,1.252,1.385,15.96,15.96,0,0,0,1.95,2.188c.251.225.519.431.78.643.169.139.345.269.507.418.085.077.19.179.2.278.019.21.211.2.334.32" transform="translate(-76.77 -265.104)" fill="#f07400"/>
      <path id="Trazado_26976" data-name="Trazado 26976" d="M86.421,333.577c.182-.733.337-1.439.537-2.133.258-.89.56-1.767.834-2.653.08-.256.123-.523.193-.782a7.474,7.474,0,0,1,.222-.723,12.041,12.041,0,0,0,.6-1.772,1.092,1.092,0,0,1,.141-.377,2.859,2.859,0,0,0,.366-1.041,7.309,7.309,0,0,1,.5-1.695.316.316,0,0,0-.06-.374.74.74,0,0,0-.228-.194,1.458,1.458,0,0,1-.494-.421,4.419,4.419,0,0,0-.525-.47c-.709-.571-1.417-1.144-2.137-1.7-.654-.507-1.318-1-1.934-1.551-.639-.575-1.305-1.12-1.971-1.665-.26-.211-.557-.378-.832-.571-.206-.145-.412-.292-.607-.45a.2.2,0,0,1-.019-.276,1.227,1.227,0,0,1,.168-.187,22.2,22.2,0,0,1,2.119-1.8c.6-.441,1.154-.932,1.736-1.394.514-.409,1.025-.823,1.557-1.208A22.784,22.784,0,0,0,89.49,307.7a6.46,6.46,0,0,0,.652-.895.429.429,0,0,0-.017-.479c-.357-.629-.7-1.27-1.083-1.884-.286-.456-.625-.88-.945-1.313-1.062-1.439-2.13-2.872-3.059-4.4-.324-.532-.63-1.076-.959-1.606-.177-.286-.388-.552-.577-.828a2.1,2.1,0,0,1-.173-.309.2.2,0,0,1,.141-.311c.356-.106.711-.214,1.072-.3.983-.235,1.969-.461,2.954-.687.164-.037.333-.056.5-.082a1.632,1.632,0,0,0,.753-.26,1.372,1.372,0,0,1,.613-.218,19.1,19.1,0,0,0,2.225-.478c1.146-.283,2.285-.584,3.424-.891.374-.1.738-.24,1.107-.359.128-.041.257-.081.389-.112a.341.341,0,0,1,.431.173c.157.363.488.552.753.806.621.594,1.254,1.176,1.869,1.777,1,.979,1.99,1.97,2.983,2.956a2.238,2.238,0,0,1,.174.182.285.285,0,0,1,.018.412c-.112.169-.238.328-.359.49-.295.39-.6.777-.885,1.171-.12.163-.221.339-.324.513-.2.334-.385.672-.577,1.008-.025.044-.058.083-.08.129q-.636,1.349-1.268,2.7c-.057.122-.1.252-.142.379-.18.491-.351.985-.537,1.474a13.938,13.938,0,0,0-.495,1.8,1.188,1.188,0,0,1-.217.559.51.51,0,0,0-.094.276q-.13,1.639-.25,3.279c-.007.1.008.2.007.3-.006.472-.033.944-.017,1.415.022.657.047,1.316.118,1.968a18.244,18.244,0,0,0,.55,2.674,2.363,2.363,0,0,1,.111.6,3.67,3.67,0,0,0,.29,1.276c.369.977.771,1.941,1.16,2.909a3.162,3.162,0,0,1,.274.866.927.927,0,0,0,.142.369c.43.726.88,1.439,1.3,2.169a13.006,13.006,0,0,0,1.672,2.28c.181.2.353.408.518.621s.175.322,0,.541a4.468,4.468,0,0,1-.412.444c-.715.69-1.447,1.363-2.145,2.072-.864.876-1.691,1.788-2.55,2.669a6.749,6.749,0,0,1-.818.672.406.406,0,0,1-.286.045,29.541,29.541,0,0,1-3.24-.793c-.368-.12-.753-.19-1.126-.292-.878-.244-1.752-.5-2.629-.739a23.605,23.605,0,0,0-3-.722c-.266-.036-.536-.048-.8-.08a1.322,1.322,0,0,1-.211-.059" transform="translate(-79.709 -271.7)" fill="#ffd300"/>
      <path id="Trazado_26977" data-name="Trazado 26977" d="M111.628,322.371a12.456,12.456,0,0,1-7.273-5.854q-1.09-2.89-.688-3.9l.157-.391.175.07c.444.177.03,2.1,1.754,4.424a11.781,11.781,0,0,0,6.314,4.493" transform="translate(-75.026 -267.565)"/>
      <path id="Trazado_26978" data-name="Trazado 26978" d="M110.679,319.848a11.047,11.047,0,0,0,7.411.955c2.848-.5,3.873-2.181,4.316-2l.176.07-.156.391q-.4,1.012-3.185,2.359c-2.8.773-3.294,1.259-9-.61" transform="translate(-73.641 -266.205)"/>
      <path id="Trazado_26979" data-name="Trazado 26979" d="M114.066,308.272c-.436,1.152-1.394,1.857-2.139,1.574s-1-1.445-.56-2.6,1.394-1.857,2.14-1.574,1,1.445.559,2.6" transform="translate(-73.452 -268.935)"/>
      <path id="Trazado_26980" data-name="Trazado 26980" d="M112.668,308.62c-.208.547-.663.881-1.016.747s-.472-.686-.264-1.233.662-.881,1.015-.747.472.686.266,1.233" transform="translate(-73.425 -268.573)" fill="#fff"/>
      <path id="Trazado_26981" data-name="Trazado 26981" d="M119.886,310.471c-.437,1.152-1.394,1.858-2.139,1.574s-1-1.444-.56-2.6,1.394-1.858,2.14-1.575,1,1.445.559,2.6" transform="translate(-72.246 -268.479)"/>
      <path id="Trazado_26982" data-name="Trazado 26982" d="M118.487,310.819c-.206.547-.662.881-1.015.748s-.473-.687-.266-1.234.662-.881,1.015-.747.473.686.266,1.233" transform="translate(-72.219 -268.118)" fill="#fff"/>
    </g>
  </g>
</svg>
