<svg xmlns="http://www.w3.org/2000/svg" xmlns:xlink="http://www.w3.org/1999/xlink" width="1220" height="686" viewBox="0 0 1220 686">
  <defs>
    <clipPath id="clip-path">
      <rect id="Rectángulo_431" data-name="Rectángulo 431" width="1220" height="686" rx="37" transform="translate(350 197)" fill="#fff" stroke="#707070" stroke-width="1"/>
    </clipPath>
    <clipPath id="clip-path-2">
      <rect id="Rectángulo_418" data-name="Rectángulo 418" width="1341" height="756" transform="translate(1341.438 756) rotate(180)" fill="none"/>
    </clipPath>
    <clipPath id="clip-path-3">
      <rect id="Rectángulo_416" data-name="Rectángulo 416" width="1360.096" height="960.849" transform="translate(1360.096 960.849) rotate(180)" fill="none"/>
    </clipPath>
    <radialGradient id="radial-gradient" cx="0.294" cy="0.578" r="0.966" gradientTransform="matrix(0.805, 0, 0, -1, 0.38, 0.843)" gradientUnits="objectBoundingBox">
      <stop offset="0.04" stop-color="#68276e"/>
      <stop offset="1"/>
    </radialGradient>
    <radialGradient id="radial-gradient-2" cx="0.501" cy="0.475" r="4.921" gradientTransform="matrix(0.086, 0, 0, -1, 1.969, 1.05)" xlink:href="#radial-gradient"/>
    <clipPath id="clip-path-4">
      <rect id="Rectángulo_409" data-name="Rectángulo 409" width="1358.159" height="979.496" fill="none"/>
    </clipPath>
    <linearGradient id="linear-gradient" x1="2.644" y1="0.5" x2="3.644" y2="0.5" gradientUnits="objectBoundingBox">
      <stop offset="0.04" stop-color="#68276e" stop-opacity="0"/>
      <stop offset="1"/>
    </linearGradient>
    <linearGradient id="linear-gradient-2" x1="1.901" x2="2.901" xlink:href="#linear-gradient"/>
    <linearGradient id="linear-gradient-3" x1="-0.552" y1="-0.447" x2="-0.732" y2="0.929" gradientUnits="objectBoundingBox">
      <stop offset="0" stop-color="#ff8"/>
      <stop offset="0.99" stop-opacity="0"/>
    </linearGradient>
    <radialGradient id="radial-gradient-3" cx="0.5" cy="0.548" r="1.053" gradientTransform="matrix(-0.967, 0, 0, 1, 5.403, 0)" gradientUnits="objectBoundingBox">
      <stop offset="0.04" stop-color="#c711cc"/>
      <stop offset="1" stop-opacity="0"/>
    </radialGradient>
    <radialGradient id="radial-gradient-4" cx="0.229" cy="0.36" r="4.478" gradientTransform="matrix(-0.183, 0, 0, 0.23, 2.869, 0.28)" gradientUnits="objectBoundingBox">
      <stop offset="0.06" stop-color="#75000e"/>
      <stop offset="0.77" stop-color="#4b000e"/>
    </radialGradient>
    <radialGradient id="radial-gradient-5" cx="0.494" cy="0.623" r="0.276" gradientTransform="matrix(-1.14, 0.022, 0.028, 1.112, 73.563, -0.887)" gradientUnits="objectBoundingBox">
      <stop offset="0" stop-color="#fff"/>
      <stop offset="1" stop-color="#73c6ff" stop-opacity="0"/>
    </radialGradient>
    <radialGradient id="radial-gradient-6" cx="34.927" cy="1.096" r="0.311" gradientTransform="translate(-0.07) scale(1.14 1)" xlink:href="#radial-gradient-5"/>
    <radialGradient id="radial-gradient-7" cx="75.154" cy="1.66" r="0.311" gradientTransform="translate(-0.07) scale(1.14 1)" xlink:href="#radial-gradient-5"/>
    <radialGradient id="radial-gradient-8" cx="58.433" cy="1.392" r="0.311" gradientTransform="translate(-0.07) scale(1.14 1)" xlink:href="#radial-gradient-5"/>
    <radialGradient id="radial-gradient-9" cx="14.279" cy="0.736" r="0.311" gradientTransform="translate(-0.07) scale(1.14 1)" xlink:href="#radial-gradient-5"/>
    <radialGradient id="radial-gradient-10" cx="0.483" cy="0.48" r="0.288" gradientTransform="matrix(-0.627, -0.793, -0.916, 0.683, 10.312, 4.505)" xlink:href="#radial-gradient-5"/>
    <linearGradient id="linear-gradient-4" x1="2.277" y1="-0.447" x2="2.097" y2="0.929" xlink:href="#linear-gradient-3"/>
  </defs>
  <g id="Grupo_552" data-name="Grupo 552" transform="translate(-350 -197)">
    <g id="Enmascarar_grupo_4" data-name="Enmascarar grupo 4" clip-path="url(#clip-path)">
      <g id="Fondos_Categorias-04" transform="translate(350.444 197)" style="isolation: isolate">
        <g id="Capa_1" data-name="Capa 1" transform="translate(-60.93)">
          <g id="Grupo_390" data-name="Grupo 390" transform="translate(0.048)" clip-path="url(#clip-path-2)">
            <g id="Grupo_389" data-name="Grupo 389" transform="translate(-16.045 -162.42)" clip-path="url(#clip-path-3)">
              <rect id="Rectángulo_406" data-name="Rectángulo 406" width="1358.313" height="1093.573" transform="translate(1358.306 977.001) rotate(180)" fill="url(#radial-gradient)"/>
              <rect id="Rectángulo_407" data-name="Rectángulo 407" width="1358.313" height="117.256" transform="translate(1358.306 977.001) rotate(180)" fill="url(#radial-gradient-2)"/>
              <g id="Grupo_388" data-name="Grupo 388" transform="translate(3.809 -118.144)" opacity="0.27">
                <g id="Grupo_387" data-name="Grupo 387" clip-path="url(#clip-path-4)">
                  <rect id="Rectángulo_408" data-name="Rectángulo 408" width="1358.159" height="979.503" fill="#ad0984"/>
                  <path id="Trazado_24679" data-name="Trazado 24679" d="M953.53,924.039l42.655-175.608,197.107-.811Z" transform="translate(-274.88 55.464)" fill="#590662"/>
                  <path id="Trazado_24680" data-name="Trazado 24680" d="M69.444,654.505-17.48,876.137V595.72Z" transform="translate(17.48 101.2)" fill="#d71fb1"/>
                  <path id="Trazado_24681" data-name="Trazado 24681" d="M1884.511-86.351,1794.24-9.575l34.785-102.915Z" transform="translate(-528.008 314.433)" fill="#390023"/>
                  <path id="Trazado_24682" data-name="Trazado 24682" d="M1917.207,788.923,1897.33,579.012l19.877-280.152Z" transform="translate(-559.048 190.581)" fill="#660437"/>
                  <path id="Trazado_24683" data-name="Trazado 24683" d="M274,794.517-17.48,924.011V923.6l188.8-174.819Z" transform="translate(17.48 55.115)" fill="#b21cb9"/>
                  <path id="Trazado_24684" data-name="Trazado 24684" d="M171.317,728.02-17.48,902.839v-1.377L69.444,679.83Z" transform="translate(17.48 75.875)" fill="#c91fbe"/>
                  <path id="Trazado_24685" data-name="Trazado 24685" d="M396.573,866.5-17.49,943.931v-.217L274,814.22Z" transform="translate(17.483 35.412)" fill="#a4128e"/>
                  <path id="Trazado_24686" data-name="Trazado 24686" d="M1854.951,488.19l14.908,147.827-63.769-16.334Z" transform="translate(-531.576 133.576)" fill="#68043a"/>
                  <path id="Trazado_24687" data-name="Trazado 24687" d="M1890.908,579.015,1876,431.188l34.785-132.318Z" transform="translate(-552.625 190.578)" fill="#6b0544"/>
                  <path id="Trazado_24688" data-name="Trazado 24688" d="M1698.271,16.111,1502,63.483,1475.5-27.18Z" transform="translate(-432.039 288.748)" fill="#58002d"/>
                  <path id="Trazado_24689" data-name="Trazado 24689" d="M1886.168,186.265,1794.24,1.682,1884.511-75.1Z" transform="translate(-528.008 303.176)" fill="#3f0126"/>
                  <path id="Trazado_24690" data-name="Trazado 24690" d="M1616.282-191.96,1698.271-33.5,1475.5-76.793Z" transform="translate(-432.039 338.361)" fill="#5b0335"/>
                  <path id="Trazado_24691" data-name="Trazado 24691" d="M1793.7-136.418,1758.919-33.5,1676.93-191.96Z" transform="translate(-492.688 338.361)" fill="#44062f"/>
                  <path id="Trazado_24692" data-name="Trazado 24692" d="M1872.61,909.611l-123.4-138.035L1852.733,699.7Z" transform="translate(-514.45 69.892)" fill="#81073a"/>
                  <path id="Trazado_24693" data-name="Trazado 24693" d="M1788.964,676.33l63.769,16.334L1749.21,764.54Z" transform="translate(-514.45 76.929)" fill="#790536"/>
                  <path id="Trazado_24694" data-name="Trazado 24694" d="M1831.047,476.222l-48.861,131.493L1726.7,448.44Z" transform="translate(-507.673 145.544)" fill="#8c0f53"/>
                  <path id="Trazado_24695" data-name="Trazado 24695" d="M1870.827,219.342,1743.29,203.009,1778.9,34.76Z" transform="translate(-512.668 270.098)" fill="#450024"/>
                  <path id="Trazado_24696" data-name="Trazado 24696" d="M1831.047,431.185,1726.7,403.4,1865.832,298.86Z" transform="translate(-507.673 190.581)" fill="#710632"/>
                  <path id="Trazado_24697" data-name="Trazado 24697" d="M1865.832,291.824,1726.7,396.367l11.6-120.877Z" transform="translate(-507.673 197.617)" fill="#660331"/>
                  <path id="Trazado_24698" data-name="Trazado 24698" d="M1554.047,259.13l118.423,132.311-125.881,87.4Z" transform="translate(-453.443 202.543)" fill="#5d0432"/>
                  <path id="Trazado_24699" data-name="Trazado 24699" d="M1763.633,676.33l-39.754,88.21-58.8-62.895Z" transform="translate(-489.12 76.929)" fill="#8b0542"/>
                  <path id="Trazado_24700" data-name="Trazado 24700" d="M1708.147,448.44l55.487,159.275-98.553,25.315Z" transform="translate(-489.12 145.544)" fill="#96094e"/>
                  <path id="Trazado_24701" data-name="Trazado 24701" d="M1401.291,388.85,1497.356,517.9l-114.286-8.17Z" transform="translate(-404.21 163.486)" fill="#45002f"/>
                  <path id="Trazado_24702" data-name="Trazado 24702" d="M1672.471,448.44,1629.4,633.029l-82.814-97.191Z" transform="translate(-453.443 145.544)" fill="#a01058"/>
                  <path id="Trazado_24703" data-name="Trazado 24703" d="M1687.279,270.564l-11.6,120.877L1557.26,259.13Z" transform="translate(-456.656 202.543)" fill="#53032a"/>
                  <path id="Trazado_24704" data-name="Trazado 24704" d="M1519.118,573.49l82.814,97.191L1455.35,738.475Z" transform="translate(-425.972 107.893)" fill="#a91466"/>
                  <path id="Trazado_24705" data-name="Trazado 24705" d="M1674.076,223.417l-130.018-11.434L1513.41,102.54Z" transform="translate(-443.454 249.69)" fill="#470025"/>
                  <path id="Trazado_24706" data-name="Trazado 24706" d="M1709.685,34.76l-35.609,168.249L1513.41,82.132Z" transform="translate(-443.454 270.098)" fill="#490131"/>
                  <path id="Trazado_24707" data-name="Trazado 24707" d="M1601.933,712.55l58.8,62.9-205.382,4.9Z" transform="translate(-425.972 66.023)" fill="#bf0e5f"/>
                  <path id="Trazado_24708" data-name="Trazado 24708" d="M930.76,480l-90.271,89.838L838,497.151Z" transform="translate(-240.095 136.041)" fill="#b20dcb"/>
                  <path id="Trazado_24709" data-name="Trazado 24709" d="M1784.132,940.575,1455.35,807.439l205.382-4.9Z" transform="translate(-425.972 38.928)" fill="#89063c"/>
                  <path id="Trazado_24710" data-name="Trazado 24710" d="M1357.029,561.8l50.517,173.155L1296.58,691.672Z" transform="translate(-378.169 111.412)" fill="#520a56"/>
                  <path id="Trazado_24711" data-name="Trazado 24711" d="M1512.663,259.13l-7.457,219.71L1409.14,349.793Z" transform="translate(-412.059 202.543)" fill="#450024"/>
                  <path id="Trazado_24712" data-name="Trazado 24712" d="M1497.356,569.97l-63.769,164.985L1383.07,561.8Z" transform="translate(-404.21 111.412)" fill="#4f0844"/>
                  <path id="Trazado_24713" data-name="Trazado 24713" d="M1146.3,399.37l36.434,109.449L1056.03,530.045Z" transform="translate(-305.742 160.318)" fill="#700062"/>
                  <path id="Trazado_24714" data-name="Trazado 24714" d="M1304.257,790.9,953.53,924.039,1193.291,747.62Z" transform="translate(-274.88 55.464)" fill="#600b82"/>
                  <path id="Trazado_24715" data-name="Trazado 24715" d="M1449.191,102.54l30.647,109.443L1300.12,195.649Z" transform="translate(-379.234 249.69)" fill="#6e0941"/>
                  <path id="Trazado_24716" data-name="Trazado 24716" d="M1479.841,252.094l-103.523,90.663-76.188-107Z" transform="translate(-379.237 209.579)" fill="#5f063c"/>
                  <path id="Trazado_24717" data-name="Trazado 24717" d="M1339.189,560.045,1278.74,689.916,1237.33,555.97Z" transform="translate(-360.329 113.168)" fill="#500445"/>
                  <path id="Trazado_24718" data-name="Trazado 24718" d="M1256.96,235.408l-80.333,114.349L1156.75,234.59Z" transform="translate(-336.067 209.932)" fill="#b30f94"/>
                  <path id="Trazado_24719" data-name="Trazado 24719" d="M1357.41,388.85l-18.221,120.877-101.859-4.075Z" transform="translate(-360.329 163.486)" fill="#580742"/>
                  <path id="Trazado_24720" data-name="Trazado 24720" d="M1426,80.019l-149.071,93.109L1223.11,27.74Z" transform="translate(-356.048 272.212)" fill="#a00b71"/>
                  <path id="Trazado_24721" data-name="Trazado 24721" d="M1258.72-210.65,1399.508-82.421l-176.4,38.384Z" transform="translate(-356.048 343.988)" fill="#ac1b9c"/>
                  <path id="Trazado_24722" data-name="Trazado 24722" d="M1399.508-27.18,1426,63.483,1223.11,11.2Z" transform="translate(-356.048 288.748)" fill="#8f0e6b"/>
                  <path id="Trazado_24723" data-name="Trazado 24723" d="M1203.13,27.74l53.83,145.388-100.21-.818Z" transform="translate(-336.067 272.212)" fill="#c81aaf"/>
                  <path id="Trazado_24724" data-name="Trazado 24724" d="M1265.523,235.76l76.188,107-156.521,7.353Z" transform="translate(-344.63 209.579)" fill="#760253"/>
                  <path id="Trazado_24725" data-name="Trazado 24725" d="M1341.711,388.85l-120.08,116.8L1185.19,396.2Z" transform="translate(-344.63 163.486)" fill="#710656"/>
                  <path id="Trazado_24726" data-name="Trazado 24726" d="M1238.739-210.65,1203.13-44.037,1156.75-162.46Z" transform="translate(-336.067 343.988)" fill="#ab24a5"/>
                  <path id="Trazado_24727" data-name="Trazado 24727" d="M1182.743,555.97l41.41,133.946L1056.03,577.2Z" transform="translate(-305.742 113.168)" fill="#56034b"/>
                  <path id="Trazado_24728" data-name="Trazado 24728" d="M963.584,480l59.624,74.322L947.02,605.783Z" transform="translate(-272.92 136.041)" fill="#9807a0"/>
                  <path id="Trazado_24729" data-name="Trazado 24729" d="M1043.544,586.34,1211.66,699.06l-197.1.811Z" transform="translate(-293.255 104.024)" fill="#660962"/>
                  <path id="Trazado_24730" data-name="Trazado 24730" d="M984.8,233.42,1120.609,349.4,970.72,405.758Z" transform="translate(-280.056 210.284)" fill="#bc0ebb"/>
                  <path id="Trazado_24731" data-name="Trazado 24731" d="M795.088-119.271l-71.219,83.3-17.389-88.2Z" transform="translate(-200.496 317.95)" fill="#c41388"/>
                  <path id="Trazado_24732" data-name="Trazado 24732" d="M1120.616,399.37l-90.271,130.675L970.72,455.723Z" transform="translate(-280.056 160.318)" fill="#a614a5"/>
                  <path id="Trazado_24733" data-name="Trazado 24733" d="M1153.9,25.28l-46.38,144.57L993.23,19.57Z" transform="translate(-286.833 274.672)" fill="#db30d7"/>
                  <path id="Trazado_24734" data-name="Trazado 24734" d="M1107.516-141.7,1153.9-23.276,993.23-28.994Z" transform="translate(-286.833 323.228)" fill="#d230c4"/>
                  <path id="Trazado_24735" data-name="Trazado 24735" d="M1028.839-177.93l78.677,25.322L993.23-39.9Z" transform="translate(-286.833 334.137)" fill="#c829a9"/>
                  <path id="Trazado_24736" data-name="Trazado 24736" d="M1106.8,234.238,1126.679,349.4,990.86,233.42Z" transform="translate(-286.12 210.284)" fill="#c418c2"/>
                  <path id="Trazado_24737" data-name="Trazado 24737" d="M992.516,19.56,1106.8,169.847l-115.943-.818Z" transform="translate(-286.12 274.675)" fill="#d228e1"/>
                  <path id="Trazado_24738" data-name="Trazado 24738" d="M1023.208,586.34,994.225,699.871l-47.2-62.07Z" transform="translate(-272.92 104.024)" fill="#890d8f"/>
                  <path id="Trazado_24739" data-name="Trazado 24739" d="M661.17,966.613H-17.48v-.161L396.576,889.02Z" transform="translate(17.48 12.89)" fill="#ad0984"/>
                  <path id="Trazado_24740" data-name="Trazado 24740" d="M1633.04,942.686H953.53L1304.257,809.55Z" transform="translate(-274.88 36.818)" fill="#6e0a62"/>
                  <path id="Trazado_24741" data-name="Trazado 24741" d="M89.328-223.65,42.116-89.7l-59.6-307.626V-400.3Z" transform="translate(17.48 401.09)" fill="#500b5c"/>
                  <path id="Trazado_24742" data-name="Trazado 24742" d="M888.517,407.55l42.242,50.636L838,475.337Z" transform="translate(-240.095 157.855)" fill="#b309cc"/>
                  <path id="Trazado_24743" data-name="Trazado 24743" d="M966.6,233.42,952.522,405.758,910.28,355.121Z" transform="translate(-261.858 210.284)" fill="#aa0fcb"/>
                  <path id="Trazado_24744" data-name="Trazado 24744" d="M915.267,644.485,841.56,709.826V608.54Z" transform="translate(-241.167 97.34)" fill="#ac07c3"/>
                  <path id="Trazado_24745" data-name="Trazado 24745" d="M919.817,924.388,841.56,752.051l120.912-3.271Z" transform="translate(-241.167 55.115)" fill="#7e009d"/>
                  <path id="Trazado_24746" data-name="Trazado 24746" d="M915.267,659.97l47.2,62.07L841.56,725.311Z" transform="translate(-241.167 81.855)" fill="#9004a5"/>
                  <path id="Trazado_24747" data-name="Trazado 24747" d="M931.831,480,915.267,605.783,841.56,569.838Z" transform="translate(-241.167 136.041)" fill="#b008c0"/>
                  <path id="Trazado_24748" data-name="Trazado 24748" d="M980.674-177.93,945.065-39.9l-111.8-95.555Z" transform="translate(-238.668 334.137)" fill="#db22a2"/>
                  <path id="Trazado_24749" data-name="Trazado 24749" d="M750.941,567.65l46.38,28.578L694.63,637.891Z" transform="translate(-196.928 109.651)" fill="#b90cca"/>
                  <path id="Trazado_24750" data-name="Trazado 24750" d="M819.092,504.54l2.488,72.687L775.2,548.648Z" transform="translate(-221.187 128.653)" fill="#be12d6"/>
                  <path id="Trazado_24751" data-name="Trazado 24751" d="M914.384,14.285l-158.185,156L731.36,2.04Z" transform="translate(-207.987 279.95)" fill="#cb16c5"/>
                  <path id="Trazado_24752" data-name="Trazado 24752" d="M325.082-177.93l101.859,72.694L270.42,5.842Z" transform="translate(-69.203 334.137)" fill="#900e70"/>
                  <path id="Trazado_24753" data-name="Trazado 24753" d="M925.085,19.56l-1.656,149.469L766.9,175.564Z" transform="translate(-218.688 274.675)" fill="#cc16e5"/>
                  <path id="Trazado_24754" data-name="Trazado 24754" d="M923.428,233.42l-56.318,121.7L766.9,239.955Z" transform="translate(-218.688 210.284)" fill="#b516ee"/>
                  <path id="Trazado_24755" data-name="Trazado 24755" d="M802.579-117.16,914.384-21.6,731.36-33.857Z" transform="translate(-207.987 315.84)" fill="#dd1aa6"/>
                  <path id="Trazado_24756" data-name="Trazado 24756" d="M607.18,376l95.241,133.946L533.48,449.5Z" transform="translate(-148.408 167.355)" fill="#cd2bee"/>
                  <path id="Trazado_24757" data-name="Trazado 24757" d="M702.421,541.612l-56.311,70.241L533.48,481.17Z" transform="translate(-148.408 135.689)" fill="#c521d8"/>
                  <path id="Trazado_24758" data-name="Trazado 24758" d="M797.321,608.54V709.826L694.63,650.2Z" transform="translate(-196.928 97.34)" fill="#af09c3"/>
                  <path id="Trazado_24759" data-name="Trazado 24759" d="M680.436-124.17l17.389,88.2L619.98-62.917Z" transform="translate(-174.452 317.95)" fill="#b40d7f"/>
                  <path id="Trazado_24760" data-name="Trazado 24760" d="M578.119,102.54l126.706,98.008L560.73,230.769Z" transform="translate(-156.612 249.69)" fill="#cd22d3"/>
                  <path id="Trazado_24761" data-name="Trazado 24761" d="M778.062,465.838l-43.892,44.108L638.93,376Z" transform="translate(-180.158 167.355)" fill="#c017e6"/>
                  <path id="Trazado_24762" data-name="Trazado 24762" d="M828.58,398.051l-50.517,67.787L638.93,376Z" transform="translate(-180.158 167.355)" fill="#b814e5"/>
                  <path id="Trazado_24763" data-name="Trazado 24763" d="M728.37,242.77,828.58,357.937,638.93,335.886Z" transform="translate(-180.158 207.469)" fill="#c418f8"/>
                  <path id="Trazado_24764" data-name="Trazado 24764" d="M603.109,757.542l158.178-4.082L574.95,848.2Z" transform="translate(-160.894 53.706)" fill="#c10dac"/>
                  <path id="Trazado_24765" data-name="Trazado 24765" d="M670.727,668.15l102.691,59.624L615.24,731.856Z" transform="translate(-173.025 79.392)" fill="#bc14bf"/>
                  <path id="Trazado_24766" data-name="Trazado 24766" d="M609.631-36.53,687.476-9.58,585.61,60.668Z" transform="translate(-164.104 291.563)" fill="#c31392"/>
                  <path id="Trazado_24767" data-name="Trazado 24767" d="M687.476,2.03l24.839,168.256L585.61,72.278Z" transform="translate(-164.104 279.953)" fill="#c418ba"/>
                  <path id="Trazado_24768" data-name="Trazado 24768" d="M488.664-73.92l87.79,26.132L475.42,33.894Z" transform="translate(-130.927 302.82)" fill="#8e0867"/>
                  <path id="Trazado_24769" data-name="Trazado 24769" d="M581.133,376l-73.7,73.5L446.97,384.163Z" transform="translate(-122.361 167.355)" fill="#d83eee"/>
                  <path id="Trazado_24770" data-name="Trazado 24770" d="M95.129,141.3-17.48,221.557v-1.894L42.116,44.11Z" transform="translate(17.48 267.283)" fill="#911695"/>
                  <path id="Trazado_24771" data-name="Trazado 24771" d="M839.544,925.8,574.95,848.2,761.287,753.46Z" transform="translate(-160.894 53.706)" fill="#9f06ac"/>
                  <path id="Trazado_24772" data-name="Trazado 24772" d="M704.825,242.77l-89.44,93.116-54.655-62.9Z" transform="translate(-156.612 207.469)" fill="#cb29ee"/>
                  <path id="Trazado_24773" data-name="Trazado 24773" d="M526.478,286.01l54.655,62.9L446.97,357.068Z" transform="translate(-122.361 194.45)" fill="#db3dea"/>
                  <path id="Trazado_24774" data-name="Trazado 24774" d="M457.74,186.68,526.478,256.1,446.97,327.161Z" transform="translate(-122.361 224.357)" fill="#db2fd1"/>
                  <path id="Trazado_24775" data-name="Trazado 24775" d="M42.116-88.414-17.48,87.138V-396.04Z" transform="translate(17.48 399.807)" fill="#4e0a6f"/>
                  <path id="Trazado_24776" data-name="Trazado 24776" d="M471.494,80.33l77.013,15.523L462.38,154.659Z" transform="translate(-127 256.378)" fill="#b6148e"/>
                  <path id="Trazado_24777" data-name="Trazado 24777" d="M576.455-36.53l-24.022,97.2L475.42,45.145Z" transform="translate(-130.927 291.563)" fill="#ab0c82"/>
                  <path id="Trazado_24778" data-name="Trazado 24778" d="M548.507,102.54,531.118,230.769,462.38,161.346Z" transform="translate(-127 249.69)" fill="#d022b9"/>
                  <path id="Trazado_24779" data-name="Trazado 24779" d="M405.371,603.87,550.3,712.5,399.57,750.886Z" transform="translate(-108.089 98.745)" fill="#cd23c1"/>
                  <path id="Trazado_24780" data-name="Trazado 24780" d="M69.444,611.57-17.48,552.785v-.028l150.7-99.637Z" transform="translate(17.48 144.135)" fill="#b6169c"/>
                  <path id="Trazado_24781" data-name="Trazado 24781" d="M495.66,481.17,608.29,611.852,407.87,566.927Z" transform="translate(-110.588 135.689)" fill="#dd3de5"/>
                  <path id="Trazado_24782" data-name="Trazado 24782" d="M608.29,648.8,552.8,712.5,407.87,603.87Z" transform="translate(-110.588 98.745)" fill="#d229ca"/>
                  <path id="Trazado_24783" data-name="Trazado 24783" d="M550.3,759.3l-28.159,90.663L399.57,797.684Z" transform="translate(-108.089 51.947)" fill="#ba12a7"/>
                  <path id="Trazado_24784" data-name="Trazado 24784" d="M426.941-73.92,413.7,33.894,270.42,37.158Z" transform="translate(-69.203 302.82)" fill="#8c0967"/>
                  <path id="Trazado_24785" data-name="Trazado 24785" d="M488.883,474.134l-87.79,85.756L385.36,457.8Z" transform="translate(-103.811 142.726)" fill="#ca35e9"/>
                  <path id="Trazado_24786" data-name="Trazado 24786" d="M428.417,387.68l60.463,65.341L385.35,436.688Z" transform="translate(-103.808 163.838)" fill="#d63ce8"/>
                  <path id="Trazado_24787" data-name="Trazado 24787" d="M133.219,371.841-17.48,264.635v-1.209L95.129,183.17Z" transform="translate(17.48 225.414)" fill="#a81182"/>
                  <path id="Trazado_24788" data-name="Trazado 24788" d="M429.914,186.68l-10.77,140.481-64.593-73.5Z" transform="translate(-94.534 224.357)" fill="#cd1fb4"/>
                  <path id="Trazado_24789" data-name="Trazado 24789" d="M419.143,356.014l-43.067,49.008L354.55,282.51Z" transform="translate(-94.534 195.503)" fill="#cd2bcc"/>
                  <path id="Trazado_24790" data-name="Trazado 24790" d="M413.7,80.33l-9.114,74.329L270.42,83.6Z" transform="translate(-69.203 256.378)" fill="#8e0b6b"/>
                  <path id="Trazado_24791" data-name="Trazado 24791" d="M404.583,156.068l-75.364,66.977L270.42,85.01Z" transform="translate(-69.203 254.968)" fill="#8e0b73"/>
                  <path id="Trazado_24792" data-name="Trazado 24792" d="M284.411-177.93,229.749,5.842,135.34-156.7Z" transform="translate(-28.532 334.137)" fill="#7f0e7a"/>
                  <path id="Trazado_24793" data-name="Trazado 24793" d="M361.135,603.87l-5.8,147.016L252.65,705.149Z" transform="translate(-63.853 98.745)" fill="#aa1dc1"/>
                  <path id="Trazado_24794" data-name="Trazado 24794" d="M209.41,72.7,120.8,141.3,67.79,44.11Z" transform="translate(-8.194 267.283)" fill="#901186"/>
                  <path id="Trazado_24795" data-name="Trazado 24795" d="M328.983,456.391l15.739,102.09L198.14,453.12Z" transform="translate(-47.441 144.135)" fill="#bf26d6"/>
                  <path id="Trazado_24796" data-name="Trazado 24796" d="M344.723,558.481,236.238,659.76l-38.1-206.64Z" transform="translate(-47.441 144.135)" fill="#b526d0"/>
                  <path id="Trazado_24797" data-name="Trazado 24797" d="M307.457,282.51l21.526,122.512L198.14,401.751Z" transform="translate(-47.441 195.503)" fill="#b919ad"/>
                  <path id="Trazado_24798" data-name="Trazado 24798" d="M291.047,252.6,181.731,371.841,143.64,183.17Z" transform="translate(-31.031 225.414)" fill="#8d0c73"/>
                  <path id="Trazado_24799" data-name="Trazado 24799" d="M232.248,85.01l58.8,138.035L143.64,153.615Z" transform="translate(-31.031 254.968)" fill="#940d73"/>
                  <path id="Trazado_24800" data-name="Trazado 24800" d="M133.219,406.936l-150.7,99.637V299.73Z" transform="translate(17.48 190.319)" fill="#b20f82"/>
                  <path id="Trazado_24801" data-name="Trazado 24801" d="M170.669,453.12l38.1,206.64L106.9,611.57Z" transform="translate(-19.969 144.135)" fill="#bd1ec0"/>
                  <path id="Trazado_24802" data-name="Trazado 24802" d="M115-147.55,209.41,14.989,67.79-13.6Z" transform="translate(-8.194 324.99)" fill="#750f7d"/>
                </g>
              </g>
              <path id="Trazado_24803" data-name="Trazado 24803" d="M178-229.96V42.93h116.25V-89.486h101.72v74.273h106.57V94.579h56.507V-45.9l75.888-75.881V80.049s7.954.657,17.969,1.251v97.219H-19V-259Zm434,147.925L603.653-73.7v45.045h8.338Zm8.771,151.049H629.1V52.344h-8.338Zm0-46.506H629.1V5.838h-8.338Zm0-23.246H629.1V-17.414h-8.338Zm0-27.915H629.1V-99.145l-8.338,8.331ZM603.653,92.259h8.338V75.6h-8.338Zm0-46.506h8.338V29.091h-8.338Zm0-23.253h8.338V5.838h-8.338ZM586.544,69.006h8.338V52.344h-8.338Zm0-69.751h8.338V-17.414h-8.338Zm0-27.915h8.338V-64.926l-8.338,8.338ZM479.387,75.855H490.9V52.791H479.387Zm0-64.258H490.9V-11.432H479.387Zm-27.348,0h11.511V-11.432H452.066ZM371.51,6.188h8.338V-10.481H371.51Zm0-23.253h8.338V-33.734H371.51Zm0-23.253h8.338v-16.7H371.51Zm0-23.253h8.338V-80.239H371.51ZM354.4,29.441h8.338V12.772H354.4Zm0-46.506h8.338V-33.734H354.4Zm0-23.253h8.338v-16.7H354.4ZM337.291,6.188h8.331V-10.481h-8.331Zm0-23.253h8.331V-33.734h-8.331Zm0-46.506h8.331V-80.239h-8.331ZM162.319,80.985h13.8V53.413h-13.8Zm0-77h13.8V-23.621h-13.8Zm0-38.5h13.8v-27.6h-13.8Zm0-38.5h13.8V-100.62h-13.8Zm0-77.006h13.8v-27.6h-13.8Zm-28.327,192.5h13.8v-27.6h-13.8Zm0-38.5h13.8V-23.621h-13.8Zm0-77h13.8V-100.62h-13.8Zm0-38.5h13.8v-27.6h-13.8Zm-28.334,192.5h13.8V53.413h-13.8Zm0-38.5h13.8v-27.6h-13.8Zm0-77h13.8v-27.6h-13.8Zm0-77h13.8v-27.6h-13.8Zm0-38.5h13.8v-27.6h-13.8Zm-28.327,231h13.8V53.413h-13.8Zm0-77h13.8V-23.621h-13.8Zm0-77h13.8V-100.62h-13.8Zm0-77.006h13.8v-27.6h-13.8Z" transform="translate(21.747 240.402)" fill="#b51596" opacity="0.68"/>
              <path id="Trazado_24804" data-name="Trazado 24804" d="M966.463-399.18C570.886-353.45-.768-142.12-22.93,694.393V-399.18Z" transform="translate(22.93 282.609)" fill="url(#linear-gradient)"/>
              <path id="Trazado_24805" data-name="Trazado 24805" d="M510.69-399.18h985.36V612.886C1440.011-155.994,893.085-354.974,510.69-399.18Z" transform="translate(-137.737 282.609)" fill="url(#linear-gradient-2)"/>
              <path id="Trazado_24806" data-name="Trazado 24806" d="M1335.383,456.012H-22.93V29.907A44.43,44.43,0,0,1,16.635,63.385a44.227,44.227,0,0,1,6.989,12.042,44.4,44.4,0,0,1,59.617,22.98,44.388,44.388,0,0,1,70.786,1.041,44.269,44.269,0,0,1,20.387-1.957,44.395,44.395,0,0,1,66.837-32.779,44.213,44.213,0,0,1,28.76-10.6,44.934,44.934,0,0,1,7.5.643,44.388,44.388,0,0,1,85.568,15.474,44.172,44.172,0,0,1,20.436,8.142,44.388,44.388,0,0,1,76.517,23.763,44.4,44.4,0,0,1,42.725,4.11,44.381,44.381,0,0,1,73.2-25.161,44.395,44.395,0,0,1,75.65,45.129h547.3a54.466,54.466,0,0,1,61.868-44.248,54.438,54.438,0,0,1,74.616-24.315Z" transform="translate(22.93 154.319)" fill="#990d7b" opacity="0.68"/>
              <path id="Trazado_24807" data-name="Trazado 24807" d="M1336.533,681.236H-21.78v-426.1a44.409,44.409,0,0,1,39.565,33.471,44.431,44.431,0,0,1,6.989,12.042,44.395,44.395,0,0,1,59.61,22.987,44.381,44.381,0,0,1,70.786,1.034,44.423,44.423,0,0,1,14.335-2.376,45.636,45.636,0,0,1,6.06.419,44.388,44.388,0,0,1,66.858-32.793,44.22,44.22,0,0,1,28.767-10.589,44.858,44.858,0,0,1,7.492.636,44.388,44.388,0,0,1,85.568,15.495,44.156,44.156,0,0,1,20.443,8.135,44.388,44.388,0,0,1,76.51,23.763,44.4,44.4,0,0,1,42.724,4.11,44.388,44.388,0,0,1,73.2-25.161,44.395,44.395,0,0,1,75.622,45.108h547.3a54.459,54.459,0,0,1,61.861-44.248,54.438,54.438,0,0,1,74.616-24.294Z" transform="translate(22.584 86.511)" fill="#630656" opacity="0.68"/>
              <path id="Trazado_24808" data-name="Trazado 24808" d="M-22.19,460.312v2.4L1162.954,491.7l174.1-892.873v-.007H1167.28Z" transform="translate(22.707 283.211)" fill-rule="evenodd" opacity="0.22" fill="url(#linear-gradient-3)" style="mix-blend-mode: screen;isolation: isolate"/>
              <ellipse id="Elipse_528" data-name="Elipse 528" cx="364.482" cy="352.37" rx="364.482" ry="352.37" transform="translate(618.942 -71.03)" fill="url(#radial-gradient-3)"/>
              <rect id="Rectángulo_410" data-name="Rectángulo 410" width="1358.313" height="248.889" transform="translate(0 610.856)" fill="url(#radial-gradient-4)"/>
              <rect id="Rectángulo_411" data-name="Rectángulo 411" width="1358.313" height="11.19" transform="translate(0 821.2)" fill="#991e21"/>
              <rect id="Rectángulo_412" data-name="Rectángulo 412" width="1358.313" height="11.19" transform="translate(0 627.448)" fill="#991e21"/>
              <path id="Trazado_24809" data-name="Trazado 24809" d="M-20.3,385.571c29.99,29.885,78.047,66.194,134.575,66.194,84.023,0,159.534-80.207,177.153-100.322a8.688,8.688,0,0,1-1.293-4.536,9.016,9.016,0,0,1,9.177-8.883,9.156,9.156,0,0,1,8.387,5.312h3.935l.084-4.934a26.132,26.132,0,0,1-17.1-24.308c0-14.4,12.021-26.083,26.859-26.083s26.866,11.679,26.866,26.083a26.125,26.125,0,0,1-17.1,24.308l.084,4.816v.119h5.347a9.17,9.17,0,0,1,8.387-5.312,9.016,9.016,0,0,1,9.142,8.883,8.708,8.708,0,0,1-1.006,4C367.386,369.992,431.078,451.8,534.754,451.8c44.479,0,90.285-22.477,126.223-46.617.168.37.322.741.51,1.111a64.866,64.866,0,0,0,7.073,10.169c.587.748,1.2,1.489,1.8,2.237-3.138,2.376-6.367,4.732-9.708,7.031-1.2.825-2.411,1.649-3.641,2.467-4.892,3.257-10.022,6.409-15.327,9.4q-3.984,2.243-8.107,4.354c-28.516,14.579-66.725,21.464-98.819,21.464q-4.892,0-9.638-.308c-14.307-.909-44.625-3.8-57.416-8.1q-4.267-1.436-8.387-3.068a191.079,191.079,0,0,1-22.065-10.393q-1.607-.881-3.18-1.782-8.02-4.581-15.376-9.687c-.657-.454-1.307-.9-1.95-1.356q-2.53-1.775-4.976-3.585c-5.249-3.886-10.225-7.9-14.915-11.951q-2.048-1.761-4.019-3.537-2.264-2.034-4.431-4.075c-5.081-4.767-9.785-9.519-13.978-14.111-2.537-2.74-4.892-5.424-7.15-8.017q-1.09-1.279-2.139-2.523c-2.663-3.187-5.081-6.213-7.241-9.03l-.79-1.041c-2.677-3.543-4.892-6.724-6.731-9.421-.454-.7-.888-1.335-1.279-1.95q-1.4-2.2-2.327-3.809a9.235,9.235,0,0,1-1.656.154,9.086,9.086,0,0,1-9.086-7.688h-4.592l2.8,160.2c19.458,1.5,33.722,6.36,33.722,12.133V529.2c0,6.989-20.716,12.58-46.275,12.58-2.88,0-5.689-.077-8.387-.21h-.119l-1.922-.112h-.182l-1.866-.133h-.182l-1.838-.154h-.14l-1.866-.182c-3.844-.4-7.443-.937-10.714-1.587h-.07l-1.4-.286-.294-.063-1.23-.287-.391-.091-1.118-.28-.433-.112-1.034-.279-.461-.133-.951-.28-.468-.147-.888-.286-.454-.161-.839-.294-.412-.161-.8-.315c-.119-.042-.224-.091-.335-.14a15.5,15.5,0,0,1-1.5-.7l-.321-.154c-.175-.084-.342-.175-.51-.266l-.475-.252-.454-.266-.447-.273c-.14-.084-.266-.175-.4-.266l-.412-.286c-.126-.084-.238-.175-.349-.259l-.37-.3-.3-.266-.328-.315-.245-.259c-.1-.112-.2-.217-.28-.328l-.2-.259c-.084-.112-.154-.231-.224-.342s-.1-.168-.154-.259a3.435,3.435,0,0,1-.168-.364c-.035-.077-.077-.161-.1-.238s-.077-.273-.112-.412-.042-.133-.056-.2a3.807,3.807,0,0,1-.056-.622v-8.75c0-5.738,14.076-10.575,33.331-12.1l2.8-160.239h-3.173a9.086,9.086,0,0,1-9.086,7.688,8.638,8.638,0,0,1-1.209-.091,311.715,311.715,0,0,1-57.8,59.827c-1.1.867-2.2,1.726-3.327,2.579q-5.053,3.858-10.484,7.59c-1.2.825-2.411,1.649-3.641,2.467q-3.676,2.439-7.513,4.8c-1.279.783-2.565,1.559-3.872,2.327q-6.856,4.033-14.181,7.688c-1.4.7-2.8,1.4-4.193,2.041a199.889,199.889,0,0,1-31.612,11.819q-2.1.587-4.291,1.132a174.486,174.486,0,0,1-42.892,5.41,160.988,160.988,0,0,1-62.839-13.147q-8.167-3.48-15.823-7.576-3.83-2.048-7.52-4.194-1.845-1.09-3.662-2.2A253.911,253.911,0,0,1-20.3,400.849Zm365.321-33.5h0a4.428,4.428,0,0,1,.1-.944,2.356,2.356,0,0,1,.056-.238,5.786,5.786,0,0,1,.217-.643,1.116,1.116,0,0,1,.07-.161c1.279-2.691,4.892-3.18,4.892-3.18a5.242,5.242,0,0,0-5.312-5.165,5.389,5.389,0,0,0-3.837,1.594h2.956v4.774h-4.319A5.277,5.277,0,0,0,345.021,352.072Zm-50.846-3.816c.734-.874,1.118-1.349,1.118-1.349a5.113,5.113,0,0,1,3.83.881h0l.273.252.091.1a3.7,3.7,0,0,1,.643.93v.035a5.1,5.1,0,0,1,.419,1.4h0a7.065,7.065,0,0,1,.077.867v.049a4.513,4.513,0,0,1,0,.475,5.235,5.235,0,0,0,3.816-3.76h-4.131v-4.788h2.8a5.361,5.361,0,0,0-3.83-1.594,5.249,5.249,0,0,0-5.319,5.165A4.815,4.815,0,0,0,294.175,348.256Z" transform="translate(22.138 75.703)" fill="#e1b3ff" opacity="0.51"/>
              <ellipse id="Elipse_529" data-name="Elipse 529" cx="85.197" cy="30.668" rx="85.197" ry="30.668" transform="translate(565.482 902.274)" fill="#303030" opacity="0.45"/>
              <ellipse id="Elipse_530" data-name="Elipse 530" cx="85.197" cy="30.668" rx="85.197" ry="30.668" transform="translate(1.496 902.274)" fill="#303030" opacity="0.45"/>
              <ellipse id="Elipse_531" data-name="Elipse 531" cx="85.197" cy="30.668" rx="85.197" ry="30.668" transform="translate(1122.661 902.274)" fill="#303030" opacity="0.45"/>
              <path id="Trazado_24810" data-name="Trazado 24810" d="M1618.24,1072.131c0,9.911,28.655,17.941,63.964,17.941s63.964-8.031,63.964-17.941v-12.42c-7.241-2.488-35.2-5.521-63.964-5.521-21.96,0-52.418.79-63.964,5.521Z" transform="translate(-471.208 -154.984)" fill="#b68636"/>
              <path id="Trazado_24811" data-name="Trazado 24811" d="M1673.58,1054.26v16.907c-.1,6.29,0,12.5-.217,18.752-31.136-1.209-55.123-8.7-55.123-17.766v-12.42C1628.311,1055.6,1652.878,1054.477,1673.58,1054.26Z" transform="translate(-471.208 -155.006)" fill="#936e2b"/>
              <ellipse id="Elipse_532" data-name="Elipse 532" cx="63.964" cy="17.941" rx="63.964" ry="17.941" transform="translate(1147.032 886.786)" fill="#cb953d"/>
              <path id="Trazado_24812" data-name="Trazado 24812" d="M1716.668,1039.306s38.44,3.04,38.44,15.208c0,10.791-52.1,16.131-77.376,12.58-17.172-2.391-8.044-5.647-1.524-3.914s56.731,1.524,65.425-7.821-22.17-13.692-25.217-13.908S1712.537,1038.866,1716.668,1039.306Z" transform="translate(-486.15 -150.487)" fill="#ecb02a"/>
              <path id="Trazado_24813" data-name="Trazado 24813" d="M1683.76,940.061s9.827,3.292,19.283,3.292a43,43,0,0,0,16.522-3.292l-4.794-281.151h-26.216Z" transform="translate(-490.935 -35.97)" fill="#cb953d"/>
              <path id="Trazado_24814" data-name="Trazado 24814" d="M1688.555,658.91h26.216l.5,29.515a59.71,59.71,0,0,1-20.464,1.971l-1.649,251.978a75.325,75.325,0,0,1-9.4-2.313Z" transform="translate(-490.935 -35.97)" fill="#936e2b"/>
              <circle id="Elipse_533" data-name="Elipse 533" cx="37.133" cy="37.133" r="37.133" transform="translate(1173.598 573.869)" fill="#cb953d"/>
              <ellipse id="Elipse_534" data-name="Elipse 534" cx="14.908" cy="26.838" rx="14.908" ry="26.838" transform="translate(1179.941 629.989) rotate(-83.99)" fill="#b68636"/>
              <ellipse id="Elipse_535" data-name="Elipse 535" cx="13.978" cy="24.029" rx="13.978" ry="24.029" transform="matrix(0.392, -0.92, 0.92, 0.392, 1191.124, 595.278)" fill="#ecb02a"/>
              <ellipse id="Elipse_536" data-name="Elipse 536" cx="7.793" cy="16.41" rx="7.793" ry="16.41" transform="matrix(0.392, -0.92, 0.92, 0.392, 1180.739, 636.755)" fill="#ecb02a"/>
              <ellipse id="Elipse_537" data-name="Elipse 537" cx="4.92" cy="12.238" rx="4.92" ry="12.238" transform="matrix(0.392, -0.92, 0.92, 0.392, 1206.928, 584.387)" fill="#ffc64a"/>
              <path id="Trazado_24815" data-name="Trazado 24815" d="M1709.231,721.011s-.112,211.337-.112,221.967,12.909,12.147,12.147-.762-5.2-216.663-5.2-221.967S1707.714,715.692,1709.231,721.011Z" transform="translate(-498.548 -53.348)" fill="#ecb02a"/>
              <path id="Trazado_24816" data-name="Trazado 24816" d="M1719.575,1060.481a94.334,94.334,0,0,1-19.234,2.23c-2.8,0-10.064-1.062-12.434-2.642s-3.257-1.782-4.138.412C1683.763,1060.481,1699.258,1068.6,1719.575,1060.481Z" transform="translate(-490.938 -156.39)" fill="#936e2b"/>
              <rect id="Rectángulo_413" data-name="Rectángulo 413" width="60.589" height="6.807" transform="translate(1242.112 659.437) rotate(180)" fill="#cb953d"/>
              <path id="Trazado_24817" data-name="Trazado 24817" d="M818.72,1072.131c0,9.911,28.655,17.941,63.964,17.941s63.964-8.031,63.964-17.941v-12.42c-7.248-2.488-35.2-5.521-63.964-5.521-21.967,0-52.418.79-63.964,5.521Z" transform="translate(-230.481 -154.984)" fill="#b68636"/>
              <path id="Trazado_24818" data-name="Trazado 24818" d="M874.053,1054.26v16.907c-.091,6.29,0,12.5-.21,18.752-31.143-1.209-55.123-8.7-55.123-17.766v-12.42C828.791,1055.6,853.358,1054.477,874.053,1054.26Z" transform="translate(-230.481 -155.006)" fill="#936e2b"/>
              <ellipse id="Elipse_538" data-name="Elipse 538" cx="63.964" cy="17.941" rx="63.964" ry="17.941" transform="translate(588.239 886.786)" fill="#cb953d"/>
              <path id="Trazado_24819" data-name="Trazado 24819" d="M917.153,1039.306s38.475,3.04,38.475,15.208c0,10.791-52.111,16.131-77.376,12.58-17.172-2.391-8.045-5.647-1.524-3.914s56.724,1.524,65.418-7.821-22.169-13.692-25.21-13.908S913.022,1038.866,917.153,1039.306Z" transform="translate(-245.436 -150.487)" fill="#ecb02a"/>
              <path id="Trazado_24820" data-name="Trazado 24820" d="M884.24,940.061s9.827,3.292,19.276,3.292a43.014,43.014,0,0,0,16.529-3.292L915.251,658.91H889.035Z" transform="translate(-250.209 -35.97)" fill="#cb953d"/>
              <path id="Trazado_24821" data-name="Trazado 24821" d="M889.035,658.91h26.216l.5,29.515a59.75,59.75,0,0,1-20.464,2L893.64,942.4a75.36,75.36,0,0,1-9.4-2.313Z" transform="translate(-250.209 -35.97)" fill="#936e2b"/>
              <circle id="Elipse_539" data-name="Elipse 539" cx="37.133" cy="37.133" r="37.133" transform="translate(614.797 573.869)" fill="#cb953d"/>
              <ellipse id="Elipse_540" data-name="Elipse 540" cx="14.908" cy="26.838" rx="14.908" ry="26.838" transform="translate(621.147 629.984) rotate(-83.99)" fill="#b68636"/>
              <ellipse id="Elipse_541" data-name="Elipse 541" cx="13.978" cy="24.029" rx="13.978" ry="24.029" transform="matrix(0.392, -0.92, 0.92, 0.392, 632.333, 595.272)" fill="#ecb02a"/>
              <ellipse id="Elipse_542" data-name="Elipse 542" cx="7.793" cy="16.41" rx="7.793" ry="16.41" transform="matrix(0.392, -0.92, 0.92, 0.392, 621.948, 636.756)" fill="#ecb02a"/>
              <ellipse id="Elipse_543" data-name="Elipse 543" cx="4.92" cy="12.238" rx="4.92" ry="12.238" transform="matrix(0.392, -0.92, 0.92, 0.392, 648.135, 584.394)" fill="#ffc64a"/>
              <path id="Trazado_24822" data-name="Trazado 24822" d="M909.7,721.011s-.1,211.337-.1,221.967,12.9,12.147,12.147-.762-5.207-216.663-5.207-221.967S908.184,715.692,909.7,721.011Z" transform="translate(-257.819 -53.348)" fill="#ecb02a"/>
              <path id="Trazado_24823" data-name="Trazado 24823" d="M920.045,1060.481a94.335,94.335,0,0,1-19.234,2.23c-2.831,0-10.071-1.062-12.441-2.642s-3.257-1.782-4.131.412C884.24,1060.481,899.735,1068.6,920.045,1060.481Z" transform="translate(-250.209 -156.39)" fill="#936e2b"/>
              <rect id="Rectángulo_414" data-name="Rectángulo 414" width="60.589" height="6.807" transform="translate(683.312 659.437) rotate(180)" fill="#cb953d"/>
              <path id="Trazado_24824" data-name="Trazado 24824" d="M19.19,1072.131c0,9.911,28.655,17.941,63.964,17.941s63.971-8.031,63.971-17.941v-12.42c-7.248-2.488-35.2-5.521-63.971-5.521-21.96,0-52.418.79-63.964,5.521Z" transform="translate(10.248 -154.984)" fill="#b68636"/>
              <path id="Trazado_24825" data-name="Trazado 24825" d="M74.53,1054.26v16.907c-.1,6.29,0,12.5-.21,18.752-31.144-1.209-55.13-8.7-55.13-17.766v-12.42C29.261,1055.6,53.835,1054.477,74.53,1054.26Z" transform="translate(10.248 -155.006)" fill="#936e2b"/>
              <ellipse id="Elipse_544" data-name="Elipse 544" cx="63.964" cy="17.941" rx="63.964" ry="17.941" transform="translate(29.438 886.786)" fill="#cb953d"/>
              <path id="Trazado_24826" data-name="Trazado 24826" d="M117.619,1039.306s38.44,3.04,38.44,15.208c0,10.791-52.1,16.131-77.376,12.58-17.172-2.391-8.037-5.647-1.524-3.914s56.731,1.524,65.425-7.821-22.169-13.692-25.21-13.908S113.488,1038.866,117.619,1039.306Z" transform="translate(-4.696 -150.487)" fill="#ecb02a"/>
              <path id="Trazado_24827" data-name="Trazado 24827" d="M84.71,940.061s9.827,3.292,19.283,3.292a43.068,43.068,0,0,0,16.529-3.292l-4.8-281.151H89.512Z" transform="translate(-9.479 -35.97)" fill="#cb953d"/>
              <path id="Trazado_24828" data-name="Trazado 24828" d="M89.512,658.91h26.209l.51,29.515a59.769,59.769,0,0,1-20.471,2L94.11,942.4a75.758,75.758,0,0,1-9.4-2.313Z" transform="translate(-9.479 -35.97)" fill="#936e2b"/>
              <circle id="Elipse_545" data-name="Elipse 545" cx="37.133" cy="37.133" r="37.133" transform="translate(56.004 573.869)" fill="#cb953d"/>
              <ellipse id="Elipse_546" data-name="Elipse 546" cx="14.908" cy="26.838" rx="14.908" ry="26.838" transform="translate(62.347 629.979) rotate(-83.99)" fill="#b68636"/>
              <ellipse id="Elipse_547" data-name="Elipse 547" cx="13.978" cy="24.029" rx="13.978" ry="24.029" transform="matrix(0.392, -0.92, 0.92, 0.392, 73.54, 595.278)" fill="#ecb02a"/>
              <ellipse id="Elipse_548" data-name="Elipse 548" cx="7.793" cy="16.41" rx="7.793" ry="16.41" transform="matrix(0.392, -0.92, 0.92, 0.392, 63.155, 636.763)" fill="#ecb02a"/>
              <ellipse id="Elipse_549" data-name="Elipse 549" cx="4.92" cy="12.238" rx="4.92" ry="12.238" transform="matrix(0.392, -0.92, 0.92, 0.392, 89.344, 584.395)" fill="#ffc64a"/>
              <path id="Trazado_24829" data-name="Trazado 24829" d="M110.18,721.01s-.112,211.337-.112,221.967,12.909,12.147,12.147-.762-5.228-216.655-5.228-221.967S108.664,715.691,110.18,721.01Z" transform="translate(-17.092 -53.347)" fill="#ecb02a"/>
              <path id="Trazado_24830" data-name="Trazado 24830" d="M120.572,1060.481a94.438,94.438,0,0,1-19.241,2.23c-2.8,0-10.064-1.062-12.434-2.642s-3.257-1.782-4.138.412C84.725,1060.481,100.227,1068.6,120.572,1060.481Z" transform="translate(-9.494 -156.39)" fill="#936e2b"/>
              <rect id="Rectángulo_415" data-name="Rectángulo 415" width="60.589" height="6.807" transform="translate(124.511 659.437) rotate(180)" fill="#cb953d"/>
              <path id="Trazado_24831" data-name="Trazado 24831" d="M1660.344,690.56A12.643,12.643,0,1,1,1647.7,703.2,12.643,12.643,0,0,1,1660.344,690.56Zm0,20A7.353,7.353,0,1,0,1653,703.2,7.352,7.352,0,0,0,1660.344,710.556Z" transform="translate(-480.078 -45.5)" fill="#cb953d"/>
              <path id="Trazado_24832" data-name="Trazado 24832" d="M1750.793,690.56A12.643,12.643,0,1,1,1738.15,703.2,12.643,12.643,0,0,1,1750.793,690.56Zm0,20a7.353,7.353,0,1,0-7.352-7.353A7.353,7.353,0,0,0,1750.793,710.556Z" transform="translate(-507.311 -45.5)" fill="#cb953d"/>
              <path id="Trazado_24833" data-name="Trazado 24833" d="M862.2,690.56A12.643,12.643,0,1,1,849.56,703.2,12.643,12.643,0,0,1,862.2,690.56Zm0,20a7.353,7.353,0,1,0-7.346-7.353,7.352,7.352,0,0,0,7.346,7.353Z" transform="translate(-239.767 -45.5)" fill="#cb953d"/>
              <path id="Trazado_24834" data-name="Trazado 24834" d="M952.65,690.56A12.643,12.643,0,1,1,940,703.206a12.643,12.643,0,0,1,12.65-12.646Zm0,20A7.353,7.353,0,1,0,945.3,703.2,7.353,7.353,0,0,0,952.65,710.556Z" transform="translate(-266.997 -45.5)" fill="#cb953d"/>
              <path id="Trazado_24835" data-name="Trazado 24835" d="M61.063,690.56A12.643,12.643,0,1,1,48.42,703.2,12.643,12.643,0,0,1,61.063,690.56Zm0,20a7.353,7.353,0,1,0-7.346-7.353A7.353,7.353,0,0,0,61.063,710.556Z" transform="translate(1.447 -45.5)" fill="#cb953d"/>
              <path id="Trazado_24836" data-name="Trazado 24836" d="M151.553,690.56A12.643,12.643,0,1,1,138.91,703.2,12.643,12.643,0,0,1,151.553,690.56Zm0,20a7.345,7.345,0,1,0-5.2-2.151A7.353,7.353,0,0,0,151.553,710.556Z" transform="translate(-25.798 -45.5)" fill="#cb953d"/>
              <path id="Trazado_24837" data-name="Trazado 24837" d="M653.669,715.98s1.055-8.135-7.346-7.353c0,0-117.417,149.246-250.21,149.246S164.306,708.627,164.306,708.627s-7.262,1-7.346,7.353S252.466,874.4,396.106,874.4C552.146,874.4,653.669,715.98,653.669,715.98Z" transform="translate(-31.233 -50.923)" fill="#e62e30"/>
              <path id="Trazado_24838" data-name="Trazado 24838" d="M-22.93,767.65c35.288-31.451,57-59.023,57-59.023,8.387-.783,7.353,7.353,7.353,7.353S18.257,752.106-22.93,789.855Z" transform="translate(22.93 -50.923)" fill="#e62e30"/>
              <path id="Trazado_24839" data-name="Trazado 24839" d="M1452.189,715.98s1.048-8.135-7.353-7.353c0,0-117.417,149.246-250.21,149.246S962.832,708.627,962.832,708.627s-7.269,1-7.353,7.353S1050.986,874.4,1194.627,874.4C1350.666,874.4,1452.189,715.98,1452.189,715.98Z" transform="translate(-271.658 -50.923)" fill="#e62e30"/>
              <path id="Trazado_24840" data-name="Trazado 24840" d="M1762.9,708.65s42,63.286,107.961,107.437v19.961C1798.768,790.542,1755.491,720.273,1755.54,716,1755.631,709.649,1762.9,708.65,1762.9,708.65Z" transform="translate(-512.547 -50.946)" fill="#e62e30"/>
              <path id="Trazado_24841" data-name="Trazado 24841" d="M158.9,711.827C173.1,737.959,264.4,865.8,396.106,865.8c143.179,0,240.426-133.366,255.508-155.354,2.558,2.1,2.055,6.095,2.055,6.095S552.145,874.967,396.106,874.967c-143.64,0-239.23-152.076-239.146-158.422A6.563,6.563,0,0,1,158.9,711.827Z" transform="translate(-31.233 -51.488)" fill="#c7272b"/>
              <path id="Trazado_24842" data-name="Trazado 24842" d="M-22.93,781.264c34.065-31.227,55.8-61.343,62.287-70.814,2.565,2.1,2.1,6.094,2.1,6.094s-23.2,36.127-64.384,73.875Z" transform="translate(22.93 -51.488)" fill="#c7272b"/>
              <path id="Trazado_24843" data-name="Trazado 24843" d="M957.42,711.827c14.195,26.132,105.487,153.977,237.2,153.977,143.186,0,240.425-133.366,255.515-155.354,2.558,2.1,2.055,6.095,2.055,6.095s-101.524,158.422-257.57,158.422c-143.64,0-239.223-152.076-239.146-158.422a6.541,6.541,0,0,1,1.95-4.718Z" transform="translate(-271.655 -51.488)" fill="#c7272b"/>
              <path id="Trazado_24844" data-name="Trazado 24844" d="M1870.86,828.02v9.163c-72.093-45.506-115.369-115.775-115.32-120.045a6.563,6.563,0,0,1,1.943-4.718C1766.625,729.236,1807.672,788.14,1870.86,828.02Z" transform="translate(-512.547 -52.082)" fill="#c7272b"/>
              <path id="Trazado_24845" data-name="Trazado 24845" d="M1853.594-15.24c12.364,0,23.644,5.34,32.206,14.111V82.076c-8.562,8.771-19.842,14.111-32.206,14.111-26.754,0-48.434-24.937-48.434-55.7S1826.84-15.24,1853.594-15.24Z" transform="translate(-527.487 167.009)" fill="#e543a0" opacity="0.31"/>
              <ellipse id="Elipse_550" data-name="Elipse 550" cx="32.695" cy="35.113" rx="32.695" ry="35.113" transform="translate(598.359 281.34)" fill="#e543a0" opacity="0.31"/>
              <path id="Trazado_24846" data-name="Trazado 24846" d="M105.385,22.1,91.658,74.414,57.146,32.772,85.794,79.516,36.5,82.06l49.455,5.976L59,132.842,92.015,93.55l15.677,53.341L99.409,91.914l46.513,21.7L102.575,84.352,144.894,58.08,99.129,76.566Z" transform="translate(5.036 155.766)" opacity="0.7" fill="url(#radial-gradient-5)"/>
              <path id="Trazado_24847" data-name="Trazado 24847" d="M826.6,300.54l-9.638,36.749-24.245-29.256,20.122,32.842-34.624,1.782,34.736,4.2-18.933,31.472,23.19-27.6L828.217,388.2,822.4,349.583l32.667,15.243-30.445-20.555,29.725-18.458L822.2,338.8Z" transform="translate(-218.284 71.931)" opacity="0.7" fill="url(#radial-gradient-6)"/>
              <path id="Trazado_24848" data-name="Trazado 24848" d="M159.278,135.32l-6.108,23.288L137.8,140.073l12.755,20.807-21.946,1.132,22.016,2.663-12,19.954,14.7-17.5,6.982,23.749-3.69-24.476,20.709,9.666-19.3-13.028,18.843-11.7-20.38,8.226Z" transform="translate(-22.697 121.677)" opacity="0.7" fill="url(#radial-gradient-7)"/>
              <path id="Trazado_24849" data-name="Trazado 24849" d="M53.162,173.24l-8.219,31.3L24.3,179.628l17.144,27.963-29.5,1.524,29.592,3.578L25.4,239.5l19.758-23.511L54.539,247.9l-4.955-32.891L77.414,228,51.477,210.492,76.8,194.766,49.416,205.83Z" transform="translate(12.431 110.259)" opacity="0.7" fill="url(#radial-gradient-8)"/>
              <path id="Trazado_24850" data-name="Trazado 24850" d="M769.229,308.62l-24.748,94.311-62.217-75.077,51.65,84.275-88.874,4.578,89.16,10.777-48.6,80.787,59.526-70.835,28.264,96.156L758.459,434.48,842.308,473.6l-78.138-52.747,76.286-47.379-82.506,33.338Z" transform="translate(-178.188 69.498)" opacity="0.7" fill="url(#radial-gradient-9)"/>
              <path id="Trazado_24851" data-name="Trazado 24851" d="M141.49,282.017l-75.5,31.514L84.382,233.82l-29.9,77.342-48.3-56.933,38.2,64.943-78.614,8.715,77.544,3.634-49.735,67.8,58.492-60.414,16.6,75.832-4.606-78.963,70.429,26.761-64.23-38.056Z" transform="translate(26.332 92.019)" opacity="0.7" fill="url(#radial-gradient-10)"/>
              <path id="Trazado_24852" data-name="Trazado 24852" d="M1334.673,460.312v2.4L149.529,491.7-24.57-401.173v-.007H145.2Z" transform="translate(23.424 283.211)" fill-rule="evenodd" opacity="0.49" fill="url(#linear-gradient-4)" style="mix-blend-mode: screen;isolation: isolate"/>
            </g>
            <rect id="Rectángulo_417" data-name="Rectángulo 417" width="1341.91" height="949.003" transform="translate(1341.891 789.903) rotate(180)" fill="none"/>
          </g>
        </g>
      </g>
    </g>
    <g id="Persojanes-26" transform="translate(419.89 326.298)" style="isolation: isolate">
      <g id="Capa_1-2" data-name="Capa 1" transform="translate(0 0.002)">
        <path id="Trazado_22704" data-name="Trazado 22704" d="M248.477,139.013c0,8.558-46.982,15.519-104.973,15.519S38.53,147.43,38.53,139.013,85.548,123.53,143.5,123.53s104.973,7.1,104.973,15.483" transform="translate(98.299 315.143)" fill="#232121" opacity="0.15" style="mix-blend-mode: multiply;isolation: isolate"/>
        <path id="Trazado_22705" data-name="Trazado 22705" d="M42.615,167.083s-13.1,10.227-20.775,7.884a12.252,12.252,0,0,1-8.807-14.631A10.192,10.192,0,0,1,.817,153.695c-3.942-9.2,7.28-17.188,14.2-18.218,0,0-13.779-10.441-11.044-24.184S20.065,93.786,30.861,96.627c0,0,.71-19.816,18.04-11.968,0,0-13.566-17.081,1.492-26.563,0,0-7.1-14.453,10.3-22.088S93.965,48.437,93.965,48.437s-4.617-12,1.349-17.01,19.922,3.551,19.922,3.551-9.091-13.353,6.712-17.046A19.034,19.034,0,0,1,138.782.957c15.625-1.882,21.7,16.336,23.722,22.408,0,0,2.734-11.506,9.624-14.773,7.493-3.551,14.737,1.918,17.152,9.695,0,0,7.6-20.846,28.41-8.487,0,0,7.351-11.825,18.963-8.026s16.407,14.2,11.719,27.025a19.319,19.319,0,0,1,12.571-4.759c7.742,0,11.968,10.3,11.861,17.472,0,0,11.47-16.975,24.858-3.551,0,0,11.861-5.185,19.283,8.558a20.952,20.952,0,0,1-1.03,23.473s9.8-5.54,15.412,2.308c6.215,8.665-3.551,17.543-3.551,17.543s2.841,17.188-17.507,14.2S223.9,167.935,42.615,167.083" transform="translate(0 2.09)" fill="#ffaada"/>
        <path id="Trazado_22706" data-name="Trazado 22706" d="M114.087,19.993a18.892,18.892,0,0,0-4.048.32,15.7,15.7,0,0,0-3.551,1.136,11.541,11.541,0,0,0-1.6.888,6.428,6.428,0,0,0-1.456,1.136,7.1,7.1,0,0,0-1.243,1.278,8.737,8.737,0,0,0-1.065,1.42l-.888,1.563c-.213.6-.391,1.172-.639,1.74a29.079,29.079,0,0,0-.994,3.551l-.249,1.882c0,.639-.249,1.243-.284,1.918L97.894,40.7l-.355,7.1-4.3-5.753c-.355-.5-.852-1.065-1.278-1.6a14.9,14.9,0,0,0-1.456-1.563,23.829,23.829,0,0,0-3.125-2.876,29.584,29.584,0,0,0-3.551-2.486,11.364,11.364,0,0,0-1.811-1.03c-.639-.284-1.278-.639-1.918-.852s-1.314-.568-1.989-.746l-2.024-.5a14.6,14.6,0,0,1-2.131-.284,10.653,10.653,0,0,0-2.131,0h-2.2l-2.2.355A9.766,9.766,0,0,0,65.187,31l-2.237.568a30.4,30.4,0,0,1,3.729-2.45l2.2-.959a16.689,16.689,0,0,1,2.379-.639,9.268,9.268,0,0,1,2.415-.391,20,20,0,0,1,2.521,0l2.486.213a12.44,12.44,0,0,1,2.486.533,18.643,18.643,0,0,1,2.379.781,16.443,16.443,0,0,1,2.273,1.03,25.709,25.709,0,0,1,4.261,2.592,32.455,32.455,0,0,1,3.729,3.232c.6.568,1.172,1.172,1.74,1.811a25.1,25.1,0,0,1,1.563,2.024L92.6,40.519l.355-4.3a20.34,20.34,0,0,1,.852-4.332,30.184,30.184,0,0,1,1.563-4.226c.32-.71.71-1.349,1.065-2.024a14.187,14.187,0,0,1,1.42-1.847,10.37,10.37,0,0,1,1.634-1.669,7.919,7.919,0,0,1,1.882-1.349,11.149,11.149,0,0,1,2.06-1.03,9.446,9.446,0,0,1,2.308-.533A13.956,13.956,0,0,1,110.11,19a14.2,14.2,0,0,1,4.119,1.03" transform="translate(160.599 48.254)" fill="#f7cadb"/>
        <path id="Trazado_22707" data-name="Trazado 22707" d="M57.732,25.54a20.527,20.527,0,0,0-3.977,1.527,17.259,17.259,0,0,0-3.3,2.344,8.452,8.452,0,0,0-1.349,1.42,7.1,7.1,0,0,0-1.136,1.563,7.386,7.386,0,0,0-.852,1.669,10.654,10.654,0,0,0-.639,1.776,10.731,10.731,0,0,1-.426,1.847,19,19,0,0,1-.178,1.953,28.659,28.659,0,0,0,0,3.906l.32,1.989a5.569,5.569,0,0,0,.249,1.989l.923,3.942,1.563,7.1L43.279,54.2l-1.74-1.172c-.6-.391-1.207-.781-1.882-1.136a33.629,33.629,0,0,0-3.942-1.918,28.408,28.408,0,0,0-4.155-1.491,13.709,13.709,0,0,0-2.1-.426,14.986,14.986,0,0,0-2.166-.249,14.56,14.56,0,0,0-2.166,0H22.966l-2.131.426a8.629,8.629,0,0,0-2.131.6,13.92,13.92,0,0,0-2.131.817l-2.06,1.03a10.228,10.228,0,0,0-2.06,1.349L10.43,53.346l1.492-1.918a13.212,13.212,0,0,1,1.634-1.811l1.882-1.634A16.051,16.051,0,0,1,17.5,46.6a11.329,11.329,0,0,1,2.273-1.136c.781-.32,1.6-.675,2.415-.923l2.521-.568c.852-.178,1.7,0,2.557-.249a12.607,12.607,0,0,1,2.592,0,14.844,14.844,0,0,1,2.557.284c.852.178,1.7.284,2.521.533a19.5,19.5,0,0,1,2.45.746,36.507,36.507,0,0,1,4.652,2.1c.781.355,1.491.817,2.237,1.243A24.86,24.86,0,0,1,46.4,50.185l-4.048,2.628L41.5,48.481c-.213-1.527-.284-3.054-.391-4.581a41.657,41.657,0,0,1,.355-4.688,10.3,10.3,0,0,1,.5-2.308,19.7,19.7,0,0,1,.852-2.273A13.706,13.706,0,0,1,43.953,32.5a9.233,9.233,0,0,1,1.42-1.918,11.045,11.045,0,0,1,1.74-1.669,9.553,9.553,0,0,1,1.953-1.349,16.3,16.3,0,0,1,4.261-1.634,15.305,15.305,0,0,1,4.4-.249" transform="translate(26.61 65.151)" fill="#f7cadb"/>
        <path id="Trazado_22708" data-name="Trazado 22708" d="M66.466,54.17a25.533,25.533,0,0,0-.959-11.719A28.191,28.191,0,0,0,64.3,39.894a15.555,15.555,0,0,0-1.527-2.237,19.212,19.212,0,0,0-1.882-1.918l-.391-.355-.639-.462a12.924,12.924,0,0,0-1.243-.852,10.369,10.369,0,0,0-2.06-.817,5.114,5.114,0,0,0-2.166-.213,4.617,4.617,0,0,0-2.024.6,7.1,7.1,0,0,0-1.847,1.278A7.635,7.635,0,0,0,49.065,36.8a10.015,10.015,0,0,0-.994,2.273,9.659,9.659,0,0,0-.5,2.486,12.039,12.039,0,0,0,0,2.521l.533,5.007-3.871-2.7a10.654,10.654,0,0,0-1.811-1.065,13.46,13.46,0,0,0-2.06-.923,15.906,15.906,0,0,0-2.2-.71,12.357,12.357,0,0,0-2.273-.5c-.781,0-1.563-.284-2.379-.284H31.1a13.817,13.817,0,0,0-2.415,0l-2.521.249,2.308-1.1a14.986,14.986,0,0,1,2.379-.923l2.557-.568a16.088,16.088,0,0,1,2.628-.249,13.352,13.352,0,0,1,2.663,0,17.044,17.044,0,0,1,2.7.391,19.6,19.6,0,0,1,2.628.746,13.672,13.672,0,0,1,2.628,1.136L43.312,44.9a15.767,15.767,0,0,1-.426-3.551,15.519,15.519,0,0,1,.391-3.551,7.955,7.955,0,0,1,.568-1.776,10.154,10.154,0,0,1,.781-1.669A14.2,14.2,0,0,1,46.863,31.3a10.9,10.9,0,0,1,3.2-2.273A9.659,9.659,0,0,1,54,27.927a10.4,10.4,0,0,1,3.942.5,13.388,13.388,0,0,1,4.759,2.77l.6.5c.462.426.462.5.71.746a16.3,16.3,0,0,1,2.166,2.734,17.756,17.756,0,0,1,1.527,3.09,15.8,15.8,0,0,1,.923,3.3,26.885,26.885,0,0,1,.249,3.338,19.957,19.957,0,0,1-.32,3.267,18.289,18.289,0,0,1-2.1,6" transform="translate(66.74 71.181)" fill="#f7cadb"/>
        <path id="Trazado_22709" data-name="Trazado 22709" d="M102.917,32.877a26.563,26.563,0,0,0-.852-11.79,27.7,27.7,0,0,0-1.1-2.557,13.921,13.921,0,0,0-1.314-2.273,16.052,16.052,0,0,0-1.811-1.989,10.4,10.4,0,0,0-2.06-1.6,7.1,7.1,0,0,0-4.261-1.207,6.179,6.179,0,0,0-3.764,1.882,11.08,11.08,0,0,0-2.877,9.162l.923,7.564L80.9,24.39l-1.314-1.42c-.462-.462-.994-.888-1.491-1.314a22.2,22.2,0,0,0-3.3-2.237,16.406,16.406,0,0,0-7.458-2.237,15.377,15.377,0,0,0-7.706,1.882,28.409,28.409,0,0,0-6.818,5.114,31.536,31.536,0,0,1,2.663-3.551,21.874,21.874,0,0,1,3.267-2.983A16.371,16.371,0,0,1,67.263,14.3a18.573,18.573,0,0,1,9.2,1.7,32.28,32.28,0,0,1,4.048,2.308c.639.462,1.278.923,1.882,1.42a24.08,24.08,0,0,1,1.776,1.634l-3.835,1.918A14.737,14.737,0,0,1,83.883,9.652a10.4,10.4,0,0,1,7.1-3.338A11.08,11.08,0,0,1,98.3,8.765a14.2,14.2,0,0,1,2.592,2.415,16.017,16.017,0,0,1,2.06,2.77,17.755,17.755,0,0,1,1.421,3.125,17.365,17.365,0,0,1,.852,3.3,25.751,25.751,0,0,1,.178,3.3,24.325,24.325,0,0,1-.355,3.232,19.637,19.637,0,0,1-2.131,5.966" transform="translate(134.73 16.087)" fill="#f7cadb"/>
        <path id="Trazado_22710" data-name="Trazado 22710" d="M30.188,43.911a27.7,27.7,0,0,1-8.061-8.985,16.229,16.229,0,0,1-1.882-6.321,10.654,10.654,0,0,1,.213-3.551l.249-.959.213-.71a12,12,0,0,1,.781-1.669,12.891,12.891,0,0,1,4.936-4.936,14.2,14.2,0,0,1,6.712-2.06,13.672,13.672,0,0,1,7.1,1.634A12.784,12.784,0,0,1,45.067,21.5H41.2a14.207,14.207,0,0,1,.817-1.314c.284-.391.6-.746.888-1.1a22.193,22.193,0,0,1,2.024-2.06A14.2,14.2,0,0,1,49.932,14.4a11.328,11.328,0,0,1,5.646-.355,12.926,12.926,0,0,1,4.865,2.2,16.158,16.158,0,0,0-5.007-.533,10.263,10.263,0,0,0-4.4,1.314,13,13,0,0,0-3.551,2.912,13.671,13.671,0,0,0-1.349,1.847l-.6.994c0,.32-.355.71-.462.923L43.5,27.256l-2.344-3.551a8.381,8.381,0,0,0-7.706-3.871,11.009,11.009,0,0,0-4.439,1.278,10.654,10.654,0,0,0-3.338,3.09c-.249.355-.355.6-.568.959l-.284.675v.426A9.837,9.837,0,0,0,24.4,28.57a16.833,16.833,0,0,0,.817,5.114,48.651,48.651,0,0,0,4.972,10.227" transform="translate(51.491 35.309)" fill="#f7cadb"/>
        <path id="Trazado_22711" data-name="Trazado 22711" d="M57.564,6.77a38.033,38.033,0,0,0-5.611,1.7,23.189,23.189,0,0,0-2.344,1.1,15.519,15.519,0,0,0-2.2,1.563,13.424,13.424,0,0,0-1.74,2.024,13.67,13.67,0,0,0-1.207,2.379,9.624,9.624,0,0,0-.426,1.563,5.79,5.79,0,0,0,0,1.207,11.47,11.47,0,0,0,0,2.7,16.655,16.655,0,0,0,.675,2.7c.32.852.639,1.669.994,2.45a51.489,51.489,0,0,0,2.841,5.149,13.672,13.672,0,0,1-5.22-3.551,11.825,11.825,0,0,1-2.024-2.45,12.038,12.038,0,0,1-1.669-3.232,11.684,11.684,0,0,1-.71-4.048,13.6,13.6,0,0,1,.284-2.06,12.254,12.254,0,0,1,.5-1.847,12.927,12.927,0,0,1,1.989-3.8,11.293,11.293,0,0,1,3.09-2.734A13.352,13.352,0,0,1,51.385,5.7a15.2,15.2,0,0,1,4.581.568,9.02,9.02,0,0,1,1.6.639" transform="translate(99.294 14.531)" fill="#f7cadb"/>
        <path id="Trazado_22712" data-name="Trazado 22712" d="M37.19,51.305s-1.74-1.882-4.261-4.226a27.344,27.344,0,0,0-4.439-3.338,14.633,14.633,0,0,0-2.628-1.207,8.454,8.454,0,0,0-1.349-.391,5.683,5.683,0,0,0-1.385-.178h-2.7a7.741,7.741,0,0,0-2.237.888,10.653,10.653,0,0,0-1.953,1.634,16.939,16.939,0,0,0-1.6,2.06,34.234,34.234,0,0,0-2.1,3.551L11.8,51.625a14.2,14.2,0,0,1-.249-1.7,13.992,13.992,0,0,1,.355-4.617,12.145,12.145,0,0,1,3.551-6.144,10.085,10.085,0,0,1,3.906-2.131l1.207-.32h3.09a11.79,11.79,0,0,1,4.155,1.1,13.211,13.211,0,0,1,3.551,2.131A17.365,17.365,0,0,1,35.485,45.2a15.519,15.519,0,0,1,1.918,6" transform="translate(29.325 93.648)" fill="#f7cadb"/>
        <path id="Trazado_22713" data-name="Trazado 22713" d="M103.047,42.9s-.568-2.379-1.563-5.5a32.4,32.4,0,0,0-2.131-4.936A14.56,14.56,0,0,0,95.8,28.2l-.533-.426h0l-.355-.213a8.451,8.451,0,0,0-3.551-1.314,9.269,9.269,0,0,0-4.688.746,33.745,33.745,0,0,0-3.551,1.776l-1.385.852a7.917,7.917,0,0,1,.639-1.527,12.678,12.678,0,0,1,2.7-3.551,11.754,11.754,0,0,1,2.628-1.811,9.588,9.588,0,0,1,3.551-1.03,6.676,6.676,0,0,1,2.06,0,7.458,7.458,0,0,1,2.2.568,8.7,8.7,0,0,1,1.7.781l.391.213.568.391L99,24.29a14.2,14.2,0,0,1,4.4,6.428,17.756,17.756,0,0,1,.994,6.463,15.093,15.093,0,0,1-1.349,5.895" transform="translate(208.536 55.144)" fill="#f7cadb"/>
        <path id="Trazado_22714" data-name="Trazado 22714" d="M98.864,28.965s-1.421-2.024-3.551-4.581a27.1,27.1,0,0,0-3.764-3.8,16.23,16.23,0,0,0-2.273-1.349,8.735,8.735,0,0,0-2.486-.923H84.411a6.641,6.641,0,0,0-2.166.533,9.375,9.375,0,0,0-2.1,1.314,20.1,20.1,0,0,0-1.74,1.74,30.894,30.894,0,0,0-2.486,3.232L75,26.479a12.323,12.323,0,0,1,0-1.669,14.2,14.2,0,0,1,.852-4.368,11.932,11.932,0,0,1,4.084-5.54,9.127,9.127,0,0,1,4.048-1.563h3.2l1.03.249a11.186,11.186,0,0,1,3.835,1.634,13.887,13.887,0,0,1,2.948,2.557,17.259,17.259,0,0,1,3.161,5.646,15.021,15.021,0,0,1,.923,6" transform="translate(191.27 34.026)" fill="#f7cadb"/>
        <path id="Trazado_22715" data-name="Trazado 22715" d="M96.613,35.478a29.759,29.759,0,0,0-9.73-3.551,13.176,13.176,0,0,0-2.344,0,11.4,11.4,0,0,0-2.237.213,9.979,9.979,0,0,0-2.06.675l-.852.32s-.675.391-.994.6a3.8,3.8,0,0,0-.852.6c-.213.213-.426.355-.675.639a15.835,15.835,0,0,0-1.207,1.491,9.48,9.48,0,0,0-.888,1.811,11.72,11.72,0,0,0-.568,1.989,16.229,16.229,0,0,0,0,4.368,15.519,15.519,0,0,0,.959,4.155l4.226,11.754L70.44,52.311c-.781-.71-1.74-1.491-2.628-2.2l-2.805-2.131a61.4,61.4,0,0,0-5.966-3.551,28.41,28.41,0,0,0-6.5-2.486,13.211,13.211,0,0,0-7.1.284,11.932,11.932,0,0,1,7.1-2.557A22.976,22.976,0,0,1,60.32,40.84a39.276,39.276,0,0,1,7.1,3.054,28.411,28.411,0,0,1,3.338,1.953,35.832,35.832,0,0,1,3.232,2.273l-4.4,3.551A16.655,16.655,0,0,1,67.635,45.6a18.468,18.468,0,0,1-.178-3.125,15.659,15.659,0,0,1,.32-3.161,15.909,15.909,0,0,1,.959-3.125,15.092,15.092,0,0,1,1.634-2.947,11.613,11.613,0,0,1,2.344-2.415,15.411,15.411,0,0,1,2.841-1.847l1.42-.6,1.527-.462a16.05,16.05,0,0,1,3.2-.391,14.737,14.737,0,0,1,3.09.249,19.638,19.638,0,0,1,11.648,7.919" transform="translate(115.927 70.199)" fill="#f7cadb"/>
        <path id="Trazado_22716" data-name="Trazado 22716" d="M106.252,38.225a29.048,29.048,0,0,0-4.688-8.487,18.211,18.211,0,0,0-1.634-1.669,9.234,9.234,0,0,0-1.811-1.349,9.127,9.127,0,0,0-1.989-.923,10.974,10.974,0,0,0-2.1-.426H90.768l-.923.32a7.1,7.1,0,0,0-1.811.888,6.712,6.712,0,0,0-1.563,1.243,9.446,9.446,0,0,0-1.243,1.634,10.3,10.3,0,0,0-.923,1.882,13.815,13.815,0,0,0-.639,2.06,11.329,11.329,0,0,0-.32,2.024l-.639,8.771L79.156,36.13a32.989,32.989,0,0,0-1.847-3.551,35.511,35.511,0,0,0-2.131-3.338c-.781-1.1-1.563-2.131-2.415-3.125a27.308,27.308,0,0,0-2.663-2.7,15.341,15.341,0,0,0-2.947-2.1l-1.527-.746-1.6-.426a9.659,9.659,0,0,0-3.2,0h-.781l-.817.32c-.426.213-1.207.426-1.385.568l-1.811,1.1c-.675.355-.781.746-1.243,1.065l-.568.5-.675,1.172a6.108,6.108,0,0,0-.923,1.42,11.825,11.825,0,0,0-1.172,3.2l-.213,1.776v1.847A27.912,27.912,0,0,0,52.806,40.6a24.861,24.861,0,0,0,1.563,3.551A13.957,13.957,0,0,0,56.251,47L54.333,49.8A17.969,17.969,0,0,0,52.06,48.31a23.12,23.12,0,0,0-2.521-1.172,18.643,18.643,0,0,0-2.628-.817,11.435,11.435,0,0,0-2.7-.284l-1.314.142a5.864,5.864,0,0,0-1.278.391,9.572,9.572,0,0,0-1.207.6,4.048,4.048,0,0,0-1.1.817,8.772,8.772,0,0,0-.994.994l-.852,1.172a7.387,7.387,0,0,0-.71,1.278l-.675,1.314.391-1.42a7.1,7.1,0,0,1,.5-1.456l.675-1.349a5.149,5.149,0,0,1,.888-1.278,4.19,4.19,0,0,1,1.1-1.136,7.1,7.1,0,0,1,1.314-.959A10.121,10.121,0,0,1,44,44.049a16.761,16.761,0,0,1,3.267,0,18.61,18.61,0,0,1,3.125.568A27.558,27.558,0,0,1,56.251,47.1l-1.882,2.77A12.216,12.216,0,0,1,51.1,46.179a32.174,32.174,0,0,1-2.1-3.942,27.486,27.486,0,0,1-2.379-8.7V31.229l.213-2.379a17.757,17.757,0,0,1,1.421-4.723A9.588,9.588,0,0,1,49.575,22l.71-.994.959-.923a17.188,17.188,0,0,1,3.551-2.77,14.845,14.845,0,0,1,2.415-1.065l1.172-.462,1.278-.249a14.56,14.56,0,0,1,5.114,0l2.415.746a21.02,21.02,0,0,1,2.2,1.065,23.508,23.508,0,0,1,3.835,2.77,30.256,30.256,0,0,1,3.125,3.3,36.042,36.042,0,0,1,2.628,3.551c.781,1.243,1.527,2.486,2.2,3.8a41.8,41.8,0,0,1,1.882,4.013l-4.3.746a13.532,13.532,0,0,1,.568-2.805,23.475,23.475,0,0,1,.994-2.628,21.31,21.31,0,0,1,1.456-2.45,16.049,16.049,0,0,1,1.953-2.166,12.714,12.714,0,0,1,2.415-1.669,10.05,10.05,0,0,1,2.734-.994l1.456-.284h1.882a2.841,2.841,0,0,1,.817,0h1.385a14.206,14.206,0,0,1,2.7.852,11.293,11.293,0,0,1,2.344,1.456,15.8,15.8,0,0,1,1.918,1.847,14.879,14.879,0,0,1,1.563,2.131,25.213,25.213,0,0,1,3.3,9.482" transform="translate(92.048 39.043)" fill="#f7cadb"/>
        <path id="Trazado_22717" data-name="Trazado 22717" d="M10.56,101.1l95.456,223.726s105.719,8.771,201.46-47.409l-21.023-241.2a31.428,31.428,0,0,0-28.8-8.558,32.316,32.316,0,0,0-22.55,20.7c-9.908-11.825-40.058-15.98-51.208,11.968A52.238,52.238,0,0,0,112.87,77.061C101.613,67.615,75.227,58.24,60.028,89.491,45.539,74.86,19.083,75.641,10.631,101.1" transform="translate(26.942 68.815)" fill="#e543a0"/>
        <path id="Trazado_22718" data-name="Trazado 22718" d="M70.576,108.212c-8.949,12.074-21.307,23.331-26.634,37.643s15.838,21.84,21.307,33.381c3.125,6.463,12.749.817,9.624-5.611-4.9-10.085-15.661-17.756-23.189-25.675l1.456,5.433c3.551-15.164,17.756-27.451,26.954-39.56,4.261-5.753-5.4-11.328-9.659-5.611Z" transform="translate(109.932 269.948)" fill="#e543a0"/>
        <path id="Trazado_22719" data-name="Trazado 22719" d="M25.966,56.962v.213L25.149,58.7,24.51,59.98l78.126,235.445a404.3,404.3,0,0,0,40.768-3.871L77.423,47.267l-.213.32c-10.867-9.162-35.832-18.076-51.244,9.375" transform="translate(62.531 98.326)" fill="#f95db6"/>
        <path id="Trazado_22720" data-name="Trazado 22720" d="M109.53,300.224a351.08,351.08,0,0,0,38.14-13.708l-36.4-247.732c0,.249-.213.426-.284.675C101.079,27.7,70.929,23.55,59.778,51.5l-.568-.32Z" transform="translate(151.057 77.653)" fill="#f95db6"/>
        <path id="Trazado_22721" data-name="Trazado 22721" d="M58.189,52.752c2.379,2.1,0,8.629-5.22,14.631s-11.435,9.2-13.814,7.1,0-8.629,5.22-14.631,11.435-9.2,13.814-7.1" transform="translate(97.532 132.934)" fill="#2e2f30"/>
        <path id="Trazado_22722" data-name="Trazado 22722" d="M58.78,47.8c-1.7,2.663,2.344,8.31,9.056,12.642s13.53,5.682,15.235,3.019-2.344-8.31-9.056-12.642S60.52,45.138,58.78,47.8" transform="translate(148.966 118.459)" fill="#2e2f30"/>
        <path id="Trazado_22723" data-name="Trazado 22723" d="M96.237,70.436c-12.82-6-27.2-2.273-33.7,7.919-2.628,4.119-5.114.6-4.155-3.2a20.419,20.419,0,0,1,15.2-14.951A23.651,23.651,0,0,1,97.018,65c3.906,3.551,4.652,7.955-.781,5.433" transform="translate(148.406 150.371)" fill="#2e2f30"/>
        <path id="Trazado_22724" data-name="Trazado 22724" d="M78.657,75.017c-12.82-5.966-27.238-2.273-33.7,7.955-2.628,4.119-5.114.6-4.155-3.2A20.384,20.384,0,0,1,55.965,64.825a23.722,23.722,0,0,1,23.473,4.759c3.906,3.551,4.617,7.99-.781,5.433" transform="translate(103.556 162.125)" fill="#2e2f30"/>
        <path id="Trazado_22725" data-name="Trazado 22725" d="M36.9,111.263a229.621,229.621,0,0,0,30.54,33.63c20.775,18.5,48.545,35.512,69,27.344,35.974-14.2,28.907-100.463,25.356-115.627,0,0,6.57,44.923-49.717,65.8C61.261,141.2,36.9,111.263,36.9,111.263" transform="translate(94.14 144.417)" fill="#2e2f30"/>
        <path id="Trazado_22726" data-name="Trazado 22726" d="M58.241,113.28a37.572,37.572,0,0,0,27.273,1.172c9.872-3.871,16.868-13.637,20.739-25.32a26.705,26.705,0,0,0-31.073-7.6c-13.956,5.256-21.485,19.5-16.939,31.961" transform="translate(145.208 202.557)" fill="#ea4c76"/>
        <path id="Trazado_22727" data-name="Trazado 22727" d="M73.2,124.831c14.524,5.717,1.456,8.2,1.278,14.986-.249,10.973-30.966,7.458-31.606-3.977S73.2,124.831,73.2,124.831Z" transform="translate(109.364 318.458)" fill="#e543a0"/>
        <path id="Trazado_22728" data-name="Trazado 22728" d="M102.568,114.425c22.408-19.034,40.448-1.349,43.5,5.966,2.131,14.2-21.307,10.654-29.084,3.054C107.291,128.737,96.673,121.279,102.568,114.425Z" transform="translate(257.347 270.127)" fill="#e543a0"/>
        <path id="Trazado_22729" data-name="Trazado 22729" d="M7.176,34.615A10.654,10.654,0,0,1,4.3,19.1c6.144-9.943,19.709-14.666,20.455-1.74,5.362-6.641,17.01,9.908,10.938,13.672,1.847,11.151-7.386,17.934-17.01,16.336C6.963,63.238-6.176,40.83,7.176,34.615" transform="translate(3.976 24.186)" fill="#efa8c9"/>
        <path id="Trazado_22730" data-name="Trazado 22730" d="M83.872,9.583A8.345,8.345,0,0,1,91.72.173C100.7-1.07,110.257,4.647,102.871,11.5c6.641,0,2.521,15.057-2.7,13.281A10.867,10.867,0,0,1,81.99,22.758c-15.27.852-8.345-18,1.882-13.175" transform="translate(186.482 -0.002)" fill="#efa8c9"/>
        <path id="Trazado_22731" data-name="Trazado 22731" d="M94.41,148.409c45.136-5.327,61.968-54.8,71.7-92.757,1.776-7.1-8.949-9.908-10.654-2.948-8.168,31.961-22.053,79.973-60.939,84.554-7.1.817-7.1,11.968,0,11.151Z" transform="translate(227.542 124.21)" fill="#e543a0"/>
        <path id="Trazado_22732" data-name="Trazado 22732" d="M22.492,105.413c5.185,8.168,13.743,21.982,25.427,19.638s15.2-17.756,17.756-27.1a5.575,5.575,0,0,0-10.654-2.983c-1.03,3.906-3.551,18-8.985,19.141s-11.861-11.435-13.708-14.2c-3.835-6.037-13.495-.426-9.624,5.646Z" transform="translate(55.635 233.578)" fill="#e543a0"/>
        <path id="Trazado_22733" data-name="Trazado 22733" d="M104.711,75.183c-.675-6.25,4.759-10.654,12.074-5.433.5-5.433-3.764-15.661-6.641-21.307-4.546-8.949,7.1-12.855,12.145-3.551A41.868,41.868,0,0,1,125.84,66.98s4.723-4.688,4.155-19.461c-.355-8.2,9.837-6.57,11.47,3.3.852,4.9-1.314,10.831-10.654,20.348,0,0,5.575,22.337-12.82,16.087a12.287,12.287,0,0,1-13.281-12.074Z" transform="translate(266.994 100.879)" fill="#e543a0"/>
        <path id="Trazado_22734" data-name="Trazado 22734" d="M92.138,113.754c17.046-5.611,36.826-8.736,54.369-3.054,8.523,2.805,6.605,5.859,3.232,12.287a123.151,123.151,0,0,0-7.6,16.62c-2.379,6.783,8.381,9.695,10.654,2.948,4.048-11.47,19.745-28.836,5.149-38.85-18.5-12.713-49.362-7.1-68.893-.71-6.783,2.237-3.871,13,2.983,10.654Z" transform="translate(217.349 245.088)" fill="#e543a0"/>
        <path id="Trazado_22735" data-name="Trazado 22735" d="M105.5,52.934a10.654,10.654,0,0,0,10.654,6.25c7.1-1.136,1.989-10.334,1.989-10.334s7.386,10.014-.675,12.145A10.157,10.157,0,0,1,105.5,52.934Z" transform="translate(269.152 124.619)" fill="#cc3c8f"/>
        <path id="Trazado_22736" data-name="Trazado 22736" d="M54.431,123.6s-1.7-10.37-6.676-13.743C39.587,104.277,38.1,92.1,40.3,82.331c-5.185-5.575-30.079,10.654-6.286,28.978,0,0-25.285,7.813-17.756,17.472a14.7,14.7,0,0,0,13.317,4.084s-4.51,15.235,7.422,17.117C44.1,151.082,58.586,132.864,54.431,123.6Z" transform="translate(37.901 207.192)" fill="#e543a0"/>
      </g>
    </g>
  </g>
</svg>
