<svg xmlns="http://www.w3.org/2000/svg" xmlns:xlink="http://www.w3.org/1999/xlink" width="1220" height="686" viewBox="0 0 1220 686">
  <defs>
    <clipPath id="clip-path">
      <rect id="Rectángulo_431" data-name="Rectángulo 431" width="1220" height="686" rx="37" transform="translate(350 197)" fill="#fff" stroke="#707070" stroke-width="1"/>
    </clipPath>
    <clipPath id="clip-path-2">
      <rect id="Rectángulo_418" data-name="Rectángulo 418" width="1341" height="756" transform="translate(1341.438 756) rotate(180)" fill="none"/>
    </clipPath>
    <clipPath id="clip-path-3">
      <rect id="Rectángulo_416" data-name="Rectángulo 416" width="1360.096" height="960.849" transform="translate(1360.096 960.849) rotate(180)" fill="none"/>
    </clipPath>
    <radialGradient id="radial-gradient" cx="0.294" cy="0.578" r="0.966" gradientTransform="matrix(0.805, 0, 0, -1, 0.38, 0.843)" gradientUnits="objectBoundingBox">
      <stop offset="0.04" stop-color="#68276e"/>
      <stop offset="1"/>
    </radialGradient>
    <radialGradient id="radial-gradient-2" cx="0.501" cy="0.475" r="4.921" gradientTransform="matrix(0.086, 0, 0, -1, 1.969, 1.05)" xlink:href="#radial-gradient"/>
    <clipPath id="clip-path-4">
      <rect id="Rectángulo_409" data-name="Rectángulo 409" width="1358.159" height="979.496" fill="none"/>
    </clipPath>
    <linearGradient id="linear-gradient" x1="2.644" y1="0.5" x2="3.644" y2="0.5" gradientUnits="objectBoundingBox">
      <stop offset="0.04" stop-color="#68276e" stop-opacity="0"/>
      <stop offset="1"/>
    </linearGradient>
    <linearGradient id="linear-gradient-2" x1="1.901" x2="2.901" xlink:href="#linear-gradient"/>
    <linearGradient id="linear-gradient-3" x1="-0.552" y1="-0.447" x2="-0.732" y2="0.929" gradientUnits="objectBoundingBox">
      <stop offset="0" stop-color="#ff8"/>
      <stop offset="0.99" stop-opacity="0"/>
    </linearGradient>
    <radialGradient id="radial-gradient-3" cx="0.5" cy="0.548" r="1.053" gradientTransform="matrix(-0.967, 0, 0, 1, 5.403, 0)" gradientUnits="objectBoundingBox">
      <stop offset="0.04" stop-color="#c711cc"/>
      <stop offset="1" stop-opacity="0"/>
    </radialGradient>
    <radialGradient id="radial-gradient-4" cx="0.229" cy="0.36" r="4.478" gradientTransform="matrix(-0.183, 0, 0, 0.23, 2.869, 0.28)" gradientUnits="objectBoundingBox">
      <stop offset="0.06" stop-color="#75000e"/>
      <stop offset="0.77" stop-color="#4b000e"/>
    </radialGradient>
    <radialGradient id="radial-gradient-5" cx="0.494" cy="0.623" r="0.276" gradientTransform="matrix(-1.14, 0.022, 0.028, 1.112, 73.563, -0.887)" gradientUnits="objectBoundingBox">
      <stop offset="0" stop-color="#fff"/>
      <stop offset="1" stop-color="#73c6ff" stop-opacity="0"/>
    </radialGradient>
    <radialGradient id="radial-gradient-6" cx="34.927" cy="1.096" r="0.311" gradientTransform="translate(-0.07) scale(1.14 1)" xlink:href="#radial-gradient-5"/>
    <radialGradient id="radial-gradient-7" cx="75.154" cy="1.66" r="0.311" gradientTransform="translate(-0.07) scale(1.14 1)" xlink:href="#radial-gradient-5"/>
    <radialGradient id="radial-gradient-8" cx="58.433" cy="1.392" r="0.311" gradientTransform="translate(-0.07) scale(1.14 1)" xlink:href="#radial-gradient-5"/>
    <radialGradient id="radial-gradient-9" cx="14.279" cy="0.736" r="0.311" gradientTransform="translate(-0.07) scale(1.14 1)" xlink:href="#radial-gradient-5"/>
    <radialGradient id="radial-gradient-10" cx="0.483" cy="0.48" r="0.288" gradientTransform="matrix(-0.627, -0.793, -0.916, 0.683, 10.312, 4.505)" xlink:href="#radial-gradient-5"/>
    <linearGradient id="linear-gradient-4" x1="2.277" y1="-0.447" x2="2.097" y2="0.929" xlink:href="#linear-gradient-3"/>
  </defs>
  <g id="Grupo_550" data-name="Grupo 550" transform="translate(-350 -197)">
    <g id="Enmascarar_grupo_4" data-name="Enmascarar grupo 4" clip-path="url(#clip-path)">
      <g id="Fondos_Categorias-04" transform="translate(350.444 197)" style="isolation: isolate">
        <g id="Capa_1" data-name="Capa 1" transform="translate(-60.93)">
          <g id="Grupo_390" data-name="Grupo 390" transform="translate(0.048)" clip-path="url(#clip-path-2)">
            <g id="Grupo_389" data-name="Grupo 389" transform="translate(-16.045 -162.42)" clip-path="url(#clip-path-3)">
              <rect id="Rectángulo_406" data-name="Rectángulo 406" width="1358.313" height="1093.573" transform="translate(1358.306 977.001) rotate(180)" fill="url(#radial-gradient)"/>
              <rect id="Rectángulo_407" data-name="Rectángulo 407" width="1358.313" height="117.256" transform="translate(1358.306 977.001) rotate(180)" fill="url(#radial-gradient-2)"/>
              <g id="Grupo_388" data-name="Grupo 388" transform="translate(3.809 -118.144)" opacity="0.27">
                <g id="Grupo_387" data-name="Grupo 387" clip-path="url(#clip-path-4)">
                  <rect id="Rectángulo_408" data-name="Rectángulo 408" width="1358.159" height="979.503" fill="#ad0984"/>
                  <path id="Trazado_24679" data-name="Trazado 24679" d="M953.53,924.039l42.655-175.608,197.107-.811Z" transform="translate(-274.88 55.464)" fill="#590662"/>
                  <path id="Trazado_24680" data-name="Trazado 24680" d="M69.444,654.505-17.48,876.137V595.72Z" transform="translate(17.48 101.2)" fill="#d71fb1"/>
                  <path id="Trazado_24681" data-name="Trazado 24681" d="M1884.511-86.351,1794.24-9.575l34.785-102.915Z" transform="translate(-528.008 314.433)" fill="#390023"/>
                  <path id="Trazado_24682" data-name="Trazado 24682" d="M1917.207,788.923,1897.33,579.012l19.877-280.152Z" transform="translate(-559.048 190.581)" fill="#660437"/>
                  <path id="Trazado_24683" data-name="Trazado 24683" d="M274,794.517-17.48,924.011V923.6l188.8-174.819Z" transform="translate(17.48 55.115)" fill="#b21cb9"/>
                  <path id="Trazado_24684" data-name="Trazado 24684" d="M171.317,728.02-17.48,902.839v-1.377L69.444,679.83Z" transform="translate(17.48 75.875)" fill="#c91fbe"/>
                  <path id="Trazado_24685" data-name="Trazado 24685" d="M396.573,866.5-17.49,943.931v-.217L274,814.22Z" transform="translate(17.483 35.412)" fill="#a4128e"/>
                  <path id="Trazado_24686" data-name="Trazado 24686" d="M1854.951,488.19l14.908,147.827-63.769-16.334Z" transform="translate(-531.576 133.576)" fill="#68043a"/>
                  <path id="Trazado_24687" data-name="Trazado 24687" d="M1890.908,579.015,1876,431.188l34.785-132.318Z" transform="translate(-552.625 190.578)" fill="#6b0544"/>
                  <path id="Trazado_24688" data-name="Trazado 24688" d="M1698.271,16.111,1502,63.483,1475.5-27.18Z" transform="translate(-432.039 288.748)" fill="#58002d"/>
                  <path id="Trazado_24689" data-name="Trazado 24689" d="M1886.168,186.265,1794.24,1.682,1884.511-75.1Z" transform="translate(-528.008 303.176)" fill="#3f0126"/>
                  <path id="Trazado_24690" data-name="Trazado 24690" d="M1616.282-191.96,1698.271-33.5,1475.5-76.793Z" transform="translate(-432.039 338.361)" fill="#5b0335"/>
                  <path id="Trazado_24691" data-name="Trazado 24691" d="M1793.7-136.418,1758.919-33.5,1676.93-191.96Z" transform="translate(-492.688 338.361)" fill="#44062f"/>
                  <path id="Trazado_24692" data-name="Trazado 24692" d="M1872.61,909.611l-123.4-138.035L1852.733,699.7Z" transform="translate(-514.45 69.892)" fill="#81073a"/>
                  <path id="Trazado_24693" data-name="Trazado 24693" d="M1788.964,676.33l63.769,16.334L1749.21,764.54Z" transform="translate(-514.45 76.929)" fill="#790536"/>
                  <path id="Trazado_24694" data-name="Trazado 24694" d="M1831.047,476.222l-48.861,131.493L1726.7,448.44Z" transform="translate(-507.673 145.544)" fill="#8c0f53"/>
                  <path id="Trazado_24695" data-name="Trazado 24695" d="M1870.827,219.342,1743.29,203.009,1778.9,34.76Z" transform="translate(-512.668 270.098)" fill="#450024"/>
                  <path id="Trazado_24696" data-name="Trazado 24696" d="M1831.047,431.185,1726.7,403.4,1865.832,298.86Z" transform="translate(-507.673 190.581)" fill="#710632"/>
                  <path id="Trazado_24697" data-name="Trazado 24697" d="M1865.832,291.824,1726.7,396.367l11.6-120.877Z" transform="translate(-507.673 197.617)" fill="#660331"/>
                  <path id="Trazado_24698" data-name="Trazado 24698" d="M1554.047,259.13l118.423,132.311-125.881,87.4Z" transform="translate(-453.443 202.543)" fill="#5d0432"/>
                  <path id="Trazado_24699" data-name="Trazado 24699" d="M1763.633,676.33l-39.754,88.21-58.8-62.895Z" transform="translate(-489.12 76.929)" fill="#8b0542"/>
                  <path id="Trazado_24700" data-name="Trazado 24700" d="M1708.147,448.44l55.487,159.275-98.553,25.315Z" transform="translate(-489.12 145.544)" fill="#96094e"/>
                  <path id="Trazado_24701" data-name="Trazado 24701" d="M1401.291,388.85,1497.356,517.9l-114.286-8.17Z" transform="translate(-404.21 163.486)" fill="#45002f"/>
                  <path id="Trazado_24702" data-name="Trazado 24702" d="M1672.471,448.44,1629.4,633.029l-82.814-97.191Z" transform="translate(-453.443 145.544)" fill="#a01058"/>
                  <path id="Trazado_24703" data-name="Trazado 24703" d="M1687.279,270.564l-11.6,120.877L1557.26,259.13Z" transform="translate(-456.656 202.543)" fill="#53032a"/>
                  <path id="Trazado_24704" data-name="Trazado 24704" d="M1519.118,573.49l82.814,97.191L1455.35,738.475Z" transform="translate(-425.972 107.893)" fill="#a91466"/>
                  <path id="Trazado_24705" data-name="Trazado 24705" d="M1674.076,223.417l-130.018-11.434L1513.41,102.54Z" transform="translate(-443.454 249.69)" fill="#470025"/>
                  <path id="Trazado_24706" data-name="Trazado 24706" d="M1709.685,34.76l-35.609,168.249L1513.41,82.132Z" transform="translate(-443.454 270.098)" fill="#490131"/>
                  <path id="Trazado_24707" data-name="Trazado 24707" d="M1601.933,712.55l58.8,62.9-205.382,4.9Z" transform="translate(-425.972 66.023)" fill="#bf0e5f"/>
                  <path id="Trazado_24708" data-name="Trazado 24708" d="M930.76,480l-90.271,89.838L838,497.151Z" transform="translate(-240.095 136.041)" fill="#b20dcb"/>
                  <path id="Trazado_24709" data-name="Trazado 24709" d="M1784.132,940.575,1455.35,807.439l205.382-4.9Z" transform="translate(-425.972 38.928)" fill="#89063c"/>
                  <path id="Trazado_24710" data-name="Trazado 24710" d="M1357.029,561.8l50.517,173.155L1296.58,691.672Z" transform="translate(-378.169 111.412)" fill="#520a56"/>
                  <path id="Trazado_24711" data-name="Trazado 24711" d="M1512.663,259.13l-7.457,219.71L1409.14,349.793Z" transform="translate(-412.059 202.543)" fill="#450024"/>
                  <path id="Trazado_24712" data-name="Trazado 24712" d="M1497.356,569.97l-63.769,164.985L1383.07,561.8Z" transform="translate(-404.21 111.412)" fill="#4f0844"/>
                  <path id="Trazado_24713" data-name="Trazado 24713" d="M1146.3,399.37l36.434,109.449L1056.03,530.045Z" transform="translate(-305.742 160.318)" fill="#700062"/>
                  <path id="Trazado_24714" data-name="Trazado 24714" d="M1304.257,790.9,953.53,924.039,1193.291,747.62Z" transform="translate(-274.88 55.464)" fill="#600b82"/>
                  <path id="Trazado_24715" data-name="Trazado 24715" d="M1449.191,102.54l30.647,109.443L1300.12,195.649Z" transform="translate(-379.234 249.69)" fill="#6e0941"/>
                  <path id="Trazado_24716" data-name="Trazado 24716" d="M1479.841,252.094l-103.523,90.663-76.188-107Z" transform="translate(-379.237 209.579)" fill="#5f063c"/>
                  <path id="Trazado_24717" data-name="Trazado 24717" d="M1339.189,560.045,1278.74,689.916,1237.33,555.97Z" transform="translate(-360.329 113.168)" fill="#500445"/>
                  <path id="Trazado_24718" data-name="Trazado 24718" d="M1256.96,235.408l-80.333,114.349L1156.75,234.59Z" transform="translate(-336.067 209.932)" fill="#b30f94"/>
                  <path id="Trazado_24719" data-name="Trazado 24719" d="M1357.41,388.85l-18.221,120.877-101.859-4.075Z" transform="translate(-360.329 163.486)" fill="#580742"/>
                  <path id="Trazado_24720" data-name="Trazado 24720" d="M1426,80.019l-149.071,93.109L1223.11,27.74Z" transform="translate(-356.048 272.212)" fill="#a00b71"/>
                  <path id="Trazado_24721" data-name="Trazado 24721" d="M1258.72-210.65,1399.508-82.421l-176.4,38.384Z" transform="translate(-356.048 343.988)" fill="#ac1b9c"/>
                  <path id="Trazado_24722" data-name="Trazado 24722" d="M1399.508-27.18,1426,63.483,1223.11,11.2Z" transform="translate(-356.048 288.748)" fill="#8f0e6b"/>
                  <path id="Trazado_24723" data-name="Trazado 24723" d="M1203.13,27.74l53.83,145.388-100.21-.818Z" transform="translate(-336.067 272.212)" fill="#c81aaf"/>
                  <path id="Trazado_24724" data-name="Trazado 24724" d="M1265.523,235.76l76.188,107-156.521,7.353Z" transform="translate(-344.63 209.579)" fill="#760253"/>
                  <path id="Trazado_24725" data-name="Trazado 24725" d="M1341.711,388.85l-120.08,116.8L1185.19,396.2Z" transform="translate(-344.63 163.486)" fill="#710656"/>
                  <path id="Trazado_24726" data-name="Trazado 24726" d="M1238.739-210.65,1203.13-44.037,1156.75-162.46Z" transform="translate(-336.067 343.988)" fill="#ab24a5"/>
                  <path id="Trazado_24727" data-name="Trazado 24727" d="M1182.743,555.97l41.41,133.946L1056.03,577.2Z" transform="translate(-305.742 113.168)" fill="#56034b"/>
                  <path id="Trazado_24728" data-name="Trazado 24728" d="M963.584,480l59.624,74.322L947.02,605.783Z" transform="translate(-272.92 136.041)" fill="#9807a0"/>
                  <path id="Trazado_24729" data-name="Trazado 24729" d="M1043.544,586.34,1211.66,699.06l-197.1.811Z" transform="translate(-293.255 104.024)" fill="#660962"/>
                  <path id="Trazado_24730" data-name="Trazado 24730" d="M984.8,233.42,1120.609,349.4,970.72,405.758Z" transform="translate(-280.056 210.284)" fill="#bc0ebb"/>
                  <path id="Trazado_24731" data-name="Trazado 24731" d="M795.088-119.271l-71.219,83.3-17.389-88.2Z" transform="translate(-200.496 317.95)" fill="#c41388"/>
                  <path id="Trazado_24732" data-name="Trazado 24732" d="M1120.616,399.37l-90.271,130.675L970.72,455.723Z" transform="translate(-280.056 160.318)" fill="#a614a5"/>
                  <path id="Trazado_24733" data-name="Trazado 24733" d="M1153.9,25.28l-46.38,144.57L993.23,19.57Z" transform="translate(-286.833 274.672)" fill="#db30d7"/>
                  <path id="Trazado_24734" data-name="Trazado 24734" d="M1107.516-141.7,1153.9-23.276,993.23-28.994Z" transform="translate(-286.833 323.228)" fill="#d230c4"/>
                  <path id="Trazado_24735" data-name="Trazado 24735" d="M1028.839-177.93l78.677,25.322L993.23-39.9Z" transform="translate(-286.833 334.137)" fill="#c829a9"/>
                  <path id="Trazado_24736" data-name="Trazado 24736" d="M1106.8,234.238,1126.679,349.4,990.86,233.42Z" transform="translate(-286.12 210.284)" fill="#c418c2"/>
                  <path id="Trazado_24737" data-name="Trazado 24737" d="M992.516,19.56,1106.8,169.847l-115.943-.818Z" transform="translate(-286.12 274.675)" fill="#d228e1"/>
                  <path id="Trazado_24738" data-name="Trazado 24738" d="M1023.208,586.34,994.225,699.871l-47.2-62.07Z" transform="translate(-272.92 104.024)" fill="#890d8f"/>
                  <path id="Trazado_24739" data-name="Trazado 24739" d="M661.17,966.613H-17.48v-.161L396.576,889.02Z" transform="translate(17.48 12.89)" fill="#ad0984"/>
                  <path id="Trazado_24740" data-name="Trazado 24740" d="M1633.04,942.686H953.53L1304.257,809.55Z" transform="translate(-274.88 36.818)" fill="#6e0a62"/>
                  <path id="Trazado_24741" data-name="Trazado 24741" d="M89.328-223.65,42.116-89.7l-59.6-307.626V-400.3Z" transform="translate(17.48 401.09)" fill="#500b5c"/>
                  <path id="Trazado_24742" data-name="Trazado 24742" d="M888.517,407.55l42.242,50.636L838,475.337Z" transform="translate(-240.095 157.855)" fill="#b309cc"/>
                  <path id="Trazado_24743" data-name="Trazado 24743" d="M966.6,233.42,952.522,405.758,910.28,355.121Z" transform="translate(-261.858 210.284)" fill="#aa0fcb"/>
                  <path id="Trazado_24744" data-name="Trazado 24744" d="M915.267,644.485,841.56,709.826V608.54Z" transform="translate(-241.167 97.34)" fill="#ac07c3"/>
                  <path id="Trazado_24745" data-name="Trazado 24745" d="M919.817,924.388,841.56,752.051l120.912-3.271Z" transform="translate(-241.167 55.115)" fill="#7e009d"/>
                  <path id="Trazado_24746" data-name="Trazado 24746" d="M915.267,659.97l47.2,62.07L841.56,725.311Z" transform="translate(-241.167 81.855)" fill="#9004a5"/>
                  <path id="Trazado_24747" data-name="Trazado 24747" d="M931.831,480,915.267,605.783,841.56,569.838Z" transform="translate(-241.167 136.041)" fill="#b008c0"/>
                  <path id="Trazado_24748" data-name="Trazado 24748" d="M980.674-177.93,945.065-39.9l-111.8-95.555Z" transform="translate(-238.668 334.137)" fill="#db22a2"/>
                  <path id="Trazado_24749" data-name="Trazado 24749" d="M750.941,567.65l46.38,28.578L694.63,637.891Z" transform="translate(-196.928 109.651)" fill="#b90cca"/>
                  <path id="Trazado_24750" data-name="Trazado 24750" d="M819.092,504.54l2.488,72.687L775.2,548.648Z" transform="translate(-221.187 128.653)" fill="#be12d6"/>
                  <path id="Trazado_24751" data-name="Trazado 24751" d="M914.384,14.285l-158.185,156L731.36,2.04Z" transform="translate(-207.987 279.95)" fill="#cb16c5"/>
                  <path id="Trazado_24752" data-name="Trazado 24752" d="M325.082-177.93l101.859,72.694L270.42,5.842Z" transform="translate(-69.203 334.137)" fill="#900e70"/>
                  <path id="Trazado_24753" data-name="Trazado 24753" d="M925.085,19.56l-1.656,149.469L766.9,175.564Z" transform="translate(-218.688 274.675)" fill="#cc16e5"/>
                  <path id="Trazado_24754" data-name="Trazado 24754" d="M923.428,233.42l-56.318,121.7L766.9,239.955Z" transform="translate(-218.688 210.284)" fill="#b516ee"/>
                  <path id="Trazado_24755" data-name="Trazado 24755" d="M802.579-117.16,914.384-21.6,731.36-33.857Z" transform="translate(-207.987 315.84)" fill="#dd1aa6"/>
                  <path id="Trazado_24756" data-name="Trazado 24756" d="M607.18,376l95.241,133.946L533.48,449.5Z" transform="translate(-148.408 167.355)" fill="#cd2bee"/>
                  <path id="Trazado_24757" data-name="Trazado 24757" d="M702.421,541.612l-56.311,70.241L533.48,481.17Z" transform="translate(-148.408 135.689)" fill="#c521d8"/>
                  <path id="Trazado_24758" data-name="Trazado 24758" d="M797.321,608.54V709.826L694.63,650.2Z" transform="translate(-196.928 97.34)" fill="#af09c3"/>
                  <path id="Trazado_24759" data-name="Trazado 24759" d="M680.436-124.17l17.389,88.2L619.98-62.917Z" transform="translate(-174.452 317.95)" fill="#b40d7f"/>
                  <path id="Trazado_24760" data-name="Trazado 24760" d="M578.119,102.54l126.706,98.008L560.73,230.769Z" transform="translate(-156.612 249.69)" fill="#cd22d3"/>
                  <path id="Trazado_24761" data-name="Trazado 24761" d="M778.062,465.838l-43.892,44.108L638.93,376Z" transform="translate(-180.158 167.355)" fill="#c017e6"/>
                  <path id="Trazado_24762" data-name="Trazado 24762" d="M828.58,398.051l-50.517,67.787L638.93,376Z" transform="translate(-180.158 167.355)" fill="#b814e5"/>
                  <path id="Trazado_24763" data-name="Trazado 24763" d="M728.37,242.77,828.58,357.937,638.93,335.886Z" transform="translate(-180.158 207.469)" fill="#c418f8"/>
                  <path id="Trazado_24764" data-name="Trazado 24764" d="M603.109,757.542l158.178-4.082L574.95,848.2Z" transform="translate(-160.894 53.706)" fill="#c10dac"/>
                  <path id="Trazado_24765" data-name="Trazado 24765" d="M670.727,668.15l102.691,59.624L615.24,731.856Z" transform="translate(-173.025 79.392)" fill="#bc14bf"/>
                  <path id="Trazado_24766" data-name="Trazado 24766" d="M609.631-36.53,687.476-9.58,585.61,60.668Z" transform="translate(-164.104 291.563)" fill="#c31392"/>
                  <path id="Trazado_24767" data-name="Trazado 24767" d="M687.476,2.03l24.839,168.256L585.61,72.278Z" transform="translate(-164.104 279.953)" fill="#c418ba"/>
                  <path id="Trazado_24768" data-name="Trazado 24768" d="M488.664-73.92l87.79,26.132L475.42,33.894Z" transform="translate(-130.927 302.82)" fill="#8e0867"/>
                  <path id="Trazado_24769" data-name="Trazado 24769" d="M581.133,376l-73.7,73.5L446.97,384.163Z" transform="translate(-122.361 167.355)" fill="#d83eee"/>
                  <path id="Trazado_24770" data-name="Trazado 24770" d="M95.129,141.3-17.48,221.557v-1.894L42.116,44.11Z" transform="translate(17.48 267.283)" fill="#911695"/>
                  <path id="Trazado_24771" data-name="Trazado 24771" d="M839.544,925.8,574.95,848.2,761.287,753.46Z" transform="translate(-160.894 53.706)" fill="#9f06ac"/>
                  <path id="Trazado_24772" data-name="Trazado 24772" d="M704.825,242.77l-89.44,93.116-54.655-62.9Z" transform="translate(-156.612 207.469)" fill="#cb29ee"/>
                  <path id="Trazado_24773" data-name="Trazado 24773" d="M526.478,286.01l54.655,62.9L446.97,357.068Z" transform="translate(-122.361 194.45)" fill="#db3dea"/>
                  <path id="Trazado_24774" data-name="Trazado 24774" d="M457.74,186.68,526.478,256.1,446.97,327.161Z" transform="translate(-122.361 224.357)" fill="#db2fd1"/>
                  <path id="Trazado_24775" data-name="Trazado 24775" d="M42.116-88.414-17.48,87.138V-396.04Z" transform="translate(17.48 399.807)" fill="#4e0a6f"/>
                  <path id="Trazado_24776" data-name="Trazado 24776" d="M471.494,80.33l77.013,15.523L462.38,154.659Z" transform="translate(-127 256.378)" fill="#b6148e"/>
                  <path id="Trazado_24777" data-name="Trazado 24777" d="M576.455-36.53l-24.022,97.2L475.42,45.145Z" transform="translate(-130.927 291.563)" fill="#ab0c82"/>
                  <path id="Trazado_24778" data-name="Trazado 24778" d="M548.507,102.54,531.118,230.769,462.38,161.346Z" transform="translate(-127 249.69)" fill="#d022b9"/>
                  <path id="Trazado_24779" data-name="Trazado 24779" d="M405.371,603.87,550.3,712.5,399.57,750.886Z" transform="translate(-108.089 98.745)" fill="#cd23c1"/>
                  <path id="Trazado_24780" data-name="Trazado 24780" d="M69.444,611.57-17.48,552.785v-.028l150.7-99.637Z" transform="translate(17.48 144.135)" fill="#b6169c"/>
                  <path id="Trazado_24781" data-name="Trazado 24781" d="M495.66,481.17,608.29,611.852,407.87,566.927Z" transform="translate(-110.588 135.689)" fill="#dd3de5"/>
                  <path id="Trazado_24782" data-name="Trazado 24782" d="M608.29,648.8,552.8,712.5,407.87,603.87Z" transform="translate(-110.588 98.745)" fill="#d229ca"/>
                  <path id="Trazado_24783" data-name="Trazado 24783" d="M550.3,759.3l-28.159,90.663L399.57,797.684Z" transform="translate(-108.089 51.947)" fill="#ba12a7"/>
                  <path id="Trazado_24784" data-name="Trazado 24784" d="M426.941-73.92,413.7,33.894,270.42,37.158Z" transform="translate(-69.203 302.82)" fill="#8c0967"/>
                  <path id="Trazado_24785" data-name="Trazado 24785" d="M488.883,474.134l-87.79,85.756L385.36,457.8Z" transform="translate(-103.811 142.726)" fill="#ca35e9"/>
                  <path id="Trazado_24786" data-name="Trazado 24786" d="M428.417,387.68l60.463,65.341L385.35,436.688Z" transform="translate(-103.808 163.838)" fill="#d63ce8"/>
                  <path id="Trazado_24787" data-name="Trazado 24787" d="M133.219,371.841-17.48,264.635v-1.209L95.129,183.17Z" transform="translate(17.48 225.414)" fill="#a81182"/>
                  <path id="Trazado_24788" data-name="Trazado 24788" d="M429.914,186.68l-10.77,140.481-64.593-73.5Z" transform="translate(-94.534 224.357)" fill="#cd1fb4"/>
                  <path id="Trazado_24789" data-name="Trazado 24789" d="M419.143,356.014l-43.067,49.008L354.55,282.51Z" transform="translate(-94.534 195.503)" fill="#cd2bcc"/>
                  <path id="Trazado_24790" data-name="Trazado 24790" d="M413.7,80.33l-9.114,74.329L270.42,83.6Z" transform="translate(-69.203 256.378)" fill="#8e0b6b"/>
                  <path id="Trazado_24791" data-name="Trazado 24791" d="M404.583,156.068l-75.364,66.977L270.42,85.01Z" transform="translate(-69.203 254.968)" fill="#8e0b73"/>
                  <path id="Trazado_24792" data-name="Trazado 24792" d="M284.411-177.93,229.749,5.842,135.34-156.7Z" transform="translate(-28.532 334.137)" fill="#7f0e7a"/>
                  <path id="Trazado_24793" data-name="Trazado 24793" d="M361.135,603.87l-5.8,147.016L252.65,705.149Z" transform="translate(-63.853 98.745)" fill="#aa1dc1"/>
                  <path id="Trazado_24794" data-name="Trazado 24794" d="M209.41,72.7,120.8,141.3,67.79,44.11Z" transform="translate(-8.194 267.283)" fill="#901186"/>
                  <path id="Trazado_24795" data-name="Trazado 24795" d="M328.983,456.391l15.739,102.09L198.14,453.12Z" transform="translate(-47.441 144.135)" fill="#bf26d6"/>
                  <path id="Trazado_24796" data-name="Trazado 24796" d="M344.723,558.481,236.238,659.76l-38.1-206.64Z" transform="translate(-47.441 144.135)" fill="#b526d0"/>
                  <path id="Trazado_24797" data-name="Trazado 24797" d="M307.457,282.51l21.526,122.512L198.14,401.751Z" transform="translate(-47.441 195.503)" fill="#b919ad"/>
                  <path id="Trazado_24798" data-name="Trazado 24798" d="M291.047,252.6,181.731,371.841,143.64,183.17Z" transform="translate(-31.031 225.414)" fill="#8d0c73"/>
                  <path id="Trazado_24799" data-name="Trazado 24799" d="M232.248,85.01l58.8,138.035L143.64,153.615Z" transform="translate(-31.031 254.968)" fill="#940d73"/>
                  <path id="Trazado_24800" data-name="Trazado 24800" d="M133.219,406.936l-150.7,99.637V299.73Z" transform="translate(17.48 190.319)" fill="#b20f82"/>
                  <path id="Trazado_24801" data-name="Trazado 24801" d="M170.669,453.12l38.1,206.64L106.9,611.57Z" transform="translate(-19.969 144.135)" fill="#bd1ec0"/>
                  <path id="Trazado_24802" data-name="Trazado 24802" d="M115-147.55,209.41,14.989,67.79-13.6Z" transform="translate(-8.194 324.99)" fill="#750f7d"/>
                </g>
              </g>
              <path id="Trazado_24803" data-name="Trazado 24803" d="M178-229.96V42.93h116.25V-89.486h101.72v74.273h106.57V94.579h56.507V-45.9l75.888-75.881V80.049s7.954.657,17.969,1.251v97.219H-19V-259Zm434,147.925L603.653-73.7v45.045h8.338Zm8.771,151.049H629.1V52.344h-8.338Zm0-46.506H629.1V5.838h-8.338Zm0-23.246H629.1V-17.414h-8.338Zm0-27.915H629.1V-99.145l-8.338,8.331ZM603.653,92.259h8.338V75.6h-8.338Zm0-46.506h8.338V29.091h-8.338Zm0-23.253h8.338V5.838h-8.338ZM586.544,69.006h8.338V52.344h-8.338Zm0-69.751h8.338V-17.414h-8.338Zm0-27.915h8.338V-64.926l-8.338,8.338ZM479.387,75.855H490.9V52.791H479.387Zm0-64.258H490.9V-11.432H479.387Zm-27.348,0h11.511V-11.432H452.066ZM371.51,6.188h8.338V-10.481H371.51Zm0-23.253h8.338V-33.734H371.51Zm0-23.253h8.338v-16.7H371.51Zm0-23.253h8.338V-80.239H371.51ZM354.4,29.441h8.338V12.772H354.4Zm0-46.506h8.338V-33.734H354.4Zm0-23.253h8.338v-16.7H354.4ZM337.291,6.188h8.331V-10.481h-8.331Zm0-23.253h8.331V-33.734h-8.331Zm0-46.506h8.331V-80.239h-8.331ZM162.319,80.985h13.8V53.413h-13.8Zm0-77h13.8V-23.621h-13.8Zm0-38.5h13.8v-27.6h-13.8Zm0-38.5h13.8V-100.62h-13.8Zm0-77.006h13.8v-27.6h-13.8Zm-28.327,192.5h13.8v-27.6h-13.8Zm0-38.5h13.8V-23.621h-13.8Zm0-77h13.8V-100.62h-13.8Zm0-38.5h13.8v-27.6h-13.8Zm-28.334,192.5h13.8V53.413h-13.8Zm0-38.5h13.8v-27.6h-13.8Zm0-77h13.8v-27.6h-13.8Zm0-77h13.8v-27.6h-13.8Zm0-38.5h13.8v-27.6h-13.8Zm-28.327,231h13.8V53.413h-13.8Zm0-77h13.8V-23.621h-13.8Zm0-77h13.8V-100.62h-13.8Zm0-77.006h13.8v-27.6h-13.8Z" transform="translate(21.747 240.402)" fill="#b51596" opacity="0.68"/>
              <path id="Trazado_24804" data-name="Trazado 24804" d="M966.463-399.18C570.886-353.45-.768-142.12-22.93,694.393V-399.18Z" transform="translate(22.93 282.609)" fill="url(#linear-gradient)"/>
              <path id="Trazado_24805" data-name="Trazado 24805" d="M510.69-399.18h985.36V612.886C1440.011-155.994,893.085-354.974,510.69-399.18Z" transform="translate(-137.737 282.609)" fill="url(#linear-gradient-2)"/>
              <path id="Trazado_24806" data-name="Trazado 24806" d="M1335.383,456.012H-22.93V29.907A44.43,44.43,0,0,1,16.635,63.385a44.227,44.227,0,0,1,6.989,12.042,44.4,44.4,0,0,1,59.617,22.98,44.388,44.388,0,0,1,70.786,1.041,44.269,44.269,0,0,1,20.387-1.957,44.395,44.395,0,0,1,66.837-32.779,44.213,44.213,0,0,1,28.76-10.6,44.934,44.934,0,0,1,7.5.643,44.388,44.388,0,0,1,85.568,15.474,44.172,44.172,0,0,1,20.436,8.142,44.388,44.388,0,0,1,76.517,23.763,44.4,44.4,0,0,1,42.725,4.11,44.381,44.381,0,0,1,73.2-25.161,44.395,44.395,0,0,1,75.65,45.129h547.3a54.466,54.466,0,0,1,61.868-44.248,54.438,54.438,0,0,1,74.616-24.315Z" transform="translate(22.93 154.319)" fill="#990d7b" opacity="0.68"/>
              <path id="Trazado_24807" data-name="Trazado 24807" d="M1336.533,681.236H-21.78v-426.1a44.409,44.409,0,0,1,39.565,33.471,44.431,44.431,0,0,1,6.989,12.042,44.395,44.395,0,0,1,59.61,22.987,44.381,44.381,0,0,1,70.786,1.034,44.423,44.423,0,0,1,14.335-2.376,45.636,45.636,0,0,1,6.06.419,44.388,44.388,0,0,1,66.858-32.793,44.22,44.22,0,0,1,28.767-10.589,44.858,44.858,0,0,1,7.492.636,44.388,44.388,0,0,1,85.568,15.495,44.156,44.156,0,0,1,20.443,8.135,44.388,44.388,0,0,1,76.51,23.763,44.4,44.4,0,0,1,42.724,4.11,44.388,44.388,0,0,1,73.2-25.161,44.395,44.395,0,0,1,75.622,45.108h547.3a54.459,54.459,0,0,1,61.861-44.248,54.438,54.438,0,0,1,74.616-24.294Z" transform="translate(22.584 86.511)" fill="#630656" opacity="0.68"/>
              <path id="Trazado_24808" data-name="Trazado 24808" d="M-22.19,460.312v2.4L1162.954,491.7l174.1-892.873v-.007H1167.28Z" transform="translate(22.707 283.211)" fill-rule="evenodd" opacity="0.22" fill="url(#linear-gradient-3)" style="mix-blend-mode: screen;isolation: isolate"/>
              <ellipse id="Elipse_528" data-name="Elipse 528" cx="364.482" cy="352.37" rx="364.482" ry="352.37" transform="translate(618.942 -71.03)" fill="url(#radial-gradient-3)"/>
              <rect id="Rectángulo_410" data-name="Rectángulo 410" width="1358.313" height="248.889" transform="translate(0 610.856)" fill="url(#radial-gradient-4)"/>
              <rect id="Rectángulo_411" data-name="Rectángulo 411" width="1358.313" height="11.19" transform="translate(0 821.2)" fill="#991e21"/>
              <rect id="Rectángulo_412" data-name="Rectángulo 412" width="1358.313" height="11.19" transform="translate(0 627.448)" fill="#991e21"/>
              <path id="Trazado_24809" data-name="Trazado 24809" d="M-20.3,385.571c29.99,29.885,78.047,66.194,134.575,66.194,84.023,0,159.534-80.207,177.153-100.322a8.688,8.688,0,0,1-1.293-4.536,9.016,9.016,0,0,1,9.177-8.883,9.156,9.156,0,0,1,8.387,5.312h3.935l.084-4.934a26.132,26.132,0,0,1-17.1-24.308c0-14.4,12.021-26.083,26.859-26.083s26.866,11.679,26.866,26.083a26.125,26.125,0,0,1-17.1,24.308l.084,4.816v.119h5.347a9.17,9.17,0,0,1,8.387-5.312,9.016,9.016,0,0,1,9.142,8.883,8.708,8.708,0,0,1-1.006,4C367.386,369.992,431.078,451.8,534.754,451.8c44.479,0,90.285-22.477,126.223-46.617.168.37.322.741.51,1.111a64.866,64.866,0,0,0,7.073,10.169c.587.748,1.2,1.489,1.8,2.237-3.138,2.376-6.367,4.732-9.708,7.031-1.2.825-2.411,1.649-3.641,2.467-4.892,3.257-10.022,6.409-15.327,9.4q-3.984,2.243-8.107,4.354c-28.516,14.579-66.725,21.464-98.819,21.464q-4.892,0-9.638-.308c-14.307-.909-44.625-3.8-57.416-8.1q-4.267-1.436-8.387-3.068a191.079,191.079,0,0,1-22.065-10.393q-1.607-.881-3.18-1.782-8.02-4.581-15.376-9.687c-.657-.454-1.307-.9-1.95-1.356q-2.53-1.775-4.976-3.585c-5.249-3.886-10.225-7.9-14.915-11.951q-2.048-1.761-4.019-3.537-2.264-2.034-4.431-4.075c-5.081-4.767-9.785-9.519-13.978-14.111-2.537-2.74-4.892-5.424-7.15-8.017q-1.09-1.279-2.139-2.523c-2.663-3.187-5.081-6.213-7.241-9.03l-.79-1.041c-2.677-3.543-4.892-6.724-6.731-9.421-.454-.7-.888-1.335-1.279-1.95q-1.4-2.2-2.327-3.809a9.235,9.235,0,0,1-1.656.154,9.086,9.086,0,0,1-9.086-7.688h-4.592l2.8,160.2c19.458,1.5,33.722,6.36,33.722,12.133V529.2c0,6.989-20.716,12.58-46.275,12.58-2.88,0-5.689-.077-8.387-.21h-.119l-1.922-.112h-.182l-1.866-.133h-.182l-1.838-.154h-.14l-1.866-.182c-3.844-.4-7.443-.937-10.714-1.587h-.07l-1.4-.286-.294-.063-1.23-.287-.391-.091-1.118-.28-.433-.112-1.034-.279-.461-.133-.951-.28-.468-.147-.888-.286-.454-.161-.839-.294-.412-.161-.8-.315c-.119-.042-.224-.091-.335-.14a15.5,15.5,0,0,1-1.5-.7l-.321-.154c-.175-.084-.342-.175-.51-.266l-.475-.252-.454-.266-.447-.273c-.14-.084-.266-.175-.4-.266l-.412-.286c-.126-.084-.238-.175-.349-.259l-.37-.3-.3-.266-.328-.315-.245-.259c-.1-.112-.2-.217-.28-.328l-.2-.259c-.084-.112-.154-.231-.224-.342s-.1-.168-.154-.259a3.435,3.435,0,0,1-.168-.364c-.035-.077-.077-.161-.1-.238s-.077-.273-.112-.412-.042-.133-.056-.2a3.807,3.807,0,0,1-.056-.622v-8.75c0-5.738,14.076-10.575,33.331-12.1l2.8-160.239h-3.173a9.086,9.086,0,0,1-9.086,7.688,8.638,8.638,0,0,1-1.209-.091,311.715,311.715,0,0,1-57.8,59.827c-1.1.867-2.2,1.726-3.327,2.579q-5.053,3.858-10.484,7.59c-1.2.825-2.411,1.649-3.641,2.467q-3.676,2.439-7.513,4.8c-1.279.783-2.565,1.559-3.872,2.327q-6.856,4.033-14.181,7.688c-1.4.7-2.8,1.4-4.193,2.041a199.889,199.889,0,0,1-31.612,11.819q-2.1.587-4.291,1.132a174.486,174.486,0,0,1-42.892,5.41,160.988,160.988,0,0,1-62.839-13.147q-8.167-3.48-15.823-7.576-3.83-2.048-7.52-4.194-1.845-1.09-3.662-2.2A253.911,253.911,0,0,1-20.3,400.849Zm365.321-33.5h0a4.428,4.428,0,0,1,.1-.944,2.356,2.356,0,0,1,.056-.238,5.786,5.786,0,0,1,.217-.643,1.116,1.116,0,0,1,.07-.161c1.279-2.691,4.892-3.18,4.892-3.18a5.242,5.242,0,0,0-5.312-5.165,5.389,5.389,0,0,0-3.837,1.594h2.956v4.774h-4.319A5.277,5.277,0,0,0,345.021,352.072Zm-50.846-3.816c.734-.874,1.118-1.349,1.118-1.349a5.113,5.113,0,0,1,3.83.881h0l.273.252.091.1a3.7,3.7,0,0,1,.643.93v.035a5.1,5.1,0,0,1,.419,1.4h0a7.065,7.065,0,0,1,.077.867v.049a4.513,4.513,0,0,1,0,.475,5.235,5.235,0,0,0,3.816-3.76h-4.131v-4.788h2.8a5.361,5.361,0,0,0-3.83-1.594,5.249,5.249,0,0,0-5.319,5.165A4.815,4.815,0,0,0,294.175,348.256Z" transform="translate(22.138 75.703)" fill="#e1b3ff" opacity="0.51"/>
              <ellipse id="Elipse_529" data-name="Elipse 529" cx="85.197" cy="30.668" rx="85.197" ry="30.668" transform="translate(565.482 902.274)" fill="#303030" opacity="0.45"/>
              <ellipse id="Elipse_530" data-name="Elipse 530" cx="85.197" cy="30.668" rx="85.197" ry="30.668" transform="translate(1.496 902.274)" fill="#303030" opacity="0.45"/>
              <ellipse id="Elipse_531" data-name="Elipse 531" cx="85.197" cy="30.668" rx="85.197" ry="30.668" transform="translate(1122.661 902.274)" fill="#303030" opacity="0.45"/>
              <path id="Trazado_24810" data-name="Trazado 24810" d="M1618.24,1072.131c0,9.911,28.655,17.941,63.964,17.941s63.964-8.031,63.964-17.941v-12.42c-7.241-2.488-35.2-5.521-63.964-5.521-21.96,0-52.418.79-63.964,5.521Z" transform="translate(-471.208 -154.984)" fill="#b68636"/>
              <path id="Trazado_24811" data-name="Trazado 24811" d="M1673.58,1054.26v16.907c-.1,6.29,0,12.5-.217,18.752-31.136-1.209-55.123-8.7-55.123-17.766v-12.42C1628.311,1055.6,1652.878,1054.477,1673.58,1054.26Z" transform="translate(-471.208 -155.006)" fill="#936e2b"/>
              <ellipse id="Elipse_532" data-name="Elipse 532" cx="63.964" cy="17.941" rx="63.964" ry="17.941" transform="translate(1147.032 886.786)" fill="#cb953d"/>
              <path id="Trazado_24812" data-name="Trazado 24812" d="M1716.668,1039.306s38.44,3.04,38.44,15.208c0,10.791-52.1,16.131-77.376,12.58-17.172-2.391-8.044-5.647-1.524-3.914s56.731,1.524,65.425-7.821-22.17-13.692-25.217-13.908S1712.537,1038.866,1716.668,1039.306Z" transform="translate(-486.15 -150.487)" fill="#ecb02a"/>
              <path id="Trazado_24813" data-name="Trazado 24813" d="M1683.76,940.061s9.827,3.292,19.283,3.292a43,43,0,0,0,16.522-3.292l-4.794-281.151h-26.216Z" transform="translate(-490.935 -35.97)" fill="#cb953d"/>
              <path id="Trazado_24814" data-name="Trazado 24814" d="M1688.555,658.91h26.216l.5,29.515a59.71,59.71,0,0,1-20.464,1.971l-1.649,251.978a75.325,75.325,0,0,1-9.4-2.313Z" transform="translate(-490.935 -35.97)" fill="#936e2b"/>
              <circle id="Elipse_533" data-name="Elipse 533" cx="37.133" cy="37.133" r="37.133" transform="translate(1173.598 573.869)" fill="#cb953d"/>
              <ellipse id="Elipse_534" data-name="Elipse 534" cx="14.908" cy="26.838" rx="14.908" ry="26.838" transform="translate(1179.941 629.989) rotate(-83.99)" fill="#b68636"/>
              <ellipse id="Elipse_535" data-name="Elipse 535" cx="13.978" cy="24.029" rx="13.978" ry="24.029" transform="matrix(0.392, -0.92, 0.92, 0.392, 1191.124, 595.278)" fill="#ecb02a"/>
              <ellipse id="Elipse_536" data-name="Elipse 536" cx="7.793" cy="16.41" rx="7.793" ry="16.41" transform="matrix(0.392, -0.92, 0.92, 0.392, 1180.739, 636.755)" fill="#ecb02a"/>
              <ellipse id="Elipse_537" data-name="Elipse 537" cx="4.92" cy="12.238" rx="4.92" ry="12.238" transform="matrix(0.392, -0.92, 0.92, 0.392, 1206.928, 584.387)" fill="#ffc64a"/>
              <path id="Trazado_24815" data-name="Trazado 24815" d="M1709.231,721.011s-.112,211.337-.112,221.967,12.909,12.147,12.147-.762-5.2-216.663-5.2-221.967S1707.714,715.692,1709.231,721.011Z" transform="translate(-498.548 -53.348)" fill="#ecb02a"/>
              <path id="Trazado_24816" data-name="Trazado 24816" d="M1719.575,1060.481a94.334,94.334,0,0,1-19.234,2.23c-2.8,0-10.064-1.062-12.434-2.642s-3.257-1.782-4.138.412C1683.763,1060.481,1699.258,1068.6,1719.575,1060.481Z" transform="translate(-490.938 -156.39)" fill="#936e2b"/>
              <rect id="Rectángulo_413" data-name="Rectángulo 413" width="60.589" height="6.807" transform="translate(1242.112 659.437) rotate(180)" fill="#cb953d"/>
              <path id="Trazado_24817" data-name="Trazado 24817" d="M818.72,1072.131c0,9.911,28.655,17.941,63.964,17.941s63.964-8.031,63.964-17.941v-12.42c-7.248-2.488-35.2-5.521-63.964-5.521-21.967,0-52.418.79-63.964,5.521Z" transform="translate(-230.481 -154.984)" fill="#b68636"/>
              <path id="Trazado_24818" data-name="Trazado 24818" d="M874.053,1054.26v16.907c-.091,6.29,0,12.5-.21,18.752-31.143-1.209-55.123-8.7-55.123-17.766v-12.42C828.791,1055.6,853.358,1054.477,874.053,1054.26Z" transform="translate(-230.481 -155.006)" fill="#936e2b"/>
              <ellipse id="Elipse_538" data-name="Elipse 538" cx="63.964" cy="17.941" rx="63.964" ry="17.941" transform="translate(588.239 886.786)" fill="#cb953d"/>
              <path id="Trazado_24819" data-name="Trazado 24819" d="M917.153,1039.306s38.475,3.04,38.475,15.208c0,10.791-52.111,16.131-77.376,12.58-17.172-2.391-8.045-5.647-1.524-3.914s56.724,1.524,65.418-7.821-22.169-13.692-25.21-13.908S913.022,1038.866,917.153,1039.306Z" transform="translate(-245.436 -150.487)" fill="#ecb02a"/>
              <path id="Trazado_24820" data-name="Trazado 24820" d="M884.24,940.061s9.827,3.292,19.276,3.292a43.014,43.014,0,0,0,16.529-3.292L915.251,658.91H889.035Z" transform="translate(-250.209 -35.97)" fill="#cb953d"/>
              <path id="Trazado_24821" data-name="Trazado 24821" d="M889.035,658.91h26.216l.5,29.515a59.75,59.75,0,0,1-20.464,2L893.64,942.4a75.36,75.36,0,0,1-9.4-2.313Z" transform="translate(-250.209 -35.97)" fill="#936e2b"/>
              <circle id="Elipse_539" data-name="Elipse 539" cx="37.133" cy="37.133" r="37.133" transform="translate(614.797 573.869)" fill="#cb953d"/>
              <ellipse id="Elipse_540" data-name="Elipse 540" cx="14.908" cy="26.838" rx="14.908" ry="26.838" transform="translate(621.147 629.984) rotate(-83.99)" fill="#b68636"/>
              <ellipse id="Elipse_541" data-name="Elipse 541" cx="13.978" cy="24.029" rx="13.978" ry="24.029" transform="matrix(0.392, -0.92, 0.92, 0.392, 632.333, 595.272)" fill="#ecb02a"/>
              <ellipse id="Elipse_542" data-name="Elipse 542" cx="7.793" cy="16.41" rx="7.793" ry="16.41" transform="matrix(0.392, -0.92, 0.92, 0.392, 621.948, 636.756)" fill="#ecb02a"/>
              <ellipse id="Elipse_543" data-name="Elipse 543" cx="4.92" cy="12.238" rx="4.92" ry="12.238" transform="matrix(0.392, -0.92, 0.92, 0.392, 648.135, 584.394)" fill="#ffc64a"/>
              <path id="Trazado_24822" data-name="Trazado 24822" d="M909.7,721.011s-.1,211.337-.1,221.967,12.9,12.147,12.147-.762-5.207-216.663-5.207-221.967S908.184,715.692,909.7,721.011Z" transform="translate(-257.819 -53.348)" fill="#ecb02a"/>
              <path id="Trazado_24823" data-name="Trazado 24823" d="M920.045,1060.481a94.335,94.335,0,0,1-19.234,2.23c-2.831,0-10.071-1.062-12.441-2.642s-3.257-1.782-4.131.412C884.24,1060.481,899.735,1068.6,920.045,1060.481Z" transform="translate(-250.209 -156.39)" fill="#936e2b"/>
              <rect id="Rectángulo_414" data-name="Rectángulo 414" width="60.589" height="6.807" transform="translate(683.312 659.437) rotate(180)" fill="#cb953d"/>
              <path id="Trazado_24824" data-name="Trazado 24824" d="M19.19,1072.131c0,9.911,28.655,17.941,63.964,17.941s63.971-8.031,63.971-17.941v-12.42c-7.248-2.488-35.2-5.521-63.971-5.521-21.96,0-52.418.79-63.964,5.521Z" transform="translate(10.248 -154.984)" fill="#b68636"/>
              <path id="Trazado_24825" data-name="Trazado 24825" d="M74.53,1054.26v16.907c-.1,6.29,0,12.5-.21,18.752-31.144-1.209-55.13-8.7-55.13-17.766v-12.42C29.261,1055.6,53.835,1054.477,74.53,1054.26Z" transform="translate(10.248 -155.006)" fill="#936e2b"/>
              <ellipse id="Elipse_544" data-name="Elipse 544" cx="63.964" cy="17.941" rx="63.964" ry="17.941" transform="translate(29.438 886.786)" fill="#cb953d"/>
              <path id="Trazado_24826" data-name="Trazado 24826" d="M117.619,1039.306s38.44,3.04,38.44,15.208c0,10.791-52.1,16.131-77.376,12.58-17.172-2.391-8.037-5.647-1.524-3.914s56.731,1.524,65.425-7.821-22.169-13.692-25.21-13.908S113.488,1038.866,117.619,1039.306Z" transform="translate(-4.696 -150.487)" fill="#ecb02a"/>
              <path id="Trazado_24827" data-name="Trazado 24827" d="M84.71,940.061s9.827,3.292,19.283,3.292a43.068,43.068,0,0,0,16.529-3.292l-4.8-281.151H89.512Z" transform="translate(-9.479 -35.97)" fill="#cb953d"/>
              <path id="Trazado_24828" data-name="Trazado 24828" d="M89.512,658.91h26.209l.51,29.515a59.769,59.769,0,0,1-20.471,2L94.11,942.4a75.758,75.758,0,0,1-9.4-2.313Z" transform="translate(-9.479 -35.97)" fill="#936e2b"/>
              <circle id="Elipse_545" data-name="Elipse 545" cx="37.133" cy="37.133" r="37.133" transform="translate(56.004 573.869)" fill="#cb953d"/>
              <ellipse id="Elipse_546" data-name="Elipse 546" cx="14.908" cy="26.838" rx="14.908" ry="26.838" transform="translate(62.347 629.979) rotate(-83.99)" fill="#b68636"/>
              <ellipse id="Elipse_547" data-name="Elipse 547" cx="13.978" cy="24.029" rx="13.978" ry="24.029" transform="matrix(0.392, -0.92, 0.92, 0.392, 73.54, 595.278)" fill="#ecb02a"/>
              <ellipse id="Elipse_548" data-name="Elipse 548" cx="7.793" cy="16.41" rx="7.793" ry="16.41" transform="matrix(0.392, -0.92, 0.92, 0.392, 63.155, 636.763)" fill="#ecb02a"/>
              <ellipse id="Elipse_549" data-name="Elipse 549" cx="4.92" cy="12.238" rx="4.92" ry="12.238" transform="matrix(0.392, -0.92, 0.92, 0.392, 89.344, 584.395)" fill="#ffc64a"/>
              <path id="Trazado_24829" data-name="Trazado 24829" d="M110.18,721.01s-.112,211.337-.112,221.967,12.909,12.147,12.147-.762-5.228-216.655-5.228-221.967S108.664,715.691,110.18,721.01Z" transform="translate(-17.092 -53.347)" fill="#ecb02a"/>
              <path id="Trazado_24830" data-name="Trazado 24830" d="M120.572,1060.481a94.438,94.438,0,0,1-19.241,2.23c-2.8,0-10.064-1.062-12.434-2.642s-3.257-1.782-4.138.412C84.725,1060.481,100.227,1068.6,120.572,1060.481Z" transform="translate(-9.494 -156.39)" fill="#936e2b"/>
              <rect id="Rectángulo_415" data-name="Rectángulo 415" width="60.589" height="6.807" transform="translate(124.511 659.437) rotate(180)" fill="#cb953d"/>
              <path id="Trazado_24831" data-name="Trazado 24831" d="M1660.344,690.56A12.643,12.643,0,1,1,1647.7,703.2,12.643,12.643,0,0,1,1660.344,690.56Zm0,20A7.353,7.353,0,1,0,1653,703.2,7.352,7.352,0,0,0,1660.344,710.556Z" transform="translate(-480.078 -45.5)" fill="#cb953d"/>
              <path id="Trazado_24832" data-name="Trazado 24832" d="M1750.793,690.56A12.643,12.643,0,1,1,1738.15,703.2,12.643,12.643,0,0,1,1750.793,690.56Zm0,20a7.353,7.353,0,1,0-7.352-7.353A7.353,7.353,0,0,0,1750.793,710.556Z" transform="translate(-507.311 -45.5)" fill="#cb953d"/>
              <path id="Trazado_24833" data-name="Trazado 24833" d="M862.2,690.56A12.643,12.643,0,1,1,849.56,703.2,12.643,12.643,0,0,1,862.2,690.56Zm0,20a7.353,7.353,0,1,0-7.346-7.353,7.352,7.352,0,0,0,7.346,7.353Z" transform="translate(-239.767 -45.5)" fill="#cb953d"/>
              <path id="Trazado_24834" data-name="Trazado 24834" d="M952.65,690.56A12.643,12.643,0,1,1,940,703.206a12.643,12.643,0,0,1,12.65-12.646Zm0,20A7.353,7.353,0,1,0,945.3,703.2,7.353,7.353,0,0,0,952.65,710.556Z" transform="translate(-266.997 -45.5)" fill="#cb953d"/>
              <path id="Trazado_24835" data-name="Trazado 24835" d="M61.063,690.56A12.643,12.643,0,1,1,48.42,703.2,12.643,12.643,0,0,1,61.063,690.56Zm0,20a7.353,7.353,0,1,0-7.346-7.353A7.353,7.353,0,0,0,61.063,710.556Z" transform="translate(1.447 -45.5)" fill="#cb953d"/>
              <path id="Trazado_24836" data-name="Trazado 24836" d="M151.553,690.56A12.643,12.643,0,1,1,138.91,703.2,12.643,12.643,0,0,1,151.553,690.56Zm0,20a7.345,7.345,0,1,0-5.2-2.151A7.353,7.353,0,0,0,151.553,710.556Z" transform="translate(-25.798 -45.5)" fill="#cb953d"/>
              <path id="Trazado_24837" data-name="Trazado 24837" d="M653.669,715.98s1.055-8.135-7.346-7.353c0,0-117.417,149.246-250.21,149.246S164.306,708.627,164.306,708.627s-7.262,1-7.346,7.353S252.466,874.4,396.106,874.4C552.146,874.4,653.669,715.98,653.669,715.98Z" transform="translate(-31.233 -50.923)" fill="#e62e30"/>
              <path id="Trazado_24838" data-name="Trazado 24838" d="M-22.93,767.65c35.288-31.451,57-59.023,57-59.023,8.387-.783,7.353,7.353,7.353,7.353S18.257,752.106-22.93,789.855Z" transform="translate(22.93 -50.923)" fill="#e62e30"/>
              <path id="Trazado_24839" data-name="Trazado 24839" d="M1452.189,715.98s1.048-8.135-7.353-7.353c0,0-117.417,149.246-250.21,149.246S962.832,708.627,962.832,708.627s-7.269,1-7.353,7.353S1050.986,874.4,1194.627,874.4C1350.666,874.4,1452.189,715.98,1452.189,715.98Z" transform="translate(-271.658 -50.923)" fill="#e62e30"/>
              <path id="Trazado_24840" data-name="Trazado 24840" d="M1762.9,708.65s42,63.286,107.961,107.437v19.961C1798.768,790.542,1755.491,720.273,1755.54,716,1755.631,709.649,1762.9,708.65,1762.9,708.65Z" transform="translate(-512.547 -50.946)" fill="#e62e30"/>
              <path id="Trazado_24841" data-name="Trazado 24841" d="M158.9,711.827C173.1,737.959,264.4,865.8,396.106,865.8c143.179,0,240.426-133.366,255.508-155.354,2.558,2.1,2.055,6.095,2.055,6.095S552.145,874.967,396.106,874.967c-143.64,0-239.23-152.076-239.146-158.422A6.563,6.563,0,0,1,158.9,711.827Z" transform="translate(-31.233 -51.488)" fill="#c7272b"/>
              <path id="Trazado_24842" data-name="Trazado 24842" d="M-22.93,781.264c34.065-31.227,55.8-61.343,62.287-70.814,2.565,2.1,2.1,6.094,2.1,6.094s-23.2,36.127-64.384,73.875Z" transform="translate(22.93 -51.488)" fill="#c7272b"/>
              <path id="Trazado_24843" data-name="Trazado 24843" d="M957.42,711.827c14.195,26.132,105.487,153.977,237.2,153.977,143.186,0,240.425-133.366,255.515-155.354,2.558,2.1,2.055,6.095,2.055,6.095s-101.524,158.422-257.57,158.422c-143.64,0-239.223-152.076-239.146-158.422a6.541,6.541,0,0,1,1.95-4.718Z" transform="translate(-271.655 -51.488)" fill="#c7272b"/>
              <path id="Trazado_24844" data-name="Trazado 24844" d="M1870.86,828.02v9.163c-72.093-45.506-115.369-115.775-115.32-120.045a6.563,6.563,0,0,1,1.943-4.718C1766.625,729.236,1807.672,788.14,1870.86,828.02Z" transform="translate(-512.547 -52.082)" fill="#c7272b"/>
              <path id="Trazado_24845" data-name="Trazado 24845" d="M1853.594-15.24c12.364,0,23.644,5.34,32.206,14.111V82.076c-8.562,8.771-19.842,14.111-32.206,14.111-26.754,0-48.434-24.937-48.434-55.7S1826.84-15.24,1853.594-15.24Z" transform="translate(-527.487 167.009)" fill="#e543a0" opacity="0.31"/>
              <ellipse id="Elipse_550" data-name="Elipse 550" cx="32.695" cy="35.113" rx="32.695" ry="35.113" transform="translate(598.359 281.34)" fill="#e543a0" opacity="0.31"/>
              <path id="Trazado_24846" data-name="Trazado 24846" d="M105.385,22.1,91.658,74.414,57.146,32.772,85.794,79.516,36.5,82.06l49.455,5.976L59,132.842,92.015,93.55l15.677,53.341L99.409,91.914l46.513,21.7L102.575,84.352,144.894,58.08,99.129,76.566Z" transform="translate(5.036 155.766)" opacity="0.7" fill="url(#radial-gradient-5)"/>
              <path id="Trazado_24847" data-name="Trazado 24847" d="M826.6,300.54l-9.638,36.749-24.245-29.256,20.122,32.842-34.624,1.782,34.736,4.2-18.933,31.472,23.19-27.6L828.217,388.2,822.4,349.583l32.667,15.243-30.445-20.555,29.725-18.458L822.2,338.8Z" transform="translate(-218.284 71.931)" opacity="0.7" fill="url(#radial-gradient-6)"/>
              <path id="Trazado_24848" data-name="Trazado 24848" d="M159.278,135.32l-6.108,23.288L137.8,140.073l12.755,20.807-21.946,1.132,22.016,2.663-12,19.954,14.7-17.5,6.982,23.749-3.69-24.476,20.709,9.666-19.3-13.028,18.843-11.7-20.38,8.226Z" transform="translate(-22.697 121.677)" opacity="0.7" fill="url(#radial-gradient-7)"/>
              <path id="Trazado_24849" data-name="Trazado 24849" d="M53.162,173.24l-8.219,31.3L24.3,179.628l17.144,27.963-29.5,1.524,29.592,3.578L25.4,239.5l19.758-23.511L54.539,247.9l-4.955-32.891L77.414,228,51.477,210.492,76.8,194.766,49.416,205.83Z" transform="translate(12.431 110.259)" opacity="0.7" fill="url(#radial-gradient-8)"/>
              <path id="Trazado_24850" data-name="Trazado 24850" d="M769.229,308.62l-24.748,94.311-62.217-75.077,51.65,84.275-88.874,4.578,89.16,10.777-48.6,80.787,59.526-70.835,28.264,96.156L758.459,434.48,842.308,473.6l-78.138-52.747,76.286-47.379-82.506,33.338Z" transform="translate(-178.188 69.498)" opacity="0.7" fill="url(#radial-gradient-9)"/>
              <path id="Trazado_24851" data-name="Trazado 24851" d="M141.49,282.017l-75.5,31.514L84.382,233.82l-29.9,77.342-48.3-56.933,38.2,64.943-78.614,8.715,77.544,3.634-49.735,67.8,58.492-60.414,16.6,75.832-4.606-78.963,70.429,26.761-64.23-38.056Z" transform="translate(26.332 92.019)" opacity="0.7" fill="url(#radial-gradient-10)"/>
              <path id="Trazado_24852" data-name="Trazado 24852" d="M1334.673,460.312v2.4L149.529,491.7-24.57-401.173v-.007H145.2Z" transform="translate(23.424 283.211)" fill-rule="evenodd" opacity="0.49" fill="url(#linear-gradient-4)" style="mix-blend-mode: screen;isolation: isolate"/>
            </g>
            <rect id="Rectángulo_417" data-name="Rectángulo 417" width="1341.91" height="949.003" transform="translate(1341.891 789.903) rotate(180)" fill="none"/>
          </g>
        </g>
      </g>
    </g>
    <g id="Persojanes-27" transform="translate(424.163 338.602)" style="isolation: isolate">
      <g id="Capa_1-2" data-name="Capa 1" transform="translate(0)">
        <path id="Trazado_22737" data-name="Trazado 22737" d="M0,141.386c0,13.37,65.6,24.244,146.495,24.244S292.99,154.756,292.99,141.386,227.425,117,146.495,117,0,127.7,0,141.243" transform="translate(85.847 300.121)" opacity="0.15" style="mix-blend-mode: multiply;isolation: isolate"/>
        <path id="Trazado_22738" data-name="Trazado 22738" d="M105.227,122.693a36.08,36.08,0,0,1-2.389,25.919c-4.67,9.341-10.375,10.2-13.334,5.954-4.706-6.774,10.482-15.045,7.915-29.591a33.477,33.477,0,0,1-12.87,16.043c-7.13,3.957-18.967,4.706-19.716-2.888-.357-3.565,4.243-5.312,10.91-7.13A26.775,26.775,0,0,0,90,121.945s-13.762,5.847-22.069-1.319c-4.492-3.922-.57-9.59,6.917-7.558,9.911,2.71,21.177-4.492,28.023,5.17a19.324,19.324,0,0,1,2.353,4.6" transform="translate(41.158 288.937)" fill="#e543a0"/>
        <path id="Trazado_22739" data-name="Trazado 22739" d="M184.753,211.841c-1.5,6.7-8.949,8.2-15.687,7.451-12.692-2.246-12.692-10.446-11.195-20.892-16.4-1.5-28.522-23.887-12.692-34.333-11.195,1.5-17.149-5.99-16.4-16.436a12.371,12.371,0,0,1-14.261-1.5c6.738,10.446-12.692,14.261-20.892,14.261,3.565,10.446-14.261,6.738-17.149-.749-3.565-9.7,5.205-17.826,13.405-18.646-15.651-5.99-8.2-26.133,2.995-32.087-7.451-9.7-2.246-32.087,9.7-35.83-7.451-11.195,9.412-33.085,22.1-22.639C122,33.509,138.4,33.509,144.394,34.258c-1.5-7.451,10.446-17.826,14.261-10.446" transform="translate(-75.66 54.578)" fill="#ffaada"/>
        <path id="Trazado_22740" data-name="Trazado 22740" d="M302.034,108.518s16.043,3.387,21.855-2.032a12.086,12.086,0,0,0,1.462-16.792,10.161,10.161,0,0,0,8.022-11.266c-.535-9.876-13.94-12.086-20.536-9.983,0,0,7.665-15.295-.713-26.311s-21.962-8.485-30.3-1.283c0,0-9.234-17.291-21.213-2.817,0,0,4.6-21.035-12.87-22.889,0,0,0-15.865-18.753-15.117S204.847,25.52,204.847,25.52s-1.141-12.657-8.806-14.475-16.079,11.908-16.079,11.908,2.424-15.83-13.191-12.264a18.824,18.824,0,0,0-22.39-7.772c-14.689,5.1-12.157,23.923-11.3,30.2,0,0-7.451-9.02-14.974-8.913-8.2,0-12.264,8.093-11.017,16.043,0,0-15.83-15.188-28.878,4.849,0,0-11.694-7.309-20.322,1.141s-8.45,19.537,1.355,29.057a19.11,19.11,0,0,0-13.227,1.283c-6.881,3.316-6.132,14.261-2.923,20.643,0,0-17.612-10.09-23.495,7.737,0,0-12.835.57-13.405,16.008a20.678,20.678,0,0,0,11.124,20.393s-11.124-.642-12.692,8.77C2.877,160.5,15.32,164.1,15.32,164.1s4.956,16.507,21.748,5.027,104.318,19.038,264.824-60.609" transform="translate(29.492 -0.003)" fill="#ffaada"/>
        <path id="Trazado_22741" data-name="Trazado 22741" d="M66.67,42.183a19.111,19.111,0,0,1,3.922-1.64,16.043,16.043,0,0,1,3.565-.606,15.723,15.723,0,0,1,1.854,0,8.2,8.2,0,0,1,1.818.357A7.131,7.131,0,0,1,79.5,40.9a8.2,8.2,0,0,1,1.569.82c.5.357,1.034.677,1.5,1.034L83.926,44a30.444,30.444,0,0,1,2.46,2.781l1.07,1.6a17.831,17.831,0,0,1,1.07,1.6l1.89,3.565,3.565,6.31,1.319-7.13a9.372,9.372,0,0,1,.463-2c.178-.677.357-1.355.606-2.032a29.948,29.948,0,0,1,1.569-3.993,29.379,29.379,0,0,1,2-3.779,14.762,14.762,0,0,1,1.212-1.711,20.71,20.71,0,0,1,1.533-1.676,19.643,19.643,0,0,1,1.462-1.533l1.6-1.355c.57-.463,1.212-.784,1.783-1.177a10.019,10.019,0,0,1,1.925-1.034c.642-.25,1.283-.677,2-.891l2.139-.642a11.445,11.445,0,0,1,2.246-.5l2.282-.463a25.7,25.7,0,0,0-4.742-.535H110.95a19.219,19.219,0,0,0-2.424.428,11.266,11.266,0,0,0-2.353.749c-.784.321-1.569.57-2.317.963l-2.175,1.319c-.677.463-1.319,1.034-1.961,1.569A12.087,12.087,0,0,0,97.9,36.194a14.259,14.259,0,0,0-1.6,1.961,24.708,24.708,0,0,0-2.674,4.207,32.088,32.088,0,0,0-1.961,4.563c-.285.784-.5,1.569-.749,2.353a24.957,24.957,0,0,0-.535,2.567l4.813-.784-2.21-3.779c-.82-1.212-1.783-2.353-2.674-3.565a44.972,44.972,0,0,0-3.28-3.1c-.606-.463-1.248-.891-1.89-1.319a22.676,22.676,0,0,0-2.068-1.07,11.516,11.516,0,0,0-2.21-.749,7.309,7.309,0,0,0-2.282-.392,8.414,8.414,0,0,0-2.317,0,9.27,9.27,0,0,0-2.246.392,13.762,13.762,0,0,0-4.064,1.747,13.228,13.228,0,0,0-3.209,2.745" transform="translate(23.028 75.459)" fill="#f7cadb"/>
        <path id="Trazado_22742" data-name="Trazado 22742" d="M14.82,16.507a19.146,19.146,0,0,1,4.243-.357,14.653,14.653,0,0,1,4.029.642,10.339,10.339,0,0,1,1.854.642,7.95,7.95,0,0,1,1.711.927,9.234,9.234,0,0,1,1.5,1.141,8.129,8.129,0,0,1,1.39,1.319c.392.5.82.963,1.177,1.5l1.034,1.64a29.342,29.342,0,0,1,1.711,3.565l.606,1.925a19.683,19.683,0,0,1,.642,1.89l.927,3.993,1.676,7.13,3.173-6.453,1.034-1.676c.392-.642.749-1.283,1.177-1.89a31.553,31.553,0,0,1,2.745-3.565,28.023,28.023,0,0,1,3.1-3.066,12.478,12.478,0,0,1,1.747-1.319,10.7,10.7,0,0,1,1.818-1.177A12.086,12.086,0,0,1,54,22.283l2.032-.82,2.139-.606a8.664,8.664,0,0,1,2.175-.357,12.086,12.086,0,0,1,2.282-.214h2.317a10.2,10.2,0,0,1,2.317.214l2.389.25-2.175-1.034a12.764,12.764,0,0,0-2.282-.927l-2.389-.642a19.93,19.93,0,0,0-2.5-.321,12.371,12.371,0,0,0-2.567,0l-2.567.214-2.5.642c-.856.214-1.64.606-2.46.891a14.261,14.261,0,0,0-2.317,1.177,17.29,17.29,0,0,0-2.175,1.39,18.289,18.289,0,0,0-2.032,1.6,21.928,21.928,0,0,0-1.89,1.747,42.461,42.461,0,0,0-3.28,3.922c-.5.677-.963,1.426-1.426,2.139a24.068,24.068,0,0,0-1.248,2.353l4.635.428-1.141-4.385c-.463-1.462-1.105-2.888-1.676-4.278a35.654,35.654,0,0,0-2.389-4.064c-.463-.642-.963-1.248-1.462-1.89a12.969,12.969,0,0,0-1.783-1.64,9.875,9.875,0,0,0-1.961-1.426,8.129,8.129,0,0,0-2.139-1.105,14.261,14.261,0,0,0-4.635-1.105,15.045,15.045,0,0,0-4.563.428,13.869,13.869,0,0,0-3.922,1.64" transform="translate(256.348 36.961)" fill="#f7cadb"/>
        <path id="Trazado_22743" data-name="Trazado 22743" d="M37.763,51.4a26.276,26.276,0,0,1-4.314-11.088V37.492a17.114,17.114,0,0,1,.392-2.71,19.715,19.715,0,0,1,.856-2.567s.25-.57,0-.5l.428-.677c.25-.428.5-.963.713-1.319a16.721,16.721,0,0,1,1.533-1.676A5.348,5.348,0,0,1,39.225,26.9a5.811,5.811,0,0,1,2.1-.357,7.652,7.652,0,0,1,4.35,1.426,11.373,11.373,0,0,1,3.565,3.565,11.229,11.229,0,0,1,1.034,2.317L52.024,38.6l2.282-4.136a13.867,13.867,0,0,1,1.177-1.783,13.261,13.261,0,0,1,1.462-1.711,17.826,17.826,0,0,1,1.676-1.6A8.842,8.842,0,0,1,60.438,27.9c.677-.392,1.283-.963,2-1.319l2.139-1.105a10.7,10.7,0,0,1,2.282-.927l2.389-.891H66.677a12.264,12.264,0,0,0-2.567.214l-2.567.606a13.013,13.013,0,0,0-2.46.963A11.587,11.587,0,0,0,56.516,26.9a13.87,13.87,0,0,0-2.246,1.533,19.5,19.5,0,0,0-2.032,1.818,14.9,14.9,0,0,0-1.89,2.21l4.029.57a17.327,17.327,0,0,0-1.212-3.565A15.437,15.437,0,0,0,51.2,26.4a11.55,11.55,0,0,0-1.283-1.355,11.73,11.73,0,0,0-1.462-1.177,13.584,13.584,0,0,0-3.351-1.747,10.125,10.125,0,0,0-3.886-.642,9.59,9.59,0,0,0-3.957.82,10.054,10.054,0,0,0-3.351,2.175,13.049,13.049,0,0,0-2.389,3.137c-.25.5-.428.963-.642,1.426l-.321.713c-.214.606-.214.642-.321,1a13.94,13.94,0,0,0-.713,3.565,16.365,16.365,0,0,0,0,3.565,15.044,15.044,0,0,0,.642,3.351,22.1,22.1,0,0,0,1.248,3.137,18.147,18.147,0,0,0,1.711,2.781,19.5,19.5,0,0,0,4.528,4.528" transform="translate(204.669 55.087)" fill="#f7cadb"/>
        <path id="Trazado_22744" data-name="Trazado 22744" d="M71.166,47.594a26.6,26.6,0,0,1-4.457-11.017,18.151,18.151,0,0,1,0-2.781,13.689,13.689,0,0,1,.285-2.71c.25-.891.463-1.747.784-2.567a12.406,12.406,0,0,1,1.141-2.389,7.13,7.13,0,0,1,3.316-2.959,6.2,6.2,0,0,1,4.243,0,11.23,11.23,0,0,1,6.631,7.13l2.389,7.38,1.89-7.344a14.972,14.972,0,0,1,.57-1.818,16.79,16.79,0,0,1,.749-1.854A23.427,23.427,0,0,1,90.668,23.1a16.721,16.721,0,0,1,5.74-5.312,15.473,15.473,0,0,1,7.772-1.711,30.447,30.447,0,0,1,8.414,1.569,40.215,40.215,0,0,0-3.922-1.961,24.957,24.957,0,0,0-4.314-1.248,16.4,16.4,0,0,0-9.127.749,18.753,18.753,0,0,0-7.665,5.669,28.311,28.311,0,0,0-2.638,3.85c-.357.713-.713,1.39-1.034,2.1A16.9,16.9,0,0,0,83,29.091h4.278a14.689,14.689,0,0,0-9.234-10.7,10.482,10.482,0,0,0-7.843,0,10.7,10.7,0,0,0-5.7,5.419,14.259,14.259,0,0,0-1.283,3.316,13.8,13.8,0,0,0-.606,3.565,16.041,16.041,0,0,0,0,3.565,14.867,14.867,0,0,0,.713,3.316,23.166,23.166,0,0,0,1.283,3.066,23.927,23.927,0,0,0,1.747,2.745,19.323,19.323,0,0,0,4.563,4.457" transform="translate(43.382 36.178)" fill="#f7cadb"/>
        <path id="Trazado_22745" data-name="Trazado 22745" d="M69.6,30.682a27.1,27.1,0,0,0,3.316-11.658,15.366,15.366,0,0,0-.927-6.489,10.7,10.7,0,0,0-1.711-3.1L69.6,8.684l-.5-.535a14.688,14.688,0,0,0-1.426-1.177A12.977,12.977,0,0,0,61.04,4.549a14.261,14.261,0,0,0-7.13,1.141,13.085,13.085,0,0,0-5.348,4.528,12.835,12.835,0,0,0-2.1,6.81l3.565-1.64A7.524,7.524,0,0,0,48.7,14.6L47.385,14a17.434,17.434,0,0,0-2.745-.963,13.691,13.691,0,0,0-5.776-.392,11.837,11.837,0,0,0-5.241,2.175,13.441,13.441,0,0,0-3.565,4.136,15.58,15.58,0,0,1,4.278-2.674,10.2,10.2,0,0,1,4.563-.784A13.655,13.655,0,0,1,43.321,16.6a15.581,15.581,0,0,1,2.032,1.034l.963.642a9.52,9.52,0,0,1,.82.642l3.066,2.6.5-4.243A8.45,8.45,0,0,1,55.978,10.4a9.84,9.84,0,0,1,8.913.5,5.954,5.954,0,0,1,.927.606l.57.463.357.357A9.484,9.484,0,0,1,68.1,14.21a15.829,15.829,0,0,1,1.533,4.956,46.347,46.347,0,0,1,0,11.516" transform="translate(198.719 11.485)" fill="#f7cadb"/>
        <path id="Trazado_22746" data-name="Trazado 22746" d="M50.671,10.155a38.362,38.362,0,0,1,5.776-.927,21.606,21.606,0,0,1,2.638,0,16.292,16.292,0,0,1,2.638.428,11.979,11.979,0,0,1,2.5,1.07,12.87,12.87,0,0,1,2.139,1.6,9.627,9.627,0,0,1,1.07,1.212,5.418,5.418,0,0,1,.677,1,10.447,10.447,0,0,1,1.105,2.5,14.688,14.688,0,0,1,.57,2.71,16.245,16.245,0,0,0,.214,2.674,48.808,48.808,0,0,1-.285,5.918,14.261,14.261,0,0,0,3.209-5.419,14.831,14.831,0,0,0,.749-3.066,12.835,12.835,0,0,0,0-3.565,11.694,11.694,0,0,0-1.177-4.1,9.982,9.982,0,0,0-1.212-2A11.337,11.337,0,0,0,70.03,8.729a12.871,12.871,0,0,0-3.565-2.5,12.157,12.157,0,0,0-4.029-1.105,13.477,13.477,0,0,0-6.774,1.248,14.012,14.012,0,0,0-3.85,2.531,9.056,9.056,0,0,0-1.177,1.248" transform="translate(124.521 13.044)" fill="#f7cadb"/>
        <path id="Trazado_22747" data-name="Trazado 22747" d="M13.283,41.321S14,38.9,15.243,35.688A25.313,25.313,0,0,1,17.775,30.7a12.514,12.514,0,0,1,1.818-2.246,5.277,5.277,0,0,1,1.07-.927,4.064,4.064,0,0,1,1.141-.784l.606-.392h.143l.428-.178.82-.357h.5a7.344,7.344,0,0,1,2.389-.178,10.7,10.7,0,0,1,2.5.606A20,20,0,0,1,31.5,27.381a36.828,36.828,0,0,1,3.565,2.389L36.385,30.8a9.841,9.841,0,0,0-.5-1.676,15.473,15.473,0,0,0-2.246-3.993,11.944,11.944,0,0,0-5.811-3.993,10.446,10.446,0,0,0-4.492-.214l-1.248.25-.82.321-.428.178h-.535l-.927.535a12.585,12.585,0,0,0-3.28,2.817A15.829,15.829,0,0,0,14,28.593a18.076,18.076,0,0,0-1.426,6.6,15.972,15.972,0,0,0,.713,6.132" transform="translate(297.815 53.29)" fill="#f7cadb"/>
        <path id="Trazado_22748" data-name="Trazado 22748" d="M88.963,63.232s-.535-2.389-1-5.669a26.274,26.274,0,0,1-.285-5.277,14.261,14.261,0,0,1,1.248-5.348l.285-.606h0l.25-.357c.285-.392.642-1.105.856-1.212a7.131,7.131,0,0,1,1.676-1.5,9.626,9.626,0,0,1,4.6-1.676,28.52,28.52,0,0,1,3.993,0h1.64a8.236,8.236,0,0,0-1.248-1.105,13.12,13.12,0,0,0-4.029-2,10.7,10.7,0,0,0-3.173-.5,10.411,10.411,0,0,0-3.565.677,8.52,8.52,0,0,0-1.854,1,8.129,8.129,0,0,0-1.711,1.462,11.762,11.762,0,0,0-1.212,1.5l-.25.357a2.5,2.5,0,0,0-.321.606l-.463.927a14.261,14.261,0,0,0-1.284,7.772,17.256,17.256,0,0,0,2.032,6.1,14.974,14.974,0,0,0,3.815,4.706" transform="translate(-19.373 97.443)" fill="#f7cadb"/>
        <path id="Trazado_22749" data-name="Trazado 22749" d="M81.829,48.973s.392-2.46,1.141-5.7a25.244,25.244,0,0,1,1.711-5.1,13.084,13.084,0,0,1,1.39-2.389,9.341,9.341,0,0,1,1.818-1.925l.5-.428h0l.356-.214.927-.5H90.1a6.738,6.738,0,0,1,2.21-.5,12.122,12.122,0,0,1,2.46.285,18.223,18.223,0,0,1,2.353.784,32.019,32.019,0,0,1,3.565,1.818l1.462.82a12.129,12.129,0,0,0-.713-1.533,14.262,14.262,0,0,0-2.745-3.565,11.444,11.444,0,0,0-6.061-3.173,9.875,9.875,0,0,0-4.385.357l-1.177.428-.749.428-.392.214h-.392l-.82.677a12.228,12.228,0,0,0-2.745,3.173,13.762,13.762,0,0,0-1.5,3.565,17.149,17.149,0,0,0-.356,6.489,15.258,15.258,0,0,0,1.818,5.811" transform="translate(-8.388 70.666)" fill="#f7cadb"/>
        <path id="Trazado_22750" data-name="Trazado 22750" d="M47.25,46.878a29.912,29.912,0,0,1,7.13-7.416,11.873,11.873,0,0,1,2.068-1.177,11.515,11.515,0,0,1,2.1-.784,8.879,8.879,0,0,1,2.068-.321h2.21a3.173,3.173,0,0,1,1.034.178,4.848,4.848,0,0,1,.891.25,16.113,16.113,0,0,1,1.783.82,8.948,8.948,0,0,1,1.569,1.248,9.482,9.482,0,0,1,1.39,1.533,15.651,15.651,0,0,1,2.1,3.886,16.044,16.044,0,0,1,1,4.171l1.07,12.585,4.421-11.373c.392-1,.891-2.139,1.426-3.173l1.747-2.995a60.328,60.328,0,0,1,3.743-5.99,27.951,27.951,0,0,1,4.742-5.1,13.512,13.512,0,0,1,6.524-2.995,12.086,12.086,0,0,0-7.63.927,22.853,22.853,0,0,0-6.631,4.457,40.251,40.251,0,0,0-5.1,5.918q-1.141,1.569-2.139,3.209c-.642,1.141-1.248,2.21-1.89,3.565l5.562,1.141a17.433,17.433,0,0,0-.927-6.346,22.994,22.994,0,0,0-1.212-2.923A16.221,16.221,0,0,0,74.595,37.5a14.261,14.261,0,0,0-2.246-2.424A16.507,16.507,0,0,0,69.6,33.151a12.764,12.764,0,0,0-3.209-1.141,14.546,14.546,0,0,0-3.565-.392h-1.5l-1.6.285a14.761,14.761,0,0,0-3.066,1.034,16.614,16.614,0,0,0-2.674,1.6,13.762,13.762,0,0,0-2.21,2.1A18.182,18.182,0,0,0,48.6,41.458,19.252,19.252,0,0,0,47,46.806" transform="translate(115.001 76.897)" fill="#f7cadb"/>
        <path id="Trazado_22751" data-name="Trazado 22751" d="M42.433,55.731A28.522,28.522,0,0,1,42.9,46a15.006,15.006,0,0,1,.713-2.246,11.838,11.838,0,0,1,1.07-2,8.129,8.129,0,0,1,1.39-1.711,10.125,10.125,0,0,1,1.676-1.319l.963-.463.392-.178.606-.214,1.177-.357h.963a12.9,12.9,0,0,1,2.032,0,9.162,9.162,0,0,1,1.961.428,12.835,12.835,0,0,1,1.854.927,18.973,18.973,0,0,1,1.676,1.284,21.108,21.108,0,0,1,1.462,1.6,11.122,11.122,0,0,1,1.177,1.676l4.457,7.594L66.213,42a37.367,37.367,0,0,1,0-3.957,29.206,29.206,0,0,1,.428-3.957,35.193,35.193,0,0,1,.82-3.85,20.713,20.713,0,0,1,1.212-3.565A15.009,15.009,0,0,1,70.384,23.5a13.764,13.764,0,0,1,1.07-1.355l1.426-1.283a8.485,8.485,0,0,1,2.852-1.39l.784-.25h.856a15.258,15.258,0,0,1,1.533,0l2.068.214a6.845,6.845,0,0,1,1.6.428l.749.178.713.428a5.918,5.918,0,0,1,1.462.82,12.157,12.157,0,0,1,2.46,2.424l1,1.5.82,1.64a27.239,27.239,0,0,1,1.89,7.451,24.281,24.281,0,0,1,0,3.922,15.475,15.475,0,0,1-.428,3.387l2.923,1.676c.392-.749.927-1.569,1.426-2.353a20.285,20.285,0,0,1,1.747-2.175,19.9,19.9,0,0,1,2-1.89,15.472,15.472,0,0,1,2.282-1.462l1.283-.428a2.932,2.932,0,0,0,1.319-.214,4.313,4.313,0,0,1,1.355,0,4.527,4.527,0,0,1,1.355.25,8.272,8.272,0,0,1,1.319.463l1.319.677a6.6,6.6,0,0,1,1.212.82l1.177.891-1-1.105a7.6,7.6,0,0,0-1.07-1.07l-1.212-.963a6.275,6.275,0,0,0-1.355-.749,5.776,5.776,0,0,0-1.5-.535,8.413,8.413,0,0,0-1.6-.285,10.339,10.339,0,0,0-3.28.392,17.007,17.007,0,0,0-2.959,1.319A19.288,19.288,0,0,0,95.412,36.8a26.242,26.242,0,0,0-2.21,2.246,20.287,20.287,0,0,0-1.961,2.567l2.923,1.676a13.013,13.013,0,0,0,1.248-4.777,31.515,31.515,0,0,0,0-4.492A27.417,27.417,0,0,0,93.7,25.141l-.927-2.175-1.248-2.032a15.259,15.259,0,0,0-3.351-3.565,8.807,8.807,0,0,0-2.1-1.355l-1.141-.606-1.248-.392a17.826,17.826,0,0,0-4.563-.856,15.509,15.509,0,0,0-2.638,0H75.233l-1.248.357a13.655,13.655,0,0,0-4.635,2.246L67.5,18.474a20.179,20.179,0,0,0-3.743,6.168,32.086,32.086,0,0,0-1.105,4.385,37.723,37.723,0,0,0-.784,4.385c0,1.462-.25,2.923-.285,4.421s0,2.852,0,4.421l4.207-1.283A12.978,12.978,0,0,0,64,38.689a20.857,20.857,0,0,0-2.032-1.925A21.39,21.39,0,0,0,59.581,35.2a17.824,17.824,0,0,0-2.71-1.07,11.587,11.587,0,0,0-2.923-.428,9.947,9.947,0,0,0-2.888.285l-1.462.392-1.177.5-.57.25c-.392.178-.463.285-.713.392l-1.177.749a13.262,13.262,0,0,0-2.032,1.961,9.732,9.732,0,0,0-1.5,2.353,16.436,16.436,0,0,0-1.177,5.241,24.956,24.956,0,0,0,1.212,10.018" transform="translate(120.103 36.171)" fill="#f7cadb"/>
        <path id="Trazado_22752" data-name="Trazado 22752" d="M46.992,133.3c-13.3-.606,10.054-17.826,33.584-8.414C109.134,138.9,54.194,133.625,46.992,133.3Z" transform="translate(136.364 313.159)" fill="#e543a0"/>
        <path id="Trazado_22753" data-name="Trazado 22753" d="M61,105.176c-2.923-6.845-12.621-.856-9.7,5.954,5.562,13.013,18.682,36.187,18.682,36.187S57.9,162.861,46.845,180.544c-1.676,5.027,7.13,1.6,7.13,1.6s24.957-24.743,25.349-32.943C80.964,131.237,61,105.176,61,105.176Z" transform="translate(133.16 262.032)" fill="#e543a0"/>
        <path id="Trazado_22754" data-name="Trazado 22754" d="M38.5,100.46c2.923-6.845,6.524-1.783,3.565,5.027C36.5,118.5,28.626,141.139,28.626,146.558s12.906,11.587,23.958,29.27c1.676,5.027-7.13,1.6-7.13,1.6s-20.143-10.7-23.958-29.77C19.748,132.119,38.5,100.46,38.5,100.46Z" transform="translate(249.815 249.349)" fill="#e543a0"/>
        <path id="Trazado_22755" data-name="Trazado 22755" d="M21.2,126.793c.285,3.922,10.2,6.453,22.211,5.669s21.391-4.635,21.391-8.557-10.482-6.31-22.354-5.633-21.391,4.6-21.391,8.521" transform="translate(238.948 303.091)" fill="#e543a0"/>
        <path id="Trazado_22756" data-name="Trazado 22756" d="M54.087,24.25c17.184-4.492,24.636,20.143,10.446,29.021,14.19,9.769,6.061,40.358-8.2,29.164C64.533,99.619,25,91.419,25,77.229L2.606,35.445Z" transform="translate(297.547 60.806)" fill="#ffaada"/>
        <path id="Trazado_22757" data-name="Trazado 22757" d="M281.563,37.1l12.585,240.118S204.162,331.053,94.71,322.853L8.36,99.6A30.946,30.946,0,0,1,30.215,79.491,31.8,31.8,0,0,1,59.2,87.976c3.565-14.724,28.522-31.552,50.733-11.623a51.624,51.624,0,0,1,70.377-16.079c5.847-13.3,25.206-33.121,52.337-11.979,6.489-19.288,30.3-30.126,48.915-11.195" transform="translate(54.884 69.846)" fill="#e543a0"/>
        <path id="Trazado_22758" data-name="Trazado 22758" d="M66.2,37.935h.214l1.39,1.034c.357.285.749.535,1.105.856l33.263,242.97a394.4,394.4,0,0,1-37.863,14.261L16.29,51.732h.321C22.28,38.862,40.533,19.966,66.2,37.756" transform="translate(218.584 78.21)" fill="#f95db6"/>
        <path id="Trazado_22759" data-name="Trazado 22759" d="M157.421,289.97a338.2,338.2,0,0,1-39.824,4.457L42.05,58.73a3.317,3.317,0,0,1,.535.463C46.15,44.469,71.107,27.641,93.318,47.571l.357-.535Z" transform="translate(71.499 98.629)" fill="#f95db6"/>
        <path id="Trazado_22760" data-name="Trazado 22760" d="M43.551,109.942a8.061,8.061,0,1,0,15.723-3.565l-10.7-46.348a8.061,8.061,0,0,0-15.723,3.565Z" transform="translate(202.946 137.867)" fill="#2e2f30"/>
        <path id="Trazado_22761" data-name="Trazado 22761" d="M59.431,113.428a8.061,8.061,0,1,0,15.723-3.565l-10.7-46.134a8.061,8.061,0,0,0-15.723,3.565Z" transform="translate(130.45 147.358)" fill="#2e2f30"/>
        <path id="Trazado_22762" data-name="Trazado 22762" d="M34.462,52.776c-1.212,2.888,3.565,7.7,11.017,10.7s14.261,3.173,15.366.285-3.565-7.665-11.017-10.7-14.261-3.173-15.366-.285" transform="translate(195.634 130.038)" fill="#2e2f30"/>
        <path id="Trazado_22763" data-name="Trazado 22763" d="M69.071,53.968c2.674,1.6,1.533,8.378-2.531,15.152s-9.555,10.91-12.229,9.305-1.533-8.378,2.531-15.152,9.626-10.91,12.229-9.305" transform="translate(119.847 137.545)" fill="#2e2f30"/>
        <path id="Trazado_22764" data-name="Trazado 22764" d="M51.609,78.618c.927-2.888,2.745-6.061.891-9.127-3.565-5.6-4.706,0-6.738,2-3.565,3.244-4.849-1.034-8.378,0-5.1,1.6-1.961,6.275-1.747,8.984-2.852,0-4.528,1.961-2.21,4.35s5.633,1.283,7.843.392S51.5,80.65,51.609,77.762" transform="translate(210.254 172.043)" fill="#0abdd9"/>
        <path id="Trazado_22765" data-name="Trazado 22765" d="M125.508,88.718c-6.025,9.02-1.283-24.137-14.617-16.507-6.346,3.815-9.091,21.391-30.447,19.68C74.7,91.249,66.468,87.434,61.37,90c-7.594,3.173-5.063,11.409-13.334,13.94-7.594,2.567-14.831-3.209-19.93,5.7-1.854,2.959.214,7.451,3.565,12.3-12.015-10.3-3.28-19.894,8.77-18.931,13.334,1.034,11.73-5.419,16.507-11.765,8.093-10.7,16.115,0,27.916-1.248,19.68-1.925,19.68-23.816,32.408-20C126.043,72.6,130.57,81.088,125.508,88.718Z" transform="translate(158.78 178.414)" fill="#2e2f30"/>
        <path id="Trazado_22766" data-name="Trazado 22766" d="M56.683,83.043c6.346.713,11.694-5.776,9.8-8.842-3.565-5.6-4.67,0-6.738,2-3.387,3.244-4.849-1.034-8.378,0-5.063,1.6-2.888,5.277-.285,6.774a22.354,22.354,0,0,0,2.638,17.577c.321,15.83,9.7,6.738,2.638-.713C49.981,86.822,56.683,83.043,56.683,83.043Z" transform="translate(139.722 184.125)" fill="#0abdd9"/>
        <path id="Trazado_22767" data-name="Trazado 22767" d="M53.414,77a23.6,23.6,0,0,1-17.042-.285C35.516,76.464,43.645,85.128,53.414,77Z" transform="translate(195.97 196.764)" fill="#2e2f30"/>
        <path id="Trazado_22768" data-name="Trazado 22768" d="M74.57,91.891c7.594,29.77,11.658,63.71,2.923,93.587-2.032,6.881-12.835,3.957-10.7-2.995,8.2-27.951,4.207-59.753-2.923-87.6-1.783-7.13,9.02-9.983,10.7-2.995Z" transform="translate(69.39 225.404)" fill="#e543a0"/>
        <path id="Trazado_22769" data-name="Trazado 22769" d="M48.863,118.082a35.973,35.973,0,0,1-2.389,25.955c-4.67,9.305-10.375,10.161-13.3,5.954-4.706-6.81,10.446-15.045,7.915-29.627,0,0-4.171,11.337-12.87,16.043-7.13,3.993-19,4.742-19.751-2.852-.357-3.565,4.278-5.312,10.91-7.13a26.775,26.775,0,0,0,14.261-9.056s-13.8,5.883-22.069-1.319c-4.492-3.886-.606-9.555,6.881-7.523,9.911,2.674,21.177-4.492,28.058,5.17a18.968,18.968,0,0,1,2.317,4.563" transform="translate(298.457 277.291)" fill="#e543a0"/>
        <path id="Trazado_22770" data-name="Trazado 22770" d="M18.238,87.351c7.594,29.77,11.658,63.71,2.888,93.551-2,6.917-12.8,3.957-10.7-2.959,8.164-27.951,4.171-59.753-2.923-87.6-1.783-7.13,9.02-9.983,10.7-2.995Z" transform="translate(326.694 213.757)" fill="#e543a0"/>
      </g>
    </g>
  </g>
</svg>
