<svg xmlns="http://www.w3.org/2000/svg" width="107.696" height="35.226" viewBox="0 0 107.696 35.226">
  <g id="Grupo_453" data-name="Grupo 453" transform="translate(-1459 -1023)">
    <g id="Logo_etermax_03_copy" data-name="Logo_etermax_03 copy" transform="translate(1459.222 1037.774)">
      <path id="Trazado_24272" data-name="Trazado 24272" d="M3.931,41.428a3.3,3.3,0,0,0,3.5,3.562,4.425,4.425,0,0,0,3.623-1.505l2.426,2.364A7.616,7.616,0,0,1,7.4,48.367c-3.776,0-7.4-1.72-7.4-8.2C0,34.948,2.825,32,6.97,32c4.453,0,6.97,3.255,6.97,7.645v1.787Zm5.711-4.449a2.774,2.774,0,0,0-2.672-1.66A2.766,2.766,0,0,0,4.3,36.979a4.391,4.391,0,0,0-.369,1.72H10.01A4.414,4.414,0,0,0,9.642,36.979Z" transform="translate(0 -27.915)"/>
      <path id="Trazado_24273" data-name="Trazado 24273" d="M120.605,20.267a4.336,4.336,0,0,1-4.637-4.575V7.769H114.28V4.73h1.689V0h3.992V4.723h2.825V7.769h-2.825v7.677c0,.92.43,1.443,1.381,1.443h1.444v3.378Z" transform="translate(-99.691)"/>
      <path id="Trazado_24274" data-name="Trazado 24274" d="M193.114,41.41a3.3,3.3,0,0,0,3.5,3.562,4.427,4.427,0,0,0,3.623-1.505l2.426,2.364a7.613,7.613,0,0,1-6.079,2.519c-3.777,0-7.4-1.72-7.4-8.2,0-5.22,2.825-8.17,6.97-8.17,4.453,0,6.97,3.255,6.97,7.645v1.787Zm5.706-4.449a2.981,2.981,0,0,0-5.344,0,4.414,4.414,0,0,0-.363,1.716h6.079A4.414,4.414,0,0,0,198.821,36.961Z" transform="translate(-165.03 -27.897)"/>
      <path id="Trazado_24275" data-name="Trazado 24275" d="M423.6,48.182V38.51a2.664,2.664,0,1,0-5.312-.092v9.765H414.3V38.51a2.668,2.668,0,1,0-5.312,0v9.673H405v-16h3.9v1.476A5.594,5.594,0,0,1,412.891,32a4.933,4.933,0,0,1,4.238,2.027A6.09,6.09,0,0,1,421.916,32a5.577,5.577,0,0,1,3.931,1.413,6.032,6.032,0,0,1,1.749,4.543V48.182Z" transform="translate(-353.298 -27.915)"/>
      <path id="Trazado_24276" data-name="Trazado 24276" d="M601.5,48.182V46.8a4.859,4.859,0,0,1-3.931,1.532,5.461,5.461,0,0,1-4.085-1.413,5.134,5.134,0,0,1-1.32-3.592c0-2.553,1.75-4.637,5.465-4.637H601.4v-.8c0-1.75-.859-2.517-2.978-2.517a3.439,3.439,0,0,0-3.071,1.32L592.8,34.211c1.573-1.72,3.107-2.211,5.779-2.211,4.483,0,6.817,1.9,6.817,5.65V48.182Zm-.092-6.754H598.24c-1.443,0-2.242.675-2.242,1.811,0,1.106.738,1.842,2.3,1.842a3.167,3.167,0,0,0,2.517-.766,2.625,2.625,0,0,0,.583-2.026Z" transform="translate(-516.566 -27.915)"/>
      <path id="Trazado_24277" data-name="Trazado 24277" d="M318.967,32.08a5.413,5.413,0,0,0-4.02,1.718V32.266h-3.9V48.252h3.989V38.616a2.657,2.657,0,0,1,2.577-2.945,2.485,2.485,0,0,1,1.768.631s.2-.255,2.651-3.326c-.119-.086-.239-.166-.36-.237A5.027,5.027,0,0,0,318.967,32.08Z" transform="translate(-271.342 -27.985)"/>
      <path id="Trazado_24278" data-name="Trazado 24278" d="M700.65,108.18h4.795l2.429-3.719-2.4-3.671Z" transform="translate(-611.206 -87.923)"/>
      <path id="Trazado_24279" data-name="Trazado 24279" d="M720.146,0h-4.795l-5.5,8.419-2.725-4.176H702.33l7.517,11.519Z" transform="translate(-612.671)"/>
      <path id="Trazado_24280" data-name="Trazado 24280" d="M765.21,104.5l2.423,3.714h4.795l-4.819-7.385Z" transform="translate(-667.524 -87.958)"/>
    </g>
    <text id="Bajo_licencia_de" data-name="Bajo licencia de" transform="translate(1492 1034)" fill="#464750" font-size="10" font-family="SegoeUI-Light, Segoe UI" font-weight="300"><tspan x="-32.271" y="0">Bajo licencia de</tspan></text>
  </g>
</svg>
